<svg width="40" height="40" viewBox="0 0 40 40" fill="none" xmlns="http://www.w3.org/2000/svg">
<g clip-path="url(#clip0_912_24633)">
<path d="M35.875 32.0312C35.4688 32.0312 35.0938 32.2187 34.8438 32.5312L30.3438 30.9375C30.375 30.8125 30.4063 30.6562 30.4063 30.5312C30.4063 29.7812 29.7813 29.1562 29.0313 29.1562C28.2813 29.1562 27.6562 29.7812 27.6562 30.5312C27.6562 31.2812 28.2813 31.9062 29.0313 31.9062C29.4688 31.9062 29.8438 31.6875 30.0938 31.375L34.5938 32.9687C34.5313 33.125 34.5 33.2812 34.5 33.4375C34.5 33.6875 34.5625 33.9375 34.6875 34.125L32.5 35.5312C32.25 35.25 31.9063 35.0937 31.5 35.0937C30.75 35.0937 30.125 35.7187 30.125 36.4687C30.125 37.2187 30.75 37.8437 31.5 37.8437C32.25 37.8437 32.875 37.2187 32.875 36.4687C32.875 36.2812 32.8438 36.0937 32.7813 35.9375L35.0313 34.5C35.2813 34.6875 35.5625 34.8125 35.9063 34.8125C36.6563 34.8125 37.2813 34.1875 37.2813 33.4375C37.25 32.6562 36.625 32.0312 35.875 32.0312ZM29.0313 31.4062C28.5313 31.4062 28.125 31 28.125 30.5C28.125 30 28.5313 29.5937 29.0313 29.5937C29.5313 29.5937 29.9375 30 29.9375 30.5C29.9375 31 29.5313 31.4062 29.0313 31.4062ZM31.5313 37.3125C31.0313 37.3125 30.625 36.9062 30.625 36.4062C30.625 35.9062 31.0313 35.5 31.5313 35.5C32.0313 35.5 32.4375 35.9062 32.4375 36.4062C32.4063 36.9062 32 37.3125 31.5313 37.3125ZM35.875 34.3125C35.375 34.3125 34.9688 33.9062 34.9688 33.4062C34.9688 32.9062 35.375 32.5 35.875 32.5C36.375 32.5 36.7813 32.9062 36.7813 33.4062C36.7813 33.9062 36.375 34.3125 35.875 34.3125Z" fill="#111827" stroke="#111827" stroke-width="0.5"/>
<path d="M4.84375 13.4688C4.71875 13.4688 4.59375 13.5625 4.59375 13.7188V17.0312C4.59375 17.1562 4.6875 17.2812 4.84375 17.2812C5 17.2812 5.09375 17.1875 5.09375 17.0312V13.6875C5.0625 13.5625 4.96875 13.4688 4.84375 13.4688Z" fill="#111827" stroke="#111827" stroke-width="0.5"/>
<path d="M4.59375 19.1875C4.59375 19.3125 4.6875 19.4375 4.84375 19.4375C5 19.4375 5.09375 19.3438 5.09375 19.1875V18.125C5.09375 18 5 17.875 4.84375 17.875C4.6875 17.875 4.59375 17.9687 4.59375 18.125V19.1875Z" fill="#111827" stroke="#111827" stroke-width="0.5"/>
<path d="M38.375 25.2188C38.25 25.2188 38.125 25.3125 38.125 25.4688V28.75C38.125 28.875 38.2188 29 38.375 29C38.5 29 38.625 28.9063 38.625 28.75V25.4375C38.5937 25.3125 38.5 25.2188 38.375 25.2188Z" fill="#111827" stroke="#111827" stroke-width="0.5"/>
<path d="M38.375 29.625C38.25 29.625 38.125 29.7187 38.125 29.875V30.9375C38.125 31.0625 38.2188 31.1875 38.375 31.1875C38.5 31.1875 38.625 31.0937 38.625 30.9375V29.875C38.5937 29.7187 38.5 29.625 38.375 29.625Z" fill="#111827" stroke="#111827" stroke-width="0.5"/>
<path d="M29.2812 3.9375C29.3125 3.96875 29.375 4 29.4375 4C29.5 4 29.5625 3.96875 29.5937 3.9375C29.6875 3.84375 29.6875 3.6875 29.5937 3.59375L29.0937 3.09375C29 3 28.8437 3 28.75 3.09375C28.6563 3.1875 28.6563 3.34375 28.75 3.4375L29.2812 3.9375Z" fill="#111827" stroke="#111827" stroke-width="0.5"/>
<path d="M30.9375 5.5625C30.9687 5.59375 31.0312 5.625 31.0937 5.625C31.1562 5.625 31.2187 5.59375 31.25 5.5625C31.3437 5.46875 31.3437 5.3125 31.25 5.21875L30.75 4.71875C30.6562 4.625 30.5 4.625 30.4062 4.71875C30.3125 4.8125 30.3125 4.96875 30.4062 5.0625L30.9375 5.5625Z" fill="#111827" stroke="#111827" stroke-width="0.5"/>
<path d="M28.9687 5.625C29.0312 5.625 29.0937 5.59375 29.125 5.5625L29.625 5.0625C29.7188 4.96875 29.7188 4.8125 29.625 4.71875C29.5313 4.625 29.375 4.625 29.2812 4.71875L28.7812 5.21875C28.6875 5.3125 28.6875 5.46875 28.7812 5.5625C28.8437 5.59375 28.9062 5.625 28.9687 5.625Z" fill="#111827" stroke="#111827" stroke-width="0.5"/>
<path d="M30.5937 4C30.6562 4 30.7187 3.96875 30.75 3.9375L31.25 3.4375C31.3437 3.34375 31.3437 3.1875 31.25 3.09375C31.1562 3 31 3 30.9062 3.09375L30.4062 3.59375C30.3125 3.6875 30.3125 3.84375 30.4062 3.9375C30.4687 3.96875 30.5312 4 30.5937 4Z" fill="#111827" stroke="#111827" stroke-width="0.5"/>
<path d="M22.0625 32.1875C21.9688 32.0937 21.8125 32.0937 21.7188 32.1875C21.625 32.2813 21.625 32.4375 21.7188 32.5313L22.2188 33.0313C22.25 33.0625 22.3125 33.0938 22.375 33.0938C22.4375 33.0938 22.5 33.0625 22.5313 33.0313C22.625 32.9375 22.625 32.7813 22.5313 32.6875L22.0625 32.1875Z" fill="#111827" stroke="#111827" stroke-width="0.5"/>
<path d="M23.6875 33.8125C23.5938 33.7187 23.4375 33.7187 23.3438 33.8125C23.25 33.9063 23.25 34.0625 23.3438 34.1563L23.8438 34.6563C23.875 34.6875 23.9375 34.7188 24 34.7188C24.0625 34.7188 24.125 34.6875 24.1563 34.6563C24.25 34.5625 24.25 34.4063 24.1563 34.3125L23.6875 33.8125Z" fill="#111827" stroke="#111827" stroke-width="0.5"/>
<path d="M22.2188 33.8125L21.7188 34.3125C21.625 34.4063 21.625 34.5625 21.7188 34.6563C21.75 34.6875 21.8125 34.7188 21.875 34.7188C21.9375 34.7188 22 34.6875 22.0313 34.6563L22.5313 34.1563C22.625 34.0625 22.625 33.9063 22.5313 33.8125C22.4688 33.7187 22.3125 33.7187 22.2188 33.8125Z" fill="#111827" stroke="#111827" stroke-width="0.5"/>
<path d="M23.875 32.1875L23.375 32.6875C23.2812 32.7813 23.2812 32.9375 23.375 33.0313C23.4063 33.0625 23.4688 33.0938 23.5313 33.0938C23.5938 33.0938 23.6563 33.0625 23.6875 33.0313L24.1875 32.5313C24.2812 32.4375 24.2812 32.2813 24.1875 32.1875C24.0937 32.0937 23.9375 32.0937 23.875 32.1875Z" fill="#111827" stroke="#111827" stroke-width="0.5"/>
<path d="M36.625 13.5937L36.125 13.0938C36.0312 13 35.875 13 35.7813 13.0938C35.6875 13.1875 35.6875 13.3437 35.7813 13.4375L36.2812 13.9375C36.3125 13.9687 36.375 14 36.4375 14C36.5 14 36.5625 13.9687 36.5937 13.9375C36.7187 13.8437 36.7187 13.6875 36.625 13.5937Z" fill="#111827" stroke="#111827" stroke-width="0.5"/>
<path d="M38.25 15.2188L37.75 14.7188C37.6563 14.625 37.5 14.625 37.4063 14.7188C37.3125 14.8125 37.3125 14.9688 37.4063 15.0625L37.9063 15.5625C37.9375 15.5938 38 15.625 38.0625 15.625C38.125 15.625 38.1875 15.5938 38.2188 15.5625C38.3438 15.4688 38.3438 15.3125 38.25 15.2188Z" fill="#111827" stroke="#111827" stroke-width="0.5"/>
<path d="M36.2813 14.7188L35.7813 15.2188C35.6875 15.3125 35.6875 15.4688 35.7813 15.5625C35.8125 15.5938 35.875 15.625 35.9375 15.625C36 15.625 36.0625 15.5938 36.0938 15.5625L36.5938 15.0625C36.6875 14.9688 36.6875 14.8125 36.5938 14.7188C36.5313 14.625 36.375 14.625 36.2813 14.7188Z" fill="#111827" stroke="#111827" stroke-width="0.5"/>
<path d="M37.5938 14C37.6563 14 37.7188 13.9687 37.75 13.9375L38.25 13.4375C38.3438 13.3437 38.3438 13.1875 38.25 13.0938C38.1563 13 38 13 37.9063 13.0938L37.4062 13.5937C37.3125 13.6875 37.3125 13.8437 37.4062 13.9375C37.4687 13.9687 37.5313 14 37.5938 14Z" fill="#111827" stroke="#111827" stroke-width="0.5"/>
<path d="M2.53125 23.375C2.5625 23.4063 2.625 23.4375 2.6875 23.4375C2.75 23.4375 2.8125 23.4063 2.84375 23.375C2.9375 23.2813 2.9375 23.125 2.84375 23.0312L2.34375 22.5312C2.25 22.4375 2.09375 22.4375 2 22.5312C1.90625 22.625 1.90625 22.7812 2 22.875L2.53125 23.375Z" fill="#111827" stroke="#111827" stroke-width="0.5"/>
<path d="M3.65684 24.5L4.15684 25C4.18809 25.0312 4.25059 25.0625 4.31309 25.0625C4.37559 25.0625 4.43809 25.0312 4.46934 25C4.56309 24.9062 4.56309 24.75 4.46934 24.6562L3.96934 24.1562C3.87559 24.0625 3.71934 24.0625 3.62559 24.1562C3.56309 24.2812 3.56309 24.4375 3.65684 24.5Z" fill="#111827" stroke="#111827" stroke-width="0.5"/>
<path d="M2.03125 25.0313C2.0625 25.0625 2.125 25.0938 2.1875 25.0938C2.25 25.0938 2.3125 25.0625 2.34375 25.0313L2.84375 24.5313C2.9375 24.4375 2.9375 24.2813 2.84375 24.1875C2.75 24.0937 2.59375 24.0937 2.5 24.1875L2.03125 24.6875C1.9375 24.7813 1.9375 24.9375 2.03125 25.0313Z" fill="#111827" stroke="#111827" stroke-width="0.5"/>
<path d="M3.8125 23.4688C3.875 23.4688 3.9375 23.4375 3.96875 23.4063L4.46875 22.9063C4.5625 22.8125 4.5625 22.6562 4.46875 22.5625C4.375 22.4688 4.21875 22.4688 4.125 22.5625L3.625 23.0625C3.53125 23.1563 3.53125 23.3125 3.625 23.4063C3.6875 23.4375 3.75 23.4688 3.8125 23.4688Z" fill="#111827" stroke="#111827" stroke-width="0.5"/>
<path d="M24.4375 9.78125C25.125 9.78125 25.6875 9.21875 25.6875 8.53125C25.6875 7.84375 25.125 7.28125 24.4375 7.28125C23.75 7.28125 23.1875 7.84375 23.1875 8.53125C23.1875 9.21875 23.75 9.78125 24.4375 9.78125ZM24.4375 7.71875C24.875 7.71875 25.2188 8.0625 25.2188 8.5C25.2188 8.9375 24.875 9.28125 24.4375 9.28125C24 9.28125 23.6562 8.9375 23.6562 8.5C23.6562 8.09375 24 7.71875 24.4375 7.71875Z" fill="#111827" stroke="#111827" stroke-width="0.5"/>
<path d="M4.40625 33.75C3.71875 33.75 3.15625 34.3125 3.15625 35C3.15625 35.6875 3.71875 36.25 4.40625 36.25C5.09375 36.25 5.65625 35.6875 5.65625 35C5.65625 34.3125 5.09375 33.75 4.40625 33.75ZM4.40625 35.7812C3.96875 35.7812 3.625 35.4375 3.625 35C3.625 34.5625 3.96875 34.2188 4.40625 34.2188C4.84375 34.2188 5.1875 34.5625 5.1875 35C5.1875 35.4375 4.84375 35.7812 4.40625 35.7812Z" fill="#111827" stroke="#111827" stroke-width="0.5"/>
<path d="M12.75 4.90625C12.75 5.03125 12.8437 5.15625 13 5.15625H17.8125C17.9375 5.15625 18.0625 5.0625 18.0625 4.90625C18.0625 4.75 17.9375 4.6875 17.8125 4.6875H13C12.8437 4.6875 12.75 4.78125 12.75 4.90625Z" fill="#111827" stroke="#111827" stroke-width="0.5"/>
<path d="M9.84375 5.15625H11.4062C11.5312 5.15625 11.6562 5.0625 11.6562 4.90625C11.6562 4.75 11.5312 4.6875 11.4062 4.6875H9.84375C9.71875 4.6875 9.59375 4.78125 9.59375 4.9375C9.59375 5.09375 9.71875 5.15625 9.84375 5.15625Z" fill="#111827" stroke="#111827" stroke-width="0.5"/>
<path d="M9.84375 3.5H13.2188C13.3438 3.5 13.4688 3.40625 13.4688 3.25C13.4688 3.09375 13.375 3 13.2188 3H9.84375C9.71875 3 9.59375 3.09375 9.59375 3.25C9.59375 3.40625 9.71875 3.5 9.84375 3.5Z" fill="#111827" stroke="#111827" stroke-width="0.5"/>
<path d="M14.6563 3.5H15.75C15.875 3.5 16 3.40625 16 3.25C16 3.09375 15.9063 3 15.75 3H14.6563C14.5313 3 14.4062 3.09375 14.4062 3.25C14.4062 3.40625 14.5313 3.5 14.6563 3.5Z" fill="#111827" stroke="#111827" stroke-width="0.5"/>
<path d="M8.375 30.5312H3.53125C3.40625 30.5312 3.28125 30.625 3.28125 30.7813C3.28125 30.9063 3.375 31.0313 3.53125 31.0313H8.375C8.5 31.0313 8.625 30.9375 8.625 30.7813C8.625 30.625 8.5 30.5312 8.375 30.5312Z" fill="#111827" stroke="#111827" stroke-width="0.5"/>
<path d="M1.96875 30.5312H0.40625C0.28125 30.5312 0.15625 30.625 0.15625 30.7813C0.15625 30.9063 0.25 31.0313 0.40625 31.0313H1.96875C2.09375 31.0313 2.21875 30.9375 2.21875 30.7813C2.1875 30.625 2.09375 30.5312 1.96875 30.5312Z" fill="#111827" stroke="#111827" stroke-width="0.5"/>
<path d="M0.15625 29.0937C0.15625 29.2187 0.25 29.3437 0.40625 29.3437H3.75C3.875 29.3437 4 29.25 4 29.0937C4 28.9687 3.90625 28.8438 3.75 28.8438H0.40625C0.25 28.8438 0.15625 28.9687 0.15625 29.0937Z" fill="#111827" stroke="#111827" stroke-width="0.5"/>
<path d="M4.96875 29.0937C4.96875 29.2188 5.0625 29.3438 5.21875 29.3438H6.3125C6.4375 29.3438 6.5625 29.25 6.5625 29.0937C6.5625 28.9687 6.46875 28.8438 6.3125 28.8438H5.21875C5.09375 28.8438 4.96875 28.9687 4.96875 29.0937Z" fill="#111827" stroke="#111827" stroke-width="0.5"/>
<path d="M16.1878 32.5C16.0628 32.4688 15.9066 32.4063 15.7816 32.375C15.6566 32.3438 15.5316 32.4063 15.4691 32.5313C15.4378 32.6563 15.5003 32.7813 15.6253 32.8438C15.7816 32.9063 15.9066 32.9375 16.0628 32.9688C16.8753 33.2188 17.2816 33.3438 17.2503 34L17.1253 35.875H12.2816L12.1566 34C12.1253 33.3438 12.5316 33.1875 13.3441 32.9688C13.5003 32.9375 13.6253 32.875 13.7816 32.8438C13.9066 32.8125 13.9691 32.6563 13.9378 32.5313C13.9066 32.4063 13.7503 32.3438 13.6253 32.375C13.5003 32.4063 13.3441 32.4688 13.2191 32.5C12.4691 32.7188 11.6253 32.9688 11.7191 34L11.8441 36.0938C11.8441 36.2188 11.9691 36.3125 12.0941 36.3125H17.3753C17.5003 36.3125 17.5941 36.2188 17.6253 36.0938L17.7503 34C17.7816 32.9688 16.9378 32.7188 16.1878 32.5Z" fill="#111827" stroke="#111827" stroke-width="0.5"/>
<path d="M14.6875 31.8125C15.6563 31.8125 16.4688 30.9688 16.4688 29.9375C16.4688 28.9062 15.6875 28.0625 14.6875 28.0625C13.6875 28.0625 12.9062 28.9062 12.9062 29.9375C12.9062 30.9688 13.7188 31.8125 14.6875 31.8125ZM14.6875 28.5C15.4063 28.5 16 29.125 16 29.9062C16 30.6875 15.4063 31.3125 14.6875 31.3125C13.9688 31.3125 13.375 30.6875 13.375 29.9062C13.375 29.1562 13.9688 28.5 14.6875 28.5Z" fill="#111827" stroke="#111827" stroke-width="0.5"/>
<path d="M38.3128 6.65622C38.1878 6.62497 38.0316 6.56247 37.9066 6.53122C37.7816 6.49997 37.6566 6.56247 37.5941 6.68747C37.5628 6.81247 37.6253 6.93747 37.7503 6.99997C37.9066 7.06247 38.0316 7.09372 38.1878 7.12497C39.0003 7.37497 39.4066 7.49997 39.3753 8.15622L39.2503 10.0312H34.4066L34.2816 8.15622C34.2503 7.49997 34.6566 7.34372 35.4691 7.12497C35.6253 7.09372 35.7503 7.03122 35.9066 6.99997C36.0316 6.96872 36.0941 6.81247 36.0628 6.68747C36.0316 6.56247 35.8753 6.49997 35.7503 6.53122C35.6253 6.56247 35.4691 6.62497 35.3441 6.65622C34.5941 6.87497 33.7503 7.12497 33.8441 8.15622L33.9691 10.125L29.5316 13.375C28.7816 12.4687 27.6253 11.9062 26.3753 11.9062C24.7816 11.9062 23.4066 12.8125 22.6878 14.125C22.5316 12.6562 22.0316 11.4375 21.1878 10.5C20.1253 9.31247 18.5003 8.62497 16.7503 8.62497C14.0628 8.62497 11.8128 10.4062 11.0941 12.875L6.12533 10.1562L6.25033 8.18747C6.31283 7.12497 5.46908 6.87497 4.75033 6.68747C4.62533 6.65622 4.46908 6.59372 4.34408 6.56247C4.21908 6.53122 4.09408 6.59372 4.03158 6.71872C4.00033 6.84372 4.06283 6.96872 4.18783 7.03122C4.34408 7.09372 4.46908 7.12497 4.62533 7.15622C5.43783 7.40622 5.84408 7.53122 5.81283 8.18747L5.68783 10.0625H0.81283L0.68783 8.18747C0.62533 7.49997 1.06283 7.34372 1.84408 7.12497C2.00033 7.09372 2.12533 7.03122 2.28158 6.99997C2.40658 6.96872 2.46908 6.81247 2.43783 6.68747C2.40658 6.56247 2.25033 6.49997 2.12533 6.53122C2.00033 6.56247 1.84408 6.62497 1.71908 6.65622C0.96908 6.87497 0.12533 7.12497 0.21908 8.15622L0.34408 10.25C0.34408 10.375 0.46908 10.4687 0.59408 10.4687H5.81283L10.9691 13.2812C10.8753 13.6562 10.8441 14.0625 10.8441 14.5C10.8441 15.4062 11.0628 16.3125 11.4691 17.125C9.25033 17.5312 7.62533 19.4375 7.62533 21.75C7.62533 24.3437 9.71908 26.4375 12.3128 26.4375H17.5628C17.6878 26.4375 17.8128 26.3437 17.8128 26.1875C17.8128 26.0625 17.7191 25.9375 17.5628 25.9375H12.3128C10.0003 25.9375 8.09408 24.0625 8.09408 21.7187C8.09408 19.5625 9.71908 17.75 11.8441 17.5312C11.9378 17.5312 12.0003 17.4687 12.0316 17.4062C12.0628 17.3437 12.0628 17.25 12.0316 17.1875C11.5628 16.375 11.3128 15.4375 11.3128 14.5C11.3128 11.5 13.7503 9.06247 16.7503 9.06247C18.3753 9.06247 19.8441 9.68747 20.8441 10.7812C21.8753 11.9375 22.3441 13.5937 22.2503 15.5625C22.2191 15.7187 22.2191 15.9062 22.2191 16.0625V16.0937V16.125C22.2191 16.125 22.2191 16.1562 22.2503 16.1562C22.2503 16.1562 22.2503 16.1875 22.2816 16.1875L22.3128 16.2187L22.3441 16.25H22.3753H22.4066H22.4378H22.4691C22.5003 16.25 22.5003 16.25 22.5003 16.2187C22.5003 16.2187 22.5316 16.2187 22.5316 16.1875L22.5628 16.1562L22.5941 16.125V16.0937V16.0625C22.6253 15.875 22.6253 15.6875 22.6253 15.5C22.8753 13.7187 24.4066 12.3437 26.2816 12.3437C28.3128 12.3437 29.9691 14 29.9691 16.0312C29.9691 16.4375 29.9066 16.8125 29.7816 17.1875C29.7503 17.25 29.7816 17.3437 29.8128 17.4062C29.8441 17.4687 29.9378 17.5 30.0003 17.5H32.4691C34.7816 17.5 36.6878 19.375 36.6878 21.7187C36.6878 24.0312 34.8128 25.9375 32.4691 25.9375H21.7191C21.5941 25.9375 21.4691 26.0312 21.4691 26.1875V29.125H17.8753C17.7503 29.125 17.6253 29.2187 17.6253 29.375C17.6253 29.5 17.7191 29.625 17.8753 29.625H21.7191C21.8441 29.625 21.9691 29.5312 21.9691 29.375V26.4375H32.5941C35.1878 26.4375 37.2816 24.3437 37.2816 21.75C37.2816 19.1562 35.1878 17.0625 32.5941 17.0625H30.4378C30.5316 16.75 30.5628 16.4062 30.5628 16.0625C30.5628 15.1875 30.3128 14.4062 29.8441 13.7187L34.2816 10.4687H39.5003C39.6253 10.4687 39.7191 10.375 39.7503 10.25L39.8753 8.15622C39.9066 7.12497 39.0628 6.87497 38.3128 6.65622Z" fill="#111827" stroke="#111827" stroke-width="0.5"/>
<path d="M36.8125 5.96875C37.7813 5.96875 38.5938 5.125 38.5938 4.09375C38.5938 3.0625 37.8125 2.21875 36.8125 2.21875C35.8125 2.21875 35.0312 3.0625 35.0312 4.09375C35.0625 5.125 35.8438 5.96875 36.8125 5.96875ZM36.8125 2.6875C37.5313 2.6875 38.125 3.3125 38.125 4.09375C38.125 4.875 37.5313 5.5 36.8125 5.5C36.0938 5.5 35.5 4.875 35.5 4.09375C35.5312 3.3125 36.0938 2.6875 36.8125 2.6875Z" fill="#111827" stroke="#111827" stroke-width="0.5"/>
<path d="M3.21875 5.96875C4.1875 5.96875 5 5.125 5 4.09375C5 3.0625 4.21875 2.21875 3.21875 2.21875C2.21875 2.21875 1.4375 3.0625 1.4375 4.09375C1.4375 5.125 2.25 5.96875 3.21875 5.96875ZM3.21875 2.6875C3.9375 2.6875 4.53125 3.3125 4.53125 4.09375C4.53125 4.875 3.9375 5.5 3.21875 5.5C2.5 5.5 1.90625 4.875 1.90625 4.09375C1.9375 3.3125 2.5 2.6875 3.21875 2.6875Z" fill="#111827" stroke="#111827" stroke-width="0.5"/>
</g>
<defs>
<clipPath id="clip0_912_24633">
<rect width="40" height="40" fill="white"/>
</clipPath>
</defs>
</svg>
