<svg width="40" height="40" viewBox="0 0 40 40" fill="none" xmlns="http://www.w3.org/2000/svg">
<g clip-path="url(#clip0_912_24724)">
<path d="M1 7.8125C1.125 7.8125 1.25 7.71875 1.25 7.5625V3.875C1.25 3.75 1.15625 3.625 1 3.625C0.875 3.625 0.75 3.71875 0.75 3.875V7.59375C0.75 7.71875 0.875 7.8125 1 7.8125Z" fill="#050606" stroke="#050606" stroke-width="0.4"/>
<path d="M1.21875 10V8.8125C1.21875 8.6875 1.125 8.5625 0.96875 8.5625C0.84375 8.5625 0.71875 8.65625 0.71875 8.8125V10C0.71875 10.125 0.8125 10.25 0.96875 10.25C1.125 10.2187 1.21875 10.125 1.21875 10Z" fill="#050606" stroke="#050606" stroke-width="0.4"/>
<path d="M34.3125 27.375C34.3125 27.25 34.2188 27.125 34.0625 27.125C33.9375 27.125 33.8125 27.2187 33.8125 27.375V31.0937C33.8125 31.2187 33.9063 31.3437 34.0625 31.3437C34.1875 31.3437 34.3125 31.25 34.3125 31.0937V27.375Z" fill="#050606" stroke="#050606" stroke-width="0.4"/>
<path d="M34.0937 32.0625C33.9687 32.0625 33.8438 32.1563 33.8438 32.3125V33.5C33.8438 33.625 33.9375 33.75 34.0937 33.75C34.2187 33.75 34.3437 33.6563 34.3437 33.5V32.3125C34.3125 32.1563 34.2187 32.0625 34.0937 32.0625Z" fill="#050606" stroke="#050606" stroke-width="0.4"/>
<path d="M37.2812 7.28125L36.7812 6.78125C36.6875 6.6875 36.5312 6.6875 36.4375 6.78125C36.3438 6.875 36.3438 7.03125 36.4375 7.125L36.9375 7.625C36.9687 7.65625 37.0312 7.6875 37.0937 7.6875C37.1562 7.6875 37.2187 7.65625 37.25 7.625C37.375 7.5 37.375 7.375 37.2812 7.28125Z" fill="#050606" stroke="#050606" stroke-width="0.4"/>
<path d="M38.4375 8.40625C38.3437 8.3125 38.1875 8.3125 38.0938 8.40625C38 8.5 38 8.65625 38.0938 8.75L38.5937 9.25C38.625 9.28125 38.6875 9.3125 38.75 9.3125C38.8125 9.3125 38.875 9.28125 38.9062 9.25C39 9.15625 39 9 38.9062 8.90625L38.4375 8.40625Z" fill="#050606" stroke="#050606" stroke-width="0.4"/>
<path d="M36.9688 8.40625L36.4687 8.90625C36.375 9 36.375 9.15625 36.4687 9.25C36.5 9.28125 36.5625 9.3125 36.625 9.3125C36.6875 9.3125 36.75 9.28125 36.7812 9.25L37.2813 8.75C37.375 8.65625 37.375 8.5 37.2813 8.40625C37.1875 8.3125 37.0625 8.3125 36.9688 8.40625Z" fill="#050606" stroke="#050606" stroke-width="0.4"/>
<path d="M38.9375 6.78125C38.8437 6.6875 38.6875 6.6875 38.5937 6.78125L38.0938 7.28125C38 7.375 38 7.53125 38.0938 7.625C38.125 7.65625 38.1875 7.6875 38.25 7.6875C38.3125 7.6875 38.375 7.65625 38.4063 7.625L38.9062 7.125C39.0312 7 39.0312 6.84375 38.9375 6.78125Z" fill="#050606" stroke="#050606" stroke-width="0.4"/>
<path d="M23.0625 36.5937C22.9688 36.5 22.8125 36.5 22.7188 36.5937C22.625 36.6875 22.625 36.8437 22.7188 36.9375L23.2188 37.4375C23.25 37.4688 23.3125 37.5 23.375 37.5C23.4375 37.5 23.5 37.4688 23.5313 37.4375C23.625 37.3438 23.625 37.1875 23.5313 37.0937L23.0625 36.5937Z" fill="#050606" stroke="#050606" stroke-width="0.4"/>
<path d="M24.6875 38.2187C24.5937 38.125 24.4375 38.125 24.3438 38.2187C24.25 38.3125 24.25 38.4687 24.3438 38.5625L24.8437 39.0625C24.875 39.0937 24.9375 39.125 25 39.125C25.0625 39.125 25.125 39.0937 25.1562 39.0625C25.25 38.9687 25.25 38.8125 25.1562 38.7187L24.6875 38.2187Z" fill="#050606" stroke="#050606" stroke-width="0.4"/>
<path d="M23.2188 38.2187L22.7188 38.7187C22.625 38.8125 22.625 38.9687 22.7188 39.0625C22.75 39.0937 22.8125 39.125 22.875 39.125C22.9375 39.125 23 39.0937 23.0313 39.0625L23.5313 38.5625C23.625 38.4687 23.625 38.3125 23.5313 38.2187C23.4688 38.1563 23.3125 38.1563 23.2188 38.2187Z" fill="#050606" stroke="#050606" stroke-width="0.4"/>
<path d="M24.875 36.5937L24.375 37.0937C24.2812 37.1875 24.2812 37.3438 24.375 37.4375C24.4063 37.4688 24.4688 37.5 24.5313 37.5C24.5938 37.5 24.6563 37.4688 24.6875 37.4375L25.1875 36.9375C25.2813 36.8437 25.2813 36.6875 25.1875 36.5937C25.125 36.5 24.9688 36.5 24.875 36.5937Z" fill="#050606" stroke="#050606" stroke-width="0.4"/>
<path d="M4.71875 1.28125C4.75 1.3125 4.8125 1.34375 4.875 1.34375C4.9375 1.34375 5 1.3125 5.03125 1.28125C5.125 1.1875 5.125 1.03125 5.03125 0.9375L4.53125 0.4375C4.4375 0.34375 4.28125 0.34375 4.1875 0.4375C4.09375 0.53125 4.09375 0.6875 4.1875 0.78125L4.71875 1.28125Z" fill="#050606" stroke="#050606" stroke-width="0.4"/>
<path d="M6.34375 2.9375C6.375 2.96875 6.4375 3 6.5 3C6.5625 3 6.625 2.96875 6.65625 2.9375C6.75 2.84375 6.75 2.6875 6.65625 2.59375L6.15625 2.09375C6.0625 2 5.90625 2 5.8125 2.09375C5.71875 2.1875 5.71875 2.34375 5.8125 2.4375L6.34375 2.9375Z" fill="#050606" stroke="#050606" stroke-width="0.4"/>
<path d="M4.375 3C4.4375 3 4.5 2.96875 4.53125 2.9375L5.03125 2.4375C5.125 2.34375 5.125 2.1875 5.03125 2.09375C4.9375 2 4.78125 2 4.6875 2.09375L4.1875 2.59375C4.09375 2.6875 4.09375 2.84375 4.1875 2.9375C4.25 2.96875 4.3125 3 4.375 3Z" fill="#050606" stroke="#050606" stroke-width="0.4"/>
<path d="M6.03125 1.34375C6.09375 1.34375 6.15625 1.3125 6.1875 1.28125L6.6875 0.78125C6.78125 0.6875 6.78125 0.53125 6.6875 0.4375C6.59375 0.34375 6.4375 0.34375 6.34375 0.4375L5.84375 0.9375C5.75 1.03125 5.75 1.1875 5.84375 1.28125C5.90625 1.3125 5.96875 1.34375 6.03125 1.34375Z" fill="#050606" stroke="#050606" stroke-width="0.4"/>
<path d="M36.875 22.9688C37.4688 22.9688 37.9688 22.4688 37.9688 21.875C37.9688 21.2812 37.4688 20.7812 36.875 20.7812C36.2812 20.7812 35.7812 21.2812 35.7812 21.875C35.7812 22.4688 36.25 22.9688 36.875 22.9688ZM36.875 21.25C37.2188 21.25 37.5 21.5312 37.5 21.875C37.5 22.2188 37.2188 22.5 36.875 22.5C36.5312 22.5 36.25 22.2188 36.25 21.875C36.25 21.5312 36.5312 21.25 36.875 21.25Z" fill="#050606" stroke="#050606" stroke-width="0.4"/>
<path d="M2.25 30.1875C1.65625 30.1875 1.15625 30.6875 1.15625 31.2812C1.15625 31.875 1.65625 32.375 2.25 32.375C2.84375 32.375 3.34375 31.875 3.34375 31.2812C3.34375 30.6875 2.875 30.1875 2.25 30.1875ZM2.25 31.9062C1.90625 31.9062 1.625 31.625 1.625 31.2812C1.625 30.9375 1.90625 30.6562 2.25 30.6562C2.59375 30.6562 2.875 30.9375 2.875 31.2812C2.875 31.625 2.59375 31.9062 2.25 31.9062Z" fill="#050606" stroke="#050606" stroke-width="0.4"/>
<path d="M32.375 1.34375H36.375C36.5 1.34375 36.625 1.25 36.625 1.09375C36.625 0.9375 36.5312 0.84375 36.375 0.84375H32.375C32.25 0.84375 32.125 0.9375 32.125 1.09375C32.125 1.25 32.25 1.34375 32.375 1.34375Z" fill="#050606" stroke="#050606" stroke-width="0.4"/>
<path d="M37.6875 1.34375H39C39.125 1.34375 39.25 1.25 39.25 1.09375C39.25 0.9375 39.1563 0.84375 39 0.84375H37.6875C37.5625 0.84375 37.4375 0.9375 37.4375 1.09375C37.4375 1.25 37.5625 1.34375 37.6875 1.34375Z" fill="#050606" stroke="#050606" stroke-width="0.4"/>
<path d="M39.2188 2.5C39.2188 2.375 39.125 2.25 38.9687 2.25H36.1875C36.0625 2.25 35.9375 2.34375 35.9375 2.5C35.9375 2.625 36.0313 2.75 36.1875 2.75H38.9687C39.125 2.71875 39.2188 2.625 39.2188 2.5Z" fill="#050606" stroke="#050606" stroke-width="0.4"/>
<path d="M35.2188 2.5C35.2188 2.375 35.125 2.25 34.9688 2.25H34.0625C33.9375 2.25 33.8125 2.34375 33.8125 2.5C33.8125 2.625 33.9063 2.75 34.0625 2.75H34.9688C35.125 2.71875 35.2188 2.625 35.2188 2.5Z" fill="#050606" stroke="#050606" stroke-width="0.4"/>
<path d="M13.1562 38.2812H9.125C9 38.2812 8.875 38.375 8.875 38.5313C8.875 38.6563 8.96875 38.7812 9.125 38.7812H13.125C13.25 38.7812 13.375 38.6875 13.375 38.5313C13.375 38.375 13.2812 38.2812 13.1562 38.2812Z" fill="#050606" stroke="#050606" stroke-width="0.4"/>
<path d="M7.8125 38.2812H6.5C6.375 38.2812 6.25 38.375 6.25 38.5313C6.25 38.6563 6.34375 38.7812 6.5 38.7812H7.8125C7.9375 38.7812 8.0625 38.6875 8.0625 38.5313C8.0625 38.375 7.9375 38.2812 7.8125 38.2812Z" fill="#050606" stroke="#050606" stroke-width="0.4"/>
<path d="M6.53125 37.375H9.3125C9.4375 37.375 9.5625 37.2813 9.5625 37.125C9.5625 37 9.46875 36.875 9.3125 36.875H6.53125C6.40625 36.875 6.28125 36.9688 6.28125 37.125C6.28125 37.2813 6.40625 37.375 6.53125 37.375Z" fill="#050606" stroke="#050606" stroke-width="0.4"/>
<path d="M11.4385 37.375C11.5635 37.375 11.6885 37.2813 11.6885 37.125C11.6885 37 11.5947 36.875 11.4385 36.875H10.5322C10.4072 36.875 10.2822 36.9688 10.2822 37.125C10.2822 37.25 10.376 37.375 10.5322 37.375H11.4385Z" fill="#050606" stroke="#050606" stroke-width="0.4"/>
<path d="M36.625 38.2188C36.625 38.0938 36.5312 37.9688 36.375 37.9688H32.375C32.25 37.9688 32.125 38.0625 32.125 38.2188C32.125 38.3438 32.2187 38.4688 32.375 38.4688H36.375C36.5312 38.4688 36.625 38.375 36.625 38.2188Z" fill="#050606" stroke="#050606" stroke-width="0.4"/>
<path d="M37.7187 38.4688H39.0313C39.1563 38.4688 39.2812 38.375 39.2812 38.2188C39.2812 38.0938 39.1875 37.9688 39.0313 37.9688H37.7187C37.5937 37.9688 37.4688 38.0625 37.4688 38.2188C37.4688 38.375 37.5625 38.4688 37.7187 38.4688Z" fill="#050606" stroke="#050606" stroke-width="0.4"/>
<path d="M39 39.375H36.2188C36.0938 39.375 35.9688 39.4688 35.9688 39.625C35.9688 39.7812 36.0625 39.875 36.2188 39.875H39C39.125 39.875 39.25 39.7812 39.25 39.625C39.25 39.4688 39.125 39.375 39 39.375Z" fill="#050606" stroke="#050606" stroke-width="0.4"/>
<path d="M35 39.375H34.0937C33.9687 39.375 33.8438 39.4688 33.8438 39.625C33.8438 39.7812 33.9375 39.875 34.0937 39.875H35C35.125 39.875 35.25 39.7812 35.25 39.625C35.25 39.4688 35.125 39.375 35 39.375Z" fill="#050606" stroke="#050606" stroke-width="0.4"/>
<path d="M33.125 11.1875C33.0938 11.125 33.0625 11.0938 33 11.0625C32.9375 11.0312 32.875 11.0312 32.8125 11.0625L18.375 17.1875C18.2813 17.2188 18.2188 17.3125 18.2188 17.4063C18.2188 17.5 18.2813 17.5938 18.375 17.625L32.9063 23.5C32.9375 23.5 32.9688 23.5313 33 23.5313C33.0938 23.5313 33.1875 23.4688 33.2188 23.375C34.875 19.3125 34.8438 15.2187 33.125 11.1875ZM32.9063 22.9688L19.0937 17.4063L32.7813 11.5937C34.3438 15.3437 34.375 19.1875 32.9063 22.9688Z" fill="#050606" stroke="#050606" stroke-width="0.4"/>
<path d="M18.4063 16.3125C18.4375 16.3125 18.4688 16.3125 18.5 16.2812L32.9375 10.1562C33 10.125 33.0312 10.0938 33.0625 10.0312C33.0937 9.96875 33.0937 9.90625 33.0625 9.84375C30.4687 3.78125 25 0.15625 18.4063 0.15625C18.2813 0.15625 18.1562 0.25 18.1562 0.40625V16.0938C18.1562 16.1875 18.1875 16.25 18.25 16.2812C18.3125 16.3125 18.375 16.3125 18.4063 16.3125ZM18.6563 0.625C24.875 0.71875 30.0312 4.125 32.5625 9.8125L18.6563 15.7188V0.625Z" fill="#050606" stroke="#050606" stroke-width="0.4"/>
<path d="M31.7191 23.8437L17.3129 18.0312V2.5C17.3129 2.375 17.2191 2.25 17.0629 2.25C14.8441 2.25 12.8754 2.65625 10.8441 3.53125C4.40663 6.28125 0.68788 12.8125 1.21913 19.4687C1.21913 19.5312 1.21913 19.5625 1.21913 19.625C1.37538 21.2187 1.75038 22.8437 2.40663 24.4062C4.12538 28.4375 7.03163 31.3125 11.0941 32.9375C12.7816 33.625 14.5316 34 16.3129 34.0937C16.3441 34.0937 16.3441 34.0937 16.3754 34.0937C16.5941 34.0937 16.8441 34.0937 17.0629 34.0937C19.9691 34.0937 22.8129 33.3125 25.3129 31.7812C25.3441 31.7812 25.3441 31.75 25.3754 31.7187C28.2816 29.9375 30.5316 27.3125 31.8129 24.125C31.8441 24.0625 31.8441 24 31.8129 23.9375C31.8129 23.9062 31.7816 23.8437 31.7191 23.8437ZM2.18788 22.2812L4.00038 23.5L2.78163 24.0312C2.53163 23.4375 2.34413 22.8437 2.18788 22.2812ZM2.12538 14.375L11.2191 20.4062L9.93788 20.9375L1.84413 15.5937C1.93788 15.1875 2.00038 14.7812 2.12538 14.375ZM2.62538 12.75L13.0004 19.625L11.7191 20.1562L2.25038 13.9062C2.34413 13.5312 2.46913 13.125 2.62538 12.75ZM3.28163 11.25C4.31288 11.9062 5.37538 12.5937 6.40663 13.2187C9.21913 15 12.1566 16.8125 14.8441 18.8437L13.5004 19.4062L2.78163 12.3125C2.93788 11.9375 3.09413 11.5937 3.28163 11.25ZM4.09413 9.8125L16.5941 18.125L15.3754 18.6562C12.5941 16.5312 9.59413 14.6562 6.68788 12.8437C5.65663 12.1875 4.56288 11.5312 3.53163 10.8437C3.68788 10.5 3.87538 10.1562 4.09413 9.8125ZM5.03163 8.5L16.8441 16.3437V17.75L4.34413 9.4375C4.56288 9.125 4.81288 8.8125 5.03163 8.5ZM10.5629 4.3125L16.8441 8.5V9.90625L9.25038 4.84375C9.65663 4.625 10.0316 4.40625 10.4691 4.1875C10.5004 4.25 10.5004 4.3125 10.5629 4.3125ZM14.4691 3L16.8441 4.5625V5.96875L12.8441 3.3125C13.3754 3.15625 13.8754 3.03125 14.4379 2.9375C14.4379 2.96875 14.4379 3 14.4691 3ZM8.84413 5.15625L16.8441 10.4687V11.875L7.78163 5.84375C8.12538 5.59375 8.46913 5.34375 8.84413 5.15625C8.81288 5.125 8.84413 5.125 8.84413 5.15625ZM7.43788 6.15625L16.8754 12.4062V13.8125L6.53163 6.9375C6.78163 6.65625 7.09413 6.40625 7.43788 6.15625C7.40663 6.15625 7.40663 6.15625 7.43788 6.15625ZM9.40663 21.1875L8.12538 21.75L8.09413 21.7187L1.65663 17.4375C1.68788 17 1.71913 16.5625 1.78163 16.125L9.40663 21.1875ZM6.28163 22.4687L1.68788 19.4062C1.65663 18.9375 1.62538 18.4687 1.62538 17.9687L7.59413 21.9375L6.31288 22.5C6.28163 22.4687 6.28163 22.4687 6.28163 22.4687ZM5.81288 22.7187L4.53163 23.25L2.12538 21.6562C2.09413 21.625 2.06288 21.625 2.03163 21.625C1.90663 21.0937 1.81288 20.5625 1.75038 20.0312L5.81288 22.7187ZM16.8441 4.03125L15.0941 2.875C15.6566 2.8125 16.2504 2.75 16.8441 2.75V4.03125ZM12.3754 3.4375C12.3754 3.5 12.4066 3.59375 12.4691 3.625L16.8441 6.53125V7.9375L10.9379 4C10.9691 3.96875 11.0004 3.96875 11.0629 3.9375C11.5004 3.75 11.9379 3.59375 12.3754 3.4375ZM6.15663 7.28125L16.8441 14.375V15.7812L5.34413 8.125C5.59413 7.84375 5.87538 7.5625 6.15663 7.28125ZM25.1566 31.3437C25.1254 31.3437 25.1254 31.375 25.0941 31.4062C22.5004 32.9687 19.5316 33.75 16.4691 33.625C16.4379 33.625 16.4379 33.625 16.4066 33.625C14.6566 33.5625 12.9379 33.1875 11.2816 32.5C7.43788 30.9375 4.62538 28.2187 2.93788 24.4375L7.53163 22.5L17.0629 18.4375L31.2816 24.1875C30.0629 27.1875 27.9379 29.6562 25.1566 31.3437Z" fill="#050606"/>
<path d="M8.84413 5.15625L16.8441 10.4687V11.875L7.78163 5.84375C8.12538 5.59375 8.46913 5.34375 8.84413 5.15625ZM8.84413 5.15625C8.81288 5.125 8.84413 5.125 8.84413 5.15625ZM7.43788 6.15625L16.8754 12.4062V13.8125L6.53163 6.9375C6.78163 6.65625 7.09413 6.40625 7.43788 6.15625ZM7.43788 6.15625C7.40663 6.15625 7.40663 6.15625 7.43788 6.15625ZM31.7191 23.8437L17.3129 18.0312V2.5C17.3129 2.375 17.2191 2.25 17.0629 2.25C14.8441 2.25 12.8754 2.65625 10.8441 3.53125C4.40663 6.28125 0.68788 12.8125 1.21913 19.4687C1.21913 19.5312 1.21913 19.5625 1.21913 19.625C1.37538 21.2187 1.75038 22.8437 2.40663 24.4062C4.12538 28.4375 7.03163 31.3125 11.0941 32.9375C12.7816 33.625 14.5316 34 16.3129 34.0937C16.3441 34.0937 16.3441 34.0937 16.3754 34.0937C16.5941 34.0937 16.8441 34.0937 17.0629 34.0937C19.9691 34.0937 22.8129 33.3125 25.3129 31.7812C25.3441 31.7812 25.3441 31.75 25.3754 31.7187C28.2816 29.9375 30.5316 27.3125 31.8129 24.125C31.8441 24.0625 31.8441 24 31.8129 23.9375C31.8129 23.9062 31.7816 23.8437 31.7191 23.8437ZM2.18788 22.2812L4.00038 23.5L2.78163 24.0312C2.53163 23.4375 2.34413 22.8437 2.18788 22.2812ZM2.12538 14.375L11.2191 20.4062L9.93788 20.9375L1.84413 15.5937C1.93788 15.1875 2.00038 14.7812 2.12538 14.375ZM2.62538 12.75L13.0004 19.625L11.7191 20.1562L2.25038 13.9062C2.34413 13.5312 2.46913 13.125 2.62538 12.75ZM3.28163 11.25C4.31288 11.9062 5.37538 12.5937 6.40663 13.2187C9.21913 15 12.1566 16.8125 14.8441 18.8437L13.5004 19.4062L2.78163 12.3125C2.93788 11.9375 3.09413 11.5937 3.28163 11.25ZM4.09413 9.8125L16.5941 18.125L15.3754 18.6562C12.5941 16.5312 9.59413 14.6562 6.68788 12.8437C5.65663 12.1875 4.56288 11.5312 3.53163 10.8437C3.68788 10.5 3.87538 10.1562 4.09413 9.8125ZM5.03163 8.5L16.8441 16.3437V17.75L4.34413 9.4375C4.56288 9.125 4.81288 8.8125 5.03163 8.5ZM10.5629 4.3125L16.8441 8.5V9.90625L9.25038 4.84375C9.65663 4.625 10.0316 4.40625 10.4691 4.1875C10.5004 4.25 10.5004 4.3125 10.5629 4.3125ZM14.4691 3L16.8441 4.5625V5.96875L12.8441 3.3125C13.3754 3.15625 13.8754 3.03125 14.4379 2.9375C14.4379 2.96875 14.4379 3 14.4691 3ZM9.40663 21.1875L8.12538 21.75L8.09413 21.7187L1.65663 17.4375C1.68788 17 1.71913 16.5625 1.78163 16.125L9.40663 21.1875ZM6.28163 22.4687L1.68788 19.4062C1.65663 18.9375 1.62538 18.4687 1.62538 17.9687L7.59413 21.9375L6.31288 22.5C6.28163 22.4687 6.28163 22.4687 6.28163 22.4687ZM5.81288 22.7187L4.53163 23.25L2.12538 21.6562C2.09413 21.625 2.06288 21.625 2.03163 21.625C1.90663 21.0937 1.81288 20.5625 1.75038 20.0312L5.81288 22.7187ZM16.8441 4.03125L15.0941 2.875C15.6566 2.8125 16.2504 2.75 16.8441 2.75V4.03125ZM12.3754 3.4375C12.3754 3.5 12.4066 3.59375 12.4691 3.625L16.8441 6.53125V7.9375L10.9379 4C10.9691 3.96875 11.0004 3.96875 11.0629 3.9375C11.5004 3.75 11.9379 3.59375 12.3754 3.4375ZM6.15663 7.28125L16.8441 14.375V15.7812L5.34413 8.125C5.59413 7.84375 5.87538 7.5625 6.15663 7.28125ZM25.1566 31.3437C25.1254 31.3437 25.1254 31.375 25.0941 31.4062C22.5004 32.9687 19.5316 33.75 16.4691 33.625C16.4379 33.625 16.4379 33.625 16.4066 33.625C14.6566 33.5625 12.9379 33.1875 11.2816 32.5C7.43788 30.9375 4.62538 28.2187 2.93788 24.4375L7.53163 22.5L17.0629 18.4375L31.2816 24.1875C30.0629 27.1875 27.9379 29.6562 25.1566 31.3437Z" stroke="#050606" stroke-width="0.4"/>
</g>
<defs>
<clipPath id="clip0_912_24724">
<rect width="40" height="40" fill="white"/>
</clipPath>
</defs>
</svg>
