<svg width="40" height="40" viewBox="0 0 40 40" fill="none" xmlns="http://www.w3.org/2000/svg">
<path fill-rule="evenodd" clip-rule="evenodd" d="M18.4649 0.302566C13.6141 1.18445 10.3799 5.93896 11.3608 10.7462C12.1088 14.4117 15.1068 17.2475 18.7781 17.7621L19.4595 17.8576L19.4386 19.6948L19.4176 21.5321L18.0526 22.2456C16.7962 22.9025 16.6811 22.9478 16.6045 22.8156C12.3504 15.4696 1.86853 17.1136 0.112995 25.4021C-0.150253 26.645 0.0765177 29.2459 0.483641 29.6539C0.839884 30.0107 1.51699 29.7015 1.43182 29.221C1.41123 29.1049 1.33311 28.6746 1.25828 28.2648C0.464619 23.9201 3.66188 19.7427 8.09444 19.3329C15.1721 18.6786 19.2187 27.2014 14.2625 32.3237C13.544 33.0663 13.4683 33.0937 13.3978 32.6374C13.2643 31.7743 12.6959 31.0778 11.5574 30.3825C10.6799 29.8466 10.6061 29.6143 11.1865 29.2143C14.5445 26.8993 12.918 21.6052 8.84693 21.5991C4.80763 21.5932 3.10274 26.8215 6.3872 29.1424C7.0856 29.6359 7.04724 29.7888 6.0712 30.4013C4.92074 31.1232 4.55354 31.5586 4.30094 32.5001C4.22572 32.7805 4.15503 33.0226 4.14376 33.0381C4.09241 33.1088 3.28043 32.3363 2.88208 31.8377C2.21546 31.0035 2.06478 30.9312 1.65906 31.251C0.789473 31.9363 3.40654 34.419 5.94431 35.316C12.3224 37.5706 18.8879 31.7663 17.4245 25.1668C17.3288 24.7354 17.2346 24.2943 17.2151 24.1864C17.1819 24.0028 17.2704 23.9434 18.6055 23.2536L20.0314 22.5169L21.4651 23.2536C22.543 23.8075 22.8876 24.0195 22.854 24.108C21.7568 26.9968 22.576 30.6871 24.8422 33.0637C30.3094 38.7974 39.9581 34.9423 39.9935 27.0099C40.0292 19.0279 30.3341 15.1183 24.8269 20.8938C24.286 21.4611 23.4489 22.6097 23.4489 22.7847C23.4489 22.9459 23.1012 22.812 21.9225 22.1966L20.67 21.5428L20.649 19.7015L20.6281 17.8602L21.3927 17.7337C28.0931 16.6245 31.112 8.69245 26.8397 3.4217C26.526 3.03464 26.1537 2.96649 25.8755 3.24523C25.6129 3.50837 25.6812 3.7788 26.1901 4.49057C28.4415 7.63974 28.1198 11.682 25.3986 14.4343C24.7415 15.0989 24.6591 15.1254 24.601 14.6914C24.4876 13.8445 23.8974 13.1199 22.7523 12.4217C21.8924 11.8974 21.8049 11.6572 22.3437 11.2999C25.7575 9.03637 24.1366 3.64437 20.0407 3.63833C16.0021 3.63237 14.3021 8.92186 17.6093 11.2041C18.2613 11.6539 18.2347 11.8401 17.449 12.3259C16.1713 13.1162 15.6594 13.7215 15.4608 14.6766C15.3507 15.2058 15.3733 15.2135 14.5535 14.3629C11.9799 11.6924 11.6023 7.8108 13.6212 4.77864C15.782 1.53339 19.9732 0.413625 23.435 2.15668C24.2638 2.57402 24.5419 2.62068 24.7796 2.38249C25.879 1.28092 21.3283 -0.217983 18.4649 0.302566ZM20.5615 4.81496C22.9541 5.26625 23.8822 8.26735 22.1506 9.95355C20.9281 11.1441 18.9081 11.1008 17.8188 9.86084C15.9065 7.68398 17.7538 4.28539 20.5615 4.81496ZM20.8657 12.1506C20.8657 12.525 21.0447 12.7067 22.0212 13.3244C23.242 14.0965 23.4515 14.371 23.5094 15.274L23.5463 15.8501L22.9692 16.0901C21.0674 16.8811 18.804 16.8754 16.9982 16.0754L16.5604 15.8813V15.4181C16.5604 14.4728 16.8047 14.1168 17.9478 13.3961C19.067 12.6903 19.1436 12.6174 19.1436 12.2567V11.9621L20.0047 11.9637C20.8572 11.9652 20.8657 11.967 20.8657 12.1506ZM32.2041 19.3644C38.4155 19.9546 41.0777 27.995 36.5422 32.4663C35.8273 33.1711 35.882 33.168 35.7141 32.5148C35.4736 31.5796 35.093 31.1266 33.9381 30.4015C32.9621 29.7888 32.9237 29.6358 33.6221 29.1424C34.98 28.1829 35.6543 26.3364 35.2313 24.7354C34.9888 23.8176 33.8562 23.8042 34.0627 24.7215C34.9182 28.5208 30.0945 30.4801 28.4293 27.0099C27.1786 24.4034 29.909 21.8804 32.6659 23.0952L33.0766 23.2762L33.2921 23.1156C34.1398 22.4838 32.9181 21.5968 31.2037 21.5991C27.0853 21.6048 25.4425 26.8793 28.8305 29.2191C29.4023 29.614 29.326 29.8487 28.4519 30.3825C27.3135 31.0778 26.745 31.7743 26.6115 32.6374C26.541 33.0937 26.4653 33.0663 25.7468 32.3237C21.2791 27.7063 24.0777 19.9526 30.4374 19.3282C31.0685 19.2663 31.1988 19.2689 32.2041 19.3644ZM9.9526 22.9408C11.4946 23.5188 12.2935 25.5134 11.5823 27.0099C10.1743 29.9734 5.8755 29.0281 5.8755 25.755C5.8755 23.5516 7.88395 22.1652 9.9526 22.9408ZM9.67198 30.1078C9.67198 30.4846 9.84732 30.6708 10.7052 31.2052C12.0191 32.0234 12.3334 32.4488 12.3334 33.4088V33.8188L11.7659 34.0549C9.88043 34.839 7.59707 34.8304 5.7962 34.0324L5.35002 33.8347L5.37797 33.2205C5.40121 32.7074 5.44176 32.5519 5.62415 32.2758C5.85217 31.9306 5.95213 31.8519 7.16709 31.062C7.89632 30.5879 7.91119 30.5722 7.93468 30.248L7.95863 29.9174L8.8153 29.9182C9.66799 29.919 9.67198 29.9198 9.67198 30.1078ZM32.0746 30.248C32.0981 30.5722 32.113 30.5879 32.8422 31.062C34.0572 31.8519 34.1571 31.9306 34.3852 32.2758C34.5676 32.5519 34.6081 32.7074 34.6314 33.2205L34.6593 33.8347L34.2131 34.0324C32.4123 34.8304 30.1289 34.839 28.2434 34.0549L27.6759 33.8188V33.4088C27.6759 32.4488 27.9903 32.0234 29.3041 31.2052C30.162 30.6708 30.3373 30.4846 30.3373 30.1078C30.3373 29.9198 30.3413 29.919 31.194 29.9182L32.0507 29.9174L32.0746 30.248Z" fill="#111827"/>
</svg>
