<svg width="40" height="40" viewBox="0 0 40 40" fill="none" xmlns="http://www.w3.org/2000/svg">
<g clip-path="url(#clip0_912_24600)">
<path d="M2.4375 10.8438C2.5625 10.8438 2.65625 10.75 2.65625 10.625V7.78125C2.65625 7.65625 2.5625 7.5625 2.4375 7.5625C2.3125 7.5625 2.21875 7.65625 2.21875 7.78125V10.625C2.21875 10.75 2.3125 10.8438 2.4375 10.8438Z" fill="#111827" stroke="#111827" stroke-width="0.5"/>
<path d="M2.4375 13.1875C2.5625 13.1875 2.65625 13.0938 2.65625 12.9688V11.9688C2.65625 11.8438 2.5625 11.75 2.4375 11.75C2.3125 11.75 2.21875 11.8438 2.21875 11.9688V12.9688C2.21875 13.0938 2.3125 13.1875 2.4375 13.1875Z" fill="#111827" stroke="#111827" stroke-width="0.5"/>
<path d="M24.5938 5.375C25.1875 5.375 25.6875 4.875 25.6875 4.28125C25.6875 3.6875 25.1875 3.1875 24.5938 3.1875C24 3.1875 23.5 3.6875 23.5 4.28125C23.5 4.875 24 5.375 24.5938 5.375ZM24.5938 3.65625C24.9375 3.65625 25.2188 3.9375 25.2188 4.28125C25.2188 4.625 24.9375 4.90625 24.5938 4.90625C24.25 4.90625 23.9688 4.625 23.9688 4.28125C23.9688 3.9375 24.25 3.65625 24.5938 3.65625Z" fill="#111827" stroke="#111827" stroke-width="0.5"/>
<path d="M6.18652 2.37497C6.18652 2.49997 6.28027 2.59372 6.40527 2.59372H9.93652C10.0615 2.59372 10.1553 2.49997 10.1553 2.37497C10.1553 2.24997 10.0615 2.15622 9.93652 2.15622H6.43652C6.28027 2.12497 6.18652 2.24997 6.18652 2.37497Z" fill="#111827" stroke="#111827" stroke-width="0.5"/>
<path d="M4.125 2.59375H5.25C5.375 2.59375 5.46875 2.5 5.46875 2.375C5.46875 2.25 5.375 2.15625 5.25 2.15625H4.125C4 2.15625 3.90625 2.25 3.90625 2.375C3.90625 2.5 4 2.59375 4.125 2.59375Z" fill="#111827" stroke="#111827" stroke-width="0.5"/>
<path d="M4.125 1.375H6.59375C6.71875 1.375 6.8125 1.28125 6.8125 1.15625C6.8125 1.03125 6.71875 0.9375 6.59375 0.9375H4.125C4 0.9375 3.90625 1.03125 3.90625 1.15625C3.90625 1.28125 4 1.375 4.125 1.375Z" fill="#111827" stroke="#111827" stroke-width="0.5"/>
<path d="M7.6252 1.375H8.4377C8.5627 1.375 8.65645 1.28125 8.65645 1.15625C8.65645 1.03125 8.5627 0.9375 8.4377 0.9375H7.65645C7.53145 0.9375 7.4377 1.03125 7.4377 1.15625C7.40645 1.28125 7.5002 1.375 7.6252 1.375Z" fill="#111827" stroke="#111827" stroke-width="0.5"/>
<path d="M37.125 36.375C37.125 36.25 37.0313 36.1562 36.9063 36.1562H33.375C33.25 36.1562 33.1562 36.25 33.1562 36.375C33.1562 36.5 33.25 36.5938 33.375 36.5938H36.9063C37.0313 36.5938 37.125 36.5 37.125 36.375Z" fill="#111827" stroke="#111827" stroke-width="0.5"/>
<path d="M39.1875 36.125H38.0625C37.9375 36.125 37.8438 36.2188 37.8438 36.3438C37.8438 36.4688 37.9375 36.5625 38.0625 36.5625H39.1875C39.3125 36.5625 39.4062 36.4688 39.4062 36.3438C39.4375 36.25 39.3125 36.125 39.1875 36.125Z" fill="#111827" stroke="#111827" stroke-width="0.5"/>
<path d="M39.1875 37.3438H36.7187C36.5937 37.3438 36.5 37.4375 36.5 37.5625C36.5 37.6875 36.5937 37.7813 36.7187 37.7813H39.1875C39.3125 37.7813 39.4062 37.6875 39.4062 37.5625C39.4375 37.4375 39.3125 37.3438 39.1875 37.3438Z" fill="#111827" stroke="#111827" stroke-width="0.5"/>
<path d="M35.6875 37.3438H34.9062C34.7812 37.3438 34.6875 37.4375 34.6875 37.5625C34.6875 37.6875 34.7812 37.7813 34.9062 37.7813H35.6875C35.8125 37.7813 35.9062 37.6875 35.9062 37.5625C35.9062 37.4375 35.8125 37.3438 35.6875 37.3438Z" fill="#111827" stroke="#111827" stroke-width="0.5"/>
<path d="M17.0625 1.40625C17.0937 1.4375 17.1562 1.46875 17.2187 1.46875C17.2812 1.46875 17.3437 1.4375 17.375 1.40625C17.4687 1.3125 17.4687 1.15625 17.375 1.09375L16.9062 0.625C16.8125 0.53125 16.6562 0.53125 16.5937 0.625C16.5 0.71875 16.5 0.875 16.5937 0.9375L17.0625 1.40625Z" fill="#111827" stroke="#111827" stroke-width="0.5"/>
<path d="M18.5625 2.90625C18.5937 2.9375 18.6562 2.96875 18.7187 2.96875C18.7812 2.96875 18.8437 2.9375 18.875 2.90625C18.9687 2.8125 18.9687 2.65625 18.875 2.59375L18.4062 2.125C18.3125 2.03125 18.1562 2.03125 18.0937 2.125C18 2.21875 18 2.375 18.0937 2.4375L18.5625 2.90625Z" fill="#111827" stroke="#111827" stroke-width="0.5"/>
<path d="M16.75 2.96869C16.8125 2.96869 16.875 2.93744 16.9062 2.90619L17.375 2.43744C17.4687 2.34369 17.4687 2.18744 17.375 2.12494C17.2812 2.03119 17.125 2.03119 17.0625 2.12494L16.5937 2.59369C16.5 2.68744 16.5 2.84369 16.5937 2.90619C16.625 2.96869 16.6875 2.96869 16.75 2.96869Z" fill="#111827" stroke="#111827" stroke-width="0.5"/>
<path d="M18.25 1.46875C18.3125 1.46875 18.375 1.4375 18.4062 1.40625L18.875 0.9375C18.9687 0.84375 18.9687 0.6875 18.875 0.625C18.7812 0.53125 18.625 0.53125 18.5625 0.625L18.0937 1.09375C18 1.1875 18 1.34375 18.0937 1.40625C18.125 1.4375 18.1875 1.46875 18.25 1.46875Z" fill="#111827" stroke="#111827" stroke-width="0.5"/>
<path d="M26.3438 27.4687L25.875 27C25.7812 26.9063 25.625 26.9063 25.5625 27C25.4688 27.0937 25.4688 27.25 25.5625 27.3125L26.0312 27.7812C26.0625 27.8125 26.125 27.8437 26.1875 27.8437C26.25 27.8437 26.3125 27.8125 26.3438 27.7812C26.4375 27.6875 26.4375 27.5625 26.3438 27.4687Z" fill="#111827" stroke="#111827" stroke-width="0.5"/>
<path d="M27.375 28.4999C27.2813 28.4062 27.125 28.4062 27.0625 28.4999C26.9687 28.5937 26.9687 28.7499 27.0625 28.8124L27.5313 29.2812C27.5625 29.3124 27.625 29.3437 27.6875 29.3437C27.75 29.3437 27.8125 29.3124 27.8438 29.2812C27.9375 29.1874 27.9375 29.0312 27.8438 28.9687L27.375 28.4999Z" fill="#111827" stroke="#111827" stroke-width="0.5"/>
<path d="M26.0312 28.5L25.5625 28.9687C25.4688 29.0625 25.4688 29.2187 25.5625 29.2812C25.5938 29.3125 25.6562 29.3437 25.7188 29.3437C25.7812 29.3437 25.8438 29.3125 25.875 29.2812L26.3438 28.8125C26.4375 28.7187 26.4375 28.5625 26.3438 28.5C26.25 28.4375 26.0938 28.4062 26.0312 28.5Z" fill="#111827" stroke="#111827" stroke-width="0.5"/>
<path d="M27.8438 27C27.75 26.9063 27.5938 26.9063 27.5313 27L27.0625 27.4687C26.9687 27.5625 26.9687 27.7187 27.0625 27.7812C27.0938 27.8125 27.1563 27.8437 27.2188 27.8437C27.2813 27.8437 27.3438 27.8125 27.375 27.7812L27.8438 27.3125C27.9375 27.25 27.9375 27.0937 27.8438 27Z" fill="#111827" stroke="#111827" stroke-width="0.5"/>
<path d="M2.9375 27.2188C2.96875 27.25 3.03125 27.2813 3.09375 27.2813C3.15625 27.2813 3.21875 27.25 3.25 27.2188C3.34375 27.125 3.34375 26.9688 3.25 26.9063L2.78125 26.4375C2.6875 26.3437 2.53125 26.3437 2.46875 26.4375C2.375 26.5313 2.375 26.6875 2.46875 26.75L2.9375 27.2188Z" fill="#111827" stroke="#111827" stroke-width="0.5"/>
<path d="M3.96875 28.25L4.4375 28.7187C4.46875 28.75 4.53125 28.7812 4.59375 28.7812C4.65625 28.7812 4.71875 28.75 4.75 28.7187C4.84375 28.625 4.84375 28.4687 4.75 28.4062L4.28125 27.9375C4.1875 27.8438 4.03125 27.8438 3.96875 27.9375C3.875 28 3.875 28.1562 3.96875 28.25Z" fill="#111827" stroke="#111827" stroke-width="0.5"/>
<path d="M2.46875 28.7187C2.5 28.75 2.5625 28.7812 2.625 28.7812C2.6875 28.7812 2.75 28.75 2.78125 28.7187L3.25 28.25C3.34375 28.1562 3.34375 28 3.25 27.9375C3.15625 27.8438 3 27.8438 2.9375 27.9375L2.46875 28.4062C2.375 28.4687 2.375 28.625 2.46875 28.7187Z" fill="#111827" stroke="#111827" stroke-width="0.5"/>
<path d="M4.125 27.2813C4.1875 27.2813 4.25 27.25 4.28125 27.2188L4.75 26.75C4.84375 26.6563 4.84375 26.5 4.75 26.4375C4.65625 26.3437 4.5 26.3437 4.4375 26.4375L3.96875 26.875C3.875 26.9688 3.875 27.125 3.96875 27.1875C4 27.25 4.0625 27.2813 4.125 27.2813Z" fill="#111827" stroke="#111827" stroke-width="0.5"/>
<path d="M30.2815 1.78123C31.2503 1.09373 32.4065 0.812476 33.5628 0.999976C34.719 1.18748 35.7503 1.81248 36.4378 2.78123C37.844 4.74998 37.4065 7.49998 35.4378 8.90623C35.344 8.96873 35.3128 9.12498 35.3753 9.21873C35.4065 9.28123 35.5003 9.31248 35.5628 9.31248C35.594 9.31248 35.6565 9.31248 35.6878 9.28123C37.8753 7.71873 38.3753 4.68748 36.8128 2.49998C36.0628 1.43748 34.9378 0.749976 33.6565 0.531226C32.3753 0.312476 31.094 0.624976 30.0315 1.37498C29.9378 1.43748 29.9065 1.59373 29.969 1.68748C30.0315 1.84373 30.1878 1.84373 30.2815 1.78123Z" fill="#111827" stroke="#111827" stroke-width="0.5"/>
<path d="M34.7181 8.18747C34.7493 8.18747 34.8118 8.18747 34.8431 8.15622C35.5931 7.62497 36.0931 6.84372 36.2181 5.93747C36.3743 5.03122 36.1556 4.12497 35.6243 3.37497C35.0931 2.62497 34.3118 2.12497 33.4056 1.99997C32.4993 1.84372 31.5931 2.06247 30.8431 2.59372C30.7493 2.65622 30.7181 2.81247 30.7806 2.90622C30.8431 2.99997 30.9993 3.03122 31.0931 2.96872C31.7493 2.49997 32.5306 2.31247 33.3118 2.43747C34.0931 2.56247 34.7806 2.99997 35.2493 3.62497C35.7181 4.28122 35.9056 5.06247 35.7806 5.84372C35.6556 6.62497 35.2181 7.31247 34.5931 7.78122C34.4993 7.84372 34.4681 7.99997 34.5306 8.09372C34.5931 8.15622 34.6556 8.18747 34.7181 8.18747Z" fill="#111827" stroke="#111827" stroke-width="0.5"/>
<path d="M33.7503 6.62495C33.6565 6.68745 33.6253 6.8437 33.6878 6.93745C33.719 6.99995 33.8128 7.0312 33.8753 7.0312C33.9065 7.0312 33.969 7.0312 34.0003 6.99995C34.4378 6.68745 34.719 6.2187 34.8128 5.68745C34.9065 5.1562 34.7815 4.62495 34.469 4.18745C33.8128 3.2812 32.5628 3.0937 31.6565 3.7187C31.5628 3.7812 31.5315 3.93745 31.594 4.0312C31.6565 4.12495 31.8128 4.1562 31.9065 4.0937C32.594 3.5937 33.5628 3.74995 34.0628 4.43745C34.3128 4.7812 34.4065 5.18745 34.344 5.5937C34.3128 5.99995 34.094 6.37495 33.7503 6.62495Z" fill="#111827" stroke="#111827" stroke-width="0.5"/>
<path d="M32.7184 17.4687C33.3434 18.375 34.3122 19 35.3747 19.25C35.7184 19.3437 36.0622 19.375 36.4059 19.375C37.0622 19.375 37.7497 19.2187 38.3434 18.9375L38.5309 18.8437L38.7497 18.7187C38.8434 18.6562 38.9372 18.5937 38.9997 18.5625C39.2497 18.375 39.4372 18.0937 39.4684 17.7812C39.5309 17.4687 39.4372 17.1562 39.2809 16.9062L37.6559 14.5937C37.4684 14.3437 37.2497 14.1875 36.9997 14.125C36.6247 14.0625 36.1872 14.1875 35.7184 14.5312C35.6872 14.5625 35.6559 14.5625 35.6247 14.5937C35.5309 14.625 35.4684 14.625 35.3747 14.625C35.2809 14.625 35.2184 14.5937 35.1247 14.5312C35.1247 14.5312 35.0622 14.4687 34.9997 14.4062C34.9372 14.3125 34.8747 14.25 34.8434 14.2187L32.0622 10.3125C31.9372 10.1562 31.8747 9.96873 31.8747 9.81248C31.8747 9.68748 31.9059 9.53123 31.9684 9.43748C31.9997 9.40623 31.9997 9.37498 32.0309 9.37498L32.3434 9.15623C32.8747 8.78123 32.9997 8.03123 32.6247 7.49998L30.9997 5.18748C30.8122 4.93748 30.5309 4.74998 30.2184 4.71873C29.9059 4.65623 29.5934 4.74998 29.3434 4.90623C29.2497 4.96873 29.1872 5.03123 29.0934 5.09373L28.9059 5.28123L28.7497 5.40623C28.0309 6.12498 27.5622 7.06248 27.4684 8.09373C27.3434 9.18748 27.6247 10.2812 28.2809 11.1875L32.7184 17.4687ZM36.9059 14.5937C37.0622 14.625 37.1872 14.7187 37.2809 14.875L38.9059 17.1875C39.0309 17.3437 39.0622 17.5312 39.0309 17.7187C38.9997 17.9062 38.9059 18.0937 38.7184 18.1875C38.6247 18.25 38.5309 18.3125 38.4684 18.3437L37.6559 17.2187L35.9997 14.875C36.3434 14.625 36.6559 14.5312 36.9059 14.5937ZM29.5934 5.28123C29.7497 5.15623 29.9372 5.12498 30.1247 5.15623C30.3122 5.18748 30.4997 5.28123 30.5934 5.43748L32.2184 7.74998C32.4372 8.06248 32.3747 8.53123 32.0309 8.74998L31.7809 8.93748L30.9997 7.81248L29.3434 5.46873C29.4059 5.40623 29.4997 5.34373 29.5934 5.28123ZM27.9059 8.12498C27.9997 7.24998 28.3747 6.40623 28.9997 5.78123L31.4997 9.28123C31.4372 9.43748 31.3747 9.59373 31.4059 9.78123C31.4059 10.0625 31.4997 10.3125 31.6872 10.5625L34.4372 14.4687C34.4997 14.5625 34.5934 14.6875 34.6247 14.7187C34.7184 14.8437 34.8122 14.9062 34.8434 14.9375C34.9684 15.0312 35.1247 15.0937 35.2809 15.0937C35.3747 15.0937 35.4684 15.0937 35.5622 15.0625L36.4997 16.375L38.0309 18.5625C37.2184 18.9375 36.3122 19.0312 35.4372 18.8125C34.4684 18.5937 33.6247 18.0312 33.0622 17.2187L28.6247 10.9375C28.0309 10.125 27.7809 9.12498 27.9059 8.12498Z" fill="#111827" stroke="#111827" stroke-width="0.5"/>
<path d="M25.9688 34.75H20.1563C20.0313 34.75 19.9375 34.8438 19.9375 34.9687C19.9375 35.0937 20.0313 35.1875 20.1563 35.1875H25.9688C26.0938 35.1875 26.1875 35.0937 26.1875 34.9687C26.1875 34.875 26.0938 34.75 25.9688 34.75Z" fill="#111827" stroke="#111827" stroke-width="0.5"/>
<path d="M29.375 35.2813C28.4375 32.2813 25.6563 30.5625 22.1563 30.8438L21.6563 30.875C21.1563 30.9063 20.7188 30.9375 20.1875 30.9688C19.9375 30.5 19.0938 28.5 20.1563 25.6563C20.25 25.5625 20.3125 25.4688 20.4063 25.4063H25.0938C25.125 25.4063 25.1563 25.4063 25.1875 25.375C25.1875 25.375 25.1875 25.375 25.2188 25.375C25.25 25.375 25.25 25.3438 25.25 25.3438C25.25 25.3438 25.25 25.3438 25.2813 25.3125C25.2813 25.3125 25.3125 25.2813 25.3125 25.25C25.3125 25.25 25.3125 25.25 25.3125 25.2188L25.8438 23.7813C26.4063 23.6875 26.9375 23.4688 27.4063 23.1563C28.25 22.5938 28.7813 21.7188 28.9688 20.7188C29.1563 19.7188 28.9375 18.7188 28.3438 17.875C27.8125 17.0938 27.0313 16.5625 26.125 16.3438C26.1875 15.9375 26.2188 15.5313 26.2188 15.0938C26.2188 9.03125 21.25 4.0625 15.1563 4.0625C9.06251 4.0625 4.12501 9.03125 4.12501 15.125C4.12501 15.5625 4.15626 15.9688 4.21876 16.375C3.31251 16.5938 2.53126 17.125 2.00001 17.9063C1.43751 18.75 1.21876 19.75 1.37501 20.75C1.56251 21.75 2.12501 22.625 2.93751 23.1875C3.56251 23.625 4.31251 23.875 5.09376 23.875C5.31251 23.875 5.56251 23.8438 5.78126 23.8125C5.90626 23.7812 6.00001 23.6563 5.96876 23.5313L4.71876 16.5938V16.5625C4.65626 16.125 4.62501 15.6563 4.62501 15.1563C4.62501 9.3125 9.37501 4.5625 15.2188 4.5625C21.0625 4.5625 25.8125 9.3125 25.8125 15.1563C25.8125 15.625 25.7813 16.0938 25.7188 16.5313V16.5625L24.375 23.5C24.3438 23.625 24.4375 23.75 24.5625 23.7813C24.7813 23.8125 25.0313 23.8438 25.25 23.8438C25.2813 23.8438 25.3125 23.8438 25.3438 23.8438L24.9375 24.9063H20.7813C21.4375 24.0313 21.9688 23.0313 22.375 21.875C22.4063 21.875 22.4375 21.875 22.4688 21.875C23.2813 21.875 23.9063 20.625 23.9063 18.9688C23.9063 17.5625 23.4375 16.4375 22.7813 16.1563V16.0313C22.9063 15.0938 23.0313 14.1563 23.0625 13.1875C23.3438 8.9375 22.1563 8.5625 20.1875 7.96875C20.0313 7.90625 19.8438 7.875 19.6875 7.8125C18 7.28125 16.25 7.15625 15.0938 7.15625C13.4375 7.15625 11.8438 7.40625 10.5 7.8125C10.3125 7.875 10.1563 7.90625 10 7.96875C8.03126 8.5625 6.87501 8.9375 7.12501 13.1875C7.18751 14.125 7.31251 15.0938 7.40626 16.0313L7.43751 16.1563C6.78126 16.4375 6.31251 17.5938 6.31251 18.9688C6.31251 20.625 6.93751 21.875 7.75001 21.875C7.78126 21.875 7.81251 21.875 7.84376 21.875C8.34376 23.3438 9.09375 24.5938 10 25.5938C11.0313 28.4063 10.1875 30.4688 9.9375 30.9375C9.4375 30.9063 9.00001 30.875 8.50001 30.8438L8.03126 30.8125C4.62501 30.5625 1.87501 32.25 0.937506 35.2813C0.687506 36.0313 0.468756 36.7813 0.218756 37.5313C0.0625062 38 0.156256 38.5 0.468756 38.875C0.750006 39.2813 1.21876 39.5 1.68751 39.5H28.625C29.125 39.5 29.5625 39.2813 29.8438 38.875C30.125 38.4688 30.2188 38 30.0938 37.5313C29.8438 36.75 29.625 36 29.375 35.2813ZM3.18751 22.7813C2.46876 22.2813 1.96876 21.5313 1.81251 20.6563C1.50001 18.9375 2.59376 17.25 4.28126 16.8438L5.46876 23.375C4.62501 23.4375 3.84376 23.25 3.18751 22.7813ZM24.875 23.3438L26.0625 16.8125C27.75 17.25 28.8438 18.9063 28.5313 20.625C28.375 21.5 27.875 22.25 27.1563 22.75C26.4688 23.25 25.6563 23.4375 24.875 23.3438ZM10.1875 8.40625C10.3438 8.34375 10.5313 8.3125 10.6875 8.25C11.9688 7.84375 13.5313 7.625 15.125 7.59375C16.75 7.59375 18.2813 7.8125 19.5625 8.25C19.75 8.3125 19.9063 8.34375 20.0625 8.40625C21.9375 8.96875 22.8438 9.28125 22.5938 13.1562C22.5625 13.7188 22.5 14.2813 22.4375 14.8125C22.1563 13.8125 21.625 12.6875 20.7188 12.5625C19.3438 12.4063 15.5938 12.4375 15.4375 12.4375C15.4063 12.4375 13.8438 12.5625 12.0938 10.875C12.0313 10.8438 11.9688 10.8125 11.9063 10.8125C11.8438 10.8125 11.7813 10.8438 11.75 10.9063C11.5 11.25 11.2188 12 11.625 12.6875C10.7188 12.5312 9.28125 12.375 8.71875 13.0313C8.34375 13.4688 8.00001 14.3438 7.78126 15.0625C7.71876 14.4375 7.62501 13.7812 7.59376 13.1562C7.40626 9.28125 8.34376 8.96875 10.1875 8.40625ZM8.18751 21.4063C8.15626 21.4063 8.12501 21.375 8.09376 21.375C8.06251 21.375 8.03126 21.375 8.00001 21.4063C7.93751 21.4375 7.90626 21.4375 7.84376 21.4375C7.37501 21.4375 6.84376 20.4375 6.84376 19C6.84376 17.7188 7.25001 16.7813 7.68751 16.5938H7.71876C7.81251 16.5938 7.90626 16.5313 7.93751 16.4063C7.93751 16.375 8.46876 14.0938 9.12501 13.3438C9.56251 12.8438 11.2813 13.0625 12.25 13.3125C12.3438 13.3438 12.4688 13.2813 12.5 13.1875C12.5625 13.0938 12.5313 12.9688 12.4375 12.9063C11.75 12.375 11.875 11.75 12.0313 11.4063C13.8438 13.0313 15.4688 12.9063 15.5 12.9063C15.5313 12.9063 19.3438 12.875 20.7188 13.0313C21.7188 13.1563 22.2188 15.4688 22.3438 16.375C22.375 16.5 22.4688 16.5938 22.5938 16.5625C23 16.75 23.4375 17.6563 23.4375 18.9688C23.4375 20.4063 22.9063 21.4063 22.4375 21.4063C22.375 21.4063 22.3438 21.4063 22.2813 21.375C22.2188 21.3438 22.1563 21.3438 22.0938 21.375C22.0313 21.4063 22 21.4688 21.9688 21.5C21.5625 22.8125 20.9375 23.9688 20.1563 24.875H17.0313C16.9688 24.5313 16.6563 24.3125 16.3125 24.3125H14.0313C13.625 24.3125 13.2813 24.6563 13.2813 25.0625V25.1875C13.2813 25.5938 13.625 25.9375 14.0313 25.9375H16.3125C16.6563 25.9375 16.9688 25.6875 17.0313 25.375H19.8125C18.5313 26.6875 16.9063 27.4375 15.1875 27.4375C13.4375 27.4375 11.8125 26.6875 10.5313 25.3438C10.5313 25.3438 10.5313 25.3438 10.5313 25.3125C10.5 25.25 10.4688 25.2188 10.4063 25.1875C9.50001 24.2188 8.81251 22.9688 8.34376 21.5313C8.28126 21.4688 8.25001 21.4063 8.18751 21.4063ZM16.5625 25.1875C16.5625 25.3438 16.4375 25.4688 16.2813 25.4688H14C13.8438 25.4688 13.7188 25.3438 13.7188 25.1875V25.0625C13.7188 24.9063 13.8438 24.7813 14 24.7813H16.2813C16.4375 24.7813 16.5625 24.9063 16.5625 25.0625V25.1875ZM10.7813 26.25C12.0313 27.3125 13.5313 27.9063 15.1563 27.9063C16.75 27.9063 18.2188 27.3125 19.4688 26.2813C18.6875 29.1563 19.6875 31 19.8438 31.25C19.875 31.3125 19.9063 31.3438 19.9375 31.375C19.2188 32.5313 18.4063 33.5938 17.5313 34.5313L16.875 31.8125L17.7188 30.375C17.75 30.3125 17.75 30.2188 17.7188 30.1563C17.6875 30.0938 17.5938 30.0313 17.5313 30.0313H12.7813C12.6875 30.0313 12.625 30.0625 12.5938 30.1563C12.5625 30.2188 12.5625 30.3125 12.5938 30.375L13.4688 31.8438L12.8125 34.5625C12.0625 33.75 11.1875 32.6875 10.375 31.3438C10.4063 31.3125 10.4063 31.2813 10.4375 31.25C10.5313 31.0625 11.5625 29.125 10.7813 26.25ZM15.1563 36.5938C14.875 36.4063 14.0938 35.875 13.125 34.9063C13.1563 34.875 13.1875 34.8438 13.1875 34.7813L13.875 32H16.4688L17.1563 34.7813C17.1563 34.8125 17.1875 34.8438 17.2188 34.875C16.2188 35.875 15.4375 36.4063 15.1563 36.5938ZM16.5 31.5625H13.7813L13.1563 30.5H17.125L16.5 31.5625ZM29.4688 38.625C29.25 38.9063 28.9375 39.0625 28.5938 39.0625H1.68751C1.34376 39.0625 1.03126 38.9063 0.812506 38.625C0.593756 38.3438 0.562506 38 0.656256 37.6875C0.875006 36.9063 1.12501 36.1563 1.34376 35.4375C2.21876 32.625 4.81251 31.0625 8.09376 31.3125L8.5625 31.3438C9 31.375 9.375 31.4063 9.8125 31.4063C12.2188 35.4688 14.9063 37.0313 15.0313 37.0938C15.0625 37.125 15.0938 37.125 15.1563 37.125C15.1875 37.125 15.2188 37.125 15.25 37.0938C15.2813 37.0625 16.2188 36.5313 17.5 35.25C18.5938 34.1563 19.5938 32.875 20.4688 31.4063C20.9063 31.375 21.2813 31.3438 21.6875 31.3438L22.1875 31.3125C25.4688 31.0625 28.0625 32.625 28.9375 35.4375C29.1563 36.1875 29.4063 36.9375 29.625 37.6875C29.75 38 29.6875 38.3438 29.4688 38.625Z" fill="#111827" stroke="#111827" stroke-width="0.5"/>
<path d="M34.3754 26.75C33.9379 26.9375 33.6254 27.3125 33.4692 27.75C33.3129 28.1875 33.3442 28.6562 33.5317 29.0937C33.7192 29.5312 34.0942 29.8437 34.5317 30C34.7192 30.0625 34.9067 30.0937 35.1254 30.0937C35.3754 30.0937 35.6567 30.0312 35.8754 29.9062C36.7504 29.5 37.1254 28.4375 36.6879 27.5625C36.3129 26.7187 35.2504 26.3437 34.3754 26.75ZM36.3754 28.7812C36.2504 29.0937 36.0317 29.375 35.7192 29.5312C35.4067 29.6875 35.0629 29.6875 34.7192 29.5937C34.4067 29.4687 34.1254 29.25 33.9692 28.9375C33.8129 28.625 33.8129 28.2812 33.9067 27.9375C34.0317 27.625 34.2504 27.3437 34.5629 27.1875C34.7504 27.0937 34.9379 27.0625 35.1254 27.0625C35.6254 27.0625 36.0629 27.3437 36.3129 27.8125C36.4692 28.0937 36.4692 28.4375 36.3754 28.7812Z" fill="#111827" stroke="#111827" stroke-width="0.5"/>
<path d="M39.6875 27.1563C39.6562 27.0938 39.625 27.0313 39.5625 27C39.5 26.9688 39.4375 26.9688 39.375 27L39.0938 27.125C39 27.1563 38.9062 27.1563 38.8125 27.125C38.7187 27.0938 38.6562 27.0312 38.625 26.9375C38.5625 26.75 38.625 26.5312 38.8125 26.4688L39.0938 26.3438C39.1562 26.3125 39.1875 26.2813 39.2188 26.2188C39.25 26.1563 39.2188 26.0938 39.1875 26.0313C38.7813 25.3125 38.1875 24.7188 37.5 24.3125C37.4375 24.2813 37.375 24.2812 37.3125 24.2812C37.25 24.3125 37.1875 24.3438 37.1875 24.4063L37.0625 24.6875C36.9687 24.875 36.7812 24.9688 36.5937 24.875C36.4062 24.7813 36.3125 24.5938 36.4062 24.4063L36.5313 24.125C36.5625 24.0625 36.5625 24 36.5313 23.9375C36.5 23.875 36.4375 23.8438 36.375 23.8125C35.5938 23.5937 34.75 23.5937 33.9687 23.8125C33.9062 23.8438 33.8437 23.875 33.8125 23.9375C33.7812 24 33.7812 24.0625 33.8125 24.125L33.9375 24.4063C33.9687 24.5 33.9687 24.5938 33.9375 24.6875C33.9062 24.7813 33.8437 24.8438 33.75 24.875C33.6562 24.9063 33.5625 24.9063 33.4687 24.875C33.375 24.8438 33.3125 24.7813 33.2812 24.6875L33.125 24.375C33.0937 24.3125 33.0625 24.2813 33 24.25C32.9375 24.2188 32.875 24.25 32.8125 24.2812C32.0937 24.6875 31.5 25.2813 31.0937 25.9688C31.0625 26.0313 31.0625 26.0937 31.0625 26.1562C31.0938 26.2188 31.125 26.2813 31.1875 26.2813L31.4687 26.4063C31.6562 26.5 31.75 26.6875 31.6563 26.875C31.5625 27.0625 31.375 27.1563 31.1875 27.0625L30.9063 26.9375C30.8438 26.9062 30.7813 26.9062 30.7188 26.9375C30.6563 26.9688 30.625 27.0312 30.5938 27.0938C30.375 27.875 30.375 28.7188 30.5938 29.5C30.625 29.5625 30.6563 29.625 30.7188 29.6563C30.7813 29.6875 30.8438 29.6875 30.9063 29.6563L31.1875 29.5313C31.375 29.4688 31.5938 29.5313 31.6563 29.7188C31.6875 29.8125 31.6875 29.9063 31.6563 30C31.625 30.0938 31.5625 30.1563 31.4687 30.1875L31.1875 30.3125C31.125 30.3438 31.0938 30.375 31.0625 30.4375C31.0313 30.5 31.0625 30.5625 31.0937 30.625C31.5 31.3438 32.0938 31.9375 32.7813 32.3438C32.8438 32.375 32.9062 32.375 32.9687 32.375C33.0312 32.3438 33.0938 32.3125 33.0938 32.25L33.2188 31.9688C33.3125 31.7813 33.5 31.6875 33.6875 31.7812C33.875 31.875 33.9688 32.0625 33.875 32.25L33.75 32.5312C33.7187 32.5938 33.7187 32.6562 33.75 32.7188C33.7812 32.7812 33.8437 32.8125 33.9062 32.8438C34.3125 32.9688 34.7188 33 35.1562 33C35.5625 33 35.9375 32.9375 36.3438 32.8438C36.4063 32.8125 36.4688 32.7812 36.5 32.7188C36.5313 32.6562 36.5313 32.5938 36.5 32.5312L36.375 32.25C36.3125 32.0625 36.375 31.8438 36.5625 31.7812C36.75 31.7188 36.9688 31.7813 37.0312 31.9688L37.1563 32.25C37.1875 32.3125 37.2188 32.3438 37.2813 32.375C37.3438 32.4062 37.4063 32.375 37.4688 32.3438C38.1875 31.9375 38.7813 31.3438 39.1875 30.6563C39.2188 30.5938 39.2188 30.5313 39.2188 30.4688C39.1875 30.4063 39.1562 30.3438 39.0938 30.3438L38.8125 30.2188C38.625 30.125 38.5312 29.9375 38.625 29.75C38.7188 29.5625 38.9062 29.4688 39.0938 29.5625L39.375 29.6875C39.4375 29.7188 39.5 29.7188 39.5625 29.6875C39.625 29.6563 39.6562 29.5938 39.6875 29.5313C39.9062 28.7813 39.9062 27.9375 39.6875 27.1563ZM39.2812 29.1875C38.8437 29 38.3437 29.2188 38.1562 29.625C37.9687 30.0313 38.1875 30.5313 38.5938 30.7188H38.625C38.3125 31.1875 37.9063 31.5938 37.4375 31.875V31.8438C37.2813 31.4375 36.7813 31.2188 36.375 31.375C35.9688 31.5313 35.75 32.0313 35.9375 32.4375V32.4688C35.375 32.5625 34.8125 32.5625 34.2812 32.4688V32.4375C34.4687 32.0313 34.25 31.5313 33.8438 31.3438C33.4375 31.1563 32.9375 31.375 32.75 31.7812V31.8125C32.2813 31.5 31.875 31.0938 31.5937 30.625H31.625C31.8437 30.5313 32 30.375 32.0625 30.1875C32.1562 30 32.1562 29.75 32.0625 29.5625C31.9062 29.1563 31.4062 28.9375 31 29.125H30.9687C30.875 28.5625 30.875 28 30.9687 27.4688H31C31.4062 27.6563 31.9062 27.4375 32.0937 27.0313C32.2812 26.625 32.0625 26.125 31.6563 25.9375H31.625C31.9375 25.4688 32.3437 25.0625 32.8125 24.7813V24.8125C32.9062 25.0313 33.0625 25.1875 33.25 25.25C33.4375 25.3438 33.6875 25.3438 33.875 25.25C34.0938 25.1563 34.25 25 34.3125 24.8125C34.4063 24.625 34.4063 24.375 34.3125 24.1875V24.1563C34.875 24.0625 35.4375 24.0625 35.9687 24.1563V24.1875C35.7812 24.5938 36 25.0938 36.4062 25.2813C36.8125 25.4688 37.3125 25.25 37.5 24.8438V24.8125C37.9688 25.125 38.375 25.5312 38.6562 26H38.625C38.2187 26.1562 38 26.6563 38.1875 27.0625C38.2812 27.2813 38.4375 27.4375 38.625 27.5C38.8125 27.5938 39.0625 27.5938 39.25 27.5H39.2812C39.4062 28.0938 39.4062 28.6563 39.2812 29.1875Z" fill="#111827" stroke="#111827" stroke-width="0.5"/>
</g>
<defs>
<clipPath id="clip0_912_24600">
<rect width="40" height="40" fill="white"/>
</clipPath>
</defs>
</svg>
