<svg width="40" height="40" viewBox="0 0 40 40" fill="none" xmlns="http://www.w3.org/2000/svg">
<g clip-path="url(#clip0_912_24671)">
<path d="M7.09386 15.875C7.12511 15.75 7.06261 15.625 6.93761 15.5625C6.68761 15.4687 6.46886 15.375 6.21886 15.2812C6.09386 15.2187 5.96886 15.2812 5.90636 15.4062C5.84386 15.5312 5.90635 15.6562 6.03135 15.7187C6.28135 15.8437 6.53136 15.9375 6.78136 16.0312C6.81261 16.0312 6.84386 16.0312 6.84386 16.0312C6.96886 16.0312 7.06261 15.9687 7.09386 15.875Z" fill="#111827" stroke="#111827" stroke-width="0.5"/>
<path d="M8.2502 1.50001H8.28145C8.78145 1.43751 9.3127 1.40626 9.8127 1.43751C9.9377 1.43751 10.0627 1.34376 10.0627 1.21876C10.0627 1.09376 9.96895 0.968763 9.84395 0.968763C9.3127 0.937513 8.7502 0.937513 8.21895 1.03126C8.09395 1.06251 8.0002 1.15626 8.03145 1.31251C8.03145 1.40626 8.15645 1.50001 8.2502 1.50001Z" fill="#111827" stroke="#111827" stroke-width="0.5"/>
<path d="M5.06279 2.74998C5.09404 2.74998 5.15654 2.74998 5.18779 2.71873C5.59404 2.43748 6.06279 2.18748 6.53154 1.99998C6.65654 1.93748 6.71904 1.81248 6.65654 1.68748C6.59404 1.56248 6.46904 1.49998 6.34404 1.56248C5.84404 1.78123 5.37529 2.03123 4.90654 2.34373C4.81279 2.40623 4.78154 2.56248 4.84404 2.65623C4.90654 2.71873 5.00029 2.74998 5.06279 2.74998Z" fill="#111827" stroke="#111827" stroke-width="0.5"/>
<path d="M15.4063 4.71875C15.4375 4.78125 15.5313 4.8125 15.5938 4.8125C15.625 4.8125 15.6875 4.8125 15.7188 4.78125C15.8125 4.71875 15.8438 4.5625 15.7813 4.46875C15.5 4 15.125 3.59375 14.75 3.21875C14.6563 3.125 14.5 3.125 14.4062 3.21875C14.3125 3.3125 14.3125 3.46875 14.4062 3.5625C14.8125 3.90625 15.125 4.3125 15.4063 4.71875Z" fill="#111827" stroke="#111827" stroke-width="0.5"/>
<path d="M1.8125 8.59378C1.9375 8.59378 2.0625 8.50003 2.0625 8.37503C2.09375 7.87503 2.15625 7.34378 2.28125 6.87503C2.3125 6.75003 2.25 6.62503 2.125 6.59378C2 6.56253 1.875 6.62503 1.84375 6.75003C1.71875 7.28128 1.625 7.81253 1.59375 8.34378C1.59375 8.50003 1.6875 8.59378 1.8125 8.59378Z" fill="#111827" stroke="#111827" stroke-width="0.5"/>
<path d="M2.62477 5.28121C2.65602 5.31246 2.68727 5.31246 2.74977 5.31246C2.84352 5.31246 2.90602 5.28122 2.96852 5.18747C3.21852 4.74997 3.49977 4.31247 3.84352 3.93747C3.93727 3.84372 3.90602 3.68747 3.81227 3.59372C3.71852 3.49997 3.56227 3.53122 3.46852 3.62497C3.12477 4.03122 2.81227 4.46871 2.53102 4.96871C2.46852 5.06246 2.53102 5.21871 2.62477 5.28121Z" fill="#111827" stroke="#111827" stroke-width="0.5"/>
<path d="M2.46895 12C2.5002 12 2.53145 12 2.5627 11.9688C2.6877 11.9063 2.71895 11.7813 2.6877 11.6563C2.46895 11.1875 2.3127 10.7188 2.21895 10.2188C2.1877 10.0938 2.0627 10 1.9377 10.0313C1.8127 10.0625 1.71895 10.1875 1.7502 10.3125C1.8752 10.8438 2.03145 11.375 2.2502 11.8438C2.28145 11.9375 2.3752 12 2.46895 12Z" fill="#111827" stroke="#111827" stroke-width="0.5"/>
<path d="M11.625 1.78122C12.0938 1.93747 12.5625 2.15622 13 2.40622C13.0313 2.43747 13.0938 2.43747 13.125 2.43747C13.2188 2.43747 13.2813 2.40622 13.3125 2.31247C13.375 2.18747 13.3438 2.06247 13.2188 1.99997C12.75 1.71872 12.25 1.49997 11.75 1.31247C11.625 1.28122 11.5 1.34372 11.4375 1.46872C11.4375 1.62497 11.5 1.74997 11.625 1.78122Z" fill="#111827" stroke="#111827" stroke-width="0.5"/>
<path d="M4.40622 14.6563C4.43747 14.6875 4.49997 14.7188 4.56247 14.7188C4.62497 14.7188 4.68747 14.6875 4.74997 14.625C4.84372 14.5313 4.81247 14.375 4.71872 14.2813C4.31247 13.9688 3.96872 13.5938 3.65622 13.1875C3.56247 13.0938 3.43747 13.0625 3.31247 13.1563C3.21872 13.25 3.18747 13.375 3.28122 13.5C3.59372 13.9375 3.96872 14.3125 4.40622 14.6563Z" fill="#111827" stroke="#111827" stroke-width="0.5"/>
<path d="M16.4064 7.12497C16.4377 7.24997 16.5314 7.31247 16.6252 7.31247C16.6564 7.31247 16.6564 7.31247 16.6877 7.31247C16.8127 7.28122 16.9064 7.15622 16.8751 7.03122C16.8126 6.78122 16.7501 6.49997 16.6564 6.24997C16.6252 6.12497 16.4689 6.06247 16.3439 6.09372C16.2189 6.12497 16.1564 6.28122 16.1877 6.40622C16.2814 6.62497 16.3752 6.87497 16.4064 7.12497Z" fill="#111827" stroke="#111827" stroke-width="0.5"/>
<path d="M13.1875 4.5L12.3125 5.375C11.5938 4.71875 10.625 4.28125 9.59375 4.25V3C9.59375 2.875 9.5 2.75 9.34375 2.75C9.21875 2.75 9.09375 2.84375 9.09375 3V4.25C8.03125 4.3125 7.09375 4.71875 6.375 5.375L5.5 4.5C5.40625 4.40625 5.25 4.40625 5.15625 4.5C5.0625 4.59375 5.0625 4.75 5.15625 4.84375L6.03125 5.71875C5.375 6.4375 4.9375 7.40625 4.90625 8.4375H3.65625C3.53125 8.4375 3.40625 8.53125 3.40625 8.6875C3.40625 8.8125 3.5 8.9375 3.65625 8.9375H4.90625C4.96875 10 5.375 10.9375 6.03125 11.6563L5.15625 12.5313C5.0625 12.625 5.0625 12.7813 5.15625 12.875C5.1875 12.9063 5.25 12.9375 5.3125 12.9375C5.375 12.9375 5.4375 12.9063 5.46875 12.875L6.34375 12C7.0625 12.6563 8.03125 13.0938 9.0625 13.125V14.375C9.0625 14.5 9.15625 14.625 9.3125 14.625C9.4375 14.625 9.5625 14.5313 9.5625 14.375V13.125C10.625 13.0625 11.5625 12.6563 12.2812 12L13.1562 12.875C13.1875 12.9063 13.25 12.9375 13.3125 12.9375C13.375 12.9375 13.4375 12.9063 13.4687 12.875C13.5625 12.7813 13.5625 12.625 13.4687 12.5313L12.5938 11.6563C13.25 10.9375 13.6875 9.96875 13.7188 8.9375H14.9688C15.0938 8.9375 15.2188 8.84375 15.2188 8.6875C15.2188 8.5625 15.125 8.4375 14.9688 8.4375H13.7188C13.6562 7.375 13.25 6.4375 12.5938 5.71875L13.4687 4.84375C13.5625 4.75 13.5625 4.59375 13.4687 4.5C13.4062 4.40625 13.25 4.40625 13.1875 4.5ZM13.2812 8.6875C13.2812 10.875 11.5 12.6563 9.3125 12.6563C7.125 12.6563 5.34375 10.875 5.34375 8.6875C5.34375 6.5 7.125 4.71875 9.3125 4.71875C11.5 4.71875 13.2812 6.5 13.2812 8.6875Z" fill="#111827" stroke="#111827" stroke-width="0.5"/>
<path d="M9.3125 5.78125C7.71875 5.78125 6.4375 7.0625 6.4375 8.65625C6.4375 10.25 7.71875 11.5313 9.3125 11.5313C10.9062 11.5313 12.1875 10.25 12.1875 8.65625C12.1875 7.09375 10.9062 5.78125 9.3125 5.78125ZM9.3125 11.0938C7.96875 11.0938 6.90625 10 6.90625 8.6875C6.90625 7.375 8 6.28125 9.3125 6.28125C10.6562 6.28125 11.7188 7.375 11.7188 8.6875C11.7188 10 10.6562 11.0938 9.3125 11.0938Z" fill="#111827" stroke="#111827" stroke-width="0.5"/>
<path d="M28.125 35.6562H23.6562C23.5312 35.6562 23.4062 35.75 23.4062 35.9062C23.4062 36.0312 23.5 36.1562 23.6562 36.1562H28.125C28.25 36.1562 28.375 36.0625 28.375 35.9062C28.375 35.75 28.25 35.6562 28.125 35.6562Z" fill="#111827" stroke="#111827" stroke-width="0.5"/>
<path d="M36.9688 39.125C36.7188 38.25 36.4375 37.4063 36.1875 36.5938C35.5625 34.5938 33.75 33.4688 31.4375 33.6563C31.2812 33.6563 31.0625 33.6875 30.8437 33.75L29.9688 32.4688V30.7813C30.6875 30.125 31.2812 29.2188 31.6562 28.125C32.25 28.125 32.6875 27.2813 32.6875 26.1563C32.6875 25.25 32.4062 24.5313 31.9688 24.2813V24.25C32.0312 23.6563 32.125 23.0313 32.1562 22.4063C32.3438 19.7188 31.625 19.375 30.25 18.9375C30.1562 18.9063 30.0312 18.875 29.9375 18.8438C28.8438 18.5 27.7187 18.4063 26.9375 18.4063C26.625 18.4063 26.3125 18.4375 26 18.4375C26.0625 15.8125 25.2188 15.4375 23.7188 14.9688C23.5938 14.9375 23.4687 14.875 23.3437 14.8438C22.0312 14.4375 20.6875 14.3438 19.7812 14.3125C18.875 14.3125 17.5313 14.4063 16.2188 14.8438C16.0938 14.875 15.9688 14.9375 15.8438 14.9688C14.3438 15.4375 13.5 15.8125 13.5625 18.4375C13.25 18.4063 12.9375 18.4063 12.625 18.4063C11.875 18.4063 10.75 18.5 9.625 18.8438C9.5 18.875 9.40625 18.9063 9.3125 18.9375C7.9375 19.375 7.21875 19.7188 7.40625 22.4063C7.4375 23.0313 7.53125 23.6563 7.59375 24.25V24.2813C7.15625 24.5313 6.875 25.25 6.875 26.1563C6.875 27.2813 7.3125 28.125 7.90625 28.125C8.28125 29.2188 8.875 30.125 9.59375 30.7813V32.4688L8.71875 33.75C8.5 33.7188 8.28125 33.6875 8.125 33.6563C5.8125 33.4688 4 34.5938 3.375 36.5938C3.125 37.4375 2.84375 38.2813 2.59375 39.125V39.1563V39.1875C2.59375 39.2188 2.59375 39.2188 2.59375 39.25V39.2813L2.625 39.3125L2.65625 39.3438L2.6875 39.375L2.71875 39.4063C2.75 39.4063 2.75 39.4063 2.78125 39.4063H8H17.125H22.4375H31.5625H36.7812C36.8125 39.4063 36.8125 39.4063 36.8438 39.4063C36.8438 39.4063 36.875 39.4063 36.875 39.375C36.875 39.375 36.9062 39.375 36.9062 39.3438L36.9375 39.3125L36.9688 39.2813V39.25C36.9688 39.2188 36.9688 39.2188 36.9688 39.1875V39.1563C36.9688 39.1563 37 39.1563 36.9688 39.125ZM30.3437 33.8438C30.0312 33.9063 29.7188 33.9688 29.5 33.9688C28.4375 32.9688 26.9375 32.4688 25.1562 32.625C24.6875 32.6563 24.2188 32.6875 23.7188 32.6875C23.7812 32.5625 23.875 32.4375 23.9375 32.2813C23.9375 32.2813 23.9375 32.2813 23.9375 32.25C23.9375 32.2188 23.9375 32.2188 23.9375 32.1875V32.1563C23.9375 32.125 23.9375 32.125 23.9375 32.0938V32.0625V32.0313L23.3437 31.125V30.1563C24.3125 31.3125 25.5937 31.9688 26.9375 31.9688C27.875 31.9688 28.7188 31.6563 29.5 31.125V32.5C29.5 32.5 29.5 32.5 29.5 32.5313C29.5 32.5625 29.5 32.5625 29.5 32.5625C29.5 32.5625 29.5 32.5938 29.5312 32.5938C29.5312 32.5938 29.5312 32.5938 29.5312 32.625L30.3437 33.8438ZM18.8125 33.625H20.7188L21.1875 35.625C20.5313 36.4063 19.9688 36.8438 19.75 37.0313C19.5312 36.8438 19 36.4063 18.3125 35.625L18.8125 33.625ZM18.75 33.1563L18.3438 32.4375H21.1875L20.7812 33.1563H18.75ZM21.1562 33.4375L21.8125 32.3438C21.8438 32.2813 21.8438 32.1875 21.8125 32.0938C21.7813 32.0313 21.6875 31.9688 21.5938 31.9688H17.9375C17.8438 31.9688 17.7813 32 17.7188 32.0938C17.6875 32.1563 17.6875 32.25 17.7188 32.3438L18.375 33.4688L17.9688 35.1875C17.375 34.4375 16.6875 33.4375 16.0625 32.1875L16.625 31.3125C16.625 31.3125 16.625 31.3125 16.625 31.2813C16.625 31.2813 16.625 31.25 16.6562 31.25V31.2188C16.6562 31.2188 16.6562 31.2188 16.6562 31.1875V29.4375C17.5625 30.125 18.625 30.5 19.75 30.5C20.875 30.5 21.9375 30.125 22.8437 29.4375V31.1875C22.8437 31.1875 22.8437 31.1875 22.8437 31.2188C22.8437 31.25 22.8437 31.25 22.8437 31.25C22.8437 31.25 22.8437 31.2813 22.875 31.2813C22.875 31.2813 22.875 31.2813 22.875 31.3125L23.4375 32.1563C22.875 33.25 22.25 34.25 21.5625 35.125L21.1562 33.4375ZM32.2187 26.125C32.2187 27.0313 31.9062 27.625 31.6562 27.625C31.625 27.625 31.625 27.625 31.5937 27.625C31.5312 27.5938 31.4688 27.5938 31.4062 27.625C31.3437 27.6563 31.3125 27.7188 31.2812 27.7813C30.5625 30.0625 28.875 31.5313 26.9375 31.5313C25.5937 31.5313 24.3438 30.8125 23.4375 29.5313C23.4062 29.5 23.375 29.4688 23.3437 29.4688V29.0625C24.2187 28.25 24.9375 27.1563 25.4062 25.8438H25.4375C26.125 25.8438 26.625 24.8438 26.625 23.5313C26.625 23 26.5312 22.5 26.4062 22.125C26.875 22.2813 27.2187 22.25 27.2187 22.25C27.25 22.25 29.6875 22.2188 30.5625 22.3438C31.0938 22.4063 31.4375 23.6875 31.5312 24.3438V24.375V24.4063V24.4375C31.5625 24.5313 31.625 24.5938 31.7188 24.625C31.9062 24.6875 32.2187 25.25 32.2187 26.125ZM25.75 21.2813C25.8438 20.5625 25.9375 19.8125 25.9687 19.0938C25.9687 19.0313 25.9687 19 25.9687 18.9375C26.2812 18.9063 26.5937 18.9063 26.9062 18.875C27.9375 18.875 28.9375 19.0313 29.75 19.2813C29.875 19.3125 29.9688 19.3438 30.0938 19.375C31.2812 19.75 31.8438 19.9063 31.6875 22.3438C31.6875 22.5625 31.6562 22.7813 31.625 22.9688C31.4062 22.4063 31.0938 21.875 30.5625 21.8438C29.6562 21.75 27.25 21.75 27.125 21.75C27.125 21.75 26.6875 21.7813 26.0938 21.5C26.0625 21.4688 26 21.4688 25.9687 21.4688C25.875 21.375 25.8125 21.3125 25.7188 21.25L25.75 21.2813ZM15.9375 15.4375C16.0625 15.4063 16.1875 15.3438 16.3438 15.3125C17.3438 15 18.5312 14.8125 19.75 14.8125C21 14.8125 22.1875 15 23.1875 15.3125C23.3125 15.3438 23.4687 15.4063 23.5938 15.4375C25.0625 15.875 25.7187 16.0938 25.5312 19.0625C25.5 19.375 25.4688 19.7188 25.4375 20.0313C25.1875 19.3125 24.7812 18.5625 24.1562 18.5C23.0938 18.375 20.1875 18.4063 20.0625 18.4063C20.0625 18.4063 18.8438 18.4688 17.5312 17.2188C17.4688 17.1563 17.4062 17.1563 17.3438 17.1563C17.2812 17.1563 17.2188 17.1875 17.1875 17.25C17 17.5313 16.7812 18.0625 17.0312 18.5938C16.3125 18.4688 15.2812 18.4063 14.8438 18.875C14.5938 19.1875 14.3438 19.7188 14.1875 20.2188C14.1563 19.8438 14.0938 19.4375 14.0938 19.0625C13.8438 16.0938 14.5 15.875 15.9375 15.4375ZM14.0625 21.7188C14.1562 21.6875 14.2188 21.625 14.25 21.5313V21.4688C14.375 20.9375 14.75 19.625 15.125 19.1563C15.4375 18.8125 16.6875 18.9375 17.5 19.1563C17.5938 19.1875 17.7188 19.125 17.7813 19.0313C17.8438 18.9375 17.8125 18.8125 17.7188 18.75C17.25 18.4063 17.3125 18 17.375 17.75C18.7812 18.9688 20 18.875 20.0312 18.875C20.0625 18.875 23 18.8438 24.0625 18.9688C24.6875 19.0313 25.125 20.4688 25.25 21.4063C25.25 21.4375 25.25 21.4375 25.25 21.4688V21.5C25.2812 21.5938 25.3438 21.6563 25.4375 21.6875C25.75 21.75 26.0938 22.5 26.0938 23.5C26.0938 24.625 25.6875 25.3438 25.375 25.3438C25.3437 25.3438 25.3125 25.3438 25.2812 25.3125C25.2188 25.2813 25.1562 25.2813 25.0938 25.3125C25.0312 25.3438 25 25.4063 24.9688 25.4688C24.125 28.2188 22.0625 30 19.7188 30C17.375 30 15.3438 28.2188 14.4688 25.4688C14.4375 25.4063 14.4063 25.3438 14.3438 25.3125C14.3125 25.3125 14.2812 25.2813 14.25 25.2813C14.2188 25.2813 14.1875 25.2813 14.1562 25.3125C14.125 25.3438 14.0938 25.3438 14.0625 25.3438C13.7812 25.3438 13.3438 24.6563 13.3438 23.5C13.4063 22.5625 13.75 21.8125 14.0625 21.7188ZM9.4375 19.4063C9.53125 19.375 9.65625 19.3438 9.78125 19.3125C10.5938 19.0625 11.5938 18.9063 12.625 18.9063C12.9375 18.9063 13.25 18.9375 13.5625 18.9688C13.5625 19.0313 13.5625 19.0625 13.5625 19.125C13.5938 19.875 13.6875 20.5938 13.7812 21.3125V21.375C13.6875 21.4063 13.5938 21.5 13.5312 21.5938C13.5 21.5938 13.4375 21.5938 13.4063 21.625C12.8125 21.9063 12.375 21.875 12.3438 21.875C12.25 21.875 9.84375 21.8438 8.9375 21.9688C8.4375 22.0313 8.09375 22.5625 7.875 23.0938C7.84375 22.875 7.84375 22.6563 7.8125 22.4688C7.6875 19.9375 8.21875 19.7813 9.4375 19.4063ZM8.25 27.75C8.21875 27.6875 8.1875 27.625 8.125 27.5938C8.0625 27.5625 8 27.5625 7.9375 27.5938C7.90625 27.5938 7.875 27.5938 7.875 27.5938C7.65625 27.5938 7.3125 27 7.3125 26.0938C7.3125 25.2188 7.625 24.6563 7.84375 24.625C7.9375 24.5938 8 24.5313 8.03125 24.4375V24.4063C8.03125 24.4063 8.03125 24.375 8.03125 24.3438C8.125 23.6875 8.46875 22.375 9 22.3438C9.625 22.2813 11.0312 22.25 11.8125 22.25C12.125 22.25 12.3438 22.25 12.3438 22.25C12.375 22.25 12.6875 22.2813 13.1562 22.125C13 22.5 12.9375 23 12.9375 23.5313C12.9375 24.8438 13.4375 25.8438 14.125 25.8438H14.1562C14.5938 27.1875 15.3125 28.2813 16.1875 29.0625V29.4375C16.1562 29.4688 16.125 29.4688 16.0938 29.5C15.2188 30.7813 13.9375 31.5 12.5938 31.5C10.6562 31.5 8.96875 30.0313 8.25 27.75ZM10 32.6563C10.0313 32.625 10.0312 32.5938 10.0312 32.5938V32.5625C10.0312 32.5625 10.0312 32.5625 10.0312 32.5313V31.1563C10.7812 31.6875 11.6562 32 12.5938 32C13.9375 32 15.2188 31.3438 16.1875 30.1875V31.1563L15.5938 32.0625V32.0938C15.5938 32.0938 15.5938 32.125 15.5625 32.125V32.1563V32.1875C15.5625 32.2188 15.5625 32.2188 15.5625 32.2188V32.25C15.625 32.375 15.6875 32.5 15.7812 32.6563C15.3125 32.625 14.8438 32.625 14.375 32.5938C12.625 32.4688 11.0938 32.9688 10.0312 33.9375C9.8125 33.9375 9.5 33.875 9.1875 33.8125L10 32.6563ZM7.8125 38.9688H3.09375C3.3125 38.2188 3.5625 37.4688 3.78125 36.7188C4.34375 34.9375 5.96875 33.9688 8.0625 34.125C8.28125 34.125 8.65625 34.2188 9 34.2813C9.21875 34.3125 9.4375 34.375 9.65625 34.4063C9.25 34.875 8.9375 35.4688 8.75 36.0938C8.75 36.125 8.71875 36.1563 8.71875 36.2188H5.625C5.5 36.2188 5.375 36.3125 5.375 36.4688C5.375 36.5938 5.46875 36.7188 5.625 36.7188H8.53125C8.28125 37.4375 8.0625 38.1875 7.8125 38.9688ZM22.4062 38.9688H17.0938H8.3125C8.59375 38.0625 8.875 37.125 9.15625 36.2188C9.8125 34.0938 11.8125 32.875 14.3125 33.0625C14.875 33.0938 15.4688 33.125 16.0312 33.1563C17.7812 36.25 19.5312 37.4688 19.625 37.5313C19.625 37.5313 19.625 37.5313 19.6562 37.5313C19.6562 37.5313 19.6562 37.5313 19.6875 37.5313C19.7188 37.5313 19.75 37.5625 19.7812 37.5625C19.8125 37.5625 19.8438 37.5625 19.875 37.5313C19.875 37.5313 19.875 37.5313 19.9062 37.5313C19.9062 37.5313 19.9062 37.5313 19.9375 37.5313C19.9688 37.5 20.7188 37 21.6875 35.8438C22.3438 35.0625 22.9688 34.1563 23.5312 33.1563C24.0938 33.125 24.6875 33.0938 25.25 33.0625C27.7812 32.875 29.75 34.0625 30.4062 36.2188C30.6875 37.0938 30.9688 38.0313 31.25 38.9688H22.4062ZM31.7188 38.9688C31.5 38.1875 31.25 37.4375 31.0312 36.6875H33.9375C34.0625 36.6875 34.1875 36.5938 34.1875 36.4375C34.1875 36.3125 34.0937 36.1875 33.9375 36.1875H30.875C30.875 36.1563 30.8437 36.125 30.8437 36.0625C30.6562 35.4063 30.3438 34.8438 29.9375 34.375C30.1562 34.3438 30.375 34.3125 30.5938 34.25C30.9375 34.1875 31.2812 34.125 31.5312 34.0938C33.625 33.9375 35.25 34.9375 35.8125 36.6875C36.0312 37.4063 36.2812 38.1563 36.5 38.9063H31.7188V38.9688Z" fill="#111827" stroke="#111827" stroke-width="0.5"/>
<path d="M19.7812 4.8125C19.9063 4.8125 20.0312 4.71875 20.0312 4.5625V1.28125C20.0312 1.15625 19.9375 1.03125 19.7812 1.03125C19.6562 1.03125 19.5312 1.125 19.5312 1.28125V4.5625C19.5312 4.71875 19.625 4.8125 19.7812 4.8125Z" fill="#111827" stroke="#111827" stroke-width="0.5"/>
<path d="M19.7812 6.96875C19.9063 6.96875 20.0312 6.875 20.0312 6.71875V5.65625C20.0312 5.53125 19.9375 5.40625 19.7812 5.40625C19.6562 5.40625 19.5312 5.5 19.5312 5.65625V6.71875C19.5312 6.875 19.625 6.96875 19.7812 6.96875Z" fill="#111827" stroke="#111827" stroke-width="0.5"/>
<path d="M34.1875 28.7188C34.3125 28.7188 34.4375 28.625 34.4375 28.4688V25.1875C34.4375 25.0625 34.3438 24.9375 34.1875 24.9375C34.0625 24.9375 33.9375 25.0312 33.9375 25.1875V28.4688C33.9688 28.625 34.0625 28.7188 34.1875 28.7188Z" fill="#111827" stroke="#111827" stroke-width="0.5"/>
<path d="M33.9688 30.6562C33.9688 30.7812 34.0625 30.9062 34.2188 30.9062C34.3437 30.9062 34.4688 30.8125 34.4688 30.6562V29.5937C34.4688 29.4687 34.375 29.3438 34.2188 29.3438C34.0938 29.3438 33.9688 29.4375 33.9688 29.5937V30.6562Z" fill="#111827" stroke="#111827" stroke-width="0.5"/>
<path d="M24.2813 1.40625C24.3125 1.4375 24.375 1.46875 24.4375 1.46875C24.5 1.46875 24.5625 1.4375 24.5938 1.40625C24.6875 1.3125 24.6875 1.15625 24.5938 1.0625L24.1563 0.625C24.0625 0.53125 23.9063 0.53125 23.8125 0.625C23.7187 0.71875 23.7187 0.875 23.8125 0.96875L24.2813 1.40625Z" fill="#111827" stroke="#111827" stroke-width="0.5"/>
<path d="M25.7188 2.84375C25.75 2.875 25.8125 2.90625 25.875 2.90625C25.9375 2.90625 26 2.875 26.0312 2.84375C26.125 2.75 26.125 2.59375 26.0312 2.5L25.5937 2.0625C25.5 1.96875 25.3438 1.96875 25.25 2.0625C25.1562 2.15625 25.1562 2.3125 25.25 2.40625L25.7188 2.84375Z" fill="#111827" stroke="#111827" stroke-width="0.5"/>
<path d="M24 2.9375C24.0625 2.9375 24.125 2.90625 24.1563 2.875L24.5938 2.4375C24.6875 2.34375 24.6875 2.1875 24.5938 2.09375C24.5 2 24.3438 2 24.25 2.09375L23.8125 2.53125C23.7187 2.625 23.7187 2.78125 23.8125 2.875C23.875 2.90625 23.9375 2.9375 24 2.9375Z" fill="#111827" stroke="#111827" stroke-width="0.5"/>
<path d="M25.4375 1.46875C25.5 1.46875 25.5625 1.4375 25.5937 1.40625L26.0312 0.96875C26.125 0.875 26.125 0.71875 26.0312 0.625C25.9375 0.53125 25.7812 0.53125 25.6875 0.625L25.25 1.0625C25.1562 1.15625 25.1562 1.3125 25.25 1.40625C25.3125 1.46875 25.375 1.46875 25.4375 1.46875Z" fill="#111827" stroke="#111827" stroke-width="0.5"/>
<path d="M34.9688 17.6562C35 17.6875 35.0625 17.7188 35.125 17.7188C35.1875 17.7188 35.25 17.6875 35.2813 17.6562C35.375 17.5625 35.375 17.4063 35.2813 17.3125L34.8438 16.875C34.75 16.7813 34.5938 16.7813 34.5 16.875C34.4062 16.9687 34.4062 17.125 34.5 17.2187L34.9688 17.6562Z" fill="#111827" stroke="#111827" stroke-width="0.5"/>
<path d="M35.9693 18.6563L36.4068 19.0937C36.4381 19.125 36.5006 19.1563 36.5631 19.1563C36.6256 19.1563 36.6881 19.125 36.7193 19.0937C36.8131 19 36.8131 18.8438 36.7193 18.75L36.2818 18.3125C36.1881 18.2188 36.0318 18.2188 35.9381 18.3125C35.8756 18.4062 35.8756 18.5625 35.9693 18.6563Z" fill="#111827" stroke="#111827" stroke-width="0.5"/>
<path d="M34.5309 19.0937C34.5621 19.125 34.6246 19.1563 34.6871 19.1563C34.7496 19.1563 34.8121 19.125 34.8434 19.0937L35.2809 18.6563C35.3746 18.5625 35.3746 18.4062 35.2809 18.3125C35.1871 18.2188 35.0309 18.2188 34.9371 18.3125L34.4996 18.75C34.4371 18.8438 34.4371 19 34.5309 19.0937Z" fill="#111827" stroke="#111827" stroke-width="0.5"/>
<path d="M36.1562 17.7188C36.2187 17.7188 36.2812 17.6875 36.3125 17.6562L36.75 17.2187C36.8438 17.125 36.8438 16.9687 36.75 16.875C36.6562 16.7813 36.5 16.7813 36.4063 16.875L35.9688 17.3125C35.875 17.4063 35.875 17.5625 35.9688 17.6562C36.0312 17.6875 36.0937 17.7188 36.1562 17.7188Z" fill="#111827" stroke="#111827" stroke-width="0.5"/>
<path d="M37.0313 32.1562C36.9375 32.0625 36.7813 32.0625 36.6875 32.1562C36.5937 32.25 36.5937 32.4062 36.6875 32.5L37.125 32.9375C37.1563 32.9687 37.2188 33 37.2813 33C37.3438 33 37.4063 32.9687 37.4375 32.9375C37.5313 32.8437 37.5313 32.6875 37.4375 32.5937L37.0313 32.1562Z" fill="#111827" stroke="#111827" stroke-width="0.5"/>
<path d="M38.5 33.5937C38.4063 33.5 38.25 33.5 38.1563 33.5937C38.0625 33.6875 38.0625 33.8437 38.1563 33.9375L38.5938 34.375C38.625 34.4062 38.6875 34.4375 38.75 34.4375C38.8125 34.4375 38.875 34.4062 38.9063 34.375C39 34.2812 39 34.125 38.9063 34.0312L38.5 33.5937Z" fill="#111827" stroke="#111827" stroke-width="0.5"/>
<path d="M37.1563 33.5937L36.7187 34.0312C36.625 34.125 36.625 34.2812 36.7187 34.375C36.75 34.4062 36.8125 34.4375 36.875 34.4375C36.9375 34.4375 37 34.4062 37.0312 34.375L37.4688 33.9375C37.5625 33.8437 37.5625 33.6875 37.4688 33.5937C37.4062 33.5 37.25 33.5 37.1563 33.5937Z" fill="#111827" stroke="#111827" stroke-width="0.5"/>
<path d="M38.5938 32.1562L38.1563 32.5937C38.0625 32.6875 38.0625 32.8437 38.1563 32.9375C38.1875 32.9687 38.25 33 38.3125 33C38.375 33 38.4375 32.9687 38.4688 32.9375L38.9063 32.5C39 32.4062 39 32.25 38.9063 32.1562C38.8438 32.0625 38.6875 32.0625 38.5938 32.1562Z" fill="#111827" stroke="#111827" stroke-width="0.5"/>
<path d="M2.59375 24.5312L2.15625 24.0937C2.0625 24 1.90625 24 1.8125 24.0937C1.71875 24.1875 1.71875 24.3437 1.8125 24.4375L2.25 24.875C2.28125 24.9062 2.34375 24.9375 2.40625 24.9375C2.46875 24.9375 2.53125 24.9062 2.5625 24.875C2.6875 24.7812 2.6875 24.625 2.59375 24.5312Z" fill="#111827" stroke="#111827" stroke-width="0.5"/>
<path d="M3.59375 25.5313C3.5 25.4375 3.34375 25.4375 3.25 25.5313C3.15625 25.625 3.15625 25.7813 3.25 25.875L3.6875 26.3125C3.71875 26.3438 3.78125 26.375 3.84375 26.375C3.90625 26.375 3.96875 26.3438 4 26.3125C4.09375 26.2188 4.09375 26.0625 4 25.9688L3.59375 25.5313Z" fill="#111827" stroke="#111827" stroke-width="0.5"/>
<path d="M2.28125 25.5313L1.84375 25.9688C1.75 26.0625 1.75 26.2188 1.84375 26.3125C1.875 26.3438 1.9375 26.375 2 26.375C2.0625 26.375 2.125 26.3438 2.15625 26.3125L2.59375 25.875C2.6875 25.7813 2.6875 25.625 2.59375 25.5313C2.53125 25.4375 2.375 25.4375 2.28125 25.5313Z" fill="#111827" stroke="#111827" stroke-width="0.5"/>
<path d="M4.0625 24.0937C3.96875 24 3.8125 24 3.71875 24.0937L3.28125 24.5312C3.1875 24.625 3.1875 24.7812 3.28125 24.875C3.3125 24.9062 3.375 24.9375 3.4375 24.9375C3.5 24.9375 3.5625 24.9062 3.59375 24.875L4.03125 24.4375C4.15625 24.3125 4.15625 24.1875 4.0625 24.0937Z" fill="#111827" stroke="#111827" stroke-width="0.5"/>
<path d="M38.75 2.8125C39.3438 2.8125 39.8438 2.34375 39.8438 1.71875C39.8438 1.125 39.375 0.625 38.75 0.625C38.125 0.625 37.6562 1.09375 37.6562 1.71875C37.6875 2.34375 38.1562 2.8125 38.75 2.8125ZM38.75 1.125C39.0938 1.125 39.3438 1.40625 39.3438 1.71875C39.3438 2.03125 39.0625 2.3125 38.75 2.3125C38.4062 2.3125 38.1562 2.03125 38.1562 1.71875C38.1562 1.40625 38.4375 1.125 38.75 1.125Z" fill="#111827" stroke="#111827" stroke-width="0.5"/>
<path d="M4.65625 19.4062C4.65625 18.7187 4.09375 18.1562 3.40625 18.1562C2.71875 18.1562 2.15625 18.7187 2.15625 19.4062C2.15625 20.0937 2.71875 20.6562 3.40625 20.6562C4.09375 20.6562 4.65625 20.0937 4.65625 19.4062ZM2.625 19.4062C2.625 18.9687 2.96875 18.625 3.40625 18.625C3.84375 18.625 4.1875 18.9687 4.1875 19.4062C4.1875 19.8437 3.84375 20.1875 3.40625 20.1875C2.96875 20.1875 2.625 19.8437 2.625 19.4062Z" fill="#111827" stroke="#111827" stroke-width="0.5"/>
<path d="M38.125 22.8125C37.5312 22.8125 37.0312 23.2812 37.0312 23.9062C37.0312 24.5 37.5 25 38.125 25C38.7188 25 39.2188 24.5312 39.2188 23.9062C39.2188 23.2812 38.7188 22.8125 38.125 22.8125ZM38.125 24.5C37.7812 24.5 37.5312 24.2188 37.5312 23.9062C37.5312 23.5625 37.8125 23.3125 38.125 23.3125C38.4688 23.3125 38.7188 23.5938 38.7188 23.9062C38.75 24.2188 38.4688 24.5 38.125 24.5Z" fill="#111827" stroke="#111827" stroke-width="0.5"/>
<path d="M21.75 10.4688H25.6563C25.7813 10.4688 25.9063 10.375 25.9063 10.2188C25.9063 10.0938 25.8125 9.96875 25.6563 9.96875H21.75C21.625 9.96875 21.5 10.0625 21.5 10.2188C21.5 10.375 21.625 10.4688 21.75 10.4688Z" fill="#111827" stroke="#111827" stroke-width="0.5"/>
<path d="M19.1875 10.4688H20.4688C20.5938 10.4688 20.7188 10.375 20.7188 10.2188C20.7188 10.0938 20.625 9.96875 20.4688 9.96875H19.1875C19.0625 9.96875 18.9375 10.0625 18.9375 10.2188C18.9688 10.375 19.0625 10.4688 19.1875 10.4688Z" fill="#111827" stroke="#111827" stroke-width="0.5"/>
<path d="M19.1875 11.8125H21.9063C22.0313 11.8125 22.1563 11.7187 22.1563 11.5625C22.1563 11.4375 22.0625 11.3125 21.9063 11.3125H19.1875C19.0625 11.3125 18.9375 11.4062 18.9375 11.5625C18.9688 11.7187 19.0625 11.8125 19.1875 11.8125Z" fill="#111827" stroke="#111827" stroke-width="0.5"/>
<path d="M23.0938 11.3438C22.9688 11.3438 22.8438 11.4375 22.8438 11.5938C22.8438 11.7188 22.9375 11.8438 23.0938 11.8438H23.9687C24.0937 11.8438 24.2187 11.75 24.2187 11.5938C24.2187 11.4688 24.125 11.3438 23.9687 11.3438H23.0938Z" fill="#111827" stroke="#111827" stroke-width="0.5"/>
<path d="M7.09375 30.5625C7.09375 30.4375 7 30.3125 6.84375 30.3125H2.9375C2.8125 30.3125 2.6875 30.4063 2.6875 30.5625C2.6875 30.6875 2.78125 30.8125 2.9375 30.8125H6.84375C6.96875 30.7813 7.09375 30.6875 7.09375 30.5625Z" fill="#111827" stroke="#111827" stroke-width="0.5"/>
<path d="M0.40625 30.7813H1.6875C1.8125 30.7813 1.9375 30.6875 1.9375 30.5313C1.9375 30.4063 1.84375 30.2812 1.6875 30.2812H0.40625C0.28125 30.2812 0.15625 30.375 0.15625 30.5313C0.15625 30.6875 0.25 30.7813 0.40625 30.7813Z" fill="#111827" stroke="#111827" stroke-width="0.5"/>
<path d="M3.34375 31.875C3.34375 31.75 3.25 31.625 3.09375 31.625H0.40625C0.28125 31.625 0.15625 31.7188 0.15625 31.875C0.15625 32 0.25 32.125 0.40625 32.125H3.125C3.25 32.125 3.34375 32.0313 3.34375 31.875Z" fill="#111827" stroke="#111827" stroke-width="0.5"/>
<path d="M4.28125 31.6562C4.15625 31.6562 4.03125 31.75 4.03125 31.9062C4.03125 32.0312 4.125 32.1562 4.28125 32.1562H5.15625C5.28125 32.1562 5.40625 32.0625 5.40625 31.9062C5.40625 31.7812 5.3125 31.6562 5.15625 31.6562H4.28125Z" fill="#111827" stroke="#111827" stroke-width="0.5"/>
<path d="M33.7188 3C30.4688 3 27.8125 5.625 27.8125 8.90625C27.8125 9.375 27.875 9.84375 27.9688 10.3125C28.625 12.9688 30.9688 14.8438 33.7188 14.8438C34.0313 14.8438 34.375 14.8125 34.7188 14.75C37.5625 14.25 39.625 11.8125 39.625 8.90625C39.625 5.625 37 3 33.7188 3ZM34.6563 14.2813C34.3438 14.3438 34.0313 14.375 33.7188 14.375C31.1875 14.375 29.0313 12.6563 28.4375 10.2188C28.3438 9.8125 28.2813 9.375 28.2813 8.9375C28.2813 5.9375 30.7188 3.5 33.7188 3.5C36.7188 3.5 39.1563 5.9375 39.1563 8.9375C39.1563 11.5625 37.2813 13.8125 34.6563 14.2813Z" fill="#111827" stroke="#111827" stroke-width="0.5"/>
<path d="M33.7188 5.03125C33.8438 5.03125 33.9688 4.9375 33.9688 4.78125V4.15625C33.9688 4.03125 33.875 3.90625 33.7188 3.90625C33.5938 3.90625 33.4688 4 33.4688 4.15625V4.78125C33.5 4.9375 33.5938 5.03125 33.7188 5.03125Z" fill="#111827" stroke="#111827" stroke-width="0.5"/>
<path d="M37.0625 7.12503L34.25 8.43753C34.125 8.31253 33.9375 8.21878 33.75 8.21878C33.3438 8.21878 33.0312 8.53128 33.0312 8.93753C33.0312 9.34378 33.3438 9.65628 33.75 9.65628C33.7813 9.65628 33.8125 9.65628 33.8125 9.65628L34.5 11.0625C34.5313 11.1563 34.625 11.1875 34.7187 11.1875C34.75 11.1875 34.7813 11.1875 34.8125 11.1563C34.9375 11.0938 34.9687 10.9688 34.9062 10.8438L34.2188 9.43753C34.25 9.40628 34.25 9.40628 34.2812 9.37503C34.3125 9.34378 34.3125 9.34378 34.3438 9.31253C34.375 9.28128 34.375 9.25003 34.4062 9.18753C34.4062 9.15628 34.4375 9.15628 34.4375 9.12503C34.4687 9.06253 34.4688 9.00003 34.4688 8.93753C34.4688 8.90628 34.4688 8.90628 34.4688 8.87503L37.2812 7.56253C37.4062 7.50003 37.4375 7.37503 37.4062 7.25003C37.3125 7.09378 37.1875 7.06253 37.0625 7.12503ZM33.4688 8.90628C33.4688 8.90628 33.5 8.87503 33.4688 8.90628C33.5 8.87503 33.4688 8.90628 33.4688 8.90628Z" fill="#111827" stroke="#111827" stroke-width="0.5"/>
<path d="M29.625 8.65625H29C28.875 8.65625 28.75 8.75 28.75 8.90625C28.75 9.0625 28.8438 9.15625 29 9.15625H29.625C29.75 9.15625 29.875 9.0625 29.875 8.90625C29.875 8.75 29.75 8.65625 29.625 8.65625Z" fill="#111827" stroke="#111827" stroke-width="0.5"/>
<path d="M33.7188 12.75C33.5938 12.75 33.4688 12.8437 33.4688 13V13.625C33.4688 13.75 33.5625 13.875 33.7188 13.875C33.8438 13.875 33.9688 13.7812 33.9688 13.625V13C33.9688 12.875 33.8438 12.75 33.7188 12.75Z" fill="#111827" stroke="#111827" stroke-width="0.5"/>
<path d="M37.8125 9.125H38.4375C38.5625 9.125 38.6875 9.03125 38.6875 8.875C38.6875 8.71875 38.5937 8.625 38.4375 8.625H37.8125C37.6875 8.625 37.5625 8.71875 37.5625 8.875C37.5625 9.03125 37.6875 9.125 37.8125 9.125Z" fill="#111827" stroke="#111827" stroke-width="0.5"/>
</g>
<defs>
<clipPath id="clip0_912_24671">
<rect width="40" height="40" fill="white"/>
</clipPath>
</defs>
</svg>
