<svg width="40" height="40" viewBox="0 0 40 40" fill="none" xmlns="http://www.w3.org/2000/svg">
<g clip-path="url(#clip0_912_24839)">
<path d="M16.7188 12.6251C11.75 12.6251 7.6875 16.6876 7.6875 21.6563C7.6875 22.3751 7.78125 23.0938 7.9375 23.7813C8.9375 27.8438 12.5313 30.6876 16.7188 30.6876C17.2188 30.6876 17.7188 30.6563 18.25 30.5626C22.5938 29.8126 25.75 26.0626 25.75 21.6563C25.75 16.6876 21.6875 12.6251 16.7188 12.6251ZM18.1875 30.0938C17.6875 30.1876 17.1875 30.2188 16.7188 30.2188C12.75 30.2188 9.34375 27.5313 8.40625 23.6876C8.25 23.0313 8.15625 22.3438 8.15625 21.6563C8.15625 16.9376 12 13.0938 16.7188 13.0938C21.4375 13.0938 25.2813 16.9376 25.2813 21.6563C25.2813 25.8438 22.2813 29.4063 18.1875 30.0938Z" fill="#111827" stroke="#111827" stroke-width="0.5"/>
<path d="M21.9375 19.0001L17.5 21.0938C17.3125 20.8438 17.0312 20.6876 16.7187 20.6876C16.1875 20.6876 15.75 21.1251 15.75 21.6563C15.75 22.1876 16.1875 22.6251 16.7187 22.6251C16.7812 22.6251 16.8437 22.6251 16.9062 22.5938L18 24.8751C18.0312 24.9688 18.125 25.0001 18.2187 25.0001C18.25 25.0001 18.2812 25.0001 18.3125 24.9688C18.4375 24.9063 18.4687 24.7813 18.4062 24.6563L17.3125 22.3751C17.5312 22.1876 17.6562 21.9376 17.6562 21.6251C17.6562 21.5938 17.6562 21.5313 17.6562 21.5001L22.125 19.4063C22.25 19.3438 22.2812 19.2188 22.25 19.0938C22.1875 19.0001 22.0625 18.9688 21.9375 19.0001ZM16.2187 21.6563C16.2187 21.3751 16.4375 21.1563 16.7187 21.1563C17 21.1563 17.2187 21.3751 17.2187 21.6563C17.2187 21.8438 17.0937 22.0313 16.9375 22.0938C16.9375 22.0938 16.9375 22.0938 16.9062 22.0938C16.9062 22.0938 16.9062 22.0938 16.875 22.0938C16.8125 22.1251 16.75 22.1251 16.6875 22.1251C16.4375 22.1563 16.2187 21.9376 16.2187 21.6563Z" fill="#111827" stroke="#111827" stroke-width="0.5"/>
<path d="M16.7188 15.5625C16.8438 15.5625 16.9688 15.4688 16.9688 15.3125V14.3438C16.9688 14.2188 16.875 14.0938 16.7188 14.0938C16.5937 14.0938 16.4688 14.1875 16.4688 14.3438V15.3125C16.4688 15.4688 16.5937 15.5625 16.7188 15.5625Z" fill="#111827" stroke="#111827" stroke-width="0.5"/>
<path d="M10.375 21.4376H9.375C9.25 21.4376 9.125 21.5313 9.125 21.6876C9.125 21.8126 9.21875 21.9376 9.375 21.9376H10.3437C10.4687 21.9376 10.5938 21.8438 10.5938 21.6876C10.5938 21.5313 10.5 21.4376 10.375 21.4376Z" fill="#111827" stroke="#111827" stroke-width="0.5"/>
<path d="M16.7188 27.7813C16.5937 27.7813 16.4688 27.8751 16.4688 28.0313V29.0313C16.4688 29.1563 16.5625 29.2813 16.7188 29.2813C16.8438 29.2813 16.9688 29.1876 16.9688 29.0313V28.0313C16.9375 27.8751 16.8438 27.7813 16.7188 27.7813Z" fill="#111827" stroke="#111827" stroke-width="0.5"/>
<path d="M24.0313 21.4376H23.0625C22.9375 21.4376 22.8125 21.5313 22.8125 21.6876C22.8125 21.8126 22.9063 21.9376 23.0625 21.9376H24.0313C24.1563 21.9376 24.2812 21.8438 24.2812 21.6876C24.2812 21.5313 24.1875 21.4376 24.0313 21.4376Z" fill="#111827" stroke="#111827" stroke-width="0.5"/>
<path d="M11.6875 16.3125C11.5938 16.2188 11.4375 16.2188 11.3438 16.3125C11.25 16.4062 11.25 16.5625 11.3438 16.6562L12.0313 17.3437C12.0625 17.375 12.125 17.4062 12.1875 17.4062C12.25 17.4062 12.3125 17.375 12.3438 17.3437C12.4375 17.25 12.4375 17.0938 12.3438 17L11.6875 16.3125Z" fill="#111827" stroke="#111827" stroke-width="0.5"/>
<path d="M12.0625 26L11.375 26.6875C11.2812 26.7813 11.2812 26.9375 11.375 27.0313C11.4062 27.0625 11.4688 27.0938 11.5312 27.0938C11.5938 27.0938 11.6562 27.0625 11.6875 27.0313L12.375 26.3438C12.4687 26.25 12.4687 26.0938 12.375 26C12.3125 25.9062 12.1562 25.9062 12.0625 26Z" fill="#111827" stroke="#111827" stroke-width="0.5"/>
<path d="M21.375 26C21.2812 25.9062 21.125 25.9062 21.0313 26C20.9375 26.0938 20.9375 26.25 21.0313 26.3438L21.7187 27.0313C21.75 27.0625 21.8125 27.0938 21.875 27.0938C21.9375 27.0938 22 27.0625 22.0312 27.0313C22.125 26.9375 22.125 26.7813 22.0312 26.6875L21.375 26Z" fill="#111827" stroke="#111827" stroke-width="0.5"/>
<path d="M21.1875 17.4062C21.25 17.4062 21.3125 17.375 21.3438 17.3437L22.0312 16.6562C22.125 16.5625 22.125 16.4062 22.0312 16.3125C21.9375 16.2188 21.7813 16.2188 21.6875 16.3125L21 17C20.9063 17.0938 20.9063 17.25 21 17.3437C21.0937 17.4062 21.125 17.4062 21.1875 17.4062Z" fill="#111827" stroke="#111827" stroke-width="0.5"/>
<path d="M1.9375 11.3438C2.0625 11.3438 2.1875 11.2501 2.1875 11.1251V7.18756C2.1875 7.06256 2.09375 6.93756 1.9375 6.93756C1.8125 6.93756 1.6875 7.03131 1.6875 7.18756V11.1251C1.71875 11.2501 1.8125 11.3438 1.9375 11.3438Z" fill="#111827" stroke="#111827" stroke-width="0.5"/>
<path d="M1.9375 13.9375C2.0625 13.9375 2.1875 13.8437 2.1875 13.6875V12.4063C2.1875 12.2813 2.0625 12.1875 1.9375 12.1875C1.8125 12.1875 1.6875 12.2812 1.6875 12.4375V13.7187C1.71875 13.8125 1.8125 13.9375 1.9375 13.9375Z" fill="#111827" stroke="#111827" stroke-width="0.5"/>
<path d="M37.2813 32.8751C37.1563 32.8751 37.0312 32.9688 37.0312 33.1251V37.0626C37.0312 37.1876 37.125 37.3126 37.2813 37.3126C37.4063 37.3126 37.5312 37.2188 37.5312 37.0626V33.1251C37.5 32.9688 37.4063 32.8751 37.2813 32.8751Z" fill="#111827" stroke="#111827" stroke-width="0.5"/>
<path d="M37.2813 38.0938C37.1563 38.0938 37.0312 38.1876 37.0312 38.3438V39.6251C37.0312 39.7501 37.125 39.8751 37.2813 39.8751C37.4063 39.8751 37.5312 39.7813 37.5312 39.6251V38.3438C37.5 38.2188 37.4063 38.0938 37.2813 38.0938Z" fill="#111827" stroke="#111827" stroke-width="0.5"/>
<path d="M35.8125 18.8751C35.8438 18.9063 35.9063 18.9376 35.9688 18.9376C36.0313 18.9376 36.0938 18.9063 36.125 18.8751C36.2188 18.7813 36.2188 18.6251 36.125 18.5313L35.6563 18.0626C35.5625 17.9688 35.4063 17.9688 35.3125 18.0626C35.2187 18.1563 35.2187 18.3126 35.3125 18.4063L35.8125 18.8751Z" fill="#111827" stroke="#111827" stroke-width="0.5"/>
<path d="M37.5 20.4688C37.5625 20.4688 37.625 20.4375 37.6562 20.4063C37.75 20.3125 37.75 20.1563 37.6562 20.0625L37.1875 19.5938C37.0937 19.5 36.9375 19.5 36.8438 19.5938C36.75 19.6875 36.75 19.8438 36.8438 19.9375L37.3125 20.4063C37.375 20.4375 37.4375 20.4688 37.5 20.4688Z" fill="#111827" stroke="#111827" stroke-width="0.5"/>
<path d="M35.3121 20.4063C35.3434 20.4376 35.4059 20.4688 35.4684 20.4688C35.5309 20.4688 35.5934 20.4376 35.6246 20.4063L36.0934 19.9376C36.1871 19.8438 36.1871 19.6876 36.0934 19.5938C35.9996 19.5001 35.8434 19.5001 35.7496 19.5938L35.2809 20.0626C35.2184 20.1563 35.2184 20.3126 35.3121 20.4063Z" fill="#111827" stroke="#111827" stroke-width="0.5"/>
<path d="M36.8746 18.8751C36.9059 18.9063 36.9684 18.9376 37.0309 18.9376C37.0934 18.9376 37.1559 18.9063 37.1871 18.8751L37.6559 18.4063C37.7496 18.3126 37.7496 18.1563 37.6559 18.0626C37.5621 17.9688 37.4059 17.9688 37.3121 18.0626L36.8434 18.5313C36.7809 18.6251 36.7809 18.7813 36.8746 18.8751Z" fill="#111827" stroke="#111827" stroke-width="0.5"/>
<path d="M36.8125 2.59375C36.8438 2.625 36.9063 2.65625 36.9688 2.65625C37.0313 2.65625 37.0938 2.625 37.125 2.59375C37.2188 2.5 37.2188 2.34375 37.125 2.25L36.6563 1.78125C36.5625 1.6875 36.4063 1.6875 36.3125 1.78125C36.2187 1.875 36.2187 2.03125 36.3125 2.125L36.8125 2.59375Z" fill="#111827" stroke="#111827" stroke-width="0.5"/>
<path d="M38.3438 4.15631C38.375 4.18756 38.4375 4.21881 38.5 4.21881C38.5625 4.21881 38.625 4.18756 38.6563 4.15631C38.75 4.06256 38.75 3.90631 38.6563 3.81256L38.1875 3.34381C38.0938 3.25006 37.9375 3.25006 37.8438 3.34381C37.75 3.43756 37.75 3.59381 37.8438 3.68756L38.3438 4.15631Z" fill="#111827" stroke="#111827" stroke-width="0.5"/>
<path d="M36.5 4.21875C36.5625 4.21875 36.625 4.1875 36.6563 4.15625L37.125 3.6875C37.2188 3.59375 37.2188 3.4375 37.125 3.34375C37.0313 3.25 36.875 3.25 36.7813 3.34375L36.3125 3.8125C36.2187 3.90625 36.2187 4.0625 36.3125 4.15625C36.375 4.1875 36.4375 4.21875 36.5 4.21875Z" fill="#111827" stroke="#111827" stroke-width="0.5"/>
<path d="M38.0313 2.68756C38.0938 2.68756 38.1563 2.65631 38.1875 2.62506L38.6563 2.15631C38.75 2.06256 38.75 1.90631 38.6563 1.81256C38.5625 1.71881 38.4063 1.71881 38.3125 1.81256L37.8438 2.28131C37.75 2.37506 37.75 2.53131 37.8438 2.62506C37.9063 2.65631 37.9688 2.68756 38.0313 2.68756Z" fill="#111827" stroke="#111827" stroke-width="0.5"/>
<path d="M0.84375 27.2188C0.875 27.2501 0.9375 27.2813 1 27.2813C1.0625 27.2813 1.125 27.2501 1.15625 27.2188C1.25 27.1251 1.25 26.9688 1.15625 26.8751L0.6875 26.4063C0.59375 26.3126 0.4375 26.3126 0.34375 26.4063C0.25 26.5001 0.25 26.6563 0.34375 26.7501L0.84375 27.2188Z" fill="#111827" stroke="#111827" stroke-width="0.5"/>
<path d="M1.90684 28.2813L2.37559 28.7501C2.40684 28.7813 2.46934 28.8126 2.53184 28.8126C2.59434 28.8126 2.65684 28.7813 2.68809 28.7501C2.78184 28.6563 2.78184 28.5001 2.68809 28.4063L2.21934 27.9376C2.12559 27.8438 1.96934 27.8438 1.87559 27.9376C1.81309 28.0313 1.81309 28.1876 1.90684 28.2813Z" fill="#111827" stroke="#111827" stroke-width="0.5"/>
<path d="M1.1875 27.9376C1.09375 27.8438 0.9375 27.8438 0.84375 27.9376L0.375 28.4063C0.28125 28.5001 0.28125 28.6563 0.375 28.7501C0.40625 28.7813 0.46875 28.8126 0.53125 28.8126C0.59375 28.8126 0.65625 28.7813 0.6875 28.7501L1.15625 28.2813C1.28125 28.1876 1.28125 28.0313 1.1875 27.9376Z" fill="#111827" stroke="#111827" stroke-width="0.5"/>
<path d="M2.0625 27.2813C2.125 27.2813 2.1875 27.2501 2.21875 27.2188L2.6875 26.7501C2.78125 26.6563 2.78125 26.5001 2.6875 26.4063C2.59375 26.3126 2.4375 26.3126 2.34375 26.4063L1.90625 26.8751C1.8125 26.9688 1.8125 27.1251 1.90625 27.2188C1.96875 27.2501 2 27.2813 2.0625 27.2813Z" fill="#111827" stroke="#111827" stroke-width="0.5"/>
<path d="M4.5625 4.1875C5.1875 4.1875 5.71875 3.65625 5.71875 3.03125C5.71875 2.40625 5.1875 1.875 4.5625 1.875C3.9375 1.875 3.40625 2.40625 3.40625 3.03125C3.40625 3.65625 3.9375 4.1875 4.5625 4.1875ZM4.5625 2.34375C4.9375 2.34375 5.25 2.65625 5.25 3.03125C5.25 3.40625 4.9375 3.71875 4.5625 3.71875C4.1875 3.71875 3.875 3.40625 3.875 3.03125C3.875 2.65625 4.1875 2.34375 4.5625 2.34375Z" fill="#111827" stroke="#111827" stroke-width="0.5"/>
<path d="M33.0937 37.4063C32.4688 37.4063 31.9375 37.9376 31.9375 38.5626C31.9375 39.1876 32.4688 39.7188 33.0937 39.7188C33.7187 39.7188 34.25 39.1876 34.25 38.5626C34.25 37.9376 33.7187 37.4063 33.0937 37.4063ZM33.0937 39.2501C32.7188 39.2501 32.4062 38.9376 32.4062 38.5626C32.4062 38.1876 32.7188 37.8751 33.0937 37.8751C33.4687 37.8751 33.7812 38.1876 33.7812 38.5626C33.7812 38.9376 33.4687 39.2501 33.0937 39.2501Z" fill="#111827" stroke="#111827" stroke-width="0.5"/>
<path d="M32.1875 26.1251C32.1875 26.2501 32.2813 26.3751 32.4375 26.3751H36.6875C36.8125 26.3751 36.9375 26.2813 36.9375 26.1251C36.9375 26.0001 36.8437 25.8751 36.6875 25.8751H32.4375C32.3125 25.8751 32.1875 26.0001 32.1875 26.1251Z" fill="#111827" stroke="#111827" stroke-width="0.5"/>
<path d="M37.8438 26.1251C37.8438 26.2501 37.9375 26.3751 38.0938 26.3751H39.4688C39.5938 26.3751 39.7188 26.2813 39.7188 26.1251C39.7188 26.0001 39.625 25.8751 39.4688 25.8751H38.0938C37.9688 25.8751 37.8438 26.0001 37.8438 26.1251Z" fill="#111827" stroke="#111827" stroke-width="0.5"/>
<path d="M39.4688 27.3438H36.5C36.375 27.3438 36.25 27.4375 36.25 27.5938C36.25 27.75 36.3438 27.8438 36.5 27.8438H39.4688C39.5938 27.8438 39.7187 27.75 39.7187 27.5938C39.7187 27.4375 39.5938 27.3438 39.4688 27.3438Z" fill="#111827" stroke="#111827" stroke-width="0.5"/>
<path d="M35.2187 27.3438H34.25C34.125 27.3438 34 27.4375 34 27.5937C34 27.75 34.0937 27.8437 34.25 27.8437H35.2187C35.3437 27.8437 35.4688 27.75 35.4688 27.5937C35.4688 27.4375 35.3437 27.3438 35.2187 27.3438Z" fill="#111827" stroke="#111827" stroke-width="0.5"/>
<path d="M8.09375 38.8438H3.84375C3.71875 38.8438 3.59375 38.9376 3.59375 39.0938C3.59375 39.2501 3.6875 39.3438 3.84375 39.3438H8.09375C8.21875 39.3438 8.34375 39.2501 8.34375 39.0938C8.34375 38.9376 8.21875 38.8438 8.09375 38.8438Z" fill="#111827" stroke="#111827" stroke-width="0.5"/>
<path d="M2.4375 38.8438H1.0625C0.9375 38.8438 0.8125 38.9376 0.8125 39.0938C0.8125 39.2501 0.90625 39.3438 1.0625 39.3438H2.4375C2.5625 39.3438 2.6875 39.2501 2.6875 39.0938C2.6875 38.9376 2.5625 38.8438 2.4375 38.8438Z" fill="#111827" stroke="#111827" stroke-width="0.5"/>
<path d="M0.8125 37.5937C0.8125 37.7187 0.90625 37.8437 1.0625 37.8437H4.03125C4.15625 37.8437 4.28125 37.75 4.28125 37.5937C4.28125 37.4688 4.1875 37.3438 4.03125 37.3438H1.0625C0.9375 37.375 0.8125 37.4688 0.8125 37.5937Z" fill="#111827" stroke="#111827" stroke-width="0.5"/>
<path d="M6.25 37.8437C6.375 37.8437 6.5 37.75 6.5 37.5937C6.5 37.4688 6.40625 37.3438 6.25 37.3438H5.3125C5.1875 37.3438 5.0625 37.4375 5.0625 37.5937C5.0625 37.7187 5.15625 37.8437 5.3125 37.8437H6.25Z" fill="#111827" stroke="#111827" stroke-width="0.5"/>
<path d="M26.3125 33.5625C26.4062 33.625 26.5312 33.625 26.625 33.5313L28.5937 31.5625C28.6875 31.4688 28.6875 31.3438 28.625 31.25L26.7187 28.9063C27.875 27.3438 28.625 25.5 28.9062 23.5938L31.9375 23.2813C32.0625 23.2813 32.1562 23.1563 32.1562 23.0625V20.2813C32.1562 20.1563 32.0625 20.0625 31.9375 20.0625L28.9062 19.75C28.7187 18.625 28.4062 17.5313 27.9062 16.4688C28.5 16.625 29.125 16.6563 29.7812 16.625L30.25 17.9375C30.2812 18.0313 30.375 18.0938 30.4687 18.0938C30.5 18.0938 30.5 18.0938 30.5312 18.0938L31.875 17.75C32 17.7188 32.0625 17.5938 32.0625 17.5L31.8437 16.125C32.6875 15.75 33.4375 15.1875 34.0312 14.5L35.3125 15.0938C35.4375 15.1563 35.5625 15.0938 35.625 15L36.3437 13.8125C36.4062 13.7188 36.375 13.5625 36.2812 13.5L35.1562 12.6563C35.5 11.8125 35.625 10.875 35.5625 9.96878L36.875 9.50003C37 9.46878 37.0625 9.34378 37.0312 9.21878L36.6875 7.90628C36.6562 7.78128 36.5312 7.71878 36.4375 7.71878L35.0625 7.93753C34.6875 7.09378 34.125 6.34378 33.4375 5.75003L34.0312 4.46878C34.0937 4.34378 34.0312 4.21878 33.9375 4.15628L32.75 3.43753C32.6562 3.37503 32.5 3.40628 32.4375 3.50003L31.5937 4.62503C30.75 4.28128 29.8125 4.15628 28.9062 4.21878L28.4375 2.90628C28.4062 2.78128 28.2812 2.71878 28.1562 2.75003L26.75 3.12503C26.625 3.15628 26.5625 3.28128 26.5625 3.37503L26.7812 4.75003C25.9375 5.12503 25.1875 5.68753 24.5937 6.37503L23.3125 5.78128C23.1875 5.71878 23.0625 5.78128 23 5.87503L22.3125 7.06253C22.25 7.15628 22.2812 7.31253 22.375 7.37503L23.5 8.21878C23.1875 9.06253 23.0625 10 23.125 10.9063L22.875 11C21.5625 10.25 20.125 9.71878 18.625 9.50003L18.3125 6.46878C18.3125 6.34378 18.1875 6.25003 18.0938 6.25003H15.3125C15.1875 6.25003 15.0937 6.34378 15.0937 6.46878L14.7812 9.50003C12.875 9.81253 11.0312 10.5625 9.46875 11.6875L7.125 9.78128C7.03125 9.71878 6.90625 9.71878 6.8125 9.81253L4.84375 11.7813C4.75 11.875 4.75 12 4.8125 12.0938L6.71875 14.4375C5.5625 16 4.8125 17.8438 4.53125 19.75L1.5 20.0625C1.375 20.0625 1.28125 20.1875 1.28125 20.2813V23.0625C1.28125 23.1875 1.375 23.2813 1.5 23.2813L4.53125 23.5938C4.84375 25.5 5.59375 27.3438 6.71875 28.9063L4.8125 31.25C4.75 31.3438 4.75 31.4688 4.84375 31.5625L6.8125 33.5313C6.90625 33.625 7.03125 33.625 7.125 33.5625L9.46875 31.6563C11.0312 32.8125 12.875 33.5625 14.7812 33.8438L15.0937 36.875C15.0937 37 15.2187 37.0938 15.3125 37.0938H18.0938C18.2188 37.0938 18.3125 37 18.3125 36.875L18.625 33.8438C20.5312 33.5313 22.375 32.7813 23.9375 31.6563L26.3125 33.5625ZM23.4375 11.2813C23.5312 11.25 23.5937 11.1563 23.5937 11.0313C23.5 10.0938 23.625 9.12503 24 8.21878C24.0312 8.12503 24 8.00003 23.9375 7.93753L22.8437 7.12503L23.3125 6.31253L24.5625 6.90628C24.6562 6.93753 24.7812 6.93753 24.8437 6.84378C25.4375 6.09378 26.25 5.50003 27.125 5.15628C27.2187 5.12503 27.2812 5.00003 27.2812 4.90628L27.0937 3.56253L28 3.34378L28.4687 4.62503C28.5 4.71878 28.5937 4.78128 28.7187 4.78128C29.6875 4.68753 30.6562 4.81253 31.5312 5.18753C31.625 5.21878 31.75 5.18753 31.8125 5.12503L32.625 4.03128L33.4375 4.53128L32.8437 5.78128C32.8125 5.87503 32.8125 6.00003 32.9062 6.06253C33.6562 6.65628 34.25 7.43753 34.5937 8.34378C34.625 8.43753 34.75 8.50003 34.8437 8.50003L36.1875 8.31253L36.4062 9.21878L35.125 9.68753C35.0312 9.71878 34.9687 9.81253 34.9687 9.93753C35.0625 10.9063 34.9375 11.875 34.5625 12.75C34.5312 12.8438 34.5625 12.9688 34.625 13.0313L35.7188 13.8438L35.2187 14.6563L33.9687 14.0625C33.875 14.0313 33.75 14.0313 33.6875 14.125C33.0937 14.875 32.3125 15.4688 31.4062 15.8125C31.3125 15.8438 31.25 15.9688 31.25 16.0625L31.4375 17.4063L30.5312 17.625L30.0625 16.3438C30.0312 16.25 29.9375 16.1875 29.8437 16.1875H29.8125C29 16.2813 28.2187 16.1875 27.4375 15.9375C27.2812 15.875 27.125 15.8438 27 15.7813C26.9062 15.75 26.7812 15.7813 26.7187 15.8438L25.9062 16.9375L25.0938 16.4688L25.6875 15.2188C25.7187 15.125 25.7187 15 25.625 14.9375C24.875 14.3438 24.2812 13.5625 23.9375 12.6563C23.9062 12.5625 23.7812 12.5 23.6875 12.5L22.3125 12.6875L22.0937 11.7813L23.4375 11.2813ZM18.375 33.4063C18.2812 33.4063 18.1875 33.5 18.1875 33.625L17.875 36.625H15.5312L15.2187 33.625C15.2187 33.5313 15.125 33.4375 15.0312 33.4063C13.0625 33.125 11.1875 32.3438 9.59375 31.1563C9.5 31.0938 9.375 31.0938 9.3125 31.1563L7 33.0625L5.34375 31.4063L7.25 29.0938C7.3125 29 7.3125 28.875 7.25 28.8125C6.03125 27.1875 5.25 25.3125 4.96875 23.3438C4.96875 23.25 4.875 23.1563 4.75 23.1563L1.75 22.8438V20.5L4.75 20.1875C4.84375 20.1875 4.9375 20.0938 4.96875 20C5.25 18.0313 6.03125 16.1563 7.21875 14.5625C7.28125 14.4688 7.28125 14.3438 7.21875 14.2813L5.3125 11.9375L6.96875 10.2813L9.28125 12.1875C9.375 12.25 9.5 12.25 9.5625 12.1875C11.1562 11 13.0312 10.2188 15 9.93753C15.0937 9.93753 15.1875 9.84378 15.1875 9.71878L15.5 6.71878H17.8437L18.1562 9.71878C18.1562 9.81253 18.25 9.90628 18.3438 9.93753C19.7187 10.125 21.0312 10.5625 22.25 11.2188L21.75 11.4063C21.625 11.4375 21.5625 11.5625 21.5937 11.6875L21.9375 13C21.9687 13.125 22.0937 13.1875 22.1875 13.1875L23.5625 12.9688C23.9375 13.8125 24.5 14.5625 25.1875 15.1563L24.5937 16.4375C24.5312 16.5625 24.5937 16.6875 24.6875 16.75L25.875 17.4375C25.9688 17.5 26.125 17.4688 26.1875 17.375L27.0312 16.25C27.0937 16.2813 27.1875 16.3125 27.25 16.3438C27.8437 17.5 28.2187 18.75 28.4062 20.0313C28.4062 20.125 28.5 20.2188 28.625 20.2188L31.625 20.5313V22.875L28.625 23.1875C28.5312 23.1875 28.4375 23.2813 28.4062 23.375C28.1875 25.3125 27.4062 27.1875 26.1875 28.7813C26.125 28.875 26.125 29 26.1875 29.0625L28.0937 31.375L26.4375 33.0313L24.125 31.125C24.0312 31.0625 23.9062 31.0625 23.8438 31.125C22.2188 32.3438 20.3437 33.125 18.375 33.4063Z" fill="#111827" stroke="#111827" stroke-width="0.5"/>
<path d="M8.56279 5.87504C8.62529 5.87504 8.65654 5.87504 8.68779 5.84379C12.3128 3.18754 16.4065 1.87504 19.844 2.25004L17.8753 3.40629C17.7503 3.46879 17.719 3.62504 17.7815 3.71879C17.8128 3.78129 17.9065 3.84379 18.0003 3.84379C18.0315 3.84379 18.094 3.84379 18.1253 3.81254L20.6878 2.31254C20.719 2.28129 20.7503 2.28129 20.7503 2.25004C20.7503 2.25004 20.7503 2.25004 20.7503 2.21879C20.7503 2.18754 20.7815 2.18754 20.7815 2.15629C20.7815 2.15629 20.7815 2.15629 20.7815 2.12504C20.7815 2.12504 20.7815 2.12504 20.7815 2.09379C20.7815 2.06254 20.7815 2.03129 20.7815 2.03129V2.00004C20.7815 1.96879 20.7503 1.96879 20.719 1.93754L18.3128 0.218788C18.219 0.156288 18.0628 0.156288 17.969 0.281288C17.9065 0.375038 17.9065 0.531288 18.0315 0.625038L19.6878 1.81254C16.1565 1.46879 12.0315 2.81254 8.43779 5.46879C8.34404 5.53129 8.31279 5.68754 8.37529 5.81254C8.40654 5.84379 8.50029 5.87504 8.56279 5.87504Z" fill="#111827" stroke="#111827" stroke-width="0.5"/>
<path d="M34.125 31.6875C34.1875 31.5938 34.1875 31.4375 34.0625 31.3438C33.9688 31.2813 33.8125 31.2813 33.7188 31.4063C31.0938 35.0313 27.5625 37.5313 24.1875 38.2188L25.7188 36.5313C25.8125 36.4375 25.8125 36.2813 25.6875 36.1875C25.5937 36.0938 25.4375 36.0938 25.3437 36.2188L23.3437 38.4063C23.3125 38.4375 23.3125 38.4688 23.2812 38.5C23.2812 38.5 23.2812 38.5 23.2812 38.5313C23.2812 38.5625 23.2812 38.5625 23.2812 38.5938C23.2812 38.5938 23.2812 38.5938 23.2812 38.625C23.2812 38.625 23.2812 38.625 23.2812 38.6563C23.2812 38.6875 23.3125 38.7188 23.3125 38.7188C23.3125 38.7188 23.3125 38.7188 23.3437 38.75C23.375 38.7813 23.4063 38.7813 23.4375 38.8125L26.25 39.7188C26.2813 39.7188 26.3125 39.7188 26.3125 39.7188C26.4062 39.7188 26.5 39.6563 26.5313 39.5625C26.5625 39.4375 26.5 39.3125 26.375 39.2813L24.4375 38.6563C27.9687 37.8438 31.4688 35.3125 34.125 31.6875Z" fill="#111827" stroke="#111827" stroke-width="0.5"/>
<path d="M29.2812 14.4687C31.5 14.4687 33.3125 12.6562 33.3125 10.4375C33.3125 8.21875 31.5 6.40625 29.2812 6.40625C27.0625 6.40625 25.25 8.21875 25.25 10.4375C25.25 12.6562 27.0625 14.4687 29.2812 14.4687ZM29.2812 6.875C31.25 6.875 32.8438 8.46875 32.8438 10.4375C32.8438 12.4062 31.25 14 29.2812 14C27.3125 14 25.7188 12.4062 25.7188 10.4375C25.75 8.46875 27.3437 6.875 29.2812 6.875Z" fill="#111827" stroke="#111827" stroke-width="0.5"/>
</g>
<defs>
<clipPath id="clip0_912_24839">
<rect width="40" height="40" fill="white"/>
</clipPath>
</defs>
</svg>
