<svg width="40" height="40" viewBox="0 0 40 40" fill="none" xmlns="http://www.w3.org/2000/svg">
<g clip-path="url(#clip0_912_24789)">
<path d="M9.15625 24.5313L8.59375 23.9688C8.5 23.875 8.34375 23.875 8.25 23.9688C8.15625 24.0625 8.15625 24.2188 8.25 24.3125L8.8125 24.875C8.84375 24.9063 8.90625 24.9375 8.96875 24.9375C9.03125 24.9375 9.09375 24.9063 9.125 24.875C9.25 24.75 9.25 24.5938 9.15625 24.5313Z" fill="#111827" stroke="#111827" stroke-width="0.5"/>
<path d="M10.6562 26.6563C10.6875 26.6875 10.75 26.7188 10.8125 26.7188C10.875 26.7188 10.9375 26.6875 10.9687 26.6563C11.0625 26.5625 11.0625 26.4063 10.9687 26.3125L10.4062 25.75C10.3125 25.6562 10.1562 25.6562 10.0625 25.75C9.96875 25.8438 9.96875 26 10.0625 26.0938L10.6562 26.6563Z" fill="#111827" stroke="#111827" stroke-width="0.5"/>
<path d="M9.15625 25.7812C9.0625 25.6875 8.90625 25.6875 8.8125 25.7812L8.25 26.3437C8.15625 26.4375 8.15625 26.5937 8.25 26.6875C8.28125 26.7187 8.34375 26.75 8.40625 26.75C8.46875 26.75 8.53125 26.7187 8.5625 26.6875L9.125 26.125C9.25 26 9.25 25.8437 9.15625 25.7812Z" fill="#111827" stroke="#111827" stroke-width="0.5"/>
<path d="M10.6562 23.9688L10.0938 24.5313C10 24.625 10 24.7813 10.0938 24.875C10.125 24.9063 10.1875 24.9375 10.25 24.9375C10.3125 24.9375 10.375 24.9063 10.4063 24.875L10.9687 24.3125C11.0625 24.2188 11.0625 24.0625 10.9687 23.9688C10.875 23.875 10.7187 23.875 10.6562 23.9688Z" fill="#111827" stroke="#111827" stroke-width="0.5"/>
<path d="M17.25 35.9375C17.1563 35.8437 17 35.8437 16.9063 35.9375C16.8125 36.0313 16.8125 36.1875 16.9063 36.2812L17.4688 36.8438C17.5 36.875 17.5625 36.9062 17.625 36.9062C17.6875 36.9062 17.75 36.875 17.7813 36.8438C17.875 36.75 17.875 36.5938 17.7813 36.5L17.25 35.9375Z" fill="#111827" stroke="#111827" stroke-width="0.5"/>
<path d="M19.0313 37.75C18.9375 37.6562 18.7813 37.6562 18.6875 37.75C18.5937 37.8438 18.5937 38 18.6875 38.0938L19.25 38.6563C19.2812 38.6875 19.3437 38.7188 19.4062 38.7188C19.4687 38.7188 19.5312 38.6875 19.5625 38.6563C19.6562 38.5625 19.6562 38.4063 19.5625 38.3125L19.0313 37.75Z" fill="#111827" stroke="#111827" stroke-width="0.5"/>
<path d="M17.4688 37.75L16.9063 38.3125C16.8125 38.4063 16.8125 38.5625 16.9063 38.6563C16.9375 38.6875 17 38.7188 17.0625 38.7188C17.125 38.7188 17.1875 38.6875 17.2188 38.6563L17.7813 38.0938C17.875 38 17.875 37.8438 17.7813 37.75C17.7188 37.6562 17.5625 37.6562 17.4688 37.75Z" fill="#111827" stroke="#111827" stroke-width="0.5"/>
<path d="M19.2812 35.9375L18.7188 36.5C18.625 36.5938 18.625 36.75 18.7188 36.8438C18.75 36.875 18.8125 36.9062 18.875 36.9062C18.9375 36.9062 19 36.875 19.0313 36.8438L19.5937 36.2812C19.6875 36.1875 19.6875 36.0313 19.5937 35.9375C19.5 35.8437 19.375 35.8437 19.2812 35.9375Z" fill="#111827" stroke="#111827" stroke-width="0.5"/>
<path d="M37.9687 8.71875L37.4062 8.15625C37.3125 8.0625 37.1562 8.0625 37.0625 8.15625C36.9688 8.25 36.9688 8.40625 37.0625 8.5L37.625 9.0625C37.6563 9.09375 37.7188 9.125 37.7813 9.125C37.8438 9.125 37.9062 9.09375 37.9375 9.0625C38.0625 8.96875 38.0625 8.8125 37.9687 8.71875Z" fill="#111827" stroke="#111827" stroke-width="0.5"/>
<path d="M39.2187 9.96875C39.125 9.875 38.9687 9.875 38.875 9.96875C38.7813 10.0625 38.7813 10.2188 38.875 10.3125L39.4375 10.875C39.4687 10.9062 39.5312 10.9375 39.5937 10.9375C39.6562 10.9375 39.7187 10.9062 39.75 10.875C39.8437 10.7812 39.8437 10.625 39.75 10.5313L39.2187 9.96875Z" fill="#111827" stroke="#111827" stroke-width="0.5"/>
<path d="M37.4062 10.875L37.9688 10.3125C38.0625 10.2188 38.0625 10.0625 37.9688 9.96875C37.875 9.875 37.7188 9.875 37.625 9.96875L37.0625 10.5313C36.9688 10.625 36.9688 10.7812 37.0625 10.875C37.0937 10.9062 37.1562 10.9375 37.2187 10.9375C37.3125 10.9375 37.375 10.9062 37.4062 10.875Z" fill="#111827" stroke="#111827" stroke-width="0.5"/>
<path d="M39.0625 9.125C39.125 9.125 39.1875 9.09375 39.2187 9.0625L39.7812 8.5C39.875 8.40625 39.875 8.25 39.7812 8.15625C39.6875 8.0625 39.5312 8.0625 39.4375 8.15625L38.875 8.71875C38.7813 8.8125 38.7813 8.96875 38.875 9.0625C38.9375 9.125 39 9.125 39.0625 9.125Z" fill="#111827" stroke="#111827" stroke-width="0.5"/>
<path d="M3.3125 11.9687C3.3125 11.8437 3.21875 11.7188 3.0625 11.7188C2.90625 11.7188 2.8125 11.8125 2.8125 11.9687V16.0625C2.8125 16.1875 2.90625 16.3125 3.0625 16.3125C3.21875 16.3125 3.3125 16.2187 3.3125 16.0625V11.9687Z" fill="#111827" stroke="#111827" stroke-width="0.5"/>
<path d="M3.09375 17.75C2.96875 17.75 2.84375 17.8437 2.84375 18V19.4688C2.84375 19.5938 2.9375 19.7188 3.09375 19.7188C3.25 19.7188 3.34375 19.625 3.34375 19.4688V18C3.3125 17.875 3.21875 17.75 3.09375 17.75Z" fill="#111827" stroke="#111827" stroke-width="0.5"/>
<path d="M37.1562 25.9375C37.1562 25.8125 37.0625 25.6875 36.9062 25.6875C36.7812 25.6875 36.6562 25.7813 36.6562 25.9375V30.0313C36.6562 30.1563 36.75 30.2813 36.9062 30.2813C37.0312 30.2813 37.1562 30.1875 37.1562 30.0313V25.9375Z" fill="#111827" stroke="#111827" stroke-width="0.5"/>
<path d="M36.9062 31.7188C36.7812 31.7188 36.6562 31.8125 36.6562 31.9688V33.4375C36.6562 33.5625 36.75 33.6875 36.9062 33.6875C37.0312 33.6875 37.1562 33.5937 37.1562 33.4375V31.9688C37.1562 31.8125 37.0312 31.7188 36.9062 31.7188Z" fill="#111827" stroke="#111827" stroke-width="0.5"/>
<path d="M36.9062 3.6875C37.5625 3.6875 38.0938 3.15625 38.0938 2.5C38.0938 1.84375 37.5625 1.3125 36.9062 1.3125C36.25 1.3125 35.7188 1.84375 35.7188 2.5C35.7188 3.15625 36.25 3.6875 36.9062 3.6875ZM36.9062 1.78125C37.3125 1.78125 37.625 2.09375 37.625 2.5C37.625 2.90625 37.3125 3.21875 36.9062 3.21875C36.5 3.21875 36.1875 2.90625 36.1875 2.5C36.1875 2.09375 36.5 1.78125 36.9062 1.78125Z" fill="#111827" stroke="#111827" stroke-width="0.5"/>
<path d="M29.9688 31C29.9688 31.6563 30.5 32.1875 31.1562 32.1875C31.8125 32.1875 32.3437 31.6563 32.3437 31C32.3437 30.3438 31.8125 29.8125 31.1562 29.8125C30.5 29.7813 29.9688 30.3438 29.9688 31ZM31.875 31C31.875 31.4063 31.5625 31.7188 31.1562 31.7188C30.75 31.7188 30.4375 31.4063 30.4375 31C30.4375 30.5938 30.75 30.2813 31.1562 30.2813C31.5312 30.2813 31.875 30.5938 31.875 31Z" fill="#111827" stroke="#111827" stroke-width="0.5"/>
<path d="M2.125 35.4375C1.46875 35.4375 0.9375 35.9687 0.9375 36.625C0.9375 37.2813 1.46875 37.8125 2.125 37.8125C2.78125 37.8125 3.3125 37.2813 3.3125 36.625C3.3125 35.9687 2.78125 35.4375 2.125 35.4375ZM2.125 37.3438C1.71875 37.3438 1.40625 37.0313 1.40625 36.625C1.40625 36.2188 1.71875 35.9063 2.125 35.9063C2.53125 35.9063 2.84375 36.2188 2.84375 36.625C2.84375 37.0313 2.53125 37.3438 2.125 37.3438Z" fill="#111827" stroke="#111827" stroke-width="0.5"/>
<path d="M9.5 6.46875C9.5 6.34375 9.40625 6.21875 9.25 6.21875H3.875C3.75 6.21875 3.625 6.3125 3.625 6.46875C3.625 6.59375 3.71875 6.71875 3.875 6.71875H9.25C9.375 6.6875 9.5 6.59375 9.5 6.46875Z" fill="#111827" stroke="#111827" stroke-width="0.5"/>
<path d="M2.375 6.46875C2.375 6.34375 2.28125 6.21875 2.125 6.21875H0.40625C0.28125 6.21875 0.15625 6.3125 0.15625 6.46875C0.15625 6.59375 0.25 6.71875 0.40625 6.71875H2.15625C2.25 6.6875 2.375 6.59375 2.375 6.46875Z" fill="#111827" stroke="#111827" stroke-width="0.5"/>
<path d="M0.40625 4.84375H4.15625C4.28125 4.84375 4.40625 4.75 4.40625 4.59375C4.40625 4.4375 4.25 4.375 4.125 4.375H0.375C0.25 4.375 0.125 4.46875 0.125 4.625C0.125 4.78125 0.25 4.84375 0.40625 4.84375Z" fill="#111827" stroke="#111827" stroke-width="0.5"/>
<path d="M5.75 4.84375H6.96875C7.09375 4.84375 7.21875 4.75 7.21875 4.59375C7.21875 4.4375 7.09375 4.375 6.9375 4.375H5.71875C5.59375 4.375 5.46875 4.46875 5.46875 4.625C5.46875 4.78125 5.59375 4.84375 5.75 4.84375Z" fill="#111827" stroke="#111827" stroke-width="0.5"/>
<path d="M35.7812 36.0938C35.7812 35.9688 35.6875 35.8438 35.5312 35.8438H30.1875C30.0625 35.8438 29.9375 35.9375 29.9375 36.0938C29.9375 36.25 30.0312 36.3438 30.1875 36.3438H35.5625C35.6875 36.3438 35.7812 36.2187 35.7812 36.0938Z" fill="#111827" stroke="#111827" stroke-width="0.5"/>
<path d="M39.0625 35.875H37.3125C37.1875 35.875 37.0625 35.9687 37.0625 36.125C37.0625 36.2812 37.1563 36.375 37.3125 36.375H39.0625C39.1875 36.375 39.3125 36.2812 39.3125 36.125C39.3125 35.9687 39.1875 35.875 39.0625 35.875Z" fill="#111827" stroke="#111827" stroke-width="0.5"/>
<path d="M39.0625 37.7188H35.3125C35.1875 37.7188 35.0625 37.8125 35.0625 37.9687C35.0625 38.0937 35.1563 38.2187 35.3125 38.2187H39.0625C39.1875 38.2187 39.3125 38.125 39.3125 37.9687C39.2813 37.8125 39.1875 37.7188 39.0625 37.7188Z" fill="#111827" stroke="#111827" stroke-width="0.5"/>
<path d="M33.6875 37.7188H32.5C32.375 37.7188 32.25 37.8125 32.25 37.9687C32.25 38.0937 32.3438 38.2187 32.5 38.2187H33.7188C33.8438 38.2187 33.9688 38.125 33.9688 37.9687C33.9375 37.8125 33.8438 37.7188 33.6875 37.7188Z" fill="#111827" stroke="#111827" stroke-width="0.5"/>
<path d="M27.4063 16.4375L25.9375 15.6562C26.1563 14.5937 26.1563 13.5 25.875 12.4375L27.3438 11.625C27.4375 11.5625 27.5 11.4375 27.4375 11.3125L26.8125 9.84373C26.75 9.71873 26.6563 9.68748 26.5313 9.71873L24.9375 10.2187C24.3438 9.31248 23.5625 8.53123 22.625 7.96873L23.0938 6.37498C23.125 6.24998 23.0625 6.12498 22.9688 6.09373L21.4688 5.49998C21.3438 5.46873 21.2188 5.49998 21.1875 5.62498L20.4063 7.09373C19.3438 6.87498 18.25 6.87498 17.1875 7.15623L16.375 5.68748C16.3125 5.59373 16.1875 5.53123 16.0625 5.59373L14.5938 6.21873C14.4688 6.28123 14.4375 6.40623 14.4688 6.49998L14.9688 8.09373C14.0625 8.68748 13.2813 9.46873 12.7188 10.4062L11.125 9.93748C11 9.90623 10.875 9.96873 10.8438 10.0625L10.25 11.5625C10.2188 11.6875 10.25 11.8125 10.375 11.8437L11.8438 12.625C11.625 13.6875 11.625 14.7812 11.9062 15.8437L10.4375 16.6562C10.3438 16.7187 10.2812 16.8437 10.3438 16.9687L10.9688 18.4375C11.0312 18.5625 11.1563 18.5937 11.25 18.5625L12.8438 18.0625C13.4375 18.9687 14.2188 19.75 15.1563 20.3125L14.6875 21.9062C14.6563 22.0312 14.7188 22.1562 14.8125 22.1875L16.3125 22.7812C16.3438 22.7812 16.375 22.8125 16.4063 22.8125C16.5 22.8125 16.5625 22.75 16.625 22.6875L17.4063 21.2187C17.625 21.25 17.8125 21.2812 18.0313 21.3125V21.7187C18.0313 21.8437 18.125 21.9687 18.2813 21.9687C18.4375 21.9687 18.5313 21.875 18.5313 21.7187V21.3437C18.9375 21.375 19.3438 21.3437 19.7188 21.3125V32.1875C19.7188 32.9062 19.1563 33.4687 18.4375 33.4687H6.5C6.375 33.4687 6.25 33.5625 6.25 33.7187C6.25 33.8437 6.34375 33.9687 6.5 33.9687H18.4063C19.375 33.9687 20.1563 33.1875 20.1563 32.2187V21.25C20.3125 21.2187 20.4688 21.1875 20.5938 21.1562L21.4063 22.625C21.4688 22.7187 21.5938 22.7812 21.7188 22.7187L23.1875 22.0937C23.3125 22.0312 23.3438 21.9062 23.3125 21.8125L22.8125 20.2187C23.7188 19.625 24.5 18.8437 25.0625 17.9062L26.6563 18.375C26.7813 18.4062 26.9063 18.3437 26.9375 18.25L27.5313 16.75C27.5625 16.625 27.5313 16.5 27.4063 16.4375ZM26.5938 17.8437L25.0313 17.4062C24.9375 17.375 24.8125 17.4375 24.75 17.5312C24.1875 18.5 23.4063 19.3437 22.4375 19.9375C22.3438 20 22.3125 20.0937 22.3438 20.2187L22.8438 21.7812L21.7813 22.25L20.9375 20.7812C20.875 20.6875 20.7813 20.6562 20.6563 20.6562C19.5625 20.9687 18.4063 20.9687 17.3125 20.7187C17.2188 20.6875 17.0938 20.75 17.0625 20.8437L16.3125 22.3125L15.2188 21.875L15.6562 20.3125C15.6875 20.2187 15.625 20.0937 15.5313 20.0312C14.5625 19.4687 13.7188 18.6875 13.125 17.7187C13.0625 17.625 12.9688 17.5937 12.8438 17.625L11.2812 18.125L10.8125 17.0625L12.25 16.25C12.3438 16.1875 12.4062 16.0937 12.375 15.9687C12.0625 14.875 12.0625 13.7187 12.3125 12.625C12.3438 12.5312 12.2813 12.4062 12.1875 12.375L10.7188 11.625L11.1563 10.5312L12.7188 10.9687C12.8125 11 12.9375 10.9375 13 10.8437C13.5625 9.87498 14.3438 9.03123 15.3125 8.43748C15.4063 8.37498 15.4375 8.28123 15.4063 8.15623L14.9063 6.59373L15.9688 6.12498L16.7813 7.56248C16.8438 7.65623 16.9375 7.68748 17.0625 7.68748C18.1563 7.37498 19.3125 7.37498 20.4063 7.62498C20.5 7.65623 20.625 7.59373 20.6563 7.49998L21.4063 6.03123L22.5 6.46873L22.0625 8.03123C22.0313 8.12498 22.0938 8.24998 22.1875 8.31248C23.1563 8.87498 24 9.65623 24.5938 10.625C24.6562 10.7187 24.75 10.75 24.875 10.7187L26.4375 10.2187L26.9063 11.2812L25.4688 12.0937C25.375 12.1562 25.3125 12.25 25.3438 12.375C25.6563 13.4687 25.6563 14.625 25.4063 15.7187C25.375 15.8125 25.4375 15.9375 25.5312 15.9687L27 16.7187L26.5938 17.8437Z" fill="#111827" stroke="#111827" stroke-width="0.5"/>
<path d="M20.688 9.625C19.4692 9.15625 18.1567 9.15625 16.938 9.6875C15.7505 10.2188 14.813 11.1562 14.3442 12.375C13.3442 14.875 14.5942 17.7188 17.0942 18.7188C17.688 18.9375 18.2817 19.0625 18.8755 19.0625C20.813 19.0625 22.6567 17.9062 23.4067 15.9687C24.438 13.4687 23.188 10.625 20.688 9.625ZM23.0005 15.8125C22.0942 18.0625 19.5317 19.1875 17.2817 18.2812C15.0317 17.375 13.9067 14.8125 14.813 12.5625C15.2505 11.4688 16.0942 10.5938 17.1567 10.125C17.7192 9.875 18.313 9.75 18.9067 9.75C19.4692 9.75 20.0005 9.84375 20.5317 10.0625C22.7817 10.9688 23.9067 13.5312 23.0005 15.8125Z" fill="#111827" stroke="#111827" stroke-width="0.5"/>
<path d="M31.1875 22.7187C33.625 22.5937 33.9062 20.3125 33.9062 20.2812V16.875H35.2812C35.5938 16.875 35.875 16.7187 36.0313 16.4687C36.1875 16.2187 36.2188 15.875 36.0938 15.5937L34.1875 11.5937C34 11.2187 33.875 10.8125 33.8125 10.375L33.5 8.65625C33.2812 7.46875 32.7812 6.375 32.0625 5.5C29.4062 2.4375 25.8437 2.3125 25.6875 2.3125H18.25C18.125 2.3125 18 2.40625 18 2.5625C18 2.6875 18.0938 2.8125 18.25 2.8125H25.6875C25.7187 2.8125 29.1875 2.9375 31.6875 5.84375C32.375 6.625 32.8437 7.65625 33.0312 8.78125L33.3438 10.5C33.4375 10.9687 33.5625 11.4062 33.7812 11.8437L35.6875 15.8437C35.75 15.9687 35.75 16.125 35.6562 16.25C35.5625 16.375 35.4375 16.4375 35.2812 16.4375H33.6562C33.5312 16.4375 33.4063 16.5312 33.4063 16.6875V20.2812C33.4063 20.3437 33.1562 22.1875 31.125 22.2812H27.9375C27.8125 22.2812 27.6875 22.375 27.6875 22.5312C27.6875 22.6562 27.7813 22.7812 27.9375 22.7812H28.75V27.1875C28.75 27.3125 28.8438 27.4375 29 27.4375C29.125 27.4375 29.25 27.3437 29.25 27.1875V22.7187H31.1875Z" fill="#111827" stroke="#111827" stroke-width="0.5"/>
<path d="M18.25 23.5625C18.375 23.5625 18.5 23.4687 18.5 23.3125V23.125C18.5 23 18.4063 22.875 18.25 22.875C18.0938 22.875 18 22.9688 18 23.125V23.3125C18.0313 23.4375 18.125 23.5625 18.25 23.5625Z" fill="#111827" stroke="#111827" stroke-width="0.5"/>
<path d="M14.625 32.125C14.75 32.125 14.875 32.0312 14.875 31.875C14.875 31.75 14.7812 31.625 14.625 31.625H14.4375C14.3125 31.625 14.1875 31.7188 14.1875 31.875C14.1875 32 14.2812 32.125 14.4375 32.125H14.625Z" fill="#111827" stroke="#111827" stroke-width="0.5"/>
<path d="M9.78125 31.875C9.78125 32 9.875 32.125 10.0312 32.125H11.4375C11.4687 32.125 11.5 32.125 11.5312 32.0937C11.5625 32.0937 11.5937 32.125 11.625 32.125H13.0312C13.1562 32.125 13.2812 32.0312 13.2812 31.875C13.2812 31.75 13.1875 31.625 13.0312 31.625H11.625C11.5937 31.625 11.5625 31.625 11.5312 31.6563C11.5 31.6563 11.4687 31.625 11.4375 31.625H10.0312C9.90625 31.6562 9.78125 31.75 9.78125 31.875Z" fill="#111827" stroke="#111827" stroke-width="0.5"/>
<path d="M18.0312 27.7188C18.0312 27.8438 18.125 27.9688 18.2812 27.9688C18.4375 27.9688 18.5312 27.875 18.5312 27.7188V26.3125C18.5312 26.2812 18.5313 26.25 18.5 26.2188C18.5 26.1875 18.5312 26.1562 18.5312 26.125V24.7187C18.5312 24.5937 18.4375 24.4688 18.2812 24.4688C18.125 24.4688 18.0312 24.5625 18.0312 24.7187V26.125C18.0312 26.1562 18.0312 26.1875 18.0625 26.2188C18.0625 26.25 18.0312 26.2812 18.0312 26.3125V27.7188Z" fill="#111827" stroke="#111827" stroke-width="0.5"/>
<path d="M7.03125 32.125C7.15625 32.125 7.28125 32.0312 7.28125 31.875C7.28125 31.75 7.1875 31.625 7.03125 31.625H5.625C5.59375 31.625 5.5625 31.625 5.53125 31.6563C5.5 31.6563 5.46875 31.625 5.4375 31.625H4.8125C4.6875 31.625 4.5625 31.7188 4.5625 31.875C4.5625 32 4.65625 32.125 4.8125 32.125H5.4375C5.46875 32.125 5.5 32.125 5.53125 32.0937C5.5625 32.0937 5.59375 32.125 5.625 32.125H7.03125Z" fill="#111827" stroke="#111827" stroke-width="0.5"/>
<path d="M8.4375 31.6562C8.3125 31.6562 8.1875 31.75 8.1875 31.9062C8.1875 32.0312 8.28125 32.1562 8.4375 32.1562H8.625C8.75 32.1562 8.875 32.0625 8.875 31.9062C8.875 31.7812 8.78125 31.6562 8.625 31.6562H8.4375Z" fill="#111827" stroke="#111827" stroke-width="0.5"/>
<path d="M18.0312 30.9375C18.0312 31.25 17.8437 31.5312 17.5312 31.625C17.5 31.625 17.5 31.6563 17.4688 31.6563C17.4375 31.6563 17.4375 31.6563 17.4063 31.6563C17.375 31.6563 17.3438 31.6563 17.3125 31.6563H16.0312C15.9062 31.6563 15.7812 31.75 15.7812 31.9062C15.7812 32.0312 15.875 32.1562 16.0312 32.1562H17.3125C17.375 32.1562 17.4063 32.1562 17.4688 32.1562C17.5 32.1562 17.5313 32.125 17.5625 32.125C17.5938 32.125 17.625 32.125 17.6875 32.125C18.1875 31.9688 18.5 31.5 18.5 31V30.7813C18.5 30.6563 18.4063 30.5312 18.25 30.5312C18.0938 30.5312 18 30.625 18 30.7813V30.9375H18.0312Z" fill="#111827" stroke="#111827" stroke-width="0.5"/>
<path d="M18.0312 29.3125C18.0312 29.4375 18.125 29.5625 18.2812 29.5625C18.4375 29.5625 18.5312 29.4688 18.5312 29.3125V29.125C18.5312 29 18.4375 28.875 18.2812 28.875C18.125 28.875 18.0312 28.9687 18.0312 29.125V29.3125Z" fill="#111827" stroke="#111827" stroke-width="0.5"/>
<path d="M16.4062 2.78125H17.0313C17.1563 2.78125 17.2812 2.6875 17.2812 2.53125C17.2812 2.40625 17.1875 2.28125 17.0313 2.28125H16.4062C16.2812 2.28125 16.1562 2.375 16.1562 2.53125C16.1875 2.6875 16.2812 2.78125 16.4062 2.78125Z" fill="#111827" stroke="#111827" stroke-width="0.5"/>
<path d="M12.3437 2.78125H12.9687C13 2.78125 13.0312 2.78125 13.0625 2.78125C13.0937 2.78125 13.125 2.78125 13.1562 2.78125H14.4062C14.5312 2.78125 14.6562 2.6875 14.6562 2.53125C14.6562 2.40625 14.5625 2.28125 14.4062 2.28125H13.1562C13.125 2.28125 13.0937 2.28125 13.0625 2.28125C13.0312 2.28125 13 2.28125 12.9687 2.28125H12.3437C12.2187 2.28125 12.0938 2.375 12.0938 2.53125C12.0938 2.6875 12.2187 2.78125 12.3437 2.78125Z" fill="#111827" stroke="#111827" stroke-width="0.5"/>
<path d="M9.625 2.78125H10.3125C10.4375 2.78125 10.5625 2.6875 10.5625 2.53125C10.5625 2.40625 10.4688 2.28125 10.3125 2.28125H9.625C9.5 2.28125 9.375 2.375 9.375 2.53125C9.375 2.6875 9.5 2.78125 9.625 2.78125Z" fill="#111827" stroke="#111827" stroke-width="0.5"/>
<path d="M10.9375 2.78125H11.0937C11.2187 2.78125 11.3437 2.6875 11.3437 2.53125C11.3437 2.40625 11.25 2.28125 11.0937 2.28125H10.9375C10.8125 2.28125 10.6875 2.375 10.6875 2.53125C10.6875 2.6875 10.8125 2.78125 10.9375 2.78125Z" fill="#111827" stroke="#111827" stroke-width="0.5"/>
<path d="M15 2.78125H15.1562C15.2812 2.78125 15.4062 2.6875 15.4062 2.53125C15.4062 2.40625 15.3125 2.28125 15.1562 2.28125H15C14.875 2.28125 14.75 2.375 14.75 2.53125C14.7812 2.6875 14.875 2.78125 15 2.78125Z" fill="#111827" stroke="#111827" stroke-width="0.5"/>
<path d="M26.5937 23.9062C26.4687 23.9062 26.3438 24 26.3438 24.1563V24.7812C26.3438 24.8125 26.3438 24.8437 26.3438 24.875C26.3438 24.9062 26.3438 24.9375 26.3438 24.9687V26.2187C26.3438 26.3437 26.4375 26.4687 26.5937 26.4687C26.7188 26.4687 26.8438 26.375 26.8438 26.2187V24.9687C26.8438 24.9375 26.8438 24.9062 26.8438 24.875C26.8438 24.8437 26.8438 24.8125 26.8438 24.7812V24.1563C26.8438 24 26.75 23.9062 26.5937 23.9062Z" fill="#111827" stroke="#111827" stroke-width="0.5"/>
<path d="M26.5937 30.6562C26.4687 30.6562 26.3438 30.75 26.3438 30.9063V31.0625C26.3438 31.1875 26.4375 31.3125 26.5937 31.3125C26.7188 31.3125 26.8438 31.2187 26.8438 31.0625V30.9063C26.8438 30.75 26.75 30.6562 26.5937 30.6562Z" fill="#111827" stroke="#111827" stroke-width="0.5"/>
<path d="M26.5937 26.5625C26.4687 26.5625 26.3438 26.6563 26.3438 26.8125V26.9687C26.3438 27.0937 26.4375 27.2187 26.5937 27.2187C26.7188 27.2187 26.8438 27.125 26.8438 26.9687V26.8125C26.8438 26.6875 26.75 26.5625 26.5937 26.5625Z" fill="#111827" stroke="#111827" stroke-width="0.5"/>
<path d="M26.5937 28C26.4687 28 26.3438 28.0938 26.3438 28.25V28.875C26.3438 28.9063 26.3438 28.9375 26.3438 28.9687C26.3438 29 26.3438 29.0313 26.3438 29.0625V30.3125C26.3438 30.4375 26.4375 30.5625 26.5937 30.5625C26.7188 30.5625 26.8438 30.4688 26.8438 30.3125V29.0625C26.8438 29.0313 26.8438 29 26.8438 28.9687C26.8438 28.9375 26.8438 28.9063 26.8438 28.875V28.25C26.8438 28.0938 26.75 28 26.5937 28Z" fill="#111827" stroke="#111827" stroke-width="0.5"/>
<path d="M26.5937 32.0625C26.4687 32.0625 26.3438 32.1563 26.3438 32.3125V32.9375C26.3438 33.0625 26.4375 33.1875 26.5937 33.1875C26.7188 33.1875 26.8438 33.0938 26.8438 32.9375V32.3125C26.8438 32.1563 26.75 32.0625 26.5937 32.0625Z" fill="#111827" stroke="#111827" stroke-width="0.5"/>
</g>
<defs>
<clipPath id="clip0_912_24789">
<rect width="40" height="40" fill="white"/>
</clipPath>
</defs>
</svg>
