<svg width="41" height="41" viewBox="0 0 41 41" fill="none" xmlns="http://www.w3.org/2000/svg">
<path fill-rule="evenodd" clip-rule="evenodd" d="M20.0089 0.0865038C19.4069 0.21167 19.2067 0.349361 19.1427 0.682433C19.1188 0.80713 19.0786 1.01558 19.0534 1.14568C19.0193 1.32196 18.938 1.41128 18.7343 1.49645C18.5839 1.5593 18.3033 1.71703 18.1107 1.84697C17.702 2.12282 17.7043 2.12259 17.2278 1.95327C16.5796 1.72314 16.0163 2.18999 15.2765 3.57057C14.562 4.90388 14.5243 5.37292 15.0969 5.80369L15.3904 6.02451L15.3856 6.81535L15.3809 7.60619L14.9986 7.97245C14.5565 8.39609 14.5554 8.42826 14.9491 9.41136C15.6648 11.1988 16.53 12.0021 17.3751 11.664C17.6864 11.5394 17.6932 11.5405 18.0616 11.775C18.2663 11.9053 18.5631 12.0728 18.7212 12.1472C19.0132 12.2847 19.0962 12.4357 19.098 12.833C19.1008 13.3988 19.8134 13.6684 21.3062 13.6684C22.9826 13.6684 23.3968 13.473 23.5244 12.6218C23.5543 12.4226 23.6204 12.2594 23.6714 12.2594C23.7222 12.2594 24.0245 12.0987 24.3431 11.9023L24.9222 11.5453L25.2422 11.6675C26.0468 11.9748 26.7606 11.3658 27.5143 9.72909C28.0414 8.58451 28.0374 8.26114 27.4914 7.85605L27.2009 7.64048L27.2087 6.85238L27.2166 6.0642L27.5805 5.73003C28.0137 5.33245 28.0191 5.2721 27.7013 4.39367C27.2926 3.26419 26.2494 1.84893 25.8249 1.84807C25.7207 1.84783 25.4713 1.90646 25.2708 1.97832L24.9063 2.10897L24.5272 1.86764C24.3186 1.73496 24.0163 1.56431 23.8554 1.48846C23.5912 1.364 23.5577 1.31351 23.5122 0.970574C23.4458 0.469283 23.2573 0.246034 22.7998 0.12666C22.229 -0.0223807 20.6422 -0.0451596 20.0089 0.0865038ZM22.0329 1.20823C22.3346 1.26177 22.3464 1.2757 22.4094 1.65144C22.4922 2.14498 22.556 2.21691 23.1462 2.48173C23.4132 2.60149 23.8663 2.86028 24.1533 3.05676C24.7387 3.45762 24.765 3.46341 25.2031 3.28815C25.6682 3.10208 26.0344 3.45684 26.4775 4.5229L26.645 4.92611L26.3674 5.16807C25.9532 5.52917 25.9109 5.65277 25.9884 6.27508C26.0263 6.5802 26.0265 7.05582 25.9887 7.35813C25.9082 8.00157 25.9606 8.16838 26.3322 8.45175C26.4871 8.56995 26.6138 8.71288 26.6138 8.76956C26.6138 8.93997 26.0891 9.93104 25.8444 10.2227L25.6159 10.4952L25.2079 10.3647C24.7315 10.2124 24.7093 10.2186 23.9915 10.7036C23.6901 10.9073 23.2674 11.1416 23.0522 11.2244C22.617 11.3916 22.3871 11.7137 22.387 12.1568C22.3868 12.4622 22.0775 12.5346 21.0134 12.4788C20.2481 12.4386 20.275 12.4549 20.1859 11.9779C20.0959 11.4963 20.0592 11.4597 19.296 11.0903C18.938 10.917 18.5409 10.6875 18.4134 10.5802C18.0537 10.2775 17.846 10.2254 17.4915 10.3487C17.3209 10.4081 17.121 10.4572 17.0472 10.4579C16.8875 10.4593 16.3377 9.6768 16.105 9.11672L15.942 8.72447L16.2783 8.43484L16.6146 8.14513L16.6255 6.8559L16.6364 5.56666L16.2865 5.23985L15.9366 4.91312L16.2652 4.26138C16.4461 3.90294 16.6806 3.50537 16.7864 3.37778L16.979 3.14584L17.3541 3.28032C17.8702 3.46529 17.9175 3.45691 18.4 3.09613C18.6339 2.92126 19.0541 2.67014 19.334 2.53801C19.9881 2.22913 20.1034 2.12329 20.1612 1.77903C20.2461 1.27351 20.2723 1.23265 20.5315 1.20032C20.9615 1.14662 21.7078 1.15054 22.0329 1.20823ZM20.5665 3.80713C18.2117 4.40212 17.4048 7.48063 19.1843 9.08055C21.3878 11.0616 24.938 9.13402 24.3452 6.27844C24.108 5.13551 23.1636 5.40541 23.1803 6.61128C23.2068 8.51406 21.247 9.46373 19.9567 8.17339C18.6806 6.89738 19.604 4.9586 21.4941 4.94545C22.4246 4.93895 22.7178 4.68282 22.4305 4.12736C22.2549 3.78772 21.2955 3.62286 20.5665 3.80713ZM32.2137 10.7026C30.4467 10.9601 29.4693 11.5609 29.5536 12.3377L29.6003 12.7682L29.0479 13.3125L28.4956 13.8568L27.9694 13.8604C27.2622 13.8654 26.8265 14.526 26.4969 16.0927C26.2176 17.4204 26.3447 17.8879 27.0547 18.1447C27.2393 18.2114 27.3377 18.3043 27.368 18.4405C27.4776 18.9321 27.5701 19.2838 27.6494 19.5116C27.7268 19.7334 27.7107 19.7912 27.4876 20.0945C27.055 20.6828 27.2634 21.2087 28.3719 22.3252C29.4869 23.4482 30.0381 23.6681 30.6075 23.2171L30.9186 22.9707L31.2907 23.0927C31.4953 23.1598 31.8389 23.2517 32.0544 23.2971C32.4234 23.3748 32.4572 23.4031 32.6414 23.7882C32.9018 24.3325 33.0574 24.3973 33.8937 24.3097C35.8077 24.109 36.8682 23.5379 36.8682 22.7078V22.2084L37.4151 21.6538L37.9622 21.0992L38.3592 21.1519C39.0442 21.2427 39.479 20.6875 39.8458 19.2537C40.2335 17.7376 40.1497 17.2049 39.4739 16.8883C39.0987 16.7126 39.0816 16.6903 38.9957 16.2636C38.9466 16.0202 38.8652 15.6784 38.8147 15.5042C38.7279 15.2045 38.7363 15.1689 38.9697 14.8467C39.299 14.3923 39.2836 14.2515 38.8315 13.5756C38.3766 12.8953 37.7103 12.2389 37.0251 11.7961C36.4256 11.4086 36.3625 11.4058 35.871 11.744L35.4825 12.0112L35.0222 11.8593C34.769 11.7758 34.4317 11.6867 34.2726 11.6613C34.0169 11.6204 33.9646 11.5713 33.8207 11.2369C33.5529 10.6143 33.3297 10.54 32.2137 10.7026ZM32.9464 12.2018C33.1393 12.6517 33.2503 12.7274 33.84 12.8109C34.1178 12.8503 34.5912 12.9712 34.892 13.0797C35.5709 13.3246 35.6658 13.3248 36.024 13.0813C36.476 12.7741 36.8965 12.9876 37.5773 13.87L37.902 14.291L37.6591 14.6214C37.3672 15.0182 37.3607 15.1472 37.6024 15.7489C37.7048 16.0038 37.8302 16.4565 37.8811 16.7548C38.0013 17.4599 38.0656 17.5667 38.4796 17.7499C38.9387 17.953 38.9319 18.5937 38.4595 19.646L38.3237 19.9485L37.9117 19.9L37.4998 19.8517L36.5487 20.7981L35.5975 21.7446L35.6333 22.1764L35.6692 22.6083L35.3098 22.7638C34.9595 22.9152 34.069 23.136 33.7971 23.1387C33.7124 23.1395 33.5875 22.9941 33.4645 22.7515C33.2512 22.3303 33.0862 22.2032 32.7442 22.1962C32.5017 22.1912 31.7002 21.9779 31.161 21.7749L30.8158 21.6449L30.4278 21.8861C29.9397 22.1895 29.8726 22.1677 29.1972 21.4856C28.5438 20.8256 28.5005 20.7183 28.7524 20.3819C29.0523 19.9817 29.059 19.855 28.8149 19.1832C28.6906 18.8409 28.5638 18.3671 28.5333 18.1303C28.4608 17.5699 28.3433 17.3982 27.9102 17.2201C27.7092 17.1375 27.5542 17.0223 27.5548 16.9561C27.5572 16.6917 27.7894 15.7622 27.9357 15.4315L28.0923 15.0774H28.5773C29.0406 15.0774 29.0733 15.0644 29.3058 14.7878C29.6194 14.4147 30.1803 13.8543 30.5615 13.5332L30.8614 13.2806L30.8093 12.8197L30.7571 12.3588L31.21 12.1944C32.4319 11.7507 32.7536 11.7521 32.9464 12.2018ZM12.4847 12.5746C11.3441 12.7033 11.4189 12.6144 11.0814 14.2404L10.8408 15.3994L10.1582 15.6277C9.78282 15.7534 9.19362 15.9979 8.84881 16.1713C8.06024 16.5678 8.21891 16.599 7.07221 15.8211C6.47018 15.4126 6.01374 15.1557 5.89014 15.1557C5.28779 15.1557 2.66133 17.788 2.66039 18.3925C2.66008 18.5739 2.83941 18.9024 3.33883 19.6353L4.01765 20.6316L3.62188 21.4748C3.40419 21.9386 3.14885 22.5559 3.05444 22.8465C2.96012 23.1371 2.87691 23.375 2.86963 23.3752C2.76474 23.3775 0.547986 23.8439 0.447242 23.8848C-0.104617 24.1087 -0.16583 28.1843 0.376088 28.6233C0.458436 28.69 1.05413 28.8427 1.7 28.9626L2.87417 29.1806L3.08873 29.8198C3.20677 30.1714 3.46078 30.7891 3.65327 31.1926L4.00325 31.9261L3.33202 32.9338C2.42399 34.2969 2.4344 34.3482 3.93577 35.8932C5.58822 37.5938 5.76114 37.6383 7.12474 36.7139L8.11699 36.0411L8.85272 36.3946C9.25734 36.589 9.87667 36.844 10.2291 36.9612L10.8698 37.1742L11.0883 38.3567C11.3953 40.019 11.379 40.0089 13.7762 40.0089C15.1757 40.0089 15.8194 39.9353 16.0458 39.7491C16.1712 39.6461 16.6604 37.6394 16.6722 37.1797C16.6724 37.1735 16.9632 37.0733 17.3183 36.957C17.6735 36.8406 18.292 36.5861 18.6927 36.3914L19.4214 36.0375L20.4148 36.7129C21.7842 37.6437 21.955 37.5996 23.6097 35.8887C25.1299 34.3168 25.1329 34.3027 24.2263 32.9706C23.4494 31.829 23.4811 31.9843 23.8677 31.2155C24.0363 30.88 24.2861 30.2853 24.4229 29.8937L24.6714 29.1819L25.8579 28.962C27.5081 28.6563 27.5092 28.6545 27.5125 26.3103C27.5159 23.9678 27.4922 23.9285 25.8823 23.6135C24.5264 23.3482 24.6853 23.4456 24.4458 22.7325C24.3404 22.4185 24.0928 21.818 23.8956 21.398L23.537 20.6345L24.2144 19.6177C24.6636 18.9433 24.8917 18.5268 24.8917 18.3808C24.8917 17.8068 22.2356 15.1557 21.6605 15.1557C21.5003 15.1557 21.1374 15.3572 20.4623 15.8211C19.3229 16.6039 19.5284 16.5684 18.6204 16.1395C18.2164 15.9487 17.6289 15.7065 17.315 15.6013C16.6038 15.3629 16.7034 15.5254 16.4431 14.1782C16.1929 12.8836 16.1175 12.7518 15.5655 12.6453C15.0201 12.5401 13.1672 12.4976 12.4847 12.5746ZM15.1183 13.8137C15.1461 13.8414 15.2629 14.3573 15.3779 14.96C15.6375 16.3201 15.661 16.358 16.3785 16.5657C17.2074 16.8058 17.8796 17.0784 18.6091 17.4705C19.4623 17.929 19.4707 17.9276 20.6231 17.1458L21.6127 16.4744L21.8627 16.6658C22.1849 16.9124 23.1342 17.8615 23.3804 18.1831L23.5706 18.4316L22.9005 19.4351C22.115 20.6112 22.1196 20.5775 22.6123 21.5138C23.0101 22.2699 23.3128 23.0258 23.5175 23.7756C23.6796 24.3692 23.7225 24.3937 25.0782 24.6698L26.2616 24.9107L26.3091 25.4931C26.3351 25.8134 26.3387 26.4344 26.317 26.873L26.2775 27.6705L25.0998 27.8906C23.6949 28.1531 23.6917 28.1554 23.4403 29.05C23.3313 29.4375 23.0145 30.2165 22.7362 30.7812C22.105 32.062 22.0984 31.9667 22.9008 33.1347L23.5713 34.1107L23.4363 34.3201C23.2373 34.6286 21.7718 36.0559 21.6541 36.0559C21.5985 36.0559 21.116 35.7565 20.5818 35.3905C19.4795 34.6353 19.4101 34.62 18.7887 34.9975C18.2134 35.3469 17.4431 35.6722 16.5551 35.9404C15.6394 36.2169 15.6356 36.2224 15.3774 37.6126L15.1601 38.7829L14.4294 38.8377C14.0274 38.8678 13.4024 38.8678 13.0403 38.8377L12.382 38.7828L12.1621 37.5982C11.9125 36.254 11.8848 36.2077 11.2205 36.0215C10.498 35.8191 9.56521 35.4395 8.87597 35.0675C8.05225 34.6229 8.09264 34.6161 6.96028 35.3896C5.76513 36.206 5.95863 36.2276 4.8892 35.1582C3.81969 34.0886 3.84521 34.3152 4.65687 33.1C5.41397 31.9665 5.42196 31.9292 5.04544 31.2867C4.68951 30.6795 4.37202 29.9268 4.11613 29.0842C3.82517 28.1256 3.89178 28.1741 2.48826 27.8998L1.26493 27.6608L1.21053 26.9353C1.18063 26.5363 1.1865 25.9175 1.22352 25.5603L1.29092 24.9108L2.4856 24.6675C3.87848 24.3838 3.84763 24.4061 4.10752 23.4923C4.21773 23.1048 4.53609 22.3258 4.81507 21.7611C5.44411 20.4878 5.45468 20.6327 4.64568 19.4454C3.99746 18.4941 3.97343 18.4435 4.08685 18.2704C4.25405 18.0152 5.30533 16.9542 5.64677 16.6961L5.93217 16.4802L6.9112 17.1487C8.06861 17.9389 8.06525 17.9385 9.01891 17.4304C9.75174 17.0399 10.4657 16.7565 11.2905 16.5284C11.8707 16.3679 11.9126 16.2928 12.1653 14.961C12.2796 14.3588 12.3982 13.841 12.4289 13.8103C12.5457 13.6935 15.001 13.6966 15.1183 13.8137ZM32.4455 14.4894C30.1452 15.1135 29.3593 17.9886 31.032 19.6612C32.9583 21.5876 36.27 20.2755 36.2789 17.5823C36.2818 16.7366 36.2189 16.519 35.9284 16.3688C35.3641 16.077 35.1085 16.3652 35.102 17.3008C35.0839 19.8939 31.5363 20.193 31.3297 17.6189C31.2324 16.407 32.079 15.5908 33.4133 15.6103C34.1665 15.6214 34.4416 15.4798 34.4416 15.0812C34.4416 14.4831 33.4989 14.2036 32.4455 14.4894ZM12.8369 18.2139C7.27949 18.8856 4.03127 24.8321 6.49108 29.831C7.13671 31.1429 7.6038 31.5043 8.06196 31.0461C8.29797 30.8101 8.25405 30.5522 7.86486 29.8882C5.77437 26.322 7.04262 21.9047 10.6843 20.068C12.8047 18.9985 15.6905 19.1984 17.651 20.5505C17.9517 20.7578 18.3474 20.7606 18.5512 20.5569C19.5764 19.5317 15.5599 17.8849 12.8369 18.2139ZM13.1109 21.3412C10.0876 21.7534 8.07863 24.9274 9.02431 27.7976C10.503 32.2855 16.6623 32.4278 18.4363 28.0151C19.7946 24.6366 16.7672 20.8427 13.1109 21.3412ZM19.5042 21.5208C19.2548 21.7863 19.2932 22.0802 19.6515 22.6474C23.484 28.7157 16.4995 35.8152 10.2323 32.2216C9.4665 31.7825 9.26204 31.747 9.01491 32.01C8.56834 32.4854 8.89922 32.9159 10.1994 33.5508C16.927 36.8369 24.1234 30.0371 21.2437 23.1153C20.6235 21.6246 19.9697 21.0253 19.5042 21.5208ZM14.9023 22.6733C17.9027 23.6 18.4811 27.762 15.8441 29.4489C13.1018 31.2032 9.62431 28.9991 10.0292 25.7632C10.3139 23.4869 12.6797 21.9869 14.9023 22.6733Z" fill="#111827"/>
</svg>
