<svg width="40" height="40" viewBox="0 0 40 40" fill="none" xmlns="http://www.w3.org/2000/svg">
<path fill-rule="evenodd" clip-rule="evenodd" d="M5.13409 0.238906C4.6055 0.503047 4.31721 0.798437 4.07096 1.32812L3.90753 1.67969V13.3707C3.90753 26.5543 3.85081 25.3906 4.49346 25.3906C5.13456 25.3906 5.0744 26.544 5.11846 13.3984C5.16221 0.346719 5.10503 1.57883 5.68081 1.28109C5.99721 1.11742 33.9272 1.11742 34.2436 1.28109C34.7659 1.55117 34.7631 1.53883 34.806 3.72586L34.845 5.71695L35.0642 5.90539C35.341 6.1432 35.5211 6.14313 35.7977 5.90508L36.0169 5.71633V3.69805C36.0169 1.14609 35.8901 0.788437 34.7903 0.238906L34.3123 0H19.9622H5.61214L5.13409 0.238906ZM7.85042 2.62C7.37065 2.76789 6.85503 3.22781 6.63206 3.70656L6.44815 4.10156V8.16406V12.2266L6.63206 12.6216C7.1701 13.777 7.40034 13.8281 12.0716 13.8281C16.7428 13.8281 16.9731 13.777 17.5111 12.6216L17.695 12.2266V8.16406V4.10156L17.5111 3.70656C17.2817 3.21375 16.7689 2.76656 16.26 2.61539C15.705 2.45063 8.38698 2.45461 7.85042 2.62ZM23.6317 2.62C23.1519 2.76789 22.6363 3.22781 22.4133 3.70656L22.2294 4.10156V8.16406V12.2266L22.4133 12.6216C22.9514 13.777 23.1816 13.8281 27.8528 13.8281C32.5241 13.8281 32.7543 13.777 33.2924 12.6216L33.4763 12.2266V8.16406V4.10156L33.2924 3.70656C33.0629 3.21375 32.5501 2.76656 32.0413 2.61539C31.4863 2.45063 24.1682 2.45461 23.6317 2.62ZM16.1416 3.84875C16.2532 3.92453 16.3849 4.07562 16.4346 4.18445C16.5597 4.45914 16.5624 11.8897 16.4374 12.1341C16.2033 12.5919 16.3742 12.5747 12.0716 12.5747C8.44987 12.5747 8.1126 12.5636 7.95964 12.4397C7.6219 12.1661 7.61846 12.123 7.61878 8.14969C7.61909 3.87086 7.61198 3.92617 8.1819 3.75859C8.6951 3.60773 15.9071 3.68937 16.1416 3.84875ZM31.7046 3.75523C32.3189 3.92578 32.3053 3.82703 32.3057 8.14969C32.306 12.123 32.3025 12.1661 31.9648 12.4397C31.7089 12.647 23.9968 12.647 23.7409 12.4397C23.4032 12.1662 23.3997 12.1222 23.3997 8.16531C23.3997 3.79523 23.3731 3.9632 24.1028 3.72281C24.3464 3.64258 31.4073 3.67266 31.7046 3.75523ZM25.5148 5.90898C25.2174 6.28703 25.325 6.50961 26.2457 7.42016C27.0605 8.22602 27.0667 8.08734 26.1749 8.98297C25.3402 9.82125 25.2301 10.0573 25.5086 10.4114C25.8467 10.8412 26.1209 10.7372 27.0439 9.82891L27.8528 9.03281L28.6618 9.82891C29.5799 10.7323 29.8596 10.8403 30.1909 10.4191C30.4869 10.0429 30.4174 9.8868 29.5716 9.02719C28.6307 8.07109 28.6349 8.24477 29.5307 7.34516C30.3655 6.50688 30.4756 6.27086 30.1971 5.91672C29.8589 5.48695 29.5848 5.59094 28.6618 6.49922L27.8528 7.29531L27.0439 6.49922C26.1257 5.59578 25.846 5.48781 25.5148 5.90898ZM12.8919 7.42188C12.0333 8.28125 11.2974 8.98438 11.2567 8.98438C11.2158 8.98438 10.8425 8.65039 10.4271 8.24219C9.59346 7.4232 9.40479 7.34719 9.06026 7.6918C8.68893 8.06305 8.76667 8.21234 9.94573 9.39148C11.3818 10.8275 11.0424 10.9084 13.3784 8.57242C15.4389 6.51203 15.4812 6.44938 15.0829 6.05117C14.6902 5.65836 14.5929 5.71922 12.8919 7.42188ZM34.9939 7.8207C34.8493 7.98031 34.8439 8.30891 34.806 19.1016C34.7674 30.076 34.7649 30.2202 34.6108 30.3905C34.2957 30.7387 34.1004 30.7812 32.8177 30.7812H31.6028V30.348C31.6028 29.8501 31.3741 29.5312 31.0169 29.5312C30.9056 29.5312 30.7282 29.6176 30.6228 29.723L30.431 29.9148V32.0945V34.2743L30.0403 35.8516C29.4003 38.4359 29.4699 40 30.2247 40C30.7028 40 30.8216 39.7293 30.8216 38.6399C30.8216 37.7305 30.8485 37.555 31.2122 36.086C31.6003 34.5187 31.6028 34.5006 31.6028 33.2371V31.9655L33.0286 31.9396C34.85 31.9065 35.3157 31.7013 35.7981 30.7191L36.0169 30.2734V19.1293C36.0169 8.28008 36.013 7.98078 35.8681 7.8207C35.6657 7.59711 35.1962 7.59711 34.9939 7.8207ZM8.04464 15.348C7.93917 15.4535 7.85284 15.6309 7.85284 15.7422C7.85284 15.8535 7.93917 16.0309 8.04464 16.1363L8.23635 16.3281H12.0594C16.3883 16.3281 16.2435 16.3484 16.2435 15.7422C16.2435 15.1359 16.3883 15.1562 12.0594 15.1562H8.23635L8.04464 15.348ZM19.2063 15.2842C18.7632 15.4412 18.2232 15.9336 17.9989 16.3852L17.8138 16.7578L17.7908 20.653L17.7678 24.5481L17.5564 24.4966C16.646 24.275 15.9455 24.4199 15.3719 24.9486C14.6899 25.5773 14.692 25.5672 14.6651 28.3398L14.6415 30.7812H10.2667C4.69557 30.7812 5.17784 30.9693 5.11846 28.7742L5.0794 27.3298L4.86018 27.1415C4.58339 26.9037 4.40331 26.9038 4.12675 27.1418L3.90753 27.3305V28.802C3.90753 30.732 4.09628 31.1791 5.14846 31.742C5.468 31.913 5.49956 31.9142 10.0599 31.936L14.6497 31.9579V32.957C14.6497 34.5012 14.7691 34.81 16.0064 36.4667C17.0487 37.8622 16.9935 37.7345 16.9935 38.7484C16.9935 39.727 17.126 40 17.6013 40C18.0685 40 18.1656 39.7633 18.1636 38.6278C18.1615 37.3765 18.1442 37.3341 17.0312 35.8577C15.7467 34.1535 15.8607 34.7139 15.8607 30.1034C15.8607 26.2387 15.863 26.1803 16.0253 25.9628C16.4221 25.4314 17.2246 25.4543 17.5964 26.0077C17.7707 26.2671 17.7747 26.3189 17.7747 28.3042V30.3354L17.4232 30.7112C17.017 31.1454 16.9759 31.3958 17.2634 31.6832C17.5925 32.0124 17.8275 31.9441 18.4196 31.3473L18.9432 30.8198L18.9645 23.945C18.9882 16.2628 18.9527 16.7257 19.5394 16.4473C20.0912 16.1854 20.7301 16.4943 20.8998 17.1049C20.947 17.2748 20.9771 19.361 20.9774 22.4718C20.9778 27.2103 20.9873 27.5725 21.1152 27.7304C21.3213 27.9849 21.7365 27.9716 21.9674 27.7032L22.1497 27.4912V24.832C22.1497 21.6937 22.2099 21.4816 23.0992 21.4855C24.0374 21.4897 24.1024 21.7083 24.1053 24.8748C24.108 27.723 24.1089 27.7295 24.5032 27.8795C24.7347 27.9675 25.1475 27.8186 25.2239 27.6195C25.2519 27.5467 25.2747 26.6804 25.2747 25.6942C25.2747 24.3105 25.3004 23.8398 25.3872 23.632C25.6452 23.0145 26.4599 22.8681 26.9444 23.3521L27.1888 23.5963L27.2278 25.5852C27.2716 27.8124 27.2995 27.9166 27.8528 27.9166C28.3518 27.9166 28.4339 27.719 28.4778 26.4121C28.5232 25.0624 28.7278 24.6875 29.4192 24.6875C30.1577 24.6875 30.4269 25.1992 30.4292 26.6075C30.4312 27.7596 30.5243 27.9688 31.0358 27.9688C31.6656 27.9688 31.8824 25.7297 31.3508 24.7158C30.8437 23.7487 29.7259 23.284 28.7513 23.6351C28.5794 23.697 28.4299 23.7482 28.4192 23.7488C28.4085 23.7495 28.3997 23.6866 28.3997 23.6091C28.3997 22.5022 26.7299 21.5834 25.4593 21.9913C25.3153 22.0375 25.266 21.9876 25.1007 21.6279C24.5979 20.5341 23.298 19.9765 22.2917 20.4231C22.171 20.4766 22.1582 20.3327 22.1354 18.6587C22.1107 16.8416 22.1099 16.8345 21.891 16.3888C21.3935 15.3755 20.2622 14.91 19.2063 15.2842ZM23.8171 15.3567C23.6554 15.5184 23.6259 15.6053 23.6646 15.8059C23.7692 16.3471 23.6171 16.3281 27.8528 16.3281C32.0886 16.3281 31.9365 16.3471 32.041 15.8059C32.0798 15.6053 32.0503 15.5184 31.8885 15.3567L31.6881 15.1562H27.8528H24.0176L23.8171 15.3567ZM8.19378 17.7477C7.85573 17.9113 7.77307 18.315 8.01479 18.6223L8.17667 18.8281H10.8607H13.5446L13.7065 18.6223C13.9553 18.3059 13.8636 17.9066 13.5046 17.743C13.2532 17.6284 8.43128 17.6327 8.19378 17.7477ZM23.975 17.7477C23.637 17.9113 23.5543 18.315 23.796 18.6223L23.9579 18.8281H26.6419H29.3259L29.4878 18.6223C29.7366 18.3059 29.6449 17.9066 29.2859 17.743C29.0344 17.6284 24.2125 17.6327 23.975 17.7477Z" fill="#111827"/>
</svg>
