<svg width="40" height="40" viewBox="0 0 40 40" fill="none" xmlns="http://www.w3.org/2000/svg">
<g clip-path="url(#clip0_912_24759)">
<path d="M7.28125 12.9688C7.40625 12.9688 7.53125 12.875 7.53125 12.7188V8.59375C7.53125 8.46875 7.4375 8.34375 7.28125 8.34375C7.15625 8.34375 7.03125 8.4375 7.03125 8.59375V12.75C7.0625 12.875 7.15625 12.9688 7.28125 12.9688Z" fill="#111827" stroke="#111827" stroke-width="0.5"/>
<path d="M7.28125 15.6562C7.40625 15.6562 7.53125 15.5625 7.53125 15.4062V14.0625C7.53125 13.9375 7.4375 13.8125 7.28125 13.8125C7.15625 13.8125 7.03125 13.9062 7.03125 14.0625V15.4062C7.0625 15.5625 7.15625 15.6562 7.28125 15.6562Z" fill="#111827" stroke="#111827" stroke-width="0.5"/>
<path d="M37.25 12.875L36.6875 12.3125C36.5937 12.2187 36.4375 12.2187 36.3437 12.3125C36.25 12.4063 36.25 12.5625 36.3437 12.6563L36.9062 13.2188C36.9375 13.25 37 13.2813 37.0625 13.2813C37.125 13.2813 37.1875 13.25 37.2187 13.2188C37.3437 13.125 37.3437 12.9688 37.25 12.875Z" fill="#111827" stroke="#111827" stroke-width="0.5"/>
<path d="M38.5313 14.1562C38.4375 14.0625 38.2813 14.0625 38.1875 14.1562C38.0937 14.25 38.0937 14.4063 38.1875 14.5L38.75 15.0625C38.7813 15.0937 38.8438 15.125 38.9063 15.125C38.9688 15.125 39.0313 15.0937 39.0625 15.0625C39.1563 14.9687 39.1563 14.8125 39.0625 14.7187L38.5313 14.1562Z" fill="#111827" stroke="#111827" stroke-width="0.5"/>
<path d="M36.9062 14.1562L36.3438 14.7187C36.25 14.8125 36.25 14.9687 36.3438 15.0625C36.375 15.0937 36.4375 15.125 36.5 15.125C36.5625 15.125 36.625 15.0937 36.6563 15.0625L37.2187 14.5C37.3125 14.4063 37.3125 14.25 37.2187 14.1562C37.1562 14.0625 37 14.0625 36.9062 14.1562Z" fill="#111827" stroke="#111827" stroke-width="0.5"/>
<path d="M39.0937 12.3125C39 12.2187 38.8438 12.2187 38.75 12.3125L38.1875 12.875C38.0938 12.9688 38.0938 13.125 38.1875 13.2188C38.2187 13.25 38.2812 13.2813 38.3437 13.2813C38.4062 13.2813 38.4687 13.25 38.5 13.2188L39.0625 12.6563C39.1875 12.5625 39.1875 12.4063 39.0937 12.3125Z" fill="#111827" stroke="#111827" stroke-width="0.5"/>
<path d="M33.125 33.125C33.0312 33.0313 32.875 33.0313 32.7813 33.125C32.6875 33.2187 32.6875 33.375 32.7813 33.4687L33.3437 34.0312C33.375 34.0625 33.4375 34.0937 33.5 34.0937C33.5625 34.0937 33.625 34.0625 33.6562 34.0312C33.75 33.9375 33.75 33.7812 33.6562 33.6875L33.125 33.125Z" fill="#111827" stroke="#111827" stroke-width="0.5"/>
<path d="M34.9688 34.9688C34.875 34.875 34.7188 34.875 34.625 34.9688C34.5312 35.0625 34.5312 35.2187 34.625 35.3125L35.1875 35.875C35.2187 35.9063 35.2812 35.9375 35.3437 35.9375C35.4062 35.9375 35.4687 35.9063 35.5 35.875C35.5938 35.7813 35.5938 35.625 35.5 35.5312L34.9688 34.9688Z" fill="#111827" stroke="#111827" stroke-width="0.5"/>
<path d="M33.375 34.9688L32.8125 35.5312C32.7188 35.625 32.7188 35.7813 32.8125 35.875C32.8437 35.9063 32.9062 35.9375 32.9687 35.9375C33.0312 35.9375 33.0937 35.9063 33.125 35.875L33.6875 35.3125C33.7812 35.2187 33.7812 35.0625 33.6875 34.9688C33.625 34.875 33.4688 34.875 33.375 34.9688Z" fill="#111827" stroke="#111827" stroke-width="0.5"/>
<path d="M35.2187 33.125L34.6563 33.6875C34.5625 33.7812 34.5625 33.9375 34.6563 34.0312C34.6875 34.0625 34.75 34.0937 34.8125 34.0937C34.875 34.0937 34.9375 34.0625 34.9688 34.0312L35.5312 33.4687C35.625 33.375 35.625 33.2187 35.5312 33.125C35.4687 33.0313 35.3125 33.0313 35.2187 33.125Z" fill="#111827" stroke="#111827" stroke-width="0.5"/>
<path d="M10.3125 4.3125C10.3438 4.34375 10.4063 4.375 10.4688 4.375C10.5313 4.375 10.5938 4.34375 10.625 4.3125C10.7188 4.21875 10.7188 4.0625 10.625 3.96875L10.0625 3.40625C9.96875 3.3125 9.8125 3.3125 9.71875 3.40625C9.625 3.5 9.625 3.65625 9.71875 3.75L10.3125 4.3125Z" fill="#111827" stroke="#111827" stroke-width="0.5"/>
<path d="M12.1562 6.15625C12.1875 6.1875 12.25 6.21875 12.3125 6.21875C12.375 6.21875 12.4375 6.1875 12.4687 6.15625C12.5625 6.0625 12.5625 5.90625 12.4687 5.8125L11.9062 5.25C11.8125 5.15625 11.6562 5.15625 11.5625 5.25C11.4688 5.34375 11.4688 5.5 11.5625 5.59375L12.1562 6.15625Z" fill="#111827" stroke="#111827" stroke-width="0.5"/>
<path d="M9.90625 6.21875C9.96875 6.21875 10.0313 6.1875 10.0625 6.15625L10.625 5.59375C10.7188 5.5 10.7188 5.34375 10.625 5.25C10.5313 5.15625 10.375 5.15625 10.2813 5.25L9.71875 5.8125C9.625 5.90625 9.625 6.0625 9.71875 6.15625C9.78125 6.1875 9.84375 6.21875 9.90625 6.21875Z" fill="#111827" stroke="#111827" stroke-width="0.5"/>
<path d="M11.75 4.375C11.8125 4.375 11.875 4.34375 11.9062 4.3125L12.4687 3.75C12.5625 3.65625 12.5625 3.5 12.4687 3.40625C12.375 3.3125 12.2187 3.3125 12.125 3.40625L11.5625 3.96875C11.4688 4.0625 11.4688 4.21875 11.5625 4.3125C11.625 4.34375 11.6875 4.375 11.75 4.375Z" fill="#111827" stroke="#111827" stroke-width="0.5"/>
<path d="M31.3437 10.0312C32 10.0312 32.5625 9.5 32.5625 8.8125C32.5625 8.15625 32.0312 7.625 31.3437 7.625C30.6875 7.625 30.125 8.15625 30.125 8.8125C30.1562 9.5 30.6875 10.0312 31.3437 10.0312ZM31.3437 8.09375C31.75 8.09375 32.0625 8.4375 32.0625 8.8125C32.0625 9.21875 31.7187 9.53125 31.3437 9.53125C30.9375 9.53125 30.625 9.1875 30.625 8.8125C30.625 8.4375 30.9687 8.09375 31.3437 8.09375Z" fill="#111827" stroke="#111827" stroke-width="0.5"/>
<path d="M11.2812 34.25C10.625 34.25 10.0625 34.7812 10.0625 35.4687C10.0625 36.1562 10.5937 36.6875 11.2812 36.6875C11.9375 36.6875 12.4687 36.1562 12.4687 35.4687C12.4687 34.7812 11.9375 34.25 11.2812 34.25ZM11.2812 36.1875C10.875 36.1875 10.5625 35.8437 10.5625 35.4687C10.5625 35.0625 10.9062 34.75 11.2812 34.75C11.6875 34.75 12 35.0937 12 35.4687C12 35.875 11.6875 36.1875 11.2812 36.1875Z" fill="#111827" stroke="#111827" stroke-width="0.5"/>
<path d="M38.6562 27.2812C38 27.2812 37.4688 27.8125 37.4688 28.5C37.4688 29.1875 38 29.7188 38.6562 29.7188C39.3125 29.7188 39.8438 29.1875 39.8438 28.5C39.8438 27.8125 39.3125 27.2812 38.6562 27.2812ZM38.6562 29.2188C38.25 29.2188 37.9375 28.875 37.9375 28.5C37.9375 28.125 38.2812 27.7813 38.6562 27.7813C39.0625 27.7813 39.375 28.125 39.375 28.5C39.375 28.875 39.0312 29.2188 38.6562 29.2188Z" fill="#111827" stroke="#111827" stroke-width="0.5"/>
<path d="M31.875 4.25H36.375C36.5 4.25 36.625 4.15625 36.625 4C36.625 3.84375 36.5313 3.75 36.375 3.75H31.875C31.75 3.75 31.625 3.84375 31.625 4C31.625 4.15625 31.75 4.25 31.875 4.25Z" fill="#111827" stroke="#111827" stroke-width="0.5"/>
<path d="M37.8437 4.25H39.2812C39.4062 4.25 39.5312 4.15625 39.5312 4C39.5312 3.84375 39.4375 3.75 39.2812 3.75H37.8437C37.7187 3.75 37.5938 3.84375 37.5938 4C37.5938 4.15625 37.7187 4.25 37.8437 4.25Z" fill="#111827" stroke="#111827" stroke-width="0.5"/>
<path d="M39.5312 5.5625C39.5312 5.4375 39.4375 5.3125 39.2812 5.3125H36.1562C36.0312 5.3125 35.9062 5.40625 35.9062 5.5625C35.9062 5.6875 36 5.8125 36.1562 5.8125H39.2812C39.4062 5.78125 39.5312 5.6875 39.5312 5.5625Z" fill="#111827" stroke="#111827" stroke-width="0.5"/>
<path d="M33.8125 5.3125C33.6875 5.3125 33.5625 5.40625 33.5625 5.5625C33.5625 5.6875 33.6562 5.8125 33.8125 5.8125H34.8125C34.9375 5.8125 35.0625 5.71875 35.0625 5.5625C35.0625 5.4375 34.9687 5.3125 34.8125 5.3125H33.8125Z" fill="#111827" stroke="#111827" stroke-width="0.5"/>
<path d="M7.8125 33.5312H3.3125C3.1875 33.5312 3.0625 33.625 3.0625 33.7812C3.0625 33.9062 3.15625 34.0312 3.3125 34.0312H7.8125C7.9375 34.0312 8.0625 33.9375 8.0625 33.7812C8.03125 33.6562 7.9375 33.5312 7.8125 33.5312Z" fill="#111827" stroke="#111827" stroke-width="0.5"/>
<path d="M1.84375 33.5312H0.40625C0.28125 33.5312 0.15625 33.625 0.15625 33.7812C0.15625 33.9062 0.25 34.0312 0.40625 34.0312H1.84375C1.96875 34.0312 2.09375 33.9375 2.09375 33.7812C2.09375 33.6562 1.96875 33.5312 1.84375 33.5312Z" fill="#111827" stroke="#111827" stroke-width="0.5"/>
<path d="M0.40625 32.4687H3.53125C3.65625 32.4687 3.78125 32.375 3.78125 32.2187C3.78125 32.0937 3.6875 31.9688 3.53125 31.9688H0.40625C0.28125 31.9688 0.15625 32.0625 0.15625 32.2187C0.15625 32.375 0.25 32.4687 0.40625 32.4687Z" fill="#111827" stroke="#111827" stroke-width="0.5"/>
<path d="M5.875 32.4687C6 32.4687 6.125 32.375 6.125 32.2187C6.125 32.0937 6.03125 31.9688 5.875 31.9688H4.875C4.75 31.9688 4.625 32.0625 4.625 32.2187C4.625 32.3437 4.71875 32.4687 4.875 32.4687H5.875Z" fill="#111827" stroke="#111827" stroke-width="0.5"/>
<path d="M37.6564 23.9063V20.625C37.6564 20.5 37.5627 20.375 37.4064 20.375H35.0314C34.5939 20.375 34.1564 20.125 33.8127 19.625C33.6877 19.3438 33.5627 19.0938 33.4064 18.8438C32.7814 17.75 31.9064 16.7813 30.9064 16L31.1252 12.75C31.1252 12.6562 31.0939 12.5938 31.0314 12.5312C30.9689 12.5 30.8752 12.4688 30.7814 12.5L27.0314 14.375H26.9064C26.3752 14.2813 25.8439 14.2188 25.3127 14.2188H24.9064C26.2189 13.2188 27.0314 11.625 27.0314 9.9375C27.0314 6.96875 24.6252 4.5625 21.6564 4.5625C18.6877 4.5625 16.2814 6.96875 16.2814 9.9375C16.2814 11.625 17.0939 13.2188 18.4064 14.2188H17.6564C17.2502 14.2188 16.8752 14.25 16.4689 14.3125L16.2502 14.2188L12.4064 12.375C12.3439 12.3438 12.2502 12.3438 12.1564 12.4063C12.0939 12.4688 12.0627 12.5313 12.0627 12.625L12.2814 15.8438C11.8127 16.1563 11.3752 16.5313 10.9689 16.9375C9.28142 18.625 8.28142 20.3125 8.28142 23.9375C8.28142 24.0313 8.28142 24.1563 8.28142 24.25C7.50017 26.125 5.37517 27 3.50017 26.25C2.93767 26.0313 2.46892 25.5938 2.25017 25C2.00017 24.4375 2.00017 23.8125 2.25017 23.25C2.40642 22.9063 2.65642 22.625 3.00017 22.4688C3.34392 22.3125 3.71892 22.3125 4.09392 22.4688C4.53142 22.6563 4.71892 23.125 4.56267 23.5625C4.50017 23.6875 4.56267 23.8125 4.68767 23.875C4.81267 23.9375 4.93767 23.875 5.00017 23.75C5.12517 23.4375 5.12517 23.0625 5.00017 22.75C4.87517 22.4375 4.62517 22.1875 4.28142 22.0625C3.31267 21.6563 2.21892 22.125 1.81267 23.0938C1.56267 23.75 1.56267 24.5 1.84392 25.1875C2.12517 25.875 2.65642 26.4063 3.34392 26.6875C3.84392 26.9063 4.37517 27 4.90642 27C6.28142 27 7.59392 26.3125 8.37517 25.125C8.87517 29.0313 11.8439 32.1875 15.6877 32.9375V35.0938C15.6877 35.4375 15.9689 35.75 16.3439 35.75H26.8752C27.2189 35.75 27.5314 35.4688 27.5314 35.0938V32.9063C29.1877 32.5313 30.7189 31.6875 31.9377 30.4375C33.0002 29.4063 33.7814 28.0938 34.2189 26.6875C34.2502 26.5938 34.2502 26.5313 34.2814 26.4688C34.7502 25.0625 35.5939 24.2188 36.5002 24.2188H37.4377C37.5627 24.1563 37.6564 24.0313 37.6564 23.9063ZM16.7502 9.9375C16.7502 7.21875 18.9689 5.03125 21.6564 5.03125C24.3752 5 26.5627 7.21875 26.5627 9.9375C26.5627 11.7188 25.5939 13.3438 24.0627 14.2188H19.2502C17.6877 13.3438 16.7502 11.7188 16.7502 9.9375ZM37.1877 23.6875H36.5002C35.3752 23.6875 34.3439 24.6875 33.8439 26.2813C33.8127 26.3438 33.7814 26.4375 33.7814 26.5C33.3752 27.8438 32.6252 29.0625 31.6252 30.0625C30.0002 31.7188 27.8127 32.625 25.4689 32.625C25.3439 32.625 25.2189 32.7188 25.2189 32.875C25.2189 33.0313 25.3127 33.125 25.4689 33.125H27.0627V35.0938C27.0627 35.1875 26.9689 35.2813 26.8752 35.2813H16.3439C16.2502 35.2813 16.1564 35.1875 16.1564 35.0938V33.125H17.4689C17.5939 33.125 17.7189 33.0313 17.7189 32.875C17.7189 32.7188 17.6252 32.625 17.4689 32.625C12.6877 32.625 8.78142 28.7188 8.78142 23.9375C8.78142 20.4688 9.71892 18.875 11.3439 17.25C11.6564 16.9375 12.0002 16.6563 12.3439 16.375L12.4064 17.2188C12.4064 17.3438 12.5314 17.4375 12.6564 17.4375C12.7814 17.4375 12.8752 17.3125 12.8752 17.1875L12.5939 13L16.0939 14.6875L16.3752 14.7812C16.4064 14.7812 16.4377 14.8125 16.5002 14.7812C16.8752 14.7188 17.2814 14.6875 17.6877 14.6875H25.3127C25.8127 14.6875 26.3439 14.75 26.8439 14.8438L27.0314 14.875C27.0627 14.875 27.1252 14.875 27.1564 14.8438L30.6252 13.1562L30.3439 17.3438C30.3439 17.4688 30.4377 17.5938 30.5627 17.5938C30.5627 17.5938 30.5627 17.5938 30.5939 17.5938C30.7189 17.5938 30.8127 17.5 30.8439 17.375L30.9064 16.5938C31.7502 17.2813 32.5002 18.125 33.0314 19.0625C33.0627 19.1563 33.1252 19.25 33.1564 19.3438C33.1877 19.4063 33.1877 19.4375 33.2189 19.5C33.2814 19.625 33.3752 19.7813 33.4689 19.9063C33.9064 20.5313 34.4689 20.8438 35.0939 20.8438H37.2502V23.6875H37.1877Z" fill="#111827" stroke="#111827" stroke-width="0.5"/>
<path d="M29.7501 18.75C29.6251 18.7188 29.5002 18.7813 29.4689 18.9063C29.4377 19.0313 29.5002 19.1563 29.6252 19.1875C29.6564 19.1875 30.5314 19.4375 30.8439 20.4688C30.8752 20.5625 30.9689 20.625 31.0627 20.625C31.0939 20.625 31.1252 20.625 31.1252 20.625C31.2502 20.5938 31.3127 20.4688 31.2814 20.3438C30.9064 19.0625 29.8127 18.75 29.7501 18.75Z" fill="#111827" stroke="#111827" stroke-width="0.5"/>
<path d="M21.875 9.71875V7.6875C22.125 7.71875 22.3438 7.8125 22.5313 7.96875C22.75 8.15625 22.875 8.40625 22.875 8.6875C22.875 8.8125 22.9688 8.9375 23.125 8.9375C23.25 8.9375 23.375 8.84375 23.375 8.6875C23.375 8.28125 23.1875 7.90625 22.875 7.625C22.625 7.40625 22.2812 7.25 21.9375 7.21875V6.53125C21.9375 6.40625 21.8438 6.28125 21.6875 6.28125C21.5625 6.28125 21.4375 6.375 21.4375 6.53125V7.1875C21.0938 7.21875 20.75 7.375 20.5 7.59375C20.1875 7.875 20 8.25 20 8.65625C20 9.0625 20.1875 9.4375 20.5 9.71875C20.75 9.9375 21.0938 10.0937 21.4375 10.125V12.1875C21.1875 12.1562 20.9688 12.0625 20.7813 11.9062C20.5625 11.7187 20.4375 11.4687 20.4375 11.1875C20.4375 11.0625 20.3437 10.9375 20.1875 10.9375C20.0625 10.9375 19.9375 11.0312 19.9375 11.1875C19.9375 11.5937 20.125 11.9687 20.4375 12.25C20.6875 12.4687 21.0313 12.625 21.375 12.6562V13.3437C21.375 13.4687 21.4687 13.5937 21.625 13.5937C21.75 13.5937 21.875 13.5 21.875 13.3437V12.6562C22.2188 12.625 22.5625 12.4687 22.8125 12.25C23.125 11.9687 23.3125 11.5937 23.3125 11.1875C23.3125 10.7812 23.125 10.4062 22.8125 10.125C22.5625 9.90625 22.25 9.75 21.875 9.71875ZM20.7813 9.375C20.5625 9.1875 20.4375 8.9375 20.4375 8.65625C20.4375 8.375 20.5625 8.125 20.7813 7.9375C20.9688 7.78125 21.1875 7.6875 21.4375 7.65625V9.6875C21.1875 9.625 20.9375 9.53125 20.7813 9.375ZM22.5313 11.9062C22.3438 12.0625 22.125 12.1562 21.875 12.1875V10.1875C22.125 10.2187 22.3438 10.3125 22.5313 10.4687C22.75 10.6562 22.875 10.9062 22.875 11.1875C22.875 11.4687 22.75 11.7187 22.5313 11.9062Z" fill="#111827" stroke="#111827" stroke-width="0.5"/>
</g>
<defs>
<clipPath id="clip0_912_24759">
<rect width="40" height="40" fill="white"/>
</clipPath>
</defs>
</svg>
