<svg width="40" height="40" viewBox="0 0 40 40" fill="none" xmlns="http://www.w3.org/2000/svg">
<path fill-rule="evenodd" clip-rule="evenodd" d="M12.0164 0.0917381C11.7018 0.229551 11.3735 0.628613 11.3172 0.941738C11.1689 1.76627 11.3186 15.4417 11.4783 15.6555C11.8942 16.2126 11.76 16.191 14.9568 16.2156L17.8429 16.2379L18.7507 17.4473C20.0324 19.1548 20.0238 19.1548 21.3055 17.4473L22.2133 16.2379L25.0994 16.2156C28.2962 16.191 28.162 16.2126 28.5779 15.6555C28.8319 15.3154 28.8319 0.899472 28.5779 0.559394C28.1394 -0.0281057 28.9267 0.0235349 20.1201 0.00447244C13.7004 -0.00951194 12.2108 0.00658181 12.0164 0.0917381ZM27.5281 8.10744V14.9824H24.5894H21.6508L21.4058 15.2505C21.2712 15.3979 20.9148 15.8538 20.614 16.2637C19.9566 17.1594 20.0996 17.1594 19.4422 16.2637C19.1414 15.8538 18.7851 15.3979 18.6504 15.2505L18.4054 14.9824H15.4668H12.5281V8.10744V1.23244H20.0281H27.5281V8.10744ZM13.9699 3.92424C13.849 4.0451 13.7781 4.20525 13.7781 4.35744C13.7781 4.50963 13.849 4.66978 13.9699 4.79064L14.1616 4.98244H16.5906H19.0196L19.2113 4.79064C19.3322 4.66978 19.4031 4.50963 19.4031 4.35744C19.4031 4.20525 19.3322 4.0451 19.2113 3.92424L19.0196 3.73244H16.5906H14.1616L13.9699 3.92424ZM13.9699 6.42424C13.4676 6.9265 13.8593 7.48244 14.7156 7.48244C15.3654 7.48244 15.6531 7.29057 15.6531 6.85744C15.6531 6.25182 14.4515 5.94252 13.9699 6.42424ZM17.0949 6.42424C16.974 6.5451 16.9031 6.70525 16.9031 6.85744C16.9031 7.00963 16.974 7.16978 17.0949 7.29064L17.2866 7.48244H21.5906H25.8946L26.0863 7.29064C26.2072 7.16978 26.2781 7.00963 26.2781 6.85744C26.2781 6.70525 26.2072 6.5451 26.0863 6.42424L25.8946 6.23244H21.5906H17.2866L17.0949 6.42424ZM13.9699 8.92424C13.849 9.0451 13.7781 9.20525 13.7781 9.35744C13.7781 9.50963 13.849 9.66978 13.9699 9.79064L14.1616 9.98244H20.0281H25.8946L26.0863 9.79064C26.3401 9.53697 26.3401 9.17791 26.0863 8.92424L25.8946 8.73244H20.0281H14.1616L13.9699 8.92424ZM13.9699 11.4242C13.849 11.5451 13.7781 11.7053 13.7781 11.8574C13.7781 12.0096 13.849 12.1698 13.9699 12.2906L14.1616 12.4824H18.7781H23.3946L23.5863 12.2906C23.7072 12.1698 23.7781 12.0096 23.7781 11.8574C23.7781 11.7053 23.7072 11.5451 23.5863 11.4242L23.3946 11.2324H18.7781H14.1616L13.9699 11.4242ZM19.5949 21.4242L19.4031 21.616V30.6074V39.5989L19.5949 39.7906C19.7158 39.9116 19.8759 39.9824 20.0281 39.9824C20.1803 39.9824 20.3404 39.9116 20.4613 39.7906L20.6531 39.5989V30.6074V21.616L20.4613 21.4242C20.3404 21.3033 20.1803 21.2324 20.0281 21.2324C19.8759 21.2324 19.7158 21.3033 19.5949 21.4242ZM29.5949 22.6742L29.4031 22.866V30.6074V38.3489L29.5949 38.5406C29.7158 38.6616 29.8759 38.7324 30.0281 38.7324C30.1803 38.7324 30.3405 38.6616 30.4613 38.5406L30.6531 38.3489V30.6074V22.866L30.4613 22.6742C30.3405 22.5533 30.1803 22.4824 30.0281 22.4824C29.8759 22.4824 29.7158 22.5533 29.5949 22.6742ZM14.5949 23.2992L14.4031 23.491V30.6074V37.7239L14.5949 37.9156C14.7158 38.0366 14.8759 38.1074 15.0281 38.1074C15.1803 38.1074 15.3404 38.0366 15.4613 37.9156L15.6531 37.7239V30.6074V23.491L15.4613 23.2992C15.3404 23.1783 15.1803 23.1074 15.0281 23.1074C14.8759 23.1074 14.7158 23.1783 14.5949 23.2992ZM9.5949 24.5492L9.40311 24.741V30.6074V36.4739L9.5949 36.6656C9.71576 36.7866 9.87592 36.8574 10.0281 36.8574C10.1803 36.8574 10.3404 36.7866 10.4613 36.6656L10.6531 36.4739V30.6074V24.741L10.4613 24.5492C10.3404 24.4283 10.1803 24.3574 10.0281 24.3574C9.87592 24.3574 9.71576 24.4283 9.5949 24.5492ZM24.5949 24.5492L24.4031 24.741V30.6074V36.4739L24.5949 36.6656C24.7158 36.7866 24.8759 36.8574 25.0281 36.8574C25.1803 36.8574 25.3405 36.7866 25.4613 36.6656L25.6531 36.4739V30.6074V24.741L25.4613 24.5492C25.3405 24.4283 25.1803 24.3574 25.0281 24.3574C24.8759 24.3574 24.7158 24.4283 24.5949 24.5492ZM12.0949 25.7992L11.9031 25.991V30.6074V35.2239L12.0949 35.4156C12.2158 35.5366 12.3759 35.6074 12.5281 35.6074C12.6803 35.6074 12.8404 35.5366 12.9613 35.4156L13.1531 35.2239V30.6074V25.991L12.9613 25.7992C12.8404 25.6783 12.6803 25.6074 12.5281 25.6074C12.3759 25.6074 12.2158 25.6783 12.0949 25.7992ZM22.0949 26.4242L21.9031 26.616V30.6074V34.5989L22.0949 34.7906C22.2158 34.9116 22.3759 34.9824 22.5281 34.9824C22.6803 34.9824 22.8405 34.9116 22.9613 34.7906L23.1531 34.5989V30.6074V26.616L22.9613 26.4242C22.8405 26.3033 22.6803 26.2324 22.5281 26.2324C22.3759 26.2324 22.2158 26.3033 22.0949 26.4242ZM17.0949 27.6742L16.9031 27.866V30.6074V33.3489L17.0949 33.5406C17.2158 33.6616 17.3759 33.7324 17.5281 33.7324C17.6803 33.7324 17.8404 33.6616 17.9613 33.5406L18.1531 33.3489V30.6074V27.866L17.9613 27.6742C17.8404 27.5533 17.6803 27.4824 17.5281 27.4824C17.3759 27.4824 17.2158 27.5533 17.0949 27.6742ZM27.0949 27.6742L26.9031 27.866V30.6074V33.3489L27.0949 33.5406C27.2158 33.6616 27.3759 33.7324 27.5281 33.7324C27.6803 33.7324 27.8405 33.6616 27.9613 33.5406L28.1531 33.3489V30.6074V27.866L27.9613 27.6742C27.8405 27.5533 27.6803 27.4824 27.5281 27.4824C27.3759 27.4824 27.2158 27.5533 27.0949 27.6742ZM32.0949 28.2992L31.9031 28.491V30.6074V32.7239L32.0949 32.9156C32.2158 33.0366 32.3759 33.1074 32.5281 33.1074C32.6803 33.1074 32.8405 33.0366 32.9613 32.9156L33.1531 32.7239V30.6074V28.491L32.9613 28.2992C32.8405 28.1783 32.6803 28.1074 32.5281 28.1074C32.3759 28.1074 32.2158 28.1783 32.0949 28.2992ZM7.0949 28.9242C6.90467 29.1144 6.90311 29.1281 6.90311 30.6074C6.90311 32.288 6.96795 32.4824 7.52811 32.4824C8.08826 32.4824 8.15311 32.288 8.15311 30.6074C8.15311 28.9269 8.08826 28.7324 7.52811 28.7324C7.37592 28.7324 7.21576 28.8033 7.0949 28.9242ZM4.5949 29.5492C4.3017 29.8424 4.3017 31.3725 4.5949 31.6656C5.18271 32.2535 5.65311 31.7831 5.65311 30.6074C5.65311 29.6191 5.52232 29.3574 5.02811 29.3574C4.87592 29.3574 4.71576 29.4283 4.5949 29.5492ZM34.5949 29.5492C34.0663 30.0778 34.4003 31.8574 35.0281 31.8574C35.5223 31.8574 35.6531 31.5958 35.6531 30.6074C35.6531 29.6191 35.5223 29.3574 35.0281 29.3574C34.8759 29.3574 34.7158 29.4283 34.5949 29.5492Z" fill="#111827"/>
</svg>
