<svg width="40" height="40" viewBox="0 0 40 40" fill="none" xmlns="http://www.w3.org/2000/svg">
<g clip-path="url(#clip0_912_24881)">
<path d="M22.4375 9.56247L22.875 9.87497L19.5938 14.7187C19.0625 14.7812 18.6562 15.25 18.6562 15.7812C18.6562 16.3125 19.0625 16.7812 19.5938 16.8437L22.7188 21.4062H21.6563C21.1563 21.4062 20.75 21.8125 20.75 22.3125V23.0625H19.6875C19.5313 23.0625 19.4062 23.1875 19.4062 23.3437C19.4062 23.5 19.5313 23.625 19.6875 23.625H21H25.4375H26.75C26.9063 23.625 27.0313 23.5 27.0313 23.3437C27.0313 23.1875 26.9063 23.0625 26.75 23.0625H25.6875V22.3125C25.6875 21.8125 25.2813 21.4062 24.7813 21.4062H23.3438L20.1875 16.75C20.5625 16.5937 20.8125 16.1875 20.8125 15.75C20.8125 15.3125 20.5625 14.9375 20.1875 14.75L23.3125 10.1562L24.1875 10.7812L25.9063 15.1562C25.9375 15.25 26.0313 15.3125 26.125 15.3125H26.1563C26.25 15.3125 26.3125 15.2812 26.375 15.1875L27.4063 13.7187C27.625 13.8125 27.875 13.875 28.125 13.875C28.8125 13.875 29.5313 13.5 30.0313 12.8125C30.375 12.3125 30.5625 11.75 30.5313 11.1875C30.5 10.7187 30.3438 10.3125 30.0313 10.0312L31.0625 8.56247C31.125 8.46872 31.125 8.37497 31.0938 8.28122C31.0625 8.18747 30.9688 8.12497 30.875 8.12497L26.1875 7.90622L24.4375 6.65622C23.6563 6.09372 22.5625 6.28123 22.0313 7.06248C21.4688 7.93748 21.6563 9.03122 22.4375 9.56247ZM25.1563 22.3437V23.0937H21.2813V22.3437C21.2813 22.1562 21.4375 21.9687 21.6563 21.9687H24.8125C25 21.9687 25.1563 22.125 25.1563 22.3437ZM19.75 16.3125C19.4375 16.3125 19.2188 16.0625 19.2188 15.7812C19.2188 15.5 19.4688 15.25 19.75 15.25C20.0313 15.25 20.2813 15.5 20.2813 15.7812C20.2813 16.0625 20.0313 16.3125 19.75 16.3125ZM30 11.3125C30.0313 11.75 29.875 12.1875 29.5938 12.5937C29.0938 13.2812 28.3125 13.5937 27.75 13.375L29.75 10.5937C29.875 10.75 29.9688 11 30 11.3125ZM22.4688 7.46872C22.6875 7.15622 23.0625 6.96872 23.4375 6.96872C23.6875 6.96872 23.9063 7.03123 24.125 7.18748L25.9375 8.49998C25.9688 8.53123 26.0313 8.56247 26.0938 8.56247L30.375 8.74997L26.2188 14.5312L24.6563 10.5625C24.625 10.5 24.5938 10.4687 24.5625 10.4375L22.75 9.12497C22.2188 8.74997 22.0938 7.99997 22.4688 7.46872Z" fill="#111827" stroke="#111827" stroke-width="0.4"/>
<path d="M2.25 9.0625H18.9375C19.0938 9.0625 19.2188 8.9375 19.2188 8.78125V5.78125C19.2188 5.625 19.0938 5.5 18.9375 5.5H2.25C2.09375 5.5 1.96875 5.625 1.96875 5.78125V8.78125C2 8.9375 2.09375 9.0625 2.25 9.0625ZM2.53125 6.0625H18.6875V8.5H16.8438V7.0625C16.8438 6.90625 16.7188 6.78125 16.5625 6.78125C16.4062 6.78125 16.2812 6.90625 16.2812 7.0625V8.5H14.4688V7.65625C14.4688 7.5 14.3438 7.375 14.1875 7.375C14.0313 7.375 13.9062 7.5 13.9062 7.65625V8.5H12.0312V7.0625C12.0312 6.90625 11.9062 6.78125 11.75 6.78125C11.5938 6.78125 11.4688 6.90625 11.4688 7.0625V8.5H9.65625V7.65625C9.65625 7.5 9.53125 7.375 9.375 7.375C9.21875 7.375 9.09375 7.5 9.09375 7.65625V8.5H7.21875V7.0625C7.21875 6.90625 7.09375 6.78125 6.9375 6.78125C6.78125 6.78125 6.65625 6.90625 6.65625 7.0625V8.5H4.84375V7.65625C4.84375 7.5 4.71875 7.375 4.5625 7.375C4.40625 7.375 4.28125 7.5 4.28125 7.65625V8.5H2.53125V6.0625Z" fill="#111827" stroke="#111827" stroke-width="0.4"/>
<path d="M0.4375 8.3125C0.59375 8.3125 0.71875 8.1875 0.71875 8.03125V3.65625C0.71875 3.5 0.59375 3.375 0.4375 3.375C0.28125 3.375 0.15625 3.5 0.15625 3.65625V8.0625C0.15625 8.1875 0.28125 8.3125 0.4375 8.3125Z" fill="#111827" stroke="#111827" stroke-width="0.4"/>
<path d="M0.4375 11.1875C0.59375 11.1875 0.71875 11.0625 0.71875 10.9062V9.46875C0.71875 9.3125 0.59375 9.1875 0.4375 9.1875C0.28125 9.1875 0.15625 9.3125 0.15625 9.46875V10.9062C0.15625 11.0625 0.28125 11.1875 0.4375 11.1875Z" fill="#111827" stroke="#111827" stroke-width="0.4"/>
<path d="M39.0313 28.7812C38.875 28.7812 38.75 28.9063 38.75 29.0625V33.4688C38.75 33.625 38.875 33.75 39.0313 33.75C39.1875 33.75 39.3125 33.625 39.3125 33.4688V29.0625C39.2813 28.9063 39.1563 28.7812 39.0313 28.7812Z" fill="#111827" stroke="#111827" stroke-width="0.4"/>
<path d="M39.0313 34.625C38.875 34.625 38.75 34.75 38.75 34.9062V36.3438C38.75 36.5 38.875 36.625 39.0313 36.625C39.1875 36.625 39.3125 36.5 39.3125 36.3438V34.9062C39.2813 34.75 39.1563 34.625 39.0313 34.625Z" fill="#111827" stroke="#111827" stroke-width="0.4"/>
<path d="M15.625 1.65625C15.6875 1.71875 15.75 1.75 15.8125 1.75C15.875 1.75 15.9375 1.71875 16 1.65625C16.0938 1.5625 16.0938 1.375 16 1.28125L15.4688 0.75C15.375 0.65625 15.1875 0.65625 15.0938 0.75C15 0.84375 15 1.03125 15.0938 1.125L15.625 1.65625Z" fill="#111827" stroke="#111827" stroke-width="0.4"/>
<path d="M17.3438 3.375C17.4063 3.4375 17.4688 3.46875 17.5313 3.46875C17.5938 3.46875 17.6563 3.4375 17.7188 3.375C17.8125 3.28125 17.8125 3.09375 17.7188 3L17.1875 2.46875C17.0938 2.375 16.9063 2.375 16.8125 2.46875C16.7187 2.5625 16.7187 2.75 16.8125 2.84375L17.3438 3.375Z" fill="#111827" stroke="#111827" stroke-width="0.4"/>
<path d="M15.2813 3.46875C15.3438 3.46875 15.4063 3.4375 15.4688 3.375L16 2.84375C16.0938 2.75 16.0938 2.5625 16 2.46875C15.9063 2.375 15.7188 2.375 15.625 2.46875L15.0938 3C15 3.09375 15 3.28125 15.0938 3.375C15.1563 3.4375 15.2188 3.46875 15.2813 3.46875Z" fill="#111827" stroke="#111827" stroke-width="0.4"/>
<path d="M17.0312 1.75C17.0937 1.75 17.1562 1.71875 17.2187 1.65625L17.75 1.125C17.8437 1.03125 17.8437 0.84375 17.75 0.75C17.6562 0.65625 17.4687 0.65625 17.375 0.75L16.8437 1.28125C16.75 1.375 16.75 1.5625 16.8437 1.65625C16.875 1.71875 16.9375 1.75 17.0312 1.75Z" fill="#111827" stroke="#111827" stroke-width="0.4"/>
<path d="M29.1875 36.9375C29.0938 36.8438 28.9063 36.8438 28.8125 36.9375C28.7187 37.0312 28.7187 37.2187 28.8125 37.3125L29.3438 37.8437C29.4063 37.9062 29.4688 37.9375 29.5313 37.9375C29.5938 37.9375 29.6563 37.9062 29.7188 37.8437C29.8125 37.75 29.8125 37.5625 29.7188 37.4687L29.1875 36.9375Z" fill="#111827" stroke="#111827" stroke-width="0.4"/>
<path d="M30.9063 38.6563C30.8125 38.5625 30.625 38.5625 30.5313 38.6563C30.4375 38.75 30.4375 38.9375 30.5313 39.0313L31.0625 39.5625C31.125 39.625 31.1875 39.6563 31.25 39.6563C31.3125 39.6563 31.375 39.625 31.4375 39.5625C31.5313 39.4688 31.5313 39.2813 31.4375 39.1875L30.9063 38.6563Z" fill="#111827" stroke="#111827" stroke-width="0.4"/>
<path d="M29.3125 38.6563L28.7813 39.1875C28.6875 39.2813 28.6875 39.4688 28.7813 39.5625C28.8438 39.625 28.9063 39.6563 28.9688 39.6563C29.0313 39.6563 29.0938 39.625 29.1563 39.5625L29.6875 39.0313C29.7813 38.9375 29.7813 38.75 29.6875 38.6563C29.5938 38.5625 29.4375 38.5625 29.3125 38.6563Z" fill="#111827" stroke="#111827" stroke-width="0.4"/>
<path d="M31.0625 36.9375L30.5313 37.4688C30.4375 37.5625 30.4375 37.75 30.5313 37.8438C30.5938 37.9063 30.6563 37.9375 30.7188 37.9375C30.7813 37.9375 30.8438 37.9063 30.9063 37.8438L31.4375 37.3125C31.5313 37.2188 31.5313 37.0313 31.4375 36.9375C31.3438 36.8125 31.1563 36.8125 31.0625 36.9375Z" fill="#111827" stroke="#111827" stroke-width="0.4"/>
<path d="M33.5625 7.53125C33.5625 8.25 34.1562 8.84375 34.875 8.84375C35.5937 8.84375 36.1875 8.25 36.1875 7.53125C36.1875 6.8125 35.5937 6.21875 34.875 6.21875C34.1562 6.21875 33.5625 6.8125 33.5625 7.53125ZM35.625 7.53125C35.625 7.9375 35.2812 8.28125 34.875 8.28125C34.4687 8.28125 34.125 7.9375 34.125 7.53125C34.125 7.125 34.4687 6.78125 34.875 6.78125C35.2812 6.75 35.625 7.09375 35.625 7.53125Z" fill="#111827" stroke="#111827" stroke-width="0.4"/>
<path d="M5.6875 3.96875C6.40625 3.96875 7 3.375 7 2.65625C7 1.9375 6.40625 1.34375 5.6875 1.34375C4.96875 1.34375 4.375 1.9375 4.375 2.65625C4.375 3.375 4.96875 3.96875 5.6875 3.96875ZM5.6875 1.90625C6.09375 1.90625 6.4375 2.25 6.4375 2.65625C6.4375 3.0625 6.09375 3.40625 5.6875 3.40625C5.28125 3.40625 4.9375 3.0625 4.9375 2.65625C4.9375 2.25 5.28125 1.90625 5.6875 1.90625Z" fill="#111827" stroke="#111827" stroke-width="0.4"/>
<path d="M23.1875 36.625C22.4687 36.625 21.875 37.2188 21.875 37.9375C21.875 38.6562 22.4687 39.25 23.1875 39.25C23.9062 39.25 24.5 38.6562 24.5 37.9375C24.5 37.2188 23.9062 36.625 23.1875 36.625ZM23.1875 38.6875C22.7812 38.6875 22.4375 38.3437 22.4375 37.9375C22.4375 37.5312 22.7812 37.1875 23.1875 37.1875C23.5937 37.1875 23.9375 37.5312 23.9375 37.9375C23.9375 38.3437 23.625 38.6875 23.1875 38.6875Z" fill="#111827" stroke="#111827" stroke-width="0.4"/>
<path d="M27 0.6875H31.75C31.9062 0.6875 32.0312 0.5625 32.0312 0.40625C32.0312 0.25 31.9062 0.125 31.75 0.125H27C26.8438 0.125 26.7188 0.25 26.7188 0.40625C26.7188 0.5625 26.8438 0.6875 27 0.6875Z" fill="#111827" stroke="#111827" stroke-width="0.4"/>
<path d="M33.3125 0.6875H34.8437C35 0.6875 35.125 0.5625 35.125 0.40625C35.125 0.25 35 0.125 34.8437 0.125H33.3125C33.1563 0.125 33.0312 0.25 33.0312 0.40625C33.0312 0.5625 33.1563 0.6875 33.3125 0.6875Z" fill="#111827" stroke="#111827" stroke-width="0.4"/>
<path d="M35.125 2.0625C35.125 1.90625 35 1.78125 34.8437 1.78125H31.5313C31.375 1.78125 31.25 1.90625 31.25 2.0625C31.25 2.21875 31.375 2.34375 31.5313 2.34375H34.8437C35 2.34375 35.125 2.21875 35.125 2.0625Z" fill="#111827" stroke="#111827" stroke-width="0.4"/>
<path d="M29.0312 1.78125C28.875 1.78125 28.75 1.90625 28.75 2.0625C28.75 2.21875 28.875 2.34375 29.0312 2.34375H30.0937C30.25 2.34375 30.375 2.21875 30.375 2.0625C30.375 1.90625 30.25 1.78125 30.0937 1.78125H29.0312Z" fill="#111827" stroke="#111827" stroke-width="0.4"/>
<path d="M16.3437 39.3125H11.5937C11.4375 39.3125 11.3125 39.4375 11.3125 39.5937C11.3125 39.75 11.4375 39.875 11.5937 39.875H16.3437C16.5 39.875 16.625 39.75 16.625 39.5937C16.625 39.4375 16.5 39.3125 16.3437 39.3125Z" fill="#111827" stroke="#111827" stroke-width="0.4"/>
<path d="M10.0313 39.3125H8.5C8.34375 39.3125 8.21875 39.4375 8.21875 39.5937C8.21875 39.75 8.34375 39.875 8.5 39.875H10.0313C10.1875 39.875 10.3125 39.75 10.3125 39.5937C10.3125 39.4375 10.1875 39.3125 10.0313 39.3125Z" fill="#111827" stroke="#111827" stroke-width="0.4"/>
<path d="M8.5 38.2188H11.8125C11.9688 38.2188 12.0938 38.0938 12.0938 37.9375C12.0938 37.7813 11.9688 37.6562 11.8125 37.6562H8.5C8.34375 37.6562 8.21875 37.7813 8.21875 37.9375C8.21875 38.0938 8.34375 38.2188 8.5 38.2188Z" fill="#111827" stroke="#111827" stroke-width="0.4"/>
<path d="M14.3125 38.2188C14.4687 38.2188 14.5937 38.0938 14.5937 37.9375C14.5937 37.7813 14.4687 37.6562 14.3125 37.6562H13.25C13.0938 37.6562 12.9688 37.7813 12.9688 37.9375C12.9688 38.0938 13.0938 38.2188 13.25 38.2188H14.3125Z" fill="#111827" stroke="#111827" stroke-width="0.4"/>
<path d="M31.1875 31.4062C31.1875 31.3125 31.125 31.1875 31.0313 31.1562L27.5625 29.5937C27.5 29.5625 27.4375 29.5625 27.4063 29.5937C27.375 29.5937 27.375 29.5937 27.3438 29.5937H9.15625C8.15625 29.5937 7.34375 30.4062 7.34375 31.4062C7.34375 32.4062 8.15625 33.2187 9.15625 33.2187H10.9063H12.3438H27.3438H27.375C27.4063 33.2187 27.4063 33.2187 27.4375 33.2187C27.4688 33.2187 27.5 33.2187 27.5625 33.1875L31.0313 31.625C31.125 31.625 31.1875 31.5312 31.1875 31.4062ZM12.0938 30.1563V32.7187H11.1875V30.1563H12.0938ZM7.90625 31.4062C7.90625 30.6875 8.46875 30.125 9.1875 30.125H10.6562V32.6875H9.1875C8.46875 32.6875 7.90625 32.125 7.90625 31.4062ZM27.0938 32.6875H12.6563V30.125H27.0938V32.6875ZM27.625 32.5937V30.25L30.25 31.4375L27.625 32.5937Z" fill="#111827" stroke="#111827" stroke-width="0.4"/>
<path d="M18.5938 31.6875H20.0312C20.1875 31.6875 20.3125 31.5625 20.3125 31.4063C20.3125 31.25 20.1875 31.125 20.0312 31.125H18.5938C18.4375 31.125 18.3125 31.25 18.3125 31.4063C18.3125 31.5625 18.4375 31.6875 18.5938 31.6875Z" fill="#111827" stroke="#111827" stroke-width="0.4"/>
<path d="M22.2188 31.6875H23.6562C23.8125 31.6875 23.9375 31.5625 23.9375 31.4063C23.9375 31.25 23.8125 31.125 23.6562 31.125H22.2188C22.0625 31.125 21.9375 31.25 21.9375 31.4063C21.9375 31.5625 22.0625 31.6875 22.2188 31.6875Z" fill="#111827" stroke="#111827" stroke-width="0.4"/>
<path d="M14.9688 31.6875H16.4063C16.5625 31.6875 16.6875 31.5625 16.6875 31.4062C16.6875 31.25 16.5625 31.125 16.4063 31.125H14.9688C14.8125 31.125 14.6875 31.25 14.6875 31.4062C14.6875 31.5625 14.8125 31.6875 14.9688 31.6875Z" fill="#111827" stroke="#111827" stroke-width="0.4"/>
<path d="M38.125 23.9687H11.4375L10.7812 22.4375H15.75C16.2812 22.4375 16.6875 22 16.6875 21.5V13.25C16.6875 12.7187 16.2812 12.3125 15.75 12.3125H2.90625C2.375 12.3125 1.96875 12.75 1.96875 13.25V21.5C1.96875 22.0312 2.375 22.4375 2.90625 22.4375H7.875L7.21875 23.9687H0.4375C0.28125 23.9687 0.15625 24.0937 0.15625 24.25V26.0312C0.15625 26.1875 0.28125 26.3125 0.4375 26.3125H2.78125V37.125C2.78125 37.2812 2.90625 37.4062 3.0625 37.4062H4.125C4.28125 37.4062 4.375 37.2812 4.40625 37.1562L4.90625 26.3437H33.6875L34.1875 37.1562C34.1875 37.3125 34.3125 37.4062 34.4688 37.4062H35.5312C35.6875 37.4062 35.8125 37.2812 35.8125 37.125V26.3125H38.1562C38.3125 26.3125 38.4375 26.1875 38.4375 26.0312V24.25C38.4062 24.0937 38.2812 23.9687 38.125 23.9687ZM2.5 21.5V13.25C2.5 13.0312 2.6875 12.8437 2.90625 12.8437H15.75C15.9688 12.8437 16.1562 13.0312 16.1562 13.25V21.5C16.1562 21.7187 15.9688 21.9062 15.75 21.9062H10.375H8.28125H2.90625C2.6875 21.875 2.5 21.7187 2.5 21.5ZM8.46875 22.4375H10.2188L10.875 23.9687H7.8125L8.46875 22.4375ZM3.84375 36.8437H3.3125V26.3125H4.34375L3.84375 36.8437ZM35.25 36.8437H34.6875L34.2188 26.3125H35.25V36.8437ZM37.8438 25.7812H35.5H33.9062H4.625H3.03125H0.6875V24.5312H7.375H11.25H37.8438V25.7812Z" fill="#111827" stroke="#111827" stroke-width="0.4"/>
<path d="M9.90625 19.0313H13.0313C13.1875 19.0313 13.3125 18.9063 13.3125 18.75V14.0937C13.3125 13.9375 13.1875 13.8125 13.0313 13.8125H8.375C8.21875 13.8125 8.09375 13.9375 8.09375 14.0937V16.25C7.90625 16.2188 7.71875 16.1875 7.53125 16.1875C6.21875 16.1875 5.15625 17.25 5.15625 18.5625C5.15625 19.875 6.21875 20.9375 7.53125 20.9375C8.71875 20.9688 9.6875 20.125 9.90625 19.0313ZM8.65625 17.125C9.0625 17.4375 9.34375 17.9375 9.375 18.5H8.65625V17.125ZM8.65625 14.375H12.75V18.4688H9.9375C9.90625 17.5938 9.40625 16.8438 8.65625 16.4688V14.375ZM7.5625 20.4063C6.5625 20.4063 5.71875 19.5938 5.71875 18.5625C5.71875 17.5313 6.53125 16.7188 7.5625 16.7188C7.75 16.7188 7.9375 16.75 8.125 16.8125V18.75C8.125 18.9063 8.25 19.0313 8.40625 19.0313H9.34375C9.125 19.8125 8.4375 20.4063 7.5625 20.4063Z" fill="#111827" stroke="#111827" stroke-width="0.4"/>
<path d="M32.2813 16.9687C32.2813 16.8125 32.1563 16.6875 32 16.7187C31.8438 16.7187 31.75 16.8437 31.75 17C31.8125 18.2187 32.3125 19.1875 32.7188 19.9375C33.0313 20.5312 33.2813 21.0312 33.2188 21.4062C33.1875 21.5625 33.3125 21.6875 33.4375 21.7187H33.4688C33.5938 21.7187 33.7188 21.625 33.75 21.5C33.8438 20.9375 33.5313 20.375 33.1875 19.6875C32.8125 18.9375 32.3438 18.0937 32.2813 16.9687Z" fill="#111827" stroke="#111827" stroke-width="0.4"/>
<path d="M38.0312 16.5938C37.9687 16.5938 37.9062 16.5938 37.8437 16.5938C37.9062 16.1563 37.9375 15.7188 37.9375 15.3125C37.9375 14.9063 37.5937 14.5625 37.1875 14.5625H31C30.5937 14.5625 30.25 14.9063 30.25 15.3125C30.25 16.8125 30.5937 18.3125 31.2187 19.6563L31.625 20.5312C31.9687 21.2188 32.125 22 32.125 22.7813C32.125 23.125 32.4062 23.375 32.7187 23.375H35.375C35.7187 23.375 35.9687 23.0938 35.9687 22.7813C35.9687 22 36.1562 21.2188 36.4687 20.5312L36.8125 19.8125C37.125 20.0625 37.5312 20.2188 37.9375 20.2188C38.9375 20.2188 39.75 19.4063 39.75 18.4063C39.8437 17.4063 39.0312 16.5938 38.0312 16.5938ZM36.0625 20.3125C35.6875 21.0938 35.5 21.9375 35.5 22.8125C35.5 22.8438 35.4687 22.875 35.4375 22.875H32.7812C32.75 22.875 32.7187 22.8438 32.7187 22.8125C32.7187 21.9688 32.5312 21.0938 32.1562 20.3125L31.75 19.4375C31.1562 18.1563 30.8125 16.7188 30.8125 15.3125C30.8125 15.2188 30.9062 15.125 31 15.125H37.1875C37.2812 15.125 37.375 15.2188 37.375 15.3125C37.375 15.8438 37.3437 16.375 37.25 16.9063C37.125 17.7188 36.875 18.5 36.5312 19.25C36.5 19.3125 36.4687 19.375 36.4375 19.4375L36.0625 20.3125ZM38.0312 19.6875C37.6875 19.6875 37.375 19.5625 37.125 19.3125C37.4062 18.625 37.625 17.9063 37.7812 17.1563C37.875 17.125 37.9375 17.125 38.0312 17.125C38.7187 17.125 39.3125 17.6875 39.3125 18.4063C39.3125 19.0938 38.7187 19.6875 38.0312 19.6875Z" fill="#111827" stroke="#111827" stroke-width="0.4"/>
</g>
<defs>
<clipPath id="clip0_912_24881">
<rect width="40" height="40" fill="white"/>
</clipPath>
</defs>
</svg>
