<svg width="350" height="207" viewBox="0 0 350 207" fill="none" xmlns="http://www.w3.org/2000/svg">
<g filter="url(#filter0_d_954_25934)">
<path fill-rule="evenodd" clip-rule="evenodd" d="M45.5 45.0288C46.6046 45.0288 47.5 44.1334 47.5 43.0288L47.5 23.1918C47.5 20.4884 50.795 19.1642 52.6657 21.1159L74.9969 44.4128C75.3741 44.8063 75.8956 45.0288 76.4407 45.0288H315C320.523 45.0288 325 49.506 325 55.0288V166.117C325 171.64 320.523 176.117 315 176.117H35C29.4772 176.117 25 171.64 25 166.117V55.0288C25 49.506 29.4772 45.0288 35 45.0288H45.5Z" fill="url(#paint0_linear_954_25934)"/>
</g>
<defs>
<filter id="filter0_d_954_25934" x="0" y="0.185791" width="350" height="205.932" filterUnits="userSpaceOnUse" color-interpolation-filters="sRGB">
<feFlood flood-opacity="0" result="BackgroundImageFix"/>
<feColorMatrix in="SourceAlpha" type="matrix" values="0 0 0 0 0 0 0 0 0 0 0 0 0 0 0 0 0 0 127 0" result="hardAlpha"/>
<feOffset dy="5"/>
<feGaussianBlur stdDeviation="12.5"/>
<feComposite in2="hardAlpha" operator="out"/>
<feColorMatrix type="matrix" values="0 0 0 0 0 0 0 0 0 0 0 0 0 0 0 0 0 0 0.35 0"/>
<feBlend mode="normal" in2="BackgroundImageFix" result="effect1_dropShadow_954_25934"/>
<feBlend mode="normal" in="SourceGraphic" in2="effect1_dropShadow_954_25934" result="shape"/>
</filter>
<linearGradient id="paint0_linear_954_25934" x1="25" y1="20.1858" x2="320.018" y2="44.8956" gradientUnits="userSpaceOnUse">
<stop stop-color="#3848D6"/>
<stop offset="0.557292" stop-color="#8914E2"/>
<stop offset="0.963542" stop-color="#D519C9"/>
</linearGradient>
</defs>
</svg>
