<svg width="226" height="80" viewBox="0 0 226 80" fill="none" xmlns="http://www.w3.org/2000/svg">
<g filter="url(#filter0_d_954_24234)">
<path fill-rule="evenodd" clip-rule="evenodd" d="M10 0C4.47715 0 0 4.47715 0 10V52C0 57.5228 4.47716 62 10 62H34.5C35.6046 62 36.5 62.8954 36.5 64V76.114C36.5 78.3518 38.8616 79.8018 40.8573 78.7893L73.5235 62.2164C73.8039 62.0741 74.1139 62 74.4283 62H216C221.523 62 226 57.5228 226 52V10C226 4.47715 221.523 0 216 0H10Z" fill="url(#paint0_linear_954_24234)"/>
</g>
<path d="M25.8636 25.3636H27.2727V33.6818C27.2727 34.4242 27.1364 35.0549 26.8636 35.5739C26.5909 36.0928 26.2064 36.4867 25.7102 36.7557C25.214 37.0246 24.6288 37.1591 23.9545 37.1591C23.3182 37.1591 22.7519 37.0436 22.2557 36.8125C21.7595 36.5777 21.3693 36.2443 21.0852 35.8125C20.8011 35.3807 20.6591 34.8674 20.6591 34.2727H22.0455C22.0455 34.6023 22.1269 34.8902 22.2898 35.1364C22.4564 35.3788 22.6837 35.5682 22.9716 35.7045C23.2595 35.8409 23.5871 35.9091 23.9545 35.9091C24.3598 35.9091 24.7045 35.8239 24.9886 35.6534C25.2727 35.483 25.4886 35.233 25.6364 34.9034C25.7879 34.5701 25.8636 34.1629 25.8636 33.6818V25.3636ZM31.5057 25.3636V37H30.0966V25.3636H31.5057ZM38.5582 33.3636H40.1037L41.3991 35.0682L41.7401 35.5227L43.6719 38.0909H42.1264L40.8537 36.3864L40.5355 35.9545L38.5582 33.3636ZM44.1491 31.1818C44.1491 32.4091 43.9276 33.4697 43.4844 34.3636C43.0412 35.2576 42.4332 35.947 41.6605 36.4318C40.8878 36.9167 40.0052 37.1591 39.0128 37.1591C38.0204 37.1591 37.1378 36.9167 36.3651 36.4318C35.5923 35.947 34.9844 35.2576 34.5412 34.3636C34.098 33.4697 33.8764 32.4091 33.8764 31.1818C33.8764 29.9545 34.098 28.8939 34.5412 28C34.9844 27.1061 35.5923 26.4167 36.3651 25.9318C37.1378 25.447 38.0204 25.2045 39.0128 25.2045C40.0052 25.2045 40.8878 25.447 41.6605 25.9318C42.4332 26.4167 43.0412 27.1061 43.4844 28C43.9276 28.8939 44.1491 29.9545 44.1491 31.1818ZM42.7855 31.1818C42.7855 30.1742 42.617 29.3239 42.2798 28.6307C41.9465 27.9375 41.4938 27.4129 40.9219 27.0568C40.3537 26.7008 39.7173 26.5227 39.0128 26.5227C38.3082 26.5227 37.67 26.7008 37.098 27.0568C36.5298 27.4129 36.0772 27.9375 35.7401 28.6307C35.4067 29.3239 35.2401 30.1742 35.2401 31.1818C35.2401 32.1894 35.4067 33.0398 35.7401 33.733C36.0772 34.4261 36.5298 34.9508 37.098 35.3068C37.67 35.6629 38.3082 35.8409 39.0128 35.8409C39.7173 35.8409 40.3537 35.6629 40.9219 35.3068C41.4938 34.9508 41.9465 34.4261 42.2798 33.733C42.617 33.0398 42.7855 32.1894 42.7855 31.1818ZM57.6094 30.5568V31.8068H49.6094V30.5568H57.6094ZM62.7912 34.7727H64.223C64.2533 35.1667 64.4313 35.4659 64.7571 35.6705C65.0866 35.875 65.5147 35.9773 66.0412 35.9773C66.5791 35.9773 67.0393 35.8674 67.4219 35.6477C67.8045 35.4242 67.9957 35.0644 67.9957 34.5682C67.9957 34.2765 67.9238 34.0227 67.7798 33.8068C67.6359 33.5871 67.4332 33.4167 67.1719 33.2955C66.9105 33.1742 66.6018 33.1136 66.2457 33.1136H64.7457V31.9091H66.2457C66.7798 31.9091 67.1738 31.7879 67.4276 31.5455C67.6851 31.303 67.8139 31 67.8139 30.6364C67.8139 30.2462 67.6757 29.9337 67.3991 29.6989C67.1226 29.4602 66.7306 29.3409 66.223 29.3409C65.7116 29.3409 65.2855 29.4564 64.9446 29.6875C64.6037 29.9148 64.4238 30.2083 64.4048 30.5682H62.9957C63.0109 30.0985 63.1548 29.6837 63.4276 29.3239C63.7003 28.9602 64.0715 28.6761 64.5412 28.4716C65.0109 28.2633 65.5488 28.1591 66.1548 28.1591C66.7685 28.1591 67.3007 28.267 67.7514 28.483C68.206 28.6951 68.5563 28.9848 68.8026 29.3523C69.0526 29.7159 69.1776 30.1288 69.1776 30.5909C69.1776 31.0833 69.0393 31.4811 68.7628 31.7841C68.4863 32.0871 68.1397 32.303 67.723 32.4318V32.5227C68.0526 32.5455 68.3385 32.6515 68.581 32.8409C68.8272 33.0265 69.0185 33.2708 69.1548 33.5739C69.2912 33.8731 69.3594 34.2045 69.3594 34.5682C69.3594 35.0985 69.2173 35.5606 68.9332 35.9545C68.6491 36.3447 68.259 36.6477 67.7628 36.8636C67.2666 37.0758 66.7003 37.1818 66.0639 37.1818C65.4465 37.1818 64.8935 37.0814 64.4048 36.8807C63.9162 36.6761 63.5279 36.3939 63.2401 36.0341C62.956 35.6705 62.8063 35.25 62.7912 34.7727ZM73.8111 37.2045C73.258 37.2045 72.7562 37.1004 72.3054 36.892C71.8546 36.6799 71.4967 36.375 71.2315 35.9773C70.9664 35.5758 70.8338 35.0909 70.8338 34.5227C70.8338 34.0227 70.9323 33.6174 71.1293 33.3068C71.3262 32.9924 71.5895 32.7462 71.919 32.5682C72.2486 32.3902 72.6122 32.2576 73.0099 32.1705C73.4115 32.0795 73.8149 32.0076 74.2202 31.9545C74.7505 31.8864 75.1804 31.8352 75.5099 31.8011C75.8433 31.7633 76.0857 31.7008 76.2372 31.6136C76.3925 31.5265 76.4702 31.375 76.4702 31.1591V31.1136C76.4702 30.553 76.3168 30.1174 76.0099 29.8068C75.7069 29.4962 75.2467 29.3409 74.6293 29.3409C73.9891 29.3409 73.4872 29.4811 73.1236 29.7614C72.7599 30.0417 72.5043 30.3409 72.3565 30.6591L71.0838 30.2045C71.3111 29.6742 71.6141 29.2614 71.9929 28.9659C72.3755 28.6667 72.7921 28.4583 73.2429 28.3409C73.6974 28.2197 74.1444 28.1591 74.5838 28.1591C74.8641 28.1591 75.1861 28.1932 75.5497 28.2614C75.9171 28.3258 76.2713 28.4602 76.6122 28.6648C76.9569 28.8693 77.2429 29.178 77.4702 29.5909C77.6974 30.0038 77.8111 30.5568 77.8111 31.25V37H76.4702V35.8182H76.402C76.3111 36.0076 76.1596 36.2102 75.9474 36.4261C75.7353 36.642 75.4531 36.8258 75.1009 36.9773C74.7486 37.1288 74.3187 37.2045 73.8111 37.2045ZM74.0156 36C74.5459 36 74.9929 35.8958 75.3565 35.6875C75.724 35.4792 76.0005 35.2102 76.1861 34.8807C76.3755 34.5511 76.4702 34.2045 76.4702 33.8409V32.6136C76.4134 32.6818 76.2884 32.7443 76.0952 32.8011C75.9058 32.8542 75.6861 32.9015 75.4361 32.9432C75.1899 32.9811 74.9493 33.0152 74.7145 33.0455C74.4834 33.072 74.2959 33.0947 74.152 33.1136C73.8035 33.1591 73.4777 33.233 73.1747 33.3352C72.8755 33.4337 72.633 33.5833 72.4474 33.7841C72.2656 33.9811 72.1747 34.25 72.1747 34.5909C72.1747 35.0568 72.3471 35.4091 72.6918 35.6477C73.0402 35.8826 73.4815 36 74.0156 36ZM86.9858 28.2727V37H85.6449V28.2727H86.9858ZM86.4631 32.4318V33.6818C86.16 33.7955 85.8589 33.8958 85.5597 33.983C85.2604 34.0663 84.946 34.1326 84.6165 34.1818C84.2869 34.2273 83.9252 34.25 83.5312 34.25C82.5426 34.25 81.7491 33.983 81.1506 33.4489C80.5559 32.9148 80.2585 32.1136 80.2585 31.0455V28.25H81.5994V31.0455C81.5994 31.4924 81.6847 31.8598 81.8551 32.1477C82.0256 32.4356 82.2566 32.6496 82.5483 32.7898C82.84 32.9299 83.1676 33 83.5312 33C84.0994 33 84.6127 32.9489 85.071 32.8466C85.5331 32.7405 85.9972 32.6023 86.4631 32.4318ZM93.1051 37.1818C92.2642 37.1818 91.5388 36.9962 90.929 36.625C90.3229 36.25 89.8551 35.7273 89.5256 35.0568C89.1998 34.3826 89.0369 33.5985 89.0369 32.7045C89.0369 31.8106 89.1998 31.0227 89.5256 30.3409C89.8551 29.6553 90.3134 29.1212 90.9006 28.7386C91.4915 28.3523 92.1809 28.1591 92.9688 28.1591C93.4233 28.1591 93.8722 28.2348 94.3153 28.3864C94.7585 28.5379 95.1619 28.7841 95.5256 29.125C95.8892 29.4621 96.179 29.9091 96.3949 30.4659C96.6108 31.0227 96.7188 31.7083 96.7188 32.5227V33.0909H89.9915V31.9318H95.3551C95.3551 31.4394 95.2566 31 95.0597 30.6136C94.8665 30.2273 94.59 29.9223 94.2301 29.6989C93.8741 29.4754 93.4536 29.3636 92.9688 29.3636C92.4347 29.3636 91.9725 29.4962 91.5824 29.7614C91.196 30.0227 90.8987 30.3636 90.6903 30.7841C90.482 31.2045 90.3778 31.6553 90.3778 32.1364V32.9091C90.3778 33.5682 90.4915 34.1269 90.7188 34.5852C90.9498 35.0398 91.2699 35.3864 91.679 35.625C92.0881 35.8598 92.5634 35.9773 93.1051 35.9773C93.4574 35.9773 93.7756 35.928 94.0597 35.8295C94.3475 35.7273 94.5956 35.5758 94.804 35.375C95.0123 35.1705 95.1733 34.9167 95.2869 34.6136L96.5824 34.9773C96.446 35.4167 96.2169 35.803 95.8949 36.1364C95.5729 36.4659 95.1752 36.7235 94.7017 36.9091C94.2282 37.0909 93.696 37.1818 93.1051 37.1818ZM103.531 35.1818L106.577 28.2727H107.849L104.077 37H102.986L99.2812 28.2727H100.531L103.531 35.1818ZM100.099 28.2727V37H98.7585V28.2727H100.099ZM106.963 37V28.2727H108.304V37H106.963ZM118.804 37.1818C118.016 37.1818 117.325 36.9943 116.73 36.6193C116.139 36.2443 115.677 35.7197 115.344 35.0455C115.014 34.3712 114.849 33.5833 114.849 32.6818C114.849 31.7727 115.014 30.9792 115.344 30.3011C115.677 29.6231 116.139 29.0966 116.73 28.7216C117.325 28.3466 118.016 28.1591 118.804 28.1591C119.592 28.1591 120.281 28.3466 120.872 28.7216C121.467 29.0966 121.929 29.6231 122.259 30.3011C122.592 30.9792 122.759 31.7727 122.759 32.6818C122.759 33.5833 122.592 34.3712 122.259 35.0455C121.929 35.7197 121.467 36.2443 120.872 36.6193C120.281 36.9943 119.592 37.1818 118.804 37.1818ZM118.804 35.9773C119.402 35.9773 119.895 35.8239 120.281 35.517C120.668 35.2102 120.954 34.8068 121.139 34.3068C121.325 33.8068 121.418 33.2652 121.418 32.6818C121.418 32.0985 121.325 31.5549 121.139 31.0511C120.954 30.5473 120.668 30.1402 120.281 29.8295C119.895 29.5189 119.402 29.3636 118.804 29.3636C118.205 29.3636 117.713 29.5189 117.327 29.8295C116.94 30.1402 116.654 30.5473 116.469 31.0511C116.283 31.5549 116.19 32.0985 116.19 32.6818C116.19 33.2652 116.283 33.8068 116.469 34.3068C116.654 34.8068 116.94 35.2102 117.327 35.517C117.713 35.8239 118.205 35.9773 118.804 35.9773ZM130.646 32.0227V33.2727H125.828V32.0227H130.646ZM126.146 28.2727V37H124.805V28.2727H126.146ZM131.669 28.2727V37H130.328V28.2727H131.669ZM144.459 32.0227V33.2727H139.641V32.0227H144.459ZM139.959 28.2727V37H138.618V28.2727H139.959ZM145.482 28.2727V37H144.141V28.2727H145.482ZM148.482 40.2727C148.254 40.2727 148.052 40.2538 147.874 40.2159C147.696 40.1818 147.572 40.1477 147.504 40.1136L147.845 38.9318C148.171 39.0152 148.459 39.0455 148.709 39.0227C148.959 39 149.18 38.8883 149.374 38.6875C149.571 38.4905 149.75 38.1705 149.913 37.7273L150.163 37.0455L146.936 28.2727H148.391L150.8 35.2273H150.891L153.3 28.2727H154.754L151.05 38.2727C150.883 38.7235 150.677 39.0966 150.43 39.392C150.184 39.6913 149.898 39.9129 149.572 40.0568C149.25 40.2008 148.887 40.2727 148.482 40.2727ZM155.979 37L159.524 32.5682L156.024 28.2727H157.615L160.524 32H161.251V28.2727H162.592V32H163.297L166.206 28.2727H167.797L164.32 32.5682L167.842 37H166.229L163.274 33.25H162.592V37H161.251V33.25H160.57L157.592 37H155.979ZM173.058 37.1818C172.217 37.1818 171.492 36.9962 170.882 36.625C170.276 36.25 169.808 35.7273 169.479 35.0568C169.153 34.3826 168.99 33.5985 168.99 32.7045C168.99 31.8106 169.153 31.0227 169.479 30.3409C169.808 29.6553 170.267 29.1212 170.854 28.7386C171.445 28.3523 172.134 28.1591 172.922 28.1591C173.376 28.1591 173.825 28.2348 174.268 28.3864C174.712 28.5379 175.115 28.7841 175.479 29.125C175.842 29.4621 176.132 29.9091 176.348 30.4659C176.564 31.0227 176.672 31.7083 176.672 32.5227V33.0909H169.945V31.9318H175.308C175.308 31.4394 175.21 31 175.013 30.6136C174.82 30.2273 174.543 29.9223 174.183 29.6989C173.827 29.4754 173.407 29.3636 172.922 29.3636C172.388 29.3636 171.926 29.4962 171.536 29.7614C171.149 30.0227 170.852 30.3636 170.643 30.7841C170.435 31.2045 170.331 31.6553 170.331 32.1364V32.9091C170.331 33.5682 170.445 34.1269 170.672 34.5852C170.903 35.0398 171.223 35.3864 171.632 35.625C172.041 35.8598 172.517 35.9773 173.058 35.9773C173.411 35.9773 173.729 35.928 174.013 35.8295C174.301 35.7273 174.549 35.5758 174.757 35.375C174.965 35.1705 175.126 34.9167 175.24 34.6136L176.536 34.9773C176.399 35.4167 176.17 35.803 175.848 36.1364C175.526 36.4659 175.128 36.7235 174.655 36.9091C174.181 37.0909 173.649 37.1818 173.058 37.1818ZM184.553 32.0227V33.2727H179.734V32.0227H184.553ZM180.053 28.2727V37H178.712V28.2727H180.053ZM185.575 28.2727V37H184.234V28.2727H185.575ZM189.774 33.7273V33.6591C189.782 32.9356 189.857 32.3598 190.001 31.9318C190.145 31.5038 190.35 31.1572 190.615 30.892C190.88 30.6269 191.198 30.3826 191.57 30.1591C191.793 30.0227 191.994 29.8617 192.172 29.6761C192.35 29.4867 192.49 29.2689 192.592 29.0227C192.698 28.7765 192.751 28.5038 192.751 28.2045C192.751 27.8333 192.664 27.5114 192.49 27.2386C192.316 26.9659 192.083 26.7557 191.791 26.608C191.5 26.4602 191.176 26.3864 190.82 26.3864C190.509 26.3864 190.21 26.4508 189.922 26.5795C189.634 26.7083 189.393 26.911 189.2 27.1875C189.007 27.464 188.895 27.8258 188.865 28.2727H187.433C187.464 27.6288 187.63 27.0777 187.933 26.6193C188.24 26.161 188.643 25.8106 189.143 25.5682C189.647 25.3258 190.206 25.2045 190.82 25.2045C191.486 25.2045 192.066 25.3371 192.558 25.6023C193.054 25.8674 193.437 26.2311 193.706 26.6932C193.979 27.1553 194.115 27.6818 194.115 28.2727C194.115 28.6894 194.051 29.0663 193.922 29.4034C193.797 29.7405 193.615 30.0417 193.376 30.3068C193.142 30.572 192.857 30.8068 192.524 31.0114C192.191 31.2197 191.924 31.4394 191.723 31.6705C191.522 31.8977 191.376 32.1686 191.286 32.483C191.195 32.7973 191.145 33.1894 191.138 33.6591V33.7273H189.774ZM190.501 37.0909C190.221 37.0909 189.981 36.9905 189.78 36.7898C189.579 36.589 189.479 36.3485 189.479 36.0682C189.479 35.7879 189.579 35.5473 189.78 35.3466C189.981 35.1458 190.221 35.0455 190.501 35.0455C190.782 35.0455 191.022 35.1458 191.223 35.3466C191.424 35.5473 191.524 35.7879 191.524 36.0682C191.524 36.2538 191.477 36.4242 191.382 36.5795C191.291 36.7348 191.168 36.8598 191.013 36.9545C190.861 37.0455 190.691 37.0909 190.501 37.0909Z" fill="white"/>
<defs>
<filter id="filter0_d_954_24234" x="-25" y="-20" width="276" height="129.118" filterUnits="userSpaceOnUse" color-interpolation-filters="sRGB">
<feFlood flood-opacity="0" result="BackgroundImageFix"/>
<feColorMatrix in="SourceAlpha" type="matrix" values="0 0 0 0 0 0 0 0 0 0 0 0 0 0 0 0 0 0 127 0" result="hardAlpha"/>
<feOffset dy="5"/>
<feGaussianBlur stdDeviation="12.5"/>
<feComposite in2="hardAlpha" operator="out"/>
<feColorMatrix type="matrix" values="0 0 0 0 0 0 0 0 0 0 0 0 0 0 0 0 0 0 0.35 0"/>
<feBlend mode="normal" in2="BackgroundImageFix" result="effect1_dropShadow_954_24234"/>
<feBlend mode="normal" in="SourceGraphic" in2="effect1_dropShadow_954_24234" result="shape"/>
</filter>
<linearGradient id="paint0_linear_954_24234" x1="0" y1="0" x2="220.398" y2="27.4078" gradientUnits="userSpaceOnUse">
<stop stop-color="#3848D6"/>
<stop offset="0.557292" stop-color="#8914E2"/>
<stop offset="0.963542" stop-color="#D519C9"/>
</linearGradient>
</defs>
</svg>
