<svg width="23" height="23" viewBox="0 0 23 23" fill="none" xmlns="http://www.w3.org/2000/svg">
<path fill-rule="evenodd" clip-rule="evenodd" d="M10.5025 0.0399457C2.44057 0.755731 -2.38031 9.33172 1.19987 16.5886C4.03395 22.3332 11.1081 24.6518 16.7675 21.6911C17.8318 21.1343 18.0572 20.7849 17.7498 20.1681C17.4539 19.5742 17.0133 19.5397 16.0696 20.0367C9.5632 23.4631 1.78444 18.8091 1.78444 11.49C1.78444 3.87295 10.1606 -0.745873 16.6661 3.28393C17.399 3.73791 17.7778 3.75952 18.1429 3.36816C18.6065 2.87115 18.472 2.3541 17.7519 1.86539C15.7723 0.521913 12.9835 -0.180351 10.5025 0.0399457ZM21.8002 1.89863C21.5265 1.99616 21.5218 2.00186 16.6114 8.12085C11.9301 13.9544 11.8097 14.0967 11.5595 14.0939C11.3364 14.0913 11.3324 14.0878 8.81112 11.6978C6.22928 9.25023 6.17744 9.20832 5.79727 9.26043C5.10713 9.35503 4.76303 10.0745 5.1446 10.6249C5.24801 10.7741 9.09435 14.4554 9.96022 15.234C10.9088 16.0869 12.2432 16.095 13.1208 15.2531C13.3763 15.0081 22.6982 3.43056 22.8503 3.16938C23.2567 2.4717 22.5596 1.62811 21.8002 1.89863ZM21.4827 7.99538C20.9446 8.18347 20.7842 8.61135 20.9609 9.38814C21.2749 10.7685 21.2512 12.483 20.8997 13.8297C20.6163 14.9153 20.3359 15.5611 19.6191 16.7789C19.1824 17.5209 19.508 18.2369 20.286 18.2455C20.814 18.2514 21.101 17.9197 21.798 16.4988C22.9272 14.1964 23.2472 11.6851 22.7336 9.15531C22.5278 8.14178 22.127 7.77015 21.4827 7.99538Z" fill="white"/>
</svg>
