<svg width="40" height="40" viewBox="0 0 40 40" fill="none" xmlns="http://www.w3.org/2000/svg">
<path fill-rule="evenodd" clip-rule="evenodd" d="M24.1492 4.72737C23.6847 4.83823 18.3578 8.74987 18.0953 9.17284C17.8526 9.56386 17.851 10.2095 18.0918 10.5974C18.2718 10.8874 23.4972 14.8042 23.9178 14.9645C25.0008 15.377 25.9883 14.5465 25.9883 13.2233V12.837L27.0994 12.8777C33.9233 13.1277 36.6223 21.8108 31.1345 25.8592C29.5822 27.0043 28.29 27.3096 24.9942 27.3097C22.7878 27.3098 23.0254 26.957 23.0254 30.2338V32.8453L23.2398 33.0152C23.5158 33.2338 27.9106 33.2067 29.1072 32.979C31.493 32.5251 34.6433 31.0082 34.6433 30.3133C34.6433 29.6164 34.1086 29.508 33.3178 30.0446C31.378 31.361 29.3562 31.9068 26.1638 31.976L24.195 32.0185V30.2501V28.4817L25.7349 28.4792C28.0784 28.4756 29.0825 28.2957 30.4718 27.6306C36.4594 24.7639 36.9047 16.4541 31.261 12.9039C29.8325 12.0053 28.5769 11.6749 26.5238 11.6574C24.7792 11.6426 24.8221 11.6167 24.8109 12.693C24.8014 13.6148 24.7493 13.8254 24.5225 13.8583C24.3659 13.881 19.2326 10.2009 19.0834 9.95893C19.0027 9.82815 19.1341 9.7219 21.7841 7.77628C24.9093 5.48167 24.7946 5.508 24.8109 7.08284C24.8222 8.16768 24.7293 8.11831 26.8737 8.17886C29.209 8.24479 30.4573 8.52932 32.1518 9.38198C39.0374 12.8464 40.9069 21.8002 35.9731 27.6831C35.2744 28.5162 35.3072 29.1067 36.0523 29.1067C36.5186 29.1067 37.7507 27.5142 38.5852 25.8328C42.842 17.2556 36.8307 7.36948 27.0994 6.94346L25.9883 6.89487V6.53057C25.9883 5.32706 25.1364 4.49175 24.1492 4.72737ZM11.6024 7.00925C9.04868 7.2944 5.09164 9.09729 5.09164 9.97565C5.09164 10.6572 5.61718 10.7274 6.46856 10.1598C8.65422 8.70261 10.5319 8.18128 13.8441 8.11198L15.8519 8.06995V9.83831V11.6067L14.2729 11.6091C11.834 11.6128 10.8654 11.7914 9.41913 12.5043C1.82794 16.246 3.93952 27.5842 12.3814 28.4101C14.7893 28.6457 15.1463 28.5152 15.1579 27.3953C15.1674 26.4766 15.2199 26.2629 15.4438 26.2304C15.5921 26.2089 19.9617 29.321 20.7551 30.0132C21.0237 30.2475 21.1688 30.1176 18.1521 32.3435C15.0874 34.6049 15.1747 34.5846 15.1579 33.0411C15.1457 31.9217 15.2322 31.9696 13.1104 31.9098C11.1817 31.8554 10.41 31.7296 9.10544 31.2564C1.46934 28.4869 -1.22375 19.1998 3.73297 12.7292C4.3495 11.9245 4.40595 11.7475 4.15028 11.4219C3.74139 10.901 3.25999 11.2502 2.20244 12.8347C-3.61276 21.5482 2.76962 33.1692 13.3703 33.1692H13.9805L13.981 33.5793C13.9823 34.8244 14.8074 35.5961 15.848 35.3257C16.3461 35.1962 21.6066 31.3457 21.874 30.9148C22.1166 30.5239 22.1176 29.8785 21.8763 29.4898C21.6987 29.2036 16.4561 25.2782 16.0398 25.1196C14.9721 24.7129 13.9805 25.5486 13.9805 26.8553V27.2317H13.1196C6.18934 27.2317 3.25921 18.3407 8.83433 14.2291C10.3907 13.0813 11.6768 12.7787 15.0001 12.7786C17.256 12.7785 17.0215 13.1171 17.0215 9.85979V7.30268L16.83 7.11097L16.6387 6.91917L14.4324 6.9294C13.219 6.93503 11.9454 6.97097 11.6024 7.00925ZM17.4249 16.7874C17.1851 17.0433 17.201 17.4118 17.4608 17.6166C17.6593 17.7731 17.7541 17.7785 20.2543 17.7785H22.8422L23.0118 17.5978C23.237 17.3575 23.2322 16.9942 23.0009 16.7765C22.823 16.6091 22.7829 16.6067 20.2074 16.6067H17.5945L17.4249 16.7874ZM13.775 19.3535C13.4375 19.5188 13.3552 19.9217 13.5964 20.2289L13.7579 20.4348H20.2183H26.6788L26.8403 20.2289C27.0418 19.9723 27.046 19.7253 26.853 19.4864L26.7039 19.302L20.3228 19.287C16.02 19.2769 13.8873 19.2986 13.775 19.3535ZM13.5964 22.2032C13.4115 22.4386 13.3995 22.5375 13.5228 22.8086C13.6891 23.1745 13.6615 23.1731 20.3617 23.151L26.7039 23.1301L26.853 22.9457C27.046 22.7067 27.0418 22.4598 26.8403 22.2032L26.6788 21.9973H20.2183H13.7579L13.5964 22.2032Z" fill="#111827"/>
</svg>
