<svg width="50" height="50" viewBox="0 0 50 50" fill="none" xmlns="http://www.w3.org/2000/svg">
<path fill-rule="evenodd" clip-rule="evenodd" d="M4.9971 0.275788C1.12611 0.920808 -1.08659 5.03135 0.53939 8.55704C2.62337 13.0758 8.94603 13.1857 11.1838 8.742C13.3186 4.50303 9.66156 -0.501458 4.9971 0.275788ZM24.1065 0.266804C19.3321 1.00928 17.4234 6.85919 20.8406 10.2765C24.5454 13.9814 30.8808 11.3614 30.8808 6.12452C30.8808 2.52637 27.6334 -0.281634 24.1065 0.266804ZM42.9687 0.310456C37.1176 1.417 36.5057 9.72198 42.1296 11.6986C44.0663 12.3793 47.1605 11.8027 47.1605 10.7612C47.1605 10.0948 46.6128 9.82061 45.9062 10.1332C41.4247 12.1155 37.5628 6.35167 41.0813 2.93214C44.7573 -0.64052 50.4484 4.15967 47.7452 8.55284C47.4004 9.11309 47.3832 9.32921 47.6559 9.67579C48.2862 10.4771 49.3075 9.45528 49.7996 7.53116C50.8566 3.39844 47.1815 -0.486321 42.9687 0.310456ZM6.95609 1.87569C10.3178 2.75128 11.4103 6.82218 8.94066 9.27022C6.22806 11.959 1.53958 9.96622 1.53958 6.12452C1.53958 3.25792 4.21263 1.16114 6.95609 1.87569ZM26.1119 1.8796C29.2596 2.69952 30.4155 6.62403 28.2293 9.06944C25.8166 11.7684 21.296 10.4272 20.6791 6.8293C20.1471 3.72706 23.0501 1.08214 26.1119 1.8796ZM10.8207 10.6174C10.5393 10.7818 10.4067 11.2452 10.5582 11.5346C10.6644 11.7371 15.2902 16.2617 18.2312 19.0396C19.05 19.813 19.8167 19.7242 19.8167 18.8559C19.8167 18.4495 20.005 18.6499 16.1058 14.9059C14.5213 13.3845 12.846 11.775 12.383 11.3294C11.5207 10.4995 11.2409 10.3719 10.8207 10.6174ZM37.8805 10.7842C37.5938 10.983 30.2616 17.6205 29.8021 18.0972C29.3886 18.526 29.3648 19.0043 29.742 19.301C30.2941 19.7353 29.9243 20.016 35.5394 14.8988C39.3543 11.4221 39.3663 11.4074 38.8214 10.8625C38.5345 10.5756 38.219 10.5493 37.8805 10.7842ZM24.5239 13.1585C24.0891 13.5635 24.0622 16.7244 24.4907 17.0709C25.3266 17.747 25.7182 17.2141 25.7564 15.3479C25.7972 13.3582 25.67 12.9605 24.9925 12.9605C24.8516 12.9605 24.6408 13.0495 24.5239 13.1585ZM23.7718 18.1989C20.0352 18.9887 17.9939 23.2148 19.7084 26.6113C20.1757 27.5369 20.5931 27.7265 21.0838 27.2358C21.4516 26.868 21.4511 26.7691 21.0783 25.9961C19.6441 23.0223 21.7333 19.6011 24.9835 19.6011C28.8524 19.6011 30.7939 24.168 28.1425 27.0317C27.5072 27.718 27.4374 28.0887 27.873 28.4634C28.3067 28.8365 28.5804 28.7568 29.2423 28.065C33.2286 23.8982 29.4081 17.0077 23.7718 18.1989ZM23.3612 22.9257C21.942 23.4879 21.6722 24.2312 21.6722 27.5775C21.6722 28.9912 21.6612 30.1473 21.6478 30.1465C21.6344 30.1457 21.4476 30.0816 21.2327 30.0043C20.3707 29.6938 19.3338 29.9096 18.6047 30.5513L18.1455 30.9556L17.5895 30.6738C16.1483 29.9436 14.1724 30.7447 13.7455 32.2324C13.6816 32.4556 13.622 32.6496 13.6132 32.6637C13.6044 32.6776 13.409 32.6228 13.179 32.5416C12.198 32.1954 11.1568 32.4476 10.3866 33.2178C9.589 34.0152 9.56283 34.1572 9.56283 37.6809C9.56283 41.8596 9.70853 42.648 10.4806 42.648C11.1575 42.648 11.2699 42.3526 11.1395 40.9168C10.9752 39.1075 10.9899 35.1148 11.1623 34.7023C11.7955 33.1866 13.5667 33.8498 13.5667 35.6025C13.5667 36.6566 13.9321 37.1372 14.5537 36.9008C15.0489 36.7126 15.0771 36.5977 15.1292 34.5522C15.1881 32.2441 15.3442 31.9058 16.3499 31.9058C17.3 31.9058 17.5102 32.287 17.5706 34.1198C17.6254 35.7811 17.7564 36.105 18.3734 36.105C19.0297 36.105 19.1331 35.8187 19.1331 34.0002C19.1331 31.8655 19.3679 31.3908 20.4236 31.3908C21.4478 31.3908 21.6718 31.924 21.672 34.3608C21.6722 36.5711 21.7213 36.73 22.4046 36.73C23.17 36.73 23.137 36.9953 23.137 30.8176C23.137 24.8974 23.1346 24.9257 23.6722 24.5028C24.0745 24.1864 24.5307 24.1354 24.9662 24.358C25.7124 24.7395 25.6758 24.3125 25.6759 32.6202C25.6761 38.0615 25.7062 40.0806 25.7897 40.2374C26.0576 40.7403 26.4899 40.8255 26.9158 40.4591L27.1898 40.2234V32.5733V24.9233L26.9375 24.3857C26.2843 22.9933 24.7606 22.3712 23.3612 22.9257ZM28.3617 32.4506C27.2448 32.8521 27.441 34.0625 28.5979 33.9073C30.4311 33.6615 31.2667 34.5996 30.6239 36.1817C30.2692 37.0547 30.0856 38.0828 29.9751 39.8159C29.6626 44.7144 28.1059 47.5367 25.3202 48.255C24.3294 48.5105 17.5879 48.4811 16.5546 48.2168C14.6077 47.7188 13.1005 46.3704 12.0489 44.1856C11.6327 43.3208 11.2985 43.087 10.8434 43.3421C10.3079 43.6423 10.2817 43.936 10.7106 44.8279C11.963 47.4323 13.7637 49.0232 16.2767 49.7454C16.9681 49.9441 23.2089 50.0515 24.6578 49.8896C28.7372 49.4338 31.1801 45.9006 31.4878 40.0112C31.5687 38.4626 31.7063 37.6535 32.0441 36.7398C33.0344 34.0612 30.8758 31.5469 28.3617 32.4506Z" fill="#111827"/>
</svg>
