<svg width="40" height="40" viewBox="0 0 40 40" fill="none" xmlns="http://www.w3.org/2000/svg">
<path fill-rule="evenodd" clip-rule="evenodd" d="M9.22635 1.11034C7.5333 1.71449 7.619 4.17553 9.35063 4.67898L9.76446 4.79926L9.76453 6.07397C9.76468 8.92834 10.1603 10.8702 11.1774 13.0077C11.7837 14.282 12.0928 14.5563 12.5326 14.2104C12.8607 13.9523 12.8442 13.848 12.2961 12.7171C11.2518 10.562 10.8839 8.77764 10.8792 5.84609L10.8775 4.78873H19.7074H28.5374L28.5363 5.73479C28.5301 11.017 26.9909 14.3824 23.1716 17.4642C21.3129 18.964 21.3529 21.0681 23.2697 22.618C25.3611 24.3094 26.6317 25.988 27.6062 28.3477C27.954 29.1899 28.1438 29.364 28.5366 29.2013C29.7363 28.7043 26.9766 24.1044 24.1537 21.8961C22.4968 20.5999 22.4987 19.3877 24.1595 18.1049C27.6847 15.3822 29.5143 11.5307 29.6291 6.59041L29.671 4.79325L30.0745 4.67594C31.8176 4.16922 31.8451 1.56327 30.1123 1.08207C29.658 0.955855 9.58303 0.983013 9.22635 1.11034ZM30.0132 2.30743C30.4041 2.63637 30.3703 3.30084 29.9513 3.52508C29.7527 3.63141 9.66213 3.63141 9.46357 3.52508C9.04455 3.30084 9.01079 2.63637 9.40169 2.30743L9.62741 2.11748H19.7074H29.7875L30.0132 2.30743ZM12.2469 8.23575C11.9741 8.50844 12.0625 9.16497 12.5832 10.7338C14.1483 15.4493 17.9917 18.0554 21.5625 16.8226C24.1818 15.9182 26.5033 12.8379 27.2323 9.29957C27.3881 8.54354 27.3825 8.45012 27.168 8.23575L26.9859 8.05358H19.7074H12.429L12.2469 8.23575ZM26.049 9.40776C25.2521 13.1355 22.5324 15.9408 19.7074 15.9488C16.9089 15.9566 14.1204 13.0813 13.364 9.40776L13.3143 9.1666H19.7074H26.1005L26.049 9.40776ZM13.3599 15.5075C12.9475 15.9198 13.6246 16.8479 15.2554 18.1056C16.9182 19.388 16.9182 20.6108 15.2554 21.8951C11.618 24.7044 9.76772 28.7728 9.76512 33.967L9.76446 35.2085L9.5604 35.2523C7.66545 35.66 7.42771 38.2478 9.22635 38.8897C9.58303 39.017 29.658 39.0441 30.1123 38.9179C31.8518 38.4349 31.817 35.8306 30.0642 35.321L29.6504 35.2007L29.6503 33.926C29.6502 31.0812 29.4297 30.3374 28.6987 30.7154C28.3884 30.8759 28.3747 30.9618 28.46 32.2153C28.5013 32.8224 28.5356 33.7449 28.5363 34.2652L28.5374 35.2113H19.7074H10.8775L10.8786 34.3023C10.8853 28.9829 12.4172 25.6231 16.2433 22.5358C18.0599 21.0699 18.0599 18.9311 16.2433 17.4638C15.9244 17.2062 15.2752 16.6197 14.8006 16.1604C13.8553 15.2456 13.6945 15.1728 13.3599 15.5075ZM19.4276 17.7494C18.956 17.9392 19.0348 19.4021 19.5233 19.5247C20.0174 19.6487 20.301 19.3214 20.301 18.6273C20.301 17.8904 19.9512 17.5387 19.4276 17.7494ZM19.4276 20.6433C18.956 20.8331 19.0348 22.2959 19.5233 22.4185C20.0174 22.5425 20.301 22.2153 20.301 21.5211C20.301 20.7842 19.9512 20.4326 19.4276 20.6433ZM19.4276 23.5371C18.956 23.7269 19.0348 25.1898 19.5233 25.3124C20.0174 25.4364 20.301 25.1091 20.301 24.415C20.301 23.6781 19.9512 23.3264 19.4276 23.5371ZM18.4831 26.2403C15.585 26.654 12.7256 29.1857 12.1053 31.8874C11.8502 32.9982 11.8674 33.7551 12.1538 34.022C12.3461 34.2012 26.7684 34.2653 27.1561 34.0886C27.4454 33.9568 27.5257 33.6618 27.4675 32.9446C27.1285 28.7664 22.8988 25.6101 18.4831 26.2403ZM21.377 27.4923C23.9284 28.1452 26.3007 30.7063 26.3102 32.8183L26.3114 33.0594H19.7074H13.1035V32.7919C13.1035 31.8392 13.7546 30.5111 14.7279 29.4783C16.4656 27.6346 18.9883 26.8811 21.377 27.4923ZM29.9513 36.4749C30.3493 36.6879 30.4037 37.3357 30.0514 37.6666L29.8611 37.8454L19.7452 37.8648L9.62933 37.8841L9.40258 37.6933C9.0168 37.3687 9.04181 36.7159 9.4491 36.4786C9.63052 36.373 29.7541 36.3693 29.9513 36.4749Z" fill="#111827"/>
</svg>
