<svg width="40" height="40" viewBox="0 0 40 40" fill="none" xmlns="http://www.w3.org/2000/svg">
<mask id="path-1-inside-1_1007_790" fill="white">
<path fill-rule="evenodd" clip-rule="evenodd" d="M18.4063 6.34434C10.0555 7.31489 4.44377 15.696 6.75814 23.7412C9.28806 32.5359 19.493 36.5033 27.2365 31.7027C28.3286 31.0257 28.5333 30.6154 28.0491 30.0735C27.7059 29.6893 27.3766 29.7228 26.6254 30.218C20.5572 34.2188 12.165 31.8678 9.01775 25.2853C5.58603 18.1079 9.87205 9.57091 17.662 8.06763C27.0753 6.25106 34.6806 15.3288 31.3461 24.4007C31.0405 25.2322 31.0428 25.4425 31.361 25.7608C32.4608 26.8605 33.6974 23.8179 33.6974 20.0118C33.6974 11.7486 26.5874 5.39356 18.4063 6.34434ZM19.3196 10.3267C18.6392 10.5368 17.9106 11.289 17.727 11.9711C17.543 12.6543 17.6648 20.239 17.8658 20.6151C18.826 22.4119 21.1625 22.4119 22.1227 20.6151L22.2989 20.2853V16.1056V11.9259L22.1227 11.5961C21.5674 10.5569 20.3539 10.0073 19.3196 10.3267ZM20.5099 12.0743L20.7755 12.34V16.1056V19.8712L20.5099 20.1368C20.3185 20.3283 20.1744 20.4025 19.9942 20.4025C19.8141 20.4025 19.67 20.3283 19.4786 20.1368L19.213 19.8712V16.1056V12.34L19.4786 12.0743C19.67 11.8829 19.8141 11.8087 19.9942 11.8087C20.1744 11.8087 20.3185 11.8829 20.5099 12.0743ZM1.75205 12.6479C0.741658 12.8796 -0.261233 18.2937 0.0615799 21.7746C0.313767 24.4948 1.02908 27.0847 1.59322 27.3205C2.51963 27.7075 2.82978 27.0097 2.38517 25.5383C1.3122 21.9881 1.31463 18.1081 2.39174 14.6397C2.87674 13.0779 2.67095 12.4372 1.75205 12.6479ZM37.8289 12.6468C37.2185 12.7579 37.1623 13.2408 37.5967 14.6397C38.673 18.1053 38.6753 21.991 37.6033 25.5383C37.2207 26.8045 37.2949 27.2298 37.9262 27.3883C38.53 27.5398 38.8026 27.154 39.2535 25.5091C40.308 21.6629 40.2238 17.5815 39.0127 13.8353C38.6798 12.8053 38.4155 12.54 37.8289 12.6468ZM4.43369 13.8816C3.64986 14.3072 2.90119 19.0597 3.19103 21.7697C3.56822 25.2966 4.39275 26.9535 5.31275 26.0335C5.59353 25.7527 5.60939 25.4287 5.37799 24.6993C4.47994 21.8688 4.4976 18.0359 5.42119 15.3302C5.82166 14.1572 5.30947 13.406 4.43369 13.8816ZM34.7511 13.879C34.2951 14.1268 34.2882 14.401 34.7028 15.795C35.493 18.4521 35.4685 21.8441 34.6393 24.5935C34.3797 25.454 34.387 25.7448 34.6757 26.0335C36.4189 27.7767 37.5616 20.3825 36.2884 15.5978C35.8312 13.8797 35.4775 13.4842 34.7511 13.879ZM14.9074 17.3947C14.4203 17.6593 14.3558 20.0239 14.7999 21.3322C15.4072 23.1211 17.0146 24.583 18.7822 24.9537L19.213 25.0441V26.6295V28.215H18.3497C17.2317 28.215 16.8692 28.4062 16.8692 28.9962C16.8692 29.7276 17.068 29.7775 19.9867 29.7775C22.9063 29.7775 23.1192 29.7243 23.1192 28.9962C23.1192 28.4083 22.7511 28.215 21.6312 28.215H20.7755V26.6234V25.0318L21.0963 24.9805C22.3975 24.7725 23.8509 23.7449 24.6433 22.4728C25.5695 20.9858 25.835 17.789 25.0653 17.391C24.258 16.9736 23.901 17.446 23.8993 18.9337C23.8963 21.6433 22.5735 23.3114 20.28 23.4981C17.7986 23.7 16.0924 21.8449 16.0892 18.9413C16.0874 17.4508 15.7109 16.9579 14.9074 17.3947ZM29.5195 27.6621C29.1374 28.0441 29.2443 28.6477 29.7353 28.8807C30.0825 29.0454 30.4031 28.9728 30.6562 28.672C31.2864 27.9229 30.2126 26.969 29.5195 27.6621Z"/>
</mask>
<path fill-rule="evenodd" clip-rule="evenodd" d="M18.4063 6.34434C10.0555 7.31489 4.44377 15.696 6.75814 23.7412C9.28806 32.5359 19.493 36.5033 27.2365 31.7027C28.3286 31.0257 28.5333 30.6154 28.0491 30.0735C27.7059 29.6893 27.3766 29.7228 26.6254 30.218C20.5572 34.2188 12.165 31.8678 9.01775 25.2853C5.58603 18.1079 9.87205 9.57091 17.662 8.06763C27.0753 6.25106 34.6806 15.3288 31.3461 24.4007C31.0405 25.2322 31.0428 25.4425 31.361 25.7608C32.4608 26.8605 33.6974 23.8179 33.6974 20.0118C33.6974 11.7486 26.5874 5.39356 18.4063 6.34434ZM19.3196 10.3267C18.6392 10.5368 17.9106 11.289 17.727 11.9711C17.543 12.6543 17.6648 20.239 17.8658 20.6151C18.826 22.4119 21.1625 22.4119 22.1227 20.6151L22.2989 20.2853V16.1056V11.9259L22.1227 11.5961C21.5674 10.5569 20.3539 10.0073 19.3196 10.3267ZM20.5099 12.0743L20.7755 12.34V16.1056V19.8712L20.5099 20.1368C20.3185 20.3283 20.1744 20.4025 19.9942 20.4025C19.8141 20.4025 19.67 20.3283 19.4786 20.1368L19.213 19.8712V16.1056V12.34L19.4786 12.0743C19.67 11.8829 19.8141 11.8087 19.9942 11.8087C20.1744 11.8087 20.3185 11.8829 20.5099 12.0743ZM1.75205 12.6479C0.741658 12.8796 -0.261233 18.2937 0.0615799 21.7746C0.313767 24.4948 1.02908 27.0847 1.59322 27.3205C2.51963 27.7075 2.82978 27.0097 2.38517 25.5383C1.3122 21.9881 1.31463 18.1081 2.39174 14.6397C2.87674 13.0779 2.67095 12.4372 1.75205 12.6479ZM37.8289 12.6468C37.2185 12.7579 37.1623 13.2408 37.5967 14.6397C38.673 18.1053 38.6753 21.991 37.6033 25.5383C37.2207 26.8045 37.2949 27.2298 37.9262 27.3883C38.53 27.5398 38.8026 27.154 39.2535 25.5091C40.308 21.6629 40.2238 17.5815 39.0127 13.8353C38.6798 12.8053 38.4155 12.54 37.8289 12.6468ZM4.43369 13.8816C3.64986 14.3072 2.90119 19.0597 3.19103 21.7697C3.56822 25.2966 4.39275 26.9535 5.31275 26.0335C5.59353 25.7527 5.60939 25.4287 5.37799 24.6993C4.47994 21.8688 4.4976 18.0359 5.42119 15.3302C5.82166 14.1572 5.30947 13.406 4.43369 13.8816ZM34.7511 13.879C34.2951 14.1268 34.2882 14.401 34.7028 15.795C35.493 18.4521 35.4685 21.8441 34.6393 24.5935C34.3797 25.454 34.387 25.7448 34.6757 26.0335C36.4189 27.7767 37.5616 20.3825 36.2884 15.5978C35.8312 13.8797 35.4775 13.4842 34.7511 13.879ZM14.9074 17.3947C14.4203 17.6593 14.3558 20.0239 14.7999 21.3322C15.4072 23.1211 17.0146 24.583 18.7822 24.9537L19.213 25.0441V26.6295V28.215H18.3497C17.2317 28.215 16.8692 28.4062 16.8692 28.9962C16.8692 29.7276 17.068 29.7775 19.9867 29.7775C22.9063 29.7775 23.1192 29.7243 23.1192 28.9962C23.1192 28.4083 22.7511 28.215 21.6312 28.215H20.7755V26.6234V25.0318L21.0963 24.9805C22.3975 24.7725 23.8509 23.7449 24.6433 22.4728C25.5695 20.9858 25.835 17.789 25.0653 17.391C24.258 16.9736 23.901 17.446 23.8993 18.9337C23.8963 21.6433 22.5735 23.3114 20.28 23.4981C17.7986 23.7 16.0924 21.8449 16.0892 18.9413C16.0874 17.4508 15.7109 16.9579 14.9074 17.3947ZM29.5195 27.6621C29.1374 28.0441 29.2443 28.6477 29.7353 28.8807C30.0825 29.0454 30.4031 28.9728 30.6562 28.672C31.2864 27.9229 30.2126 26.969 29.5195 27.6621Z" fill="#111827" stroke="white" stroke-width="0.4" mask="url(#path-1-inside-1_1007_790)"/>
</svg>
