<svg width="40" height="40" viewBox="0 0 40 40" fill="none" xmlns="http://www.w3.org/2000/svg">
<mask id="path-1-inside-1_1007_785" fill="white">
<path fill-rule="evenodd" clip-rule="evenodd" d="M29.731 4.49538C29.0621 4.79916 28.9304 5.17128 28.9299 6.75823C28.9295 7.91591 28.9278 7.92885 28.7721 7.95928C28.6855 7.97621 28.3314 8.02825 27.9852 8.07483C24.6947 8.5176 21.7054 10.1706 18.4535 13.3455L17.3854 14.3884L17.1245 14.1674C14.6352 12.0587 14.0124 11.716 13.5358 12.1925C13.0894 12.6389 13.2352 12.9308 14.2963 13.7144C15.1398 14.3373 16.3391 15.3303 16.3391 15.4059C16.3391 15.505 14.4775 17.304 14.3749 17.304C14.313 17.304 14.2043 17.2399 14.1334 17.1615C14.0624 17.0831 13.7034 16.7884 13.3356 16.5066C10.5355 14.3614 7.94987 13.4569 4.61677 13.4569C3.32143 13.4569 3.39893 13.5468 3.39893 12.0458C3.39893 10.5104 3.25708 10.6246 5.09507 10.6809C5.92142 10.7062 6.88668 10.7816 7.41198 10.8616C8.55645 11.036 8.92472 10.8911 8.92472 10.2661C8.92472 9.69599 8.5917 9.55274 6.82632 9.36311C2.70387 8.92028 2.00448 9.31226 2.00154 12.0675L2 13.5109L2.19536 13.8849C2.59217 14.6444 3.06774 14.8549 4.38826 14.8555C7.64407 14.8569 10.1565 15.749 12.7193 17.8134C13.458 18.4084 13.455 18.3138 12.7543 18.8781C10.1363 20.9866 7.68317 21.8505 4.31453 21.8505C2.35841 21.8505 1.97608 22.3303 2.01252 24.7396C2.05036 27.238 2.34805 27.493 5.1476 27.4242C9.6451 27.3137 13.1673 25.943 16.6359 22.9533C16.9156 22.7122 17.2002 22.471 17.2684 22.4173C17.3809 22.3286 17.4852 22.4104 18.3871 23.2949C21.7114 26.5547 24.7057 28.219 27.9981 28.6372C29.0512 28.7709 28.9294 28.5996 28.9299 29.9482C28.9304 31.5352 29.0621 31.9073 29.731 32.211C30.5252 32.5718 30.517 32.5766 34.1468 29.6505C37.9291 26.6015 37.8127 26.716 37.8127 26.0473C37.8127 25.3791 37.9254 25.49 34.1755 22.4701C30.4176 19.4439 30.5961 19.5508 29.8058 19.8526C29.0971 20.1232 28.9304 20.5404 28.9299 22.0442L28.9295 23.1122L28.7371 23.0685C26.2229 22.4962 24.576 21.5163 22.1446 19.1461L21.3402 18.362L21.7599 17.9304C24.2 15.4207 26.135 14.2303 28.7371 13.638L28.9295 13.5942L28.9299 14.6622C28.9301 15.2496 28.9628 15.8473 29.0025 15.9903C29.223 16.7845 30.2159 17.1969 30.9276 16.79C31.2159 16.625 36.8515 12.1105 37.3487 11.6461C37.9933 11.0441 37.9803 10.2498 37.3159 9.64437C36.5673 8.96232 30.9983 4.53057 30.7969 4.45663C30.466 4.33514 30.0504 4.35024 29.731 4.49538ZM33.422 8.2809C35.0243 9.56966 36.3352 10.6398 36.3352 10.6591C36.3351 10.714 30.5177 15.3778 30.4177 15.4031C30.3474 15.4209 30.3284 15.1183 30.3284 13.9813V12.5369L30.1138 12.3223L29.8992 12.1077L29.2919 12.1524C26.1182 12.3861 23.9116 13.7574 19.4517 18.2674C13.4245 24.3623 10.6488 25.859 5.06017 26.0274C3.26156 26.0816 3.39893 26.1956 3.39893 24.6484C3.39893 23.1504 3.25743 23.2752 5.00771 23.23C9.62139 23.1106 11.9911 21.8119 17.2833 16.5025C22.7493 11.0187 25.0074 9.65968 29.1538 9.35828C30.3313 9.27267 30.3284 9.27757 30.3284 7.37103C30.3284 6.19914 30.3471 5.89711 30.4186 5.91509C30.4681 5.92754 31.8197 6.99213 33.422 8.2809ZM10.9752 10.5516C10.2635 10.8612 10.4984 11.8622 11.2828 11.8622C12.0334 11.8622 12.18 10.7862 11.4665 10.5149C11.2516 10.4332 11.2465 10.4336 10.9752 10.5516ZM21.2241 20.2332C23.1445 22.0348 24.1797 22.8011 25.6769 23.5289C27.507 24.4186 29.6636 24.8343 30.1139 24.3841L30.3284 24.1696V22.7228C30.3284 21.4562 30.3417 21.2811 30.4349 21.3169C30.5591 21.3646 36.3351 25.9954 36.3352 26.0473C36.3353 26.1027 30.519 30.7662 30.4186 30.7913C30.3471 30.8093 30.3284 30.5073 30.3284 29.3354C30.3284 27.5415 30.2582 27.3763 29.4961 27.3763C26.2372 27.3763 22.9086 25.7021 19.3132 22.2546L18.4052 21.3839L19.3482 20.3932C19.8668 19.8483 20.3017 19.4025 20.3148 19.4024C20.3278 19.4024 20.737 19.7763 21.2241 20.2332Z"/>
</mask>
<path fill-rule="evenodd" clip-rule="evenodd" d="M29.731 4.49538C29.0621 4.79916 28.9304 5.17128 28.9299 6.75823C28.9295 7.91591 28.9278 7.92885 28.7721 7.95928C28.6855 7.97621 28.3314 8.02825 27.9852 8.07483C24.6947 8.5176 21.7054 10.1706 18.4535 13.3455L17.3854 14.3884L17.1245 14.1674C14.6352 12.0587 14.0124 11.716 13.5358 12.1925C13.0894 12.6389 13.2352 12.9308 14.2963 13.7144C15.1398 14.3373 16.3391 15.3303 16.3391 15.4059C16.3391 15.505 14.4775 17.304 14.3749 17.304C14.313 17.304 14.2043 17.2399 14.1334 17.1615C14.0624 17.0831 13.7034 16.7884 13.3356 16.5066C10.5355 14.3614 7.94987 13.4569 4.61677 13.4569C3.32143 13.4569 3.39893 13.5468 3.39893 12.0458C3.39893 10.5104 3.25708 10.6246 5.09507 10.6809C5.92142 10.7062 6.88668 10.7816 7.41198 10.8616C8.55645 11.036 8.92472 10.8911 8.92472 10.2661C8.92472 9.69599 8.5917 9.55274 6.82632 9.36311C2.70387 8.92028 2.00448 9.31226 2.00154 12.0675L2 13.5109L2.19536 13.8849C2.59217 14.6444 3.06774 14.8549 4.38826 14.8555C7.64407 14.8569 10.1565 15.749 12.7193 17.8134C13.458 18.4084 13.455 18.3138 12.7543 18.8781C10.1363 20.9866 7.68317 21.8505 4.31453 21.8505C2.35841 21.8505 1.97608 22.3303 2.01252 24.7396C2.05036 27.238 2.34805 27.493 5.1476 27.4242C9.6451 27.3137 13.1673 25.943 16.6359 22.9533C16.9156 22.7122 17.2002 22.471 17.2684 22.4173C17.3809 22.3286 17.4852 22.4104 18.3871 23.2949C21.7114 26.5547 24.7057 28.219 27.9981 28.6372C29.0512 28.7709 28.9294 28.5996 28.9299 29.9482C28.9304 31.5352 29.0621 31.9073 29.731 32.211C30.5252 32.5718 30.517 32.5766 34.1468 29.6505C37.9291 26.6015 37.8127 26.716 37.8127 26.0473C37.8127 25.3791 37.9254 25.49 34.1755 22.4701C30.4176 19.4439 30.5961 19.5508 29.8058 19.8526C29.0971 20.1232 28.9304 20.5404 28.9299 22.0442L28.9295 23.1122L28.7371 23.0685C26.2229 22.4962 24.576 21.5163 22.1446 19.1461L21.3402 18.362L21.7599 17.9304C24.2 15.4207 26.135 14.2303 28.7371 13.638L28.9295 13.5942L28.9299 14.6622C28.9301 15.2496 28.9628 15.8473 29.0025 15.9903C29.223 16.7845 30.2159 17.1969 30.9276 16.79C31.2159 16.625 36.8515 12.1105 37.3487 11.6461C37.9933 11.0441 37.9803 10.2498 37.3159 9.64437C36.5673 8.96232 30.9983 4.53057 30.7969 4.45663C30.466 4.33514 30.0504 4.35024 29.731 4.49538ZM33.422 8.2809C35.0243 9.56966 36.3352 10.6398 36.3352 10.6591C36.3351 10.714 30.5177 15.3778 30.4177 15.4031C30.3474 15.4209 30.3284 15.1183 30.3284 13.9813V12.5369L30.1138 12.3223L29.8992 12.1077L29.2919 12.1524C26.1182 12.3861 23.9116 13.7574 19.4517 18.2674C13.4245 24.3623 10.6488 25.859 5.06017 26.0274C3.26156 26.0816 3.39893 26.1956 3.39893 24.6484C3.39893 23.1504 3.25743 23.2752 5.00771 23.23C9.62139 23.1106 11.9911 21.8119 17.2833 16.5025C22.7493 11.0187 25.0074 9.65968 29.1538 9.35828C30.3313 9.27267 30.3284 9.27757 30.3284 7.37103C30.3284 6.19914 30.3471 5.89711 30.4186 5.91509C30.4681 5.92754 31.8197 6.99213 33.422 8.2809ZM10.9752 10.5516C10.2635 10.8612 10.4984 11.8622 11.2828 11.8622C12.0334 11.8622 12.18 10.7862 11.4665 10.5149C11.2516 10.4332 11.2465 10.4336 10.9752 10.5516ZM21.2241 20.2332C23.1445 22.0348 24.1797 22.8011 25.6769 23.5289C27.507 24.4186 29.6636 24.8343 30.1139 24.3841L30.3284 24.1696V22.7228C30.3284 21.4562 30.3417 21.2811 30.4349 21.3169C30.5591 21.3646 36.3351 25.9954 36.3352 26.0473C36.3353 26.1027 30.519 30.7662 30.4186 30.7913C30.3471 30.8093 30.3284 30.5073 30.3284 29.3354C30.3284 27.5415 30.2582 27.3763 29.4961 27.3763C26.2372 27.3763 22.9086 25.7021 19.3132 22.2546L18.4052 21.3839L19.3482 20.3932C19.8668 19.8483 20.3017 19.4025 20.3148 19.4024C20.3278 19.4024 20.737 19.7763 21.2241 20.2332Z" fill="#111827" stroke="white" stroke-width="0.4" mask="url(#path-1-inside-1_1007_785)"/>
</svg>
