<svg width="40" height="40" viewBox="0 0 40 40" fill="none" xmlns="http://www.w3.org/2000/svg">
<path fill-rule="evenodd" clip-rule="evenodd" d="M6.58272 2.10906C5.93858 2.33174 5.67778 2.65627 3.94964 5.38627C1.89099 8.63824 2.00092 8.42512 2.00106 9.16554C2.00134 10.4479 2.92843 11.3459 4.25187 11.3459H4.68542L4.73296 12.5652C4.87828 16.2886 6.29469 19.0215 9.02849 20.8535C10.9622 22.1494 12.4521 22.5293 15.6006 22.5293H17.4379V23.7166V24.904L15.4157 24.9398C12.201 24.9968 10.6871 25.4206 8.77149 26.7998C6.02749 28.7755 4.32016 32.5927 4.77404 35.7373C5.10363 38.0205 8.02213 38.8208 9.3379 36.9887C9.95495 36.1294 9.21432 35.6105 8.4547 36.3698C7.76337 37.0607 7.03188 37.1319 6.3549 36.5738C5.92128 36.2164 5.83582 35.9308 5.83407 34.8328C5.82738 30.6873 8.36431 27.3628 12.3685 26.2699L13.0419 26.0861L19.6534 26.0454C27.4487 25.9975 27.3506 26.0097 28.825 24.8982C29.3308 24.5169 29.2882 24.5023 29.6087 25.1669C29.889 25.7482 30.0198 26.32 30.0433 27.0659L30.0631 27.699L29.4301 28.0285C28.7743 28.3698 28.0445 28.6381 27.2298 28.8375C26.8156 28.939 25.9417 28.9587 20.1458 28.9973C12.7101 29.047 13.2111 29.0101 11.9869 29.5991C10.344 30.3896 9.05691 32.1269 8.88065 33.7915C8.77564 34.7832 9.77855 34.7572 9.97036 33.7632C10.2777 32.1705 11.4997 30.8184 13.1122 30.2867C13.661 30.1058 13.7211 30.101 15.5388 30.0958L17.4027 30.0904L17.4379 33.1148L17.473 36.1392L17.6546 36.5262C18.5641 38.4649 21.3758 38.4649 22.2853 36.5262L22.4669 36.1392L22.502 33.1148L22.5372 30.0904L24.6824 30.0503C27.2834 30.0017 28.2558 29.8224 29.602 29.1428C29.834 29.0257 30.0398 28.9298 30.0592 28.9298C30.0786 28.9298 30.1033 30.552 30.114 32.5345L30.1334 36.1392L30.3303 36.5401C31.2692 38.4521 34.0549 38.4625 34.9272 36.5572C35.2256 35.9053 35.2474 35.4503 35.212 30.6179C35.1761 25.7241 35.1668 25.5905 34.7726 24.304L34.5944 23.7225L34.7739 23.1544C35.175 21.8847 35.1773 21.8484 35.2124 16.3925L35.2447 11.3459H35.6831C37.3406 11.3459 38.5003 9.62701 37.7712 8.25118C37.2212 7.21324 34.3469 2.81073 34.0379 2.53297C33.2364 1.81238 31.9867 1.82575 31.1864 2.56343C30.8055 2.91454 27.5838 7.99502 27.4013 8.53252C26.9379 9.89654 27.9471 11.2537 29.4828 11.3318L30.0983 11.3632V14.9416C30.0983 17.3466 30.0746 18.5202 30.0259 18.5202C29.9862 18.5202 29.7725 18.4294 29.5511 18.3183C28.2059 17.6436 27.1957 17.4595 24.5945 17.4152L22.502 17.3796V14.3714V11.3632L23.1175 11.3319C24.0413 11.2852 24.6896 10.8888 25.0753 10.135C25.554 9.19965 24.6269 8.70773 24.1283 9.63243C23.7661 10.3041 23.8482 10.2911 19.9726 10.2894C16.2269 10.2876 16.1964 10.2839 15.8922 9.78506C15.5001 9.14233 15.4983 9.14676 17.4908 6.00044C19.2822 3.17155 19.3873 3.04635 19.97 3.04635C20.5364 3.04635 20.6867 3.2172 22.1344 5.50648C23.6576 7.91519 23.7707 8.03349 24.2158 7.68336C24.5699 7.40483 24.5125 7.26845 23.0932 5.01575C21.3327 2.22139 21.131 2.02846 19.97 2.02846C18.7823 2.02846 18.642 2.16983 16.5656 5.45823C14.5524 8.64654 14.6621 8.43497 14.6619 9.13037C14.6615 10.42 15.4899 11.2641 16.8224 11.3318L17.4379 11.3632V14.3839V17.4047L15.4861 17.3816C12.9481 17.3515 12.3666 17.1666 11.2139 16.0233C10.2762 15.0932 9.93062 14.1818 9.86387 12.4628L9.82125 11.3641L10.4469 11.3323C11.9656 11.2551 12.9598 9.96863 12.561 8.59681C12.4339 8.15953 9.29204 3.12034 8.86637 2.67104C8.30355 2.07685 7.35275 1.84284 6.58272 2.10906ZM7.80459 3.20461C8.11259 3.35991 11.0058 7.72064 11.471 8.73066C11.7204 9.27245 11.4866 9.90821 10.948 10.1528C10.489 10.3611 4.13012 10.3611 3.67118 10.1528C3.16751 9.92418 2.90965 9.31958 3.10434 8.82385C3.26541 8.41387 6.32677 3.60003 6.58532 3.3502C6.93397 3.01329 7.33123 2.96589 7.80459 3.20461ZM33.2921 3.28563C33.5206 3.46274 36.6521 8.35682 36.8352 8.82273C37.0303 9.31958 36.773 9.9239 36.2687 10.1528C35.8098 10.3611 29.4509 10.3611 28.992 10.1528C28.4533 9.90821 28.2195 9.27245 28.469 8.73066C28.9336 7.7219 31.8274 3.35984 32.138 3.2001C32.5266 3.00021 32.9661 3.03285 33.2921 3.28563ZM8.80504 12.5241C8.89472 15.4252 10.2186 17.325 12.7728 18.2176C13.3109 18.4057 13.3689 18.4108 15.363 18.4475L17.4027 18.485L17.4217 19.9879L17.4407 21.4907L15.3468 21.4541C12.6572 21.4069 11.7383 21.2066 10.2191 20.3357C7.35845 18.6958 5.83252 15.9691 5.83252 12.4973V11.3459H7.30056H8.7686L8.80504 12.5241ZM21.447 18.1333V24.9207H19.97H18.4929V18.1333V11.3459H19.97H21.447V18.1333ZM34.1074 16.2314C34.1074 20.8106 34.0606 22.1776 33.9041 22.1776C33.8791 22.1776 33.6535 21.8859 33.4027 21.5293C32.9366 20.8663 31.8759 19.7498 31.4126 19.4345L31.1543 19.2587L31.1538 15.3023L31.1533 11.3459H32.6304H34.1074V16.2314ZM27.0035 18.6162C30.5974 19.2818 33.3706 22.0983 33.999 25.7212C34.0893 26.2418 34.1074 27.1325 34.1074 31.0694V35.7929L33.9491 36.1026C33.4058 37.1662 31.9392 37.2021 31.3291 36.1669C31.1932 35.9362 31.1871 35.7647 31.1496 31.0751C31.1067 25.7002 31.123 25.8941 30.6242 24.8029C30.0509 23.5482 29.1133 22.6059 27.8413 22.0059C26.8833 21.554 26.6838 21.5234 24.489 21.4916L22.502 21.4628V20.0032C22.502 19.2004 22.5257 18.519 22.5548 18.4888C22.6503 18.3896 26.3526 18.4957 27.0035 18.6162ZM26.3447 22.6344C27.1834 22.7949 28.4806 23.4749 28.4806 23.7542C28.4806 23.8632 28.0045 24.2077 27.5067 24.4589C26.7295 24.851 26.243 24.9207 24.2843 24.9207H22.502V23.725V22.5293H24.1487C25.3176 22.5293 25.9548 22.5598 26.3447 22.6344ZM21.447 32.924C21.447 35.7605 21.4452 35.7964 21.2887 36.1026C20.7286 37.199 19.2113 37.199 18.6512 36.1026C18.4947 35.7964 18.4929 35.7605 18.4929 32.924V30.0552H19.97H21.447V32.924Z" fill="#111827"/>
</svg>
