<svg width="40" height="41" viewBox="0 0 40 41" fill="none" xmlns="http://www.w3.org/2000/svg">
<path fill-rule="evenodd" clip-rule="evenodd" d="M21.1373 0.254032C20.6248 0.509344 21.1475 -0.217453 15.2472 8.44473L10.4578 15.476L9.04211 15.4972L7.62641 15.5186L7.66328 15.2629C7.69352 15.0524 8.32031 8.76895 8.32031 8.67559C8.32031 8.65973 8.55523 8.53098 8.84234 8.3895C9.34852 8.14005 10.1532 7.44497 10.4756 6.9788L10.625 6.76286L12.9218 6.99192C15.356 7.23473 15.5205 7.22864 15.6749 6.88958C15.9825 6.2145 15.7034 6.10575 12.9612 5.832C9.99672 5.53598 10.2733 5.47473 9.21695 6.6613C8.97578 6.93216 8.6543 7.17091 8.24156 7.38559C7.17391 7.94106 7.23727 7.73278 6.81484 12.0775L6.48438 15.476L6.15234 15.5C5.73078 15.5305 5.71305 16.0968 6.32781 9.89005C6.60656 7.07559 6.83492 4.72731 6.83531 4.67169C6.83562 4.61598 6.92227 4.48419 7.02773 4.37872C7.28477 4.12161 7.15852 4.11575 12.2463 4.62067C17.048 5.09716 16.9176 5.09747 17.0399 4.60989C17.2034 3.95856 17.1042 3.93013 13.3984 3.5663C6.64617 2.90341 7.13836 2.92083 6.505 3.32247C5.75203 3.79997 5.77961 3.67802 5.26703 8.78356C5.01828 11.2613 4.8125 13.2973 4.80977 13.308C4.80695 13.3187 4.44195 13.3275 3.99859 13.3275C2.32812 13.3275 1.44531 14.0079 1.44531 15.295C1.44531 15.7338 1.43633 15.7531 1.14906 15.9345C0.759453 16.1804 0.368437 16.6329 0.164531 17.0736L0 17.4291V27.8197V38.2104L0.207031 38.601C0.470703 39.0983 0.908906 39.5365 1.40625 39.8002L1.79688 40.0072H18.3984H35L35.3906 39.8002C35.9189 39.5201 36.347 39.0792 36.5927 38.5619L36.7969 38.1322L36.8198 35.1543L36.8428 32.1765L37.349 32.1359C37.9434 32.0882 38.306 31.8782 38.5529 31.439C38.8035 30.9932 38.7659 24.4022 38.5108 24.0607C38.2052 23.6515 37.9617 23.5298 37.3838 23.4972L36.8427 23.4665L36.8198 20.4479C36.7937 17.0098 36.8029 17.0625 36.0993 16.3103C35.747 15.9336 35.7422 15.9214 35.7414 15.3897C35.7398 14.198 34.8896 13.3275 33.7275 13.3275C33.3875 13.3275 33.3677 13.3722 34.3338 11.9597C35.3773 10.4339 35.3854 10.4173 35.3851 9.81192C35.3845 8.73153 35.7842 9.06559 28.7891 4.2995C21.8295 -0.442218 22.1716 -0.261437 21.1373 0.254032ZM22.6182 1.50458C25.8866 3.68817 33.8804 9.17856 34.043 9.35153C34.4265 9.75934 34.4077 9.79809 32.3996 12.7471L30.5413 15.476L30.134 15.4996C29.6191 15.5294 29.5772 15.6496 30.6241 14.0967C31.8243 12.3166 31.8208 12.3314 31.3216 11.14C31.1404 10.7073 31.1068 10.5094 31.0946 9.802C31.0726 8.52294 31.4616 8.87489 25.9485 5.14708L24.1627 3.9395L23.722 3.97309C23.4795 3.99161 23.0527 4.10567 22.7734 4.22669C22.3267 4.4202 22.1603 4.44833 21.3898 4.46036C20.1149 4.48036 20.5031 4.04255 16.3333 10.1635L12.7141 15.476L12.3041 15.5C11.9667 15.5197 11.9019 15.5033 11.9387 15.4075C12.0236 15.1861 21.3778 1.49114 21.5371 1.35489C21.7913 1.13747 22.1413 1.18591 22.6182 1.50458ZM26.9017 7.19231L29.9353 9.2602L29.9386 9.95192C29.942 10.6737 30.087 11.3244 30.3665 11.8724L30.5232 12.1797L29.4023 13.8448L28.2812 15.51L27.2952 15.5125L26.3092 15.515L26.2562 15.1161C25.8546 12.0883 22.303 10.2651 19.5346 11.6656C18.1283 12.3771 17.3158 13.5218 16.9547 15.3002L16.9111 15.515H15.5397C14.4561 15.515 14.1735 15.4938 14.1935 15.4139C14.2074 15.3583 15.7124 13.1228 17.538 10.4462L20.8572 5.57973L21.2489 5.62794C21.7275 5.68684 22.7762 5.5127 23.2488 5.29583C23.4385 5.2088 23.6555 5.13466 23.7309 5.13098C23.8064 5.12739 25.2333 6.05497 26.9017 7.19231ZM22.3204 12.399C23.7199 12.6934 25.1172 14.154 25.1172 15.3227V15.515H21.5954H18.0735L18.1283 15.2611C18.5612 13.2543 20.4041 11.996 22.3204 12.399ZM4.69766 14.6752C4.6718 14.7719 4.65008 15.0004 4.64953 15.183L4.64844 15.515H3.63281H2.61719V15.259C2.61719 14.6738 2.90945 14.5112 3.97398 14.5043C4.73625 14.4995 4.7443 14.5014 4.69766 14.6752ZM34.3819 14.7577C34.5021 14.8975 34.5703 15.0743 34.5703 15.246V15.515H33.2812C32.5723 15.515 31.9922 15.4877 31.9922 15.4543C31.9922 15.3888 32.138 15.1598 32.4433 14.7463L32.6359 14.4854L33.4147 14.5119C34.1562 14.5372 34.2025 14.549 34.3819 14.7577ZM34.8438 16.8346C35.523 17.1481 35.6641 17.4729 35.6641 18.7233V19.6557H18.3984H1.13281V18.7233C1.13281 17.4729 1.27391 17.1481 1.95312 16.8346C2.44117 16.6093 34.3557 16.6093 34.8438 16.8346ZM35.6641 22.1557V23.4838H32.6727C29.3426 23.4838 29.1836 23.5023 28.2345 24.0011C25.3233 25.5309 25.1995 29.8032 28.018 31.4741C29.0609 32.0924 29.1511 32.1055 32.5977 32.138L35.6641 32.1669V33.4894V34.8119H21.6073H7.55039L7.38852 35.0178C7.29945 35.131 7.22656 35.2844 7.22656 35.3588C7.22656 35.4332 7.29945 35.5866 7.38852 35.6998L7.55039 35.9057H21.6073H35.6641V36.8575C35.6641 38.0135 35.5354 38.3695 35.0052 38.6802L34.6738 38.8744L18.3916 38.8732L2.10938 38.8718L1.79844 38.6958C1.25633 38.3887 1.13563 38.0626 1.13406 36.9018L1.13281 35.9057H2.77344C4.60203 35.9057 4.72656 35.8708 4.72656 35.3588C4.72656 34.8468 4.60203 34.8119 2.77344 34.8119H1.13281V27.8197V20.8275H18.3984H35.6641V22.1557ZM37.5391 27.8197V30.9838H33.7929C29.7469 30.9838 29.5109 30.9646 28.7705 30.5743C26.385 29.317 26.6141 25.891 29.1535 24.8468L29.6094 24.6593L33.5742 24.6575L37.5391 24.6557V27.8197ZM29.4531 25.7008C27.6778 26.5381 27.6462 29.0062 29.3998 29.8674C31.3632 30.8315 33.4552 28.704 32.448 26.7675C31.8696 25.6552 30.5479 25.1845 29.4531 25.7008ZM30.8996 26.7846C31.9529 27.3185 31.6046 28.9529 30.4377 28.9524C29.0837 28.9518 28.8133 27.0765 30.1105 26.6835C30.4332 26.5857 30.5322 26.5983 30.8996 26.7846Z" fill="#111827"/>
</svg>
