<svg width="40" height="40" viewBox="0 0 40 40" fill="none" xmlns="http://www.w3.org/2000/svg">
<path fill-rule="evenodd" clip-rule="evenodd" d="M4.26803 2.09364C0.793404 2.956 1.5434 8.08595 5.12597 7.96213L5.71831 7.94166L6.52084 9.62652C7.46779 11.6145 7.41098 11.3411 6.94196 11.6525C2.94875 14.3038 2.7525 20.4511 6.5709 23.2762C6.75457 23.4121 6.90491 23.5572 6.90491 23.5986C6.90491 23.809 5.87962 25.5464 5.77984 25.5051C5.49878 25.389 4.52223 25.3958 4.1532 25.5165C1.30123 26.4496 1.27585 30.372 4.11608 31.2586C6.87903 32.1211 9.08135 28.8882 7.31795 26.5584C7.12943 26.3094 6.97522 26.0953 6.97522 26.0828C6.97522 26.0578 7.96507 24.2676 8.00487 24.2206C8.01844 24.2046 8.3381 24.2905 8.71535 24.4115C10.7971 25.0792 12.9452 24.8414 14.6821 23.7509C15.0152 23.5418 15.3144 23.3707 15.3471 23.3707C15.4234 23.3707 17.6634 25.8211 17.6634 25.9046C17.6634 25.9392 17.5732 26.0715 17.463 26.1985C16.3226 27.5129 15.672 29.4763 15.7969 31.2262C15.8424 31.8625 15.8403 31.875 15.681 31.9119C15.5918 31.9327 14.9863 32.0761 14.3354 32.2307C13.6846 32.3854 13.1433 32.5119 13.1324 32.5119C13.1216 32.5119 12.9998 32.3419 12.8619 32.1341C10.7357 28.9318 5.79735 32.1366 7.84933 35.3871C9.36705 37.7914 13.374 36.7712 13.374 33.9805C13.374 33.7899 13.4082 33.7067 13.4971 33.6806C14.557 33.3697 16.1867 33.0494 16.1867 33.1519C16.1867 33.8105 17.6487 35.7974 18.7148 36.5878C24.5716 40.9295 32.5998 34.474 29.5552 27.871C29.338 27.3999 29.3486 27.3816 30.1275 26.8767C30.5236 26.62 31.2968 26.1187 31.8457 25.7627L32.8437 25.1155L33.1114 25.3296C36.0046 27.6434 39.7143 23.5047 37.0949 20.8854C34.8897 18.6801 31.3479 20.8482 32.1147 23.934C32.1558 24.0996 32.0563 24.1771 30.5158 25.1787C28.4732 26.5067 28.7275 26.4305 28.2048 25.8717C27.7079 25.3404 27.0231 24.8068 26.4354 24.4927C25.9315 24.2233 25.8054 24.753 27.4637 20.1713L28.889 16.2335L29.13 16.2405C29.2626 16.2444 29.7008 16.289 30.1037 16.3397C35.8603 17.0641 40.0159 10.4075 36.9137 5.43136C33.9739 0.71557 26.8879 0.949725 24.4209 5.84426C24.338 6.00859 24.263 6.14261 24.2541 6.14205C24.2452 6.14149 23.8266 5.98798 23.3239 5.80101L22.4097 5.46096L22.3647 4.87037C22.1087 1.51599 17.6231 0.915903 16.531 4.08986C15.5217 7.02375 19.3486 9.29308 21.5358 7.05771C21.7632 6.82539 21.9801 6.63532 22.0179 6.63532C22.0809 6.63532 23.794 7.25783 23.8299 7.29377C23.8385 7.30234 23.7941 7.51372 23.7312 7.76341C23.5523 8.4734 23.5713 10.0168 23.7686 10.8121C23.854 11.1563 23.9155 11.4442 23.9052 11.4519C23.8864 11.4659 17.5497 14.1527 17.4172 14.2027C17.3786 14.2174 17.2104 14.0079 17.0436 13.7372C15.3978 11.0665 11.7732 9.72827 8.88102 10.7233C8.4068 10.8865 8.53752 11.0534 7.61384 9.10519C6.69895 7.17542 6.76329 7.46449 7.15559 7.04506C9.17564 4.88542 7.13287 1.38259 4.26803 2.09364ZM5.7335 3.38992C6.84338 3.88622 7.10257 5.3718 6.23134 6.24302C4.99321 7.48116 2.89067 6.35483 3.24584 4.64374C3.48161 3.50799 4.66434 2.91191 5.7335 3.38992ZM19.9074 3.29999C20.6806 3.52964 21.2358 4.34356 21.1569 5.13209C20.9317 7.383 17.6184 7.24272 17.6309 4.98288C17.6378 3.75796 18.7302 2.95037 19.9074 3.29999ZM32.2584 3.40139C35.9216 4.33498 37.8203 8.42467 36.1576 11.7998C35.7401 12.6474 35.2425 13.2689 35.2425 12.943C35.2425 12.5333 34.1278 11.3106 33.4011 10.9232C32.9284 10.6714 32.9417 10.7005 33.1654 10.4072C34.2952 8.92596 33.7694 6.70789 32.1013 5.91844C29.3332 4.60844 26.59 7.77248 28.317 10.2832C28.6169 10.7192 28.6182 10.6824 28.2969 10.8463C27.5511 11.2267 26.7924 11.9884 26.4433 12.7068C26.2471 13.1107 26.2398 13.1106 25.9384 12.7C22.6664 8.24269 26.8873 2.03246 32.2584 3.40139ZM31.4857 6.95238C32.2979 7.28041 32.755 8.29367 32.4733 9.14176C31.9844 10.6137 29.9778 10.8087 29.2415 9.45579C28.4324 7.96923 29.9133 6.31735 31.4857 6.95238ZM12.7925 11.8994C16.6398 13.177 18.174 17.6393 15.9116 20.9709C15.5599 21.4887 15.4973 21.4969 15.2815 21.0533C14.9541 20.3803 14.1969 19.6199 13.5274 19.2917C13.3464 19.2029 13.1879 19.1221 13.1752 19.1121C13.1625 19.102 13.2633 18.9323 13.3991 18.7348C14.756 16.7622 13.4731 14.1254 11.1098 14.0296C8.64412 13.9297 7.10854 16.646 8.49287 18.6584C8.79938 19.1039 8.80775 19.0749 8.29282 19.356C7.73352 19.6613 7.00659 20.3981 6.70739 20.9628C6.42162 21.5021 6.41571 21.5022 6.05499 20.9709C3.75817 17.5888 5.40688 13.0028 9.33393 11.8504C10.3687 11.5468 11.7913 11.5669 12.7925 11.8994ZM32.5862 11.8869C33.2245 12.1893 33.7077 12.656 34.0119 13.2641C34.3544 13.9486 34.3425 14.0276 33.8538 14.3232C32.089 15.3902 29.9774 15.4529 28.0702 14.4949L27.3319 14.124L27.3471 13.8627C27.3934 13.0673 28.2748 12.1142 29.2999 11.7514C29.9609 11.5175 31.9822 11.6008 32.5862 11.8869ZM24.688 13.008C25.2284 13.9115 26.2783 14.9128 27.2625 15.4632C27.5134 15.6035 27.7191 15.7551 27.7196 15.8001C27.7202 15.8451 27.0794 17.664 26.2957 19.842L24.8708 23.802L24.6247 23.77C24.4893 23.7525 24.078 23.6996 23.7106 23.6524C22.1533 23.4527 20.3394 23.8963 19.0099 24.802C18.803 24.943 18.6243 25.0583 18.6128 25.0583C18.5684 25.0583 16.3809 22.6352 16.348 22.5497C16.3288 22.4997 16.4945 22.2179 16.7161 21.9234C18.0073 20.2078 18.4727 17.9847 17.9792 15.8893C17.9097 15.5942 17.8656 15.3428 17.8811 15.3307C17.9726 15.2598 24.257 12.6217 24.3446 12.6174C24.4032 12.6146 24.5578 12.7903 24.688 13.008ZM11.4913 15.2875C12.7331 15.6323 13.1572 17.3185 12.2342 18.2415C11.3507 19.125 9.85097 18.8526 9.36065 17.7195C8.75304 16.3152 10.013 14.8769 11.4913 15.2875ZM12.2043 20.1002C13.2735 20.3268 14.1506 21.1789 14.463 22.2946C14.553 22.6161 12.9961 23.3389 11.8271 23.5184C10.1777 23.7716 7.46041 22.9649 7.52194 22.2403C7.65645 20.6572 9.92958 19.6182 12.2043 20.1002ZM35.699 21.3619C36.3201 21.6214 36.7429 22.2742 36.7467 22.9795C36.755 24.5757 34.8627 25.3706 33.7363 24.2441C32.3622 22.87 33.9008 20.6105 35.699 21.3619ZM24.1325 24.9302C28.376 25.7221 30.4632 31.109 27.7852 34.3577C27.5121 34.6889 27.4881 34.6871 27.325 34.3225C27.0498 33.7075 26.3351 32.9578 25.6267 32.541C25.1179 32.2416 25.1389 32.2846 25.3602 31.9944C26.8438 30.0494 25.4284 27.2183 22.9723 27.2183C20.5211 27.2183 19.1037 30.0532 20.5843 31.9944C20.8067 32.2859 20.8192 32.2551 20.372 32.511C19.63 32.9355 18.9068 33.6835 18.6195 34.3234C18.4589 34.6814 18.4235 34.6872 18.201 34.3928C16.84 32.5915 16.6408 30.0332 17.7048 28.02C18.9502 25.6636 21.4983 24.4387 24.1325 24.9302ZM5.73786 26.781C6.82489 27.3028 7.09448 28.7956 6.25356 29.6365C4.93963 30.9505 2.75918 29.6588 3.28754 27.8795C3.59018 26.8606 4.78634 26.3243 5.73786 26.781ZM23.7672 28.6156C24.8039 29.1322 25.0735 30.4436 24.3289 31.3471C23.6722 32.1437 22.2723 32.1437 21.6156 31.3471C20.6413 30.165 21.4475 28.4335 22.9723 28.4335C23.2934 28.4335 23.4939 28.4794 23.7672 28.6156ZM10.9755 32.1224C11.8781 32.4408 12.3719 33.4407 12.0723 34.3429C11.4395 36.2479 8.64159 35.817 8.63041 33.8127C8.62338 32.5562 9.80048 31.7078 10.9755 32.1224ZM24.3323 33.3167C25.3223 33.5802 26.4526 34.7496 26.4529 35.5106C26.4531 35.952 24.6237 36.6835 23.2887 36.7759C21.9257 36.8702 19.4914 36.0617 19.4917 35.5147C19.4918 34.9907 20.3223 33.897 20.9735 33.5632C21.656 33.2133 23.4496 33.0818 24.3323 33.3167Z" fill="#111827"/>
</svg>
