<svg width="50" height="50" viewBox="0 0 50 50" fill="none" xmlns="http://www.w3.org/2000/svg">
<path d="M20.8952 26.5373L20.8952 26.5373C21.1919 26.4021 21.3476 26.0915 21.3476 25.7685C21.3476 25.4454 21.192 25.1348 20.8953 24.9996C20.8985 25.0011 20.8874 24.997 20.8463 24.9915C20.8102 24.9867 20.7606 24.9819 20.6976 24.9771C20.572 24.9676 20.3978 24.9588 20.1815 24.9507C19.749 24.9345 19.1516 24.9213 18.4439 24.911C17.0286 24.8904 15.1746 24.8816 13.3225 24.884C11.4704 24.8864 9.62065 24.9 8.21392 24.9242C7.51045 24.9363 6.91836 24.9511 6.49232 24.9684C6.27916 24.977 6.10856 24.9863 5.98672 24.9961C5.92565 25.001 5.87819 25.006 5.84432 25.0108C5.82731 25.0133 5.81512 25.0155 5.80702 25.0174C5.8052 25.0178 5.80379 25.0181 5.80273 25.0184C5.51664 25.1796 5.37431 25.4886 5.38074 25.798C5.38722 26.1092 5.54349 26.4041 5.83597 26.5373M20.8952 26.5373H5.83601L5.83597 26.5373M20.8952 26.5373C20.8956 26.5371 20.8933 26.5382 20.8869 26.54C20.8807 26.5417 20.8723 26.5437 20.8612 26.5458C20.8389 26.5501 20.8086 26.5546 20.7694 26.559C20.6909 26.5678 20.5814 26.576 20.4362 26.5835C20.1461 26.5984 19.7194 26.6103 19.1267 26.6194C17.9416 26.6376 16.0973 26.645 13.3656 26.645C10.6339 26.645 8.78962 26.6376 7.60454 26.6194M20.8952 26.5373L7.60454 26.6194M5.83597 26.5373C5.83579 26.5372 5.83814 26.5383 5.84433 26.54M5.83597 26.5373L5.84433 26.54M5.79451 37.5658L5.83599 37.4748C5.8358 37.4747 5.84512 37.4783 5.87227 37.4831C5.89718 37.4875 5.93122 37.492 5.97572 37.4965C6.06459 37.5054 6.19001 37.5137 6.35724 37.5211C6.69142 37.5361 7.18743 37.548 7.88125 37.5571C9.26859 37.5753 11.443 37.5825 14.687 37.5825H23.2853L23.5647 37.333C23.9623 36.9776 23.9623 36.4343 23.5647 36.079L23.2853 35.8294L14.658 35.8328C11.1553 35.8342 8.97849 35.8413 7.65388 35.8611C6.99135 35.871 6.54343 35.8841 6.24988 35.9011C6.10294 35.9096 5.99649 35.919 5.92192 35.9292C5.88463 35.9343 5.85682 35.9394 5.83671 35.9442C5.82672 35.9466 5.81939 35.9488 5.81421 35.9506C5.80947 35.9523 5.80755 35.9532 5.80755 35.9532M5.79451 37.5658L5.80763 35.9532L5.80755 35.9532M5.79451 37.5658L5.83597 37.4748C5.54349 37.3416 5.38722 37.0467 5.38074 36.7355M5.79451 37.5658L5.38074 36.7355M5.80755 35.9532C5.51823 36.1136 5.37427 36.4244 5.38074 36.7355M5.80755 35.9532L5.38074 36.7355M7.60454 26.6194C7.01184 26.6103 6.58508 26.5984 6.29502 26.5835M7.60454 26.6194L6.29502 26.5835M6.29502 26.5835C6.14985 26.576 6.04026 26.5678 5.96182 26.559M6.29502 26.5835L5.96182 26.559M5.96182 26.559C5.92256 26.5546 5.89235 26.5501 5.87002 26.5458M5.96182 26.559L5.87002 26.5458M5.87002 26.5458C5.8589 26.5437 5.85048 26.5417 5.84433 26.54M5.87002 26.5458L5.84433 26.54M39.4614 27.8638L39.4233 27.8261L39.3709 27.8369L38.4431 28.0274C36.5998 28.406 34.4267 28.4492 32.3471 28.205C30.2669 27.9607 28.2881 27.4296 26.8312 26.6653C14.7387 20.3208 17.825 2.25366 31.3491 0.231613C31.8624 0.154872 33.1208 0.109379 34.3948 0.101301C35.6685 0.0932258 36.9413 0.122642 37.4827 0.19282L37.4956 0.0936575L37.4827 0.19282C49.266 1.71982 54.0519 15.9012 45.6027 24.2535L44.643 25.2022L44.6133 25.2316V25.2733V28.2628V31.2108L44.3571 31.467C44.1927 31.6313 44.0735 31.7304 43.9543 31.7697C43.8446 31.8059 43.7191 31.7957 43.5299 31.6936C43.3373 31.5897 43.0916 31.3973 42.7505 31.0878C42.4107 30.7795 41.9821 30.3604 41.4244 29.808L39.4614 27.8638ZM45.5438 21.7014L45.4646 21.6403L45.5438 21.7014C51.4093 14.105 46.6507 2.99193 37.0864 1.94473C31.7071 1.35578 27.5858 2.5172 24.6216 5.48144C17.8336 12.2695 21.134 23.9175 30.4809 26.1647L30.5043 26.0675L30.4809 26.1647C31.415 26.3893 32.871 26.5107 34.3257 26.5261C35.7805 26.5415 37.2462 26.4508 38.1999 26.2463L38.179 26.1485L38.2 26.2463C38.2616 26.2331 38.321 26.2203 38.3784 26.2079C38.7773 26.1219 39.0778 26.0572 39.3248 26.0249C39.6052 25.9883 39.8058 25.9954 39.9915 26.0569C40.1784 26.1188 40.3605 26.2392 40.5977 26.4486C40.8056 26.632 41.0493 26.8777 41.3712 27.2022C41.4177 27.249 41.4657 27.2975 41.5156 27.3476C41.7976 27.6316 42.0629 27.89 42.2631 28.0778C42.363 28.1715 42.4475 28.2484 42.5101 28.3021C42.5412 28.3288 42.5682 28.3509 42.5896 28.3668C42.6001 28.3746 42.6111 28.3822 42.6216 28.3884C42.6268 28.3915 42.6337 28.3953 42.6417 28.3986C42.6476 28.401 42.6639 28.4075 42.6851 28.4075C42.7343 28.4075 42.7616 28.3749 42.7691 28.3647C42.7787 28.3519 42.7839 28.3391 42.7865 28.3322C42.7921 28.3172 42.7958 28.3003 42.7985 28.2856C42.8043 28.2546 42.8093 28.2121 42.8138 28.1613C42.823 28.0589 42.8312 27.9126 42.838 27.7338C42.8517 27.3759 42.8601 26.883 42.8601 26.3415V24.4186L43.2928 24.0085C44.6829 22.6908 45.144 22.2191 45.5438 21.7014ZM12.7036 45.6288L12.6747 45.6002L12.634 45.5998L9.06958 45.5696L5.52174 45.5396L4.75617 45.2707L4.72303 45.365L4.75616 45.2707C2.63278 44.5251 1.15494 43.0477 0.40523 40.9208L0.135469 40.1555L0.106718 31.7251C0.0967085 28.7923 0.0977604 26.6329 0.110706 25.1522C0.11718 24.4118 0.126624 23.8416 0.139123 23.4295C0.151721 23.0141 0.167305 22.7665 0.184665 22.6656C0.64281 20.0024 2.76057 17.8022 5.42793 17.2205C5.51906 17.2006 5.76247 17.181 6.13176 17.1637C6.49672 17.1465 6.97502 17.1318 7.52817 17.1196C8.63434 17.0953 10.0378 17.0812 11.4281 17.078C12.8184 17.0748 14.195 17.0826 15.2476 17.102C15.774 17.1118 16.2187 17.1244 16.5433 17.1399C16.7057 17.1477 16.837 17.1562 16.933 17.1653C16.9811 17.1699 17.0191 17.1745 17.0472 17.1791C17.0783 17.1841 17.088 17.1877 17.0867 17.1871C17.5023 17.3765 17.6737 17.9215 17.4345 18.3841C17.369 18.5107 17.3314 18.5789 17.2352 18.6332C17.1307 18.6923 16.9492 18.7385 16.5814 18.7699C15.8498 18.8323 14.4485 18.8325 11.6339 18.8325C8.40109 18.8325 6.68305 18.8478 5.59942 19.0407C5.05382 19.1378 4.66355 19.2807 4.31921 19.4917C3.9768 19.7015 3.68463 19.976 3.33396 20.3266C3.31959 20.341 3.30534 20.3553 3.29122 20.3694C2.94476 20.7156 2.67222 20.988 2.4663 21.3348C2.25037 21.6985 2.11066 22.138 2.01891 22.8231C1.83972 24.1611 1.83976 26.4722 1.83982 31.0682L1.83982 31.3349L1.83982 31.6015C1.83976 36.1975 1.83972 38.5087 2.01891 39.8466C2.11066 40.5317 2.25037 40.9712 2.4663 41.3349C2.67222 41.6818 2.94476 41.9541 3.29122 42.3004L3.33396 42.3431C3.99863 43.0077 4.50949 43.3877 5.42812 43.5953C6.33463 43.8002 7.63885 43.8372 9.88709 43.8372C10.2503 43.8372 10.5761 43.8359 10.8695 43.8348C11.3964 43.8328 11.8191 43.8312 12.1673 43.8379C12.71 43.8485 13.0597 43.8795 13.3302 43.9571C13.5958 44.0333 13.7899 44.1559 14.0176 44.3617C14.1664 44.4963 14.3253 44.6623 14.5258 44.8716C14.6388 44.9896 14.765 45.1213 14.91 45.269C14.9898 45.3503 15.0652 45.4272 15.1364 45.5C15.3981 45.7672 15.6036 45.9771 15.764 46.1304C15.866 46.228 15.9522 46.3051 16.0248 46.3606C16.0944 46.4138 16.1629 46.4562 16.228 46.4696C16.2631 46.4768 16.3022 46.4767 16.3403 46.4609C16.3787 46.445 16.4062 46.4174 16.4252 46.3874C16.46 46.3326 16.4744 46.2577 16.4823 46.1819C16.495 46.0592 16.4943 45.8853 16.4934 45.6709C16.4932 45.6135 16.493 45.5532 16.493 45.4901C16.493 45.3717 16.4911 45.2612 16.4894 45.1589L16.4893 45.1539C16.4876 45.0532 16.4861 44.9609 16.4864 44.8754C16.4871 44.7003 16.4958 44.5612 16.5244 44.4474C16.5523 44.3363 16.5985 44.2518 16.6741 44.1833C16.7513 44.1132 16.8663 44.0534 17.0423 44.005C17.3975 43.9072 17.9679 43.8641 18.8872 43.8467C19.5698 43.8337 20.438 43.8348 21.5433 43.8362C21.9215 43.8367 22.3275 43.8372 22.7634 43.8372C26.1899 43.8372 27.99 43.825 29.1087 43.6338C29.6719 43.5376 30.0684 43.3952 30.4155 43.1834C30.7605 42.9729 31.0516 42.6965 31.4051 42.3431C32.0755 41.6726 32.4558 41.1672 32.6618 40.2294C32.8651 39.3044 32.8992 37.9572 32.8992 35.6057C32.8992 34.5403 32.902 33.7302 32.9207 33.1136C32.9395 32.4955 32.9742 32.0785 33.0358 31.7964C33.0976 31.5139 33.1822 31.3872 33.2838 31.3227C33.3912 31.2545 33.5399 31.2395 33.7758 31.2395C34.0197 31.2395 34.1707 31.2533 34.2794 31.3255C34.3826 31.3941 34.4686 31.5317 34.5292 31.8441C34.5895 32.1549 34.6205 32.6162 34.6337 33.3025C34.647 33.9874 34.6425 34.8899 34.6337 36.0805L34.6032 40.1553L34.3336 40.9208C33.5848 43.0466 32.1092 44.5222 29.9828 45.2718L29.2174 45.5416L23.7899 45.5705L18.3455 45.5995L18.2461 45.6V45.6995V47.4576C18.2461 48.42 18.23 48.9569 18.1583 49.2806C18.1231 49.4394 18.0762 49.538 18.0176 49.6082C17.959 49.6784 17.8819 49.7286 17.7703 49.7795L17.8117 49.8705L17.7702 49.7795C17.6039 49.8553 17.4959 49.8983 17.3846 49.8986C17.2774 49.8989 17.1524 49.8586 16.9605 49.7277C16.5709 49.4617 15.9614 48.8626 14.7544 47.6645L12.7036 45.6288ZM26.4131 35.9532L26.3646 35.8657L26.4131 35.9532C26.9911 35.6328 27.7187 36.0593 27.7187 36.7154C27.7187 36.9282 27.6133 37.1456 27.4456 37.3117C27.278 37.4777 27.058 37.5825 26.8422 37.5825C26.4108 37.5825 26.1136 37.2847 26.0189 36.9247C25.9243 36.5646 26.0372 36.1616 26.4131 35.9532ZM30.8345 11.1734C30.7117 9.31577 31.9474 7.5957 33.8038 7.05262C35.3767 6.59245 36.9034 7.24136 37.8612 8.38782C38.819 9.5343 39.1973 11.1658 38.4849 12.6584C38.252 13.1464 37.7847 13.6924 37.2849 14.1174C37.0357 14.3292 36.7814 14.5085 36.548 14.6343C36.312 14.7615 36.1078 14.8284 35.956 14.8285C35.8987 14.8286 35.8629 14.8654 35.8454 14.8905C35.8275 14.9162 35.8154 14.9474 35.8064 14.9776C35.7879 15.0394 35.7734 15.1271 35.7614 15.2385C35.7372 15.4632 35.7208 15.8068 35.7096 16.2859C35.6998 16.706 35.6706 17.0495 35.6195 17.3233C35.5683 17.5981 35.4963 17.7955 35.4057 17.9286C35.3174 18.0584 35.2117 18.1271 35.0835 18.1496C34.9506 18.173 34.7826 18.1486 34.5701 18.0679C34.4169 18.0096 34.3123 17.9611 34.2351 17.8981C34.1617 17.8382 34.1082 17.7608 34.0689 17.634C34.0285 17.5036 34.0039 17.3238 33.9901 17.0623C33.9763 16.8017 33.9734 16.4669 33.9734 16.0294C33.9734 15.0116 34.0216 14.4125 34.1851 14.0211C34.3423 13.6448 34.6102 13.4525 35.1008 13.2687C35.5258 13.1095 35.8063 12.9921 36.0183 12.8694C36.2339 12.7447 36.3769 12.6155 36.5299 12.4367C38.1876 10.5001 35.8706 7.75542 33.6691 9.03314C33.3303 9.22978 33.042 9.57216 32.8376 9.97661C32.6329 10.3819 32.5089 10.8564 32.5045 11.3255C32.503 11.481 32.4179 11.5934 32.2713 11.668C32.121 11.7445 31.9123 11.7762 31.6947 11.7591C31.4777 11.7421 31.2632 11.6775 31.1027 11.5738C30.9429 11.4704 30.8452 11.3348 30.8345 11.1734ZM34.7971 21.9575C34.3503 21.9575 34.0674 21.6627 33.9938 21.3112C33.9201 20.9588 34.0588 20.5546 34.466 20.3422C34.648 20.2473 34.7139 20.2169 34.7822 20.2159C34.8152 20.2155 34.8539 20.2223 34.9128 20.2418C34.9725 20.2617 35.0462 20.2921 35.1499 20.3354C35.5941 20.521 35.7443 20.9245 35.6668 21.2835C35.5892 21.6431 35.2832 21.9575 34.7971 21.9575ZM5.84582 32.0072C5.83811 32.0059 5.83407 32.0049 5.83266 32.0046C5.5423 31.8706 5.38719 31.5768 5.38074 31.2668C5.37432 30.9577 5.51635 30.649 5.80184 30.4877C5.80359 30.4872 5.80628 30.4866 5.81008 30.4859C5.82199 30.4836 5.83947 30.4809 5.86326 30.4781C5.91062 30.4726 5.97725 30.4671 6.06276 30.4617C6.23345 30.4509 6.4744 30.4408 6.77621 30.4314C7.37957 30.4128 8.22281 30.3973 9.22646 30.3849C11.2336 30.3602 13.8802 30.3481 16.5279 30.3484C19.1756 30.3488 21.8239 30.3616 23.8343 30.3869C24.8396 30.3995 25.6849 30.4152 26.2907 30.434C26.5937 30.4434 26.836 30.4536 27.0081 30.4644C27.0944 30.4699 27.1618 30.4754 27.21 30.481C27.2342 30.4838 27.2521 30.4864 27.2646 30.4888C27.2699 30.4898 27.2732 30.4906 27.275 30.491C27.5583 30.6399 27.7037 30.935 27.7037 31.2372C27.7037 31.5392 27.5585 31.8341 27.2756 31.9831C27.2738 31.9835 27.2708 31.9842 27.2662 31.985C27.254 31.9873 27.2364 31.9898 27.2125 31.9924C27.165 31.9977 27.0983 32.003 27.0129 32.0082C26.8423 32.0186 26.6017 32.0284 26.3006 32.0376C25.6985 32.0558 24.8573 32.0714 23.8562 32.0843C21.8542 32.1099 19.2145 32.1244 16.5731 32.1272C13.9318 32.13 11.2891 32.1209 9.28114 32.0995C8.27709 32.0887 7.43218 32.0749 6.82562 32.0579C6.52222 32.0494 6.27921 32.0401 6.10601 32.0301C6.01928 32.025 5.95114 32.0199 5.90212 32.0147C5.87753 32.012 5.85895 32.0095 5.84582 32.0072Z" fill="#111827" stroke="white" stroke-width="0.2"/>
</svg>
