<svg width="40" height="40" viewBox="0 0 40 40" fill="none" xmlns="http://www.w3.org/2000/svg">
<path fill-rule="evenodd" clip-rule="evenodd" d="M23.2255 0.108761C21.6152 0.454386 20.2412 1.50353 19.3734 3.05025C18.9669 3.77485 18.9055 3.81485 18.1962 3.81603C15.1817 3.82118 12.4738 6.72564 12.2411 10.2035C12.1886 10.988 12.1829 11.0066 11.9838 11.0457C8.48812 11.7339 7.10609 15.6842 9.47508 18.2167C9.87297 18.6419 9.95687 18.783 10.0237 19.1382C10.4178 21.2354 11.5875 22.4717 13.4185 22.7263L13.9913 22.806L14.9048 23.7128L15.8184 24.6195L15.7915 25.3142C15.7595 26.1425 15.9452 25.9927 14.0068 26.7534C13.1689 27.0823 12.4026 27.4248 12.3039 27.5145C12.0514 27.7442 12.0929 28.156 12.3907 28.3774L12.6105 28.5409L13.3282 28.2789C14.3711 27.8981 14.2988 27.8961 15.1937 28.3316C18.299 29.8427 21.7161 29.8275 24.7362 28.289L25.5828 27.8577L28.2128 28.8926C31.1436 30.0459 31.3159 30.1298 31.8306 30.6521C32.8555 31.6921 33.9287 35.5467 33.9287 38.1874V38.8155H31.7105C29.2382 38.8155 29.3974 38.8543 29.3974 38.252C29.3974 36.9292 29.0252 35.8559 28.564 35.8492C27.9908 35.8408 27.8851 36.1355 28.0726 37.2184C28.154 37.6886 28.2217 38.2402 28.2231 38.4444L28.2255 38.8155H20.0224H11.8193L11.8217 38.4444C11.8231 38.2402 11.8909 37.6886 11.9723 37.2184C12.1598 36.1355 12.0541 35.8408 11.4809 35.8492C11.0197 35.8559 10.6474 36.9292 10.6474 38.252C10.6474 38.8543 10.8066 38.8155 8.33437 38.8155H6.11617V38.1163C6.11617 36.6809 6.45906 34.7566 7.0189 33.0505C7.75101 30.8192 8.12179 30.3868 9.94187 29.6426C10.5146 29.4084 11.0134 29.1704 11.0504 29.1138C11.278 28.7649 11.1433 28.3345 10.7609 28.1891C10.2718 28.0031 7.94867 29.1475 7.25969 29.9138C6.04226 31.2679 4.98812 34.9699 4.92484 38.1134C4.90219 39.2392 4.99961 39.5016 5.55656 39.8145L5.86398 39.9874H20.0166C35.994 39.9874 34.5447 40.0459 34.9559 39.3843C35.4163 38.6438 34.9769 35.0709 34.1142 32.5407C33.1115 29.5997 32.9681 29.4823 27.9912 27.5245C23.7553 25.8583 24.2441 26.1565 24.2423 25.2374L24.2412 24.5891L24.9527 23.9119C25.7891 23.1161 26.1891 22.6129 26.7063 21.7061C26.9147 21.3409 27.0907 21.0323 27.0976 21.0203C27.1045 21.0084 27.4226 21.1028 27.8045 21.2301C30.5425 22.1424 32.27 21.7912 31.0082 20.5788C30.5665 20.1544 30.2705 19.6486 30.1036 19.0334L30.0038 18.6653L30.4478 18.1747C31.947 16.518 31.9326 14.0594 30.4137 12.3849L29.9752 11.9014L30.0432 10.8077C30.3456 5.94071 29.7375 2.50728 28.3691 1.35579C27.6469 0.748136 27.0896 1.54157 27.6814 2.33478C28.7423 3.75665 29.0791 5.96587 28.8772 10.177L28.8257 11.2508L28.6233 11.2034C28.5119 11.1774 28.294 11.1352 28.1388 11.1098L27.8568 11.0634L27.8036 10.1739C27.5817 6.46196 25.0795 4.00079 21.292 3.76892C20.8086 3.73931 20.413 3.69181 20.413 3.66337C20.413 3.51923 20.9522 2.7929 21.3422 2.41181C22.3886 1.38907 23.6879 1.04431 25.6618 1.26556C26.553 1.36548 27.0176 0.777355 26.4322 0.290402C26.0927 0.00790181 24.1959 -0.0995201 23.2255 0.108761ZM22.9796 5.25595C24.5332 5.79431 25.7681 7.0154 26.3146 8.55353C26.5292 9.15751 26.7214 12.253 26.5443 12.253C26.5141 12.253 26.2385 12.1299 25.9317 11.9795C25.1809 11.6113 24.3208 11.4049 23.1474 11.3114C20.4718 11.0981 19.0709 10.6488 17.2349 9.41517C16.1729 8.7015 16.311 8.64712 14.7038 10.4122L13.499 11.7355L13.4771 10.6925C13.4183 7.89142 14.9005 5.8254 17.4581 5.14306C18.463 4.87493 22.0944 4.94923 22.9796 5.25595ZM17.013 10.6895C18.835 11.8047 20.3282 12.2927 22.288 12.4136C24.2374 12.5338 24.8109 12.6827 26.0284 13.3849L26.6527 13.7451L26.7165 14.1905C27.8465 22.0868 21.485 27.6055 16.193 23.3197C15.603 22.8418 15.6079 22.7996 16.2529 22.8008C16.7673 22.8017 16.7845 22.8084 16.9537 23.0696C17.442 23.8235 19.5415 24.1055 20.4562 23.54C21.6627 22.794 21.5978 21.1584 20.3349 20.4848C20.1054 20.3624 19.8858 20.3389 18.9677 20.3389C17.6485 20.3389 17.3525 20.4538 16.8997 21.142L16.6286 21.5541L15.616 21.5324L14.6034 21.5108L14.3907 21.1485C13.582 19.7713 13.269 18.3358 13.2772 16.042C13.286 13.5702 13.1602 13.8906 14.8662 11.9959C16.5027 10.1784 16.3398 10.2775 17.013 10.6895ZM12.1776 15.2996L12.1709 18.3463L11.9665 18.3465C11.6134 18.3469 10.6813 17.823 10.3273 17.425C8.85844 15.7738 9.45437 13.2001 11.4898 12.4044C12.2514 12.1067 12.1852 11.8281 12.1776 15.2996ZM28.6552 12.5413C30.916 13.6434 30.8824 17.0342 28.6001 18.114C27.8041 18.4905 27.8748 18.7619 27.8677 15.3014L27.8616 12.2567L28.063 12.3038C28.1739 12.3296 28.4404 12.4365 28.6552 12.5413ZM29.1282 19.8702C29.2329 20.128 29.3187 20.3517 29.3189 20.3671C29.3197 20.4234 28.7198 20.2826 28.1244 20.0867C27.3562 19.8338 27.3399 19.6877 28.0635 19.5412C28.3392 19.4854 28.5837 19.4209 28.6068 19.3977C28.7489 19.2557 28.9542 19.4417 29.1282 19.8702ZM12.1962 19.5867C12.449 19.6357 12.8512 20.4085 13.0454 21.2178C13.1742 21.7552 11.9594 20.8042 11.5954 20.0828C11.2412 19.3809 11.2212 19.3974 12.1962 19.5867ZM19.9577 21.6792C20.1357 21.8402 20.1429 22.233 19.9712 22.4226C19.7884 22.6247 18.198 22.6356 17.9778 22.4362C17.7998 22.2751 17.7926 21.8824 17.9642 21.6927C18.1471 21.4906 19.7374 21.4798 19.9577 21.6792ZM17.5823 25.5317C19.1013 26.1507 21.1789 26.1382 22.5695 25.5016C22.8118 25.3906 23.0234 25.2999 23.0397 25.2999C23.0559 25.2999 23.0701 25.4845 23.071 25.71C23.0737 26.3442 23.458 26.9998 23.9453 27.2016C24.1155 27.272 23.8073 27.46 23.1045 27.7143C21.0642 28.4525 18.6271 28.4264 16.5998 27.6446C15.9034 27.376 15.8505 27.3139 16.1748 27.1452C16.6717 26.8867 16.9755 26.3357 16.9755 25.693C16.9755 25.4767 16.9844 25.3 16.9951 25.3001C17.0058 25.3002 17.2701 25.4045 17.5823 25.5317Z" fill="#111827"/>
</svg>
