<svg width="40" height="40" viewBox="0 0 40 40" fill="none" xmlns="http://www.w3.org/2000/svg">
<path fill-rule="evenodd" clip-rule="evenodd" d="M22.3913 4.13328C21.9424 4.4325 21.9105 4.54437 21.8683 5.96945L21.8292 7.28555L20.8973 7.59117C18.4611 8.39031 15.3579 10.3975 15.3579 11.1742C15.3579 11.8875 15.9584 11.9095 16.7787 11.2262C23.4889 5.63687 33.5222 7.73508 37.4125 15.541C39.9238 20.5801 38.9775 26.57 35.003 30.7927C34.2466 31.5963 34.1833 31.69 34.2028 31.9777C34.2746 33.0387 35.7754 32.0459 37.2455 29.9647C42.2507 22.8787 40.1923 13.2501 32.7311 8.84812C31.8744 8.34273 30.2956 7.66047 29.5131 7.4575L28.9777 7.31859V6.07984C28.9777 4.74719 28.9415 4.59047 28.5492 4.22375L28.3402 4.02844L25.4754 4.00781C22.7877 3.98851 22.5969 3.99625 22.3913 4.13328ZM27.8058 6.10351V7.0457L27.2394 6.98242C26.5189 6.9018 24.258 6.90023 23.5675 6.97984L23.0402 7.04062V6.10094V5.16125H25.423H27.8058V6.10351ZM23.6652 10.5855C12.3056 12.6203 11.1137 28.2998 22.0437 31.9147C30.4596 34.698 38.6596 26.4815 35.8754 18.055C34.1923 12.9611 28.8042 9.665 23.6652 10.5855ZM24.837 12.5831C24.837 13.6562 24.9191 13.8331 25.4173 13.8331C25.8947 13.8331 26.0089 13.5825 26.0089 12.535V11.6486L26.38 11.6923C28.1843 11.9049 29.8324 12.5372 31.173 13.5311C31.9844 14.1327 31.9803 14.0687 31.253 14.8C30.5448 15.5119 30.4705 15.7237 30.8101 16.0632C31.1432 16.3964 31.347 16.3248 32.0673 15.6218C32.8093 14.8976 32.7441 14.8936 33.3422 15.7003C34.3534 17.0641 34.9023 18.5048 35.1834 20.5323L35.2295 20.8644H34.3156C33.2622 20.8644 33.0402 20.9688 33.0402 21.4639C33.0402 21.9533 33.2216 22.0362 34.2911 22.0362H35.2295L35.1834 22.3683C34.8787 24.5667 33.9482 26.782 32.9302 27.7336L32.7274 27.9231L32.073 27.2844C31.3467 26.5755 31.1438 26.5036 30.8101 26.8374C30.4698 27.1776 30.5444 27.3884 31.2589 28.1066L31.8996 28.7507L31.715 28.9472C30.7611 29.9625 28.4477 30.9538 26.4191 31.2166L26.0089 31.2697V30.3745C26.0089 29.3349 25.8929 29.0675 25.4419 29.0675C24.9411 29.0675 24.837 29.2859 24.837 30.3367V31.2663L24.3878 31.2132C22.6496 31.008 20.9044 30.3203 19.5413 29.3034C18.8505 28.7882 18.847 28.8605 19.6027 28.0862C20.2971 27.3748 20.3682 27.1698 20.0359 26.8374C19.7035 26.5051 19.4984 26.5762 18.787 27.2706C18.0159 28.0234 18.0842 28.0177 17.597 27.3683C16.5382 25.9568 15.869 24.275 15.6542 22.4855L15.6003 22.0362H16.5222C17.5809 22.0362 17.8058 21.9322 17.8058 21.4423C17.8058 20.98 17.5458 20.8644 16.5062 20.8644C15.4768 20.8644 15.5532 20.9665 15.7422 19.843C15.9889 18.3764 16.658 16.8111 17.551 15.6112C18.1007 14.8727 18.0284 14.8716 18.7823 15.63C19.4777 16.3295 19.6947 16.4045 20.0359 16.0632C20.3682 15.7309 20.2971 15.5258 19.6027 14.8144C18.8459 14.039 18.8472 14.1267 19.5839 13.5784C20.9648 12.5505 23.1167 11.7409 24.7003 11.6532C24.8234 11.6464 24.837 11.7395 24.837 12.5831ZM13.8158 12.6405C12.8613 13.7276 11.7724 15.9491 11.2973 17.7784C8.7025 27.769 17.1049 37.2482 27.3634 35.9034C30.04 35.5526 33.4308 34.0964 33.4308 33.2979C33.4308 32.6106 32.9708 32.5539 31.9794 33.1188C28.2066 35.2686 23.5183 35.4066 19.5636 33.4842C12.2404 29.9244 9.77828 20.7262 14.333 13.9425C14.9522 13.0202 15.0258 12.7719 14.7589 12.505C14.4966 12.2427 14.1173 12.2972 13.8158 12.6405ZM4.38187 14.3264C4.14156 14.5823 4.1575 14.9508 4.41789 15.1555C4.67492 15.3577 9.75039 15.408 10.0098 15.211C10.3302 14.9675 10.2966 14.3269 9.95648 14.1964C9.88375 14.1684 8.63797 14.1456 7.18804 14.1456H4.55179L4.38187 14.3264ZM25.1741 16.4118C24.8559 16.54 24.837 16.6948 24.837 19.1739V21.5562L25.0429 21.718C25.4517 22.0397 25.5594 21.9768 26.887 20.6425C28.2619 19.2606 28.3743 19.0459 27.9124 18.6826C27.5563 18.4024 27.3741 18.467 26.7169 19.1066C26.3859 19.4288 26.091 19.6925 26.0619 19.6925C26.0327 19.6925 26.0089 19.045 26.0089 18.2536C26.0089 16.6491 26.0017 16.6082 25.6908 16.4474C25.441 16.3183 25.4114 16.3162 25.1741 16.4118ZM2.49898 17.789C2.28414 18.062 2.29445 18.3289 2.52882 18.5632L2.72054 18.755H5.87765C9.45531 18.755 9.4464 18.7565 9.4464 18.1634C9.4464 17.5679 9.53937 17.5831 5.89742 17.5831H2.66086L2.49898 17.789ZM0.163121 21.2014C-0.0621913 21.4413 -0.0533632 21.7623 0.185074 22.0007L0.376793 22.1925H4.31515C8.7725 22.1925 8.66515 22.2071 8.66515 21.6009C8.66515 20.9951 8.85531 21.0206 4.34281 21.0206H0.333043L0.163121 21.2014ZM2.52882 24.3374C2.28273 24.5834 2.27812 24.9224 2.51781 25.1477C2.79046 25.4037 9.03507 25.4163 9.29015 25.1612C9.52281 24.9286 9.49851 24.5105 9.24054 24.3076C9.04 24.1498 8.95328 24.1456 5.87765 24.1456H2.72054L2.52882 24.3374ZM4.41789 27.7451C4.15992 27.948 4.13562 28.3661 4.36828 28.5987C4.51851 28.749 4.62867 28.755 7.21984 28.755C9.81101 28.755 9.92117 28.749 10.0714 28.5987C10.3253 28.3448 10.3066 28.0128 10.024 27.7589C9.72906 27.494 4.75273 27.4816 4.41789 27.7451Z" fill="#111827"/>
</svg>
