<svg width="40" height="40" viewBox="0 0 40 40" fill="none" xmlns="http://www.w3.org/2000/svg">
<path d="M13.496 0.366281L13.496 0.366276C13.69 0.163501 13.8407 0.0664247 13.9758 0.051931C14.1072 0.0378379 14.2394 0.10076 14.401 0.262308C14.4792 0.340554 14.5323 0.406085 14.563 0.470481C14.5929 0.533137 14.6027 0.596726 14.5902 0.67368C14.5773 0.752387 14.5409 0.84616 14.4757 0.967363C14.4106 1.08828 14.3185 1.23349 14.1966 1.41476C12.3745 4.12505 12.5109 7.27553 14.5586 9.7293C14.7702 9.98298 14.8779 10.1678 14.9008 10.3214C14.9227 10.4684 14.8678 10.5961 14.7226 10.7414C14.603 10.861 14.4789 10.9201 14.3493 10.9256C14.2188 10.9312 14.0749 10.8827 13.9157 10.7717C13.5957 10.5487 13.2296 10.0844 12.8133 9.36618C11.9891 7.94397 11.6531 6.22254 11.7773 4.59112C11.9016 2.95941 12.4857 1.42238 13.496 0.366281ZM17.0664 9.94211L17.0665 9.91463L17.0434 9.89979L16.6533 9.64948C14.6898 8.38945 14.0848 6.17281 14.5587 4.18628C15.0326 2.19967 16.584 0.450383 18.927 0.125933C24.3166 -0.62048 27.128 6.55993 22.654 9.6381L22.2926 9.88678L22.2709 9.90168V9.92797V10.4795C22.2709 10.603 22.2718 10.6999 22.2751 10.7747C22.2784 10.8485 22.2841 10.9047 22.2951 10.9447C22.3059 10.9839 22.3263 11.0232 22.3703 11.0363C22.3901 11.0422 22.4096 11.0409 22.4263 11.0376C22.443 11.0343 22.4601 11.0282 22.4765 11.0215C24.1127 10.3551 25.7177 11.0727 26.1121 12.6281C26.1394 12.7356 26.1651 12.8354 26.1845 12.9095C26.1942 12.9466 26.2024 12.9774 26.2084 12.9995L26.2159 13.0264L26.2161 13.0271C26.2174 13.0317 26.2197 13.0395 26.222 13.0446C26.2307 13.064 26.2474 13.0705 26.2535 13.0725C26.2606 13.0747 26.2667 13.075 26.2697 13.075C26.2761 13.0751 26.2822 13.0742 26.2862 13.0736C26.295 13.0721 26.3058 13.0694 26.3175 13.0662C26.3414 13.0595 26.3746 13.049 26.4141 13.0356C26.4934 13.0087 26.6013 12.9693 26.7186 12.924L26.7006 12.8773L26.7187 12.924C27.606 12.5807 28.4594 12.7121 29.1017 13.1823C29.7446 13.6528 30.1809 14.4664 30.2245 15.4954C30.2332 15.7001 30.2401 15.856 30.2481 15.9735C30.2561 16.0902 30.2653 16.1727 30.2796 16.2288C30.2932 16.2825 30.3158 16.3302 30.3656 16.347C30.3884 16.3547 30.4111 16.3537 30.4307 16.3504C30.4502 16.3472 30.4709 16.341 30.4909 16.3346C31.2409 16.096 31.4662 16.0586 31.8701 16.0972C32.7384 16.1801 33.6295 16.826 34.0164 17.6557L34.185 18.0176L34.2081 23.9441C34.2207 27.1655 34.2242 28.8278 34.171 29.8641C34.1181 30.8972 34.0091 31.3052 33.7955 32.0187C33.4347 33.2242 32.6938 34.5552 32.0533 35.1575C31.8316 35.366 31.7053 35.5084 31.6392 35.7795C31.5749 36.0433 31.5674 36.4296 31.567 37.1236C31.5665 37.9697 31.5063 38.5194 31.3348 38.9108C31.1651 39.2978 30.8841 39.5353 30.4248 39.7499C30.3404 39.7894 30.2754 39.818 30.1361 39.84C29.994 39.8625 29.7755 39.8779 29.3853 39.8883C28.6056 39.909 27.1505 39.9095 24.2741 39.9095H18.4669L18.0508 39.6735C17.545 39.3866 17.1601 38.8652 17.1061 38.4087C16.9807 37.3483 16.9082 36.7881 16.685 36.3056C16.4617 35.8228 16.0886 35.4202 15.3759 34.6689C13.2544 32.4322 12.4873 31.2954 11.427 28.8187C10.1818 25.9102 8.01001 22.1407 6.71445 20.6428C6.16494 20.0075 5.87667 19.4454 5.83621 18.932C5.79599 18.4215 6.00019 17.9495 6.45826 17.4908C6.89374 17.0547 7.38019 16.8173 7.91604 16.7732C8.45282 16.7291 9.04436 16.8786 9.68961 17.2259C10.9815 17.9213 12.4765 19.4031 14.1551 21.669C14.7997 22.539 15.2408 23.0647 15.5881 23.3189C15.7627 23.4468 15.9189 23.5101 16.0693 23.5098C16.2204 23.5094 16.3566 23.4449 16.491 23.336C16.6135 23.2368 16.7098 23.1329 16.7828 22.9275C16.8543 22.7261 16.9032 22.4278 16.9382 21.9409C17.0081 20.9663 17.0232 19.2165 17.0385 15.9275L17.0664 9.94211ZM26.9605 8.36977L27.0067 8.38898L26.9605 8.36977C26.8066 8.73964 26.6931 8.95795 26.5735 9.08474C26.5148 9.14691 26.4553 9.18635 26.389 9.2107C26.322 9.23528 26.2456 9.24547 26.1517 9.24547C26.0057 9.24547 25.8916 9.21743 25.8068 9.16705C25.723 9.11721 25.6647 9.04371 25.6323 8.94589C25.5661 8.74655 25.6065 8.44307 25.7757 8.04307C26.7562 5.72429 26.4931 3.44017 25.0012 1.30465C24.8036 1.02185 24.7135 0.761424 24.7203 0.555668C24.727 0.353978 24.8263 0.201864 25.0205 0.123642C25.2097 0.0473889 25.3519 0.0410262 25.4975 0.114843C25.6488 0.191489 25.8099 0.357341 26.0255 0.646305C27.6379 2.80746 28.0072 5.85571 26.9605 8.36977ZM20.1329 4.05699L20.1136 4.10312L20.1329 4.05699C19.348 3.72908 18.4773 4.21628 18.2927 5.07693C18.2847 5.11404 18.2781 5.19086 18.272 5.30275C18.2659 5.41633 18.2603 5.57007 18.255 5.76402C18.2446 6.15197 18.236 6.70194 18.2291 7.41546C18.2153 8.84258 18.2084 10.9248 18.2084 13.6757C18.2084 18.4979 18.2082 20.9074 18.1016 22.22C18.0484 22.8763 17.9688 23.2528 17.8523 23.5178C17.7364 23.7813 17.5829 23.9379 17.3693 24.1543C17.079 24.4484 16.7826 24.6331 16.4768 24.7116C16.1716 24.7899 15.8529 24.7633 15.5155 24.6278C14.8376 24.3555 14.0877 23.6444 13.2385 22.4702C12.2331 21.08 11.1788 19.9069 10.2552 19.1076C9.79349 18.708 9.36312 18.4006 8.98676 18.2064C8.61241 18.0132 8.28289 17.9274 8.027 17.9849C7.49037 18.1054 7.16533 18.3146 7.10017 18.641C7.06801 18.802 7.10163 18.9831 7.19306 19.1828C7.28453 19.3826 7.43551 19.6046 7.64377 19.8496C9.06021 21.5163 11.1863 25.2207 12.6261 28.5341C13.5282 30.6103 14.2569 31.6721 16.2885 33.8763C17.043 34.6948 17.5224 35.2977 17.8137 35.8423C18.104 36.3847 18.2082 36.8705 18.2089 37.4565C18.209 37.5376 18.2072 37.6134 18.2054 37.6846L18.2049 37.7044C18.2033 37.768 18.2017 37.8282 18.2016 37.8845C18.2015 38.0081 18.2084 38.1185 18.2399 38.2142C18.272 38.312 18.3294 38.3928 18.426 38.4576C18.5208 38.5211 18.6516 38.568 18.829 38.6035C19.1833 38.6745 19.7411 38.7034 20.6149 38.7149C21.2508 38.7233 22.0566 38.7224 23.0767 38.7213C23.4601 38.7209 23.8736 38.7205 24.3198 38.7205H29.8777H29.8984L29.9131 38.7058L30.1115 38.5074C30.16 38.4589 30.2017 38.4161 30.2337 38.3579C30.266 38.2994 30.2869 38.2286 30.3018 38.1249C30.3313 37.9198 30.3394 37.5689 30.3536 36.891C30.3706 36.0773 30.3918 35.6401 30.4975 35.3042C30.6022 34.9715 30.7908 34.7354 31.1578 34.3274C31.9573 33.4387 32.3824 32.6174 32.7775 31.2044C32.7915 31.1543 32.8041 31.0614 32.816 30.9356C32.828 30.8083 32.8396 30.6433 32.8508 30.4464C32.8731 30.0524 32.8936 29.5291 32.912 28.9203C32.9487 27.7028 32.9768 26.1425 32.9926 24.5907C33.0084 23.0389 33.012 21.4951 32.9997 20.3105C32.9936 19.7183 32.9835 19.2155 32.969 18.8462C32.9617 18.6616 32.9533 18.5099 32.9437 18.3968C32.9389 18.3403 32.9338 18.2929 32.9282 18.2556C32.9229 18.2198 32.9166 18.1888 32.9081 18.1682C32.5556 17.3174 31.4339 17.0401 30.7512 17.6395C30.5379 17.8267 30.407 17.9898 30.3321 18.2412C30.2584 18.4883 30.2397 18.8181 30.2397 19.3355C30.2397 19.5926 30.2319 19.7998 30.2126 19.9661C30.1934 20.1327 30.1629 20.2551 30.1195 20.3444C30.0768 20.4322 30.0216 20.4877 29.9507 20.5224C29.8781 20.5579 29.785 20.5736 29.6631 20.5736C29.4939 20.5736 29.3802 20.564 29.2966 20.5132C29.2165 20.4646 29.1543 20.3711 29.1097 20.1745C29.0651 19.9777 29.0403 19.6877 29.0269 19.2594C29.0135 18.8319 29.0116 18.27 29.0116 17.5311C29.0116 16.2186 29.0085 15.5329 28.9549 15.1243C28.9279 14.9188 28.8877 14.7793 28.8265 14.6638C28.7655 14.5487 28.6854 14.4606 28.5854 14.3569C28.1226 13.8772 27.3745 13.8226 26.8398 14.2284C26.8323 14.2341 26.8249 14.2397 26.8176 14.2452C26.6975 14.3363 26.6001 14.4101 26.5255 14.5041C26.4446 14.606 26.3921 14.7289 26.3563 14.9179C26.2876 15.2804 26.2773 15.905 26.2571 17.1377L26.2553 17.2471L26.2166 19.5985L26.0144 19.7722L26.047 19.8102L26.0144 19.7722C25.8735 19.8934 25.745 19.9453 25.6234 19.9395C25.5016 19.9338 25.3756 19.8696 25.2409 19.7349L25.0272 19.5212L25.0255 16.3132C25.0245 14.5102 25.0222 13.5886 24.9512 13.0701C24.9155 12.8097 24.8619 12.6447 24.7784 12.5192C24.6951 12.394 24.5847 12.3126 24.4489 12.2158L24.4199 12.2565L24.4489 12.2158C24.2579 12.0795 23.9471 12.0113 23.6478 12.0061C23.3492 12.0009 23.0445 12.0581 22.868 12.1899C22.8439 12.2079 22.8205 12.225 22.798 12.2415C22.693 12.3182 22.6051 12.3825 22.5372 12.47C22.4525 12.579 22.4002 12.721 22.3654 12.9612C22.3025 13.3948 22.2937 14.1736 22.2764 15.7198C22.2747 15.8742 22.2729 16.0363 22.2709 16.2065C22.2527 17.7844 22.2405 18.632 22.216 19.1039C22.1913 19.5809 22.1535 19.659 22.1 19.7182C21.8413 20.0037 21.3784 19.9802 21.1341 19.6644C21.1339 19.6639 21.1337 19.6633 21.1334 19.6625C21.1321 19.6589 21.1305 19.6533 21.1286 19.6449C21.125 19.6283 21.1212 19.6043 21.1175 19.5718C21.11 19.507 21.1032 19.4124 21.0969 19.283C21.0845 19.0243 21.0747 18.63 21.067 18.0644C21.0517 16.9335 21.0452 15.12 21.0436 12.3423C21.0433 11.8533 21.0432 11.3946 21.0432 10.9642C21.0426 7.70486 21.0424 6.07071 20.9513 5.21751C20.8998 4.73584 20.8186 4.48946 20.6805 4.3411C20.6112 4.26654 20.5301 4.21955 20.4393 4.17925C20.3941 4.1592 20.3457 4.14049 20.2951 4.12104L20.2845 4.11698C20.2366 4.09863 20.1864 4.07936 20.1329 4.05699ZM30.5806 23.5845L30.548 23.5466L30.5806 23.5845C30.7182 23.466 30.8577 23.4119 30.9899 23.4146C31.1218 23.4172 31.2538 23.4766 31.3765 23.5993C31.3765 23.5993 31.3765 23.5993 31.3765 23.5993L31.5678 23.7906V25.9815V28.1744L31.3947 28.3757C31.1737 28.6326 30.7735 28.6495 30.5382 28.4142L30.5028 28.4496L30.5381 28.4142C30.4959 28.3721 30.4699 28.3441 30.4496 28.2923C30.4281 28.2378 30.4121 28.1544 30.4011 28.0008C30.3793 27.6939 30.3787 27.1284 30.3787 26.0054V23.7581L30.5806 23.5845ZM22.685 8.02099C24.7504 5.80788 23.4073 1.92636 20.386 1.35688C16.7916 0.679439 14.1962 4.87427 16.41 7.78356C16.4212 7.79816 16.4321 7.81252 16.4428 7.82663C16.5679 7.99123 16.6665 8.12092 16.7425 8.19479C16.7635 8.21525 16.7842 8.23277 16.8044 8.24597C16.8243 8.25896 16.8465 8.26958 16.8704 8.27268C16.8959 8.27601 16.921 8.27033 16.9427 8.25467C16.963 8.24005 16.9773 8.21901 16.9879 8.19662C17.0087 8.15252 17.022 8.08822 17.0315 8.00651C17.0411 7.9235 17.0473 7.81738 17.0512 7.68642C17.0585 7.44422 17.0585 7.11303 17.0584 6.67858C17.0584 6.64326 17.0584 6.60725 17.0584 6.57055C17.0584 5.26735 17.1972 4.38663 17.5344 3.80151C17.8686 3.22148 18.4024 2.92479 19.2161 2.80186C20.2704 2.64255 21.0271 2.87975 21.5239 3.52833C22.0248 4.18229 22.27 5.26427 22.2705 6.81502C22.2706 7.18152 22.2714 7.46002 22.2776 7.66593C22.2837 7.87003 22.295 8.00845 22.3182 8.0912C22.3295 8.13144 22.3463 8.16947 22.3766 8.1917C22.4125 8.21797 22.4525 8.21279 22.4848 8.19818C22.5153 8.18438 22.5466 8.15935 22.5778 8.13038C22.6098 8.10071 22.6456 8.06322 22.685 8.02099ZM30.3767 30.665C30.4283 30.4876 30.4685 30.3831 30.5183 30.3118C30.5659 30.2435 30.6247 30.2027 30.7234 30.16C30.991 30.0444 31.1808 30.0754 31.3055 30.1825C31.4339 30.2928 31.5077 30.4954 31.5139 30.7523C31.5262 31.2646 31.2678 31.9536 30.7275 32.4082C30.5468 32.5603 30.3738 32.6181 30.2273 32.6134C30.0811 32.6087 29.9562 32.5416 29.8697 32.4337C29.6969 32.2182 29.6722 31.8292 29.9743 31.4492C30.1264 31.2578 30.3065 30.9068 30.3767 30.665Z" fill="#111827" stroke="white" stroke-width="0.1"/>
</svg>
