<svg width="40" height="40" viewBox="0 0 40 40" fill="none" xmlns="http://www.w3.org/2000/svg">
<path fill-rule="evenodd" clip-rule="evenodd" d="M18.2549 0.0747407C1.60511 1.50919 -6.02926 21.7933 5.55957 33.8055C15.9773 44.604 33.9938 40.6179 38.875 26.4347C39.324 25.13 40.0107 21.9351 39.8677 21.8159C39.8615 21.8108 39.6051 21.7826 39.2979 21.7534L38.7394 21.7002L38.6876 22.1143C38.304 25.1835 37.295 27.9319 35.6388 30.419C34.9823 31.4047 33.847 32.8018 33.7024 32.8018C33.6486 32.8018 33.0649 32.2614 32.4053 31.6008L31.2061 30.3996L31.6911 29.8234C36.4407 24.1814 36.4407 15.7973 31.6911 10.1553L31.2061 9.57912L32.4053 8.37794C33.0649 7.71732 33.6486 7.17685 33.7024 7.17685C33.847 7.17685 34.9823 8.57396 35.6388 9.55966C37.295 12.0469 38.304 14.7952 38.6876 17.8644L38.7394 18.2785L39.2979 18.2253C39.6051 18.1961 39.8615 18.1679 39.8677 18.1628C39.9203 18.1189 39.6075 16.2265 39.4141 15.419C37.0906 5.72005 28.1325 -0.776197 18.2549 0.0747407ZM21.7818 1.24083C25.5507 1.61154 29.0955 3.09591 32.0244 5.52982C32.4434 5.87794 32.7861 6.20685 32.7861 6.2606C32.7861 6.31443 32.2457 6.8981 31.585 7.55763L30.3839 8.75693L29.8077 8.27146C24.1673 3.51951 15.78 3.51951 10.1396 8.27146L9.56339 8.75693L8.36066 7.55669C6.97933 6.17841 7.01035 6.29177 7.8255 5.59826C11.6157 2.37372 16.8105 0.751772 21.7818 1.24083ZM18.2549 2.91904V3.50498H18.8018H19.3486V2.91904V2.3331H18.8018H18.2549V2.91904ZM20.5986 2.91904V3.50498H21.1455H21.6924V2.91904V2.3331H21.1455H20.5986V2.91904ZM21.7939 5.96552C26.4479 6.5756 30.5075 9.47224 32.6578 13.7172C32.9947 14.3824 32.8814 14.7314 32.2123 15.0892L31.8877 15.2628L22.4932 15.2839L13.0986 15.3049V15.8915V16.4779L22.4932 16.4557C32.8957 16.4309 32.1971 16.466 33.049 15.9256C33.2581 15.7929 33.4408 15.6961 33.455 15.7103C33.6049 15.8602 34.1896 19.0025 34.0868 19.1054C34.0705 19.1216 33.7217 19.0478 33.3115 18.9412C31.6666 18.5138 30.1546 18.5111 28.824 18.9331C24.088 20.4352 23.9738 26.992 28.6299 30.0716C28.9822 30.3046 29.2703 30.5308 29.2702 30.5744C29.2693 30.8144 26.4554 32.7237 26.1026 32.7237C26.0539 32.7237 25.9692 32.5216 25.9143 32.2745C25.36 29.7812 23.2797 27.4562 21.1096 26.9046C18.1851 26.1612 14.8453 28.6928 14.0253 32.2745C13.9688 32.5216 13.886 32.7237 13.8414 32.7237C13.5281 32.7237 10.6768 30.7997 10.6768 30.5884C10.6768 30.5372 10.9668 30.3039 11.3213 30.0699C16.0113 26.9749 15.8443 20.3861 11.0384 18.9041C9.76566 18.5117 8.23941 18.5245 6.63574 18.9412C6.22558 19.0478 5.87675 19.1216 5.8605 19.1054C5.758 19.0029 6.33753 15.865 6.48644 15.7161C6.50386 15.6987 6.68918 15.7929 6.89824 15.9256C7.59621 16.3683 7.87488 16.4159 9.99316 16.4544L11.9268 16.4895V15.9017V15.3139L9.99316 15.2883C7.95105 15.2614 7.81816 15.2388 7.368 14.8434C6.99222 14.5133 6.97902 14.3336 7.28574 13.7247C10.0168 8.3013 15.8431 5.18544 21.7939 5.96552ZM7.54191 8.37794L8.74121 9.57912L8.25574 10.1553C3.50378 15.7957 3.50378 24.183 8.25574 29.8234L8.74121 30.3996L7.54191 31.6008C6.88238 32.2614 6.29925 32.8018 6.24613 32.8018C6.08793 32.8018 5.09605 31.5873 4.33222 30.4581C0.0837848 24.1779 0.0837848 15.8008 4.33222 9.5206C5.09605 8.39138 6.08793 7.17685 6.24613 7.17685C6.29925 7.17685 6.88238 7.71732 7.54191 8.37794ZM18.8881 18.3943C16.9605 18.9126 15.9785 20.697 16.7539 22.272C17.9402 24.6819 22.1102 24.6326 23.2374 22.1953C24.2759 19.9499 21.6469 17.6523 18.8881 18.3943ZM20.4842 19.4496C22.9288 19.9015 22.9088 22.4327 20.457 22.8773C19.3638 23.0755 18.2039 22.5958 17.7789 21.7698C17.1181 20.485 18.7081 19.1212 20.4842 19.4496ZM38.8018 19.9503V20.5362H39.3877H39.9736V19.9503V19.3643H39.3877H38.8018V19.9503ZM10.1918 19.8779C14.7525 20.8086 14.7396 26.8274 10.1712 29.4411L9.72878 29.6943L9.52972 29.5098C7.63894 27.7575 5.833 23.4302 5.833 20.6519C5.833 20.0581 8.63582 19.5603 10.1918 19.8779ZM32.1669 19.8806C32.5719 19.9497 33.1806 20.0933 33.5195 20.1998L34.1356 20.3935L34.0843 21.0313C33.8372 24.1008 32.5418 27.1693 30.585 29.3208L30.2338 29.7068L29.8498 29.4853C27.598 28.1865 26.3319 26.1936 26.3482 23.9737C26.37 21.0136 28.7976 19.3059 32.1669 19.8806ZM20.5205 27.9622C22.4756 28.2739 24.8955 31.0726 24.8955 33.0218C24.8955 33.8429 20.1238 34.4024 17.4103 33.8995C14.9852 33.4501 14.8564 33.3336 15.3141 32.006C16.2397 29.3209 18.4203 27.6272 20.5205 27.9622ZM10.15 31.7165C15.7822 36.4658 24.1478 36.4578 29.8171 31.6977L30.3839 31.2218L31.585 32.4211C32.2457 33.0806 32.7861 33.6643 32.7861 33.7181C32.7861 33.7719 32.4433 34.1008 32.0244 34.4489C25.0457 40.2483 14.9889 40.273 7.98824 34.5081C6.96425 33.6648 6.93277 33.8527 8.33269 32.4506C8.99785 31.7844 9.55152 31.2393 9.56316 31.2393C9.5748 31.2393 9.83886 31.454 10.15 31.7165Z" fill="#111827"/>
</svg>
