<svg width="40" height="41" viewBox="0 0 40 41" fill="none" xmlns="http://www.w3.org/2000/svg">
<path fill-rule="evenodd" clip-rule="evenodd" d="M29.5188 0.0705929C29.2971 0.198499 25.6989 5.07466 25.6332 5.33619C25.5805 5.54621 25.748 6.01791 25.913 6.12437C25.9712 6.16194 26.4063 6.21024 26.8799 6.23177L27.7409 6.27091L27.7611 11.0654L27.7812 15.8599L26.1955 15.8604C24.0943 15.861 23.671 16.0062 23.3542 16.8358C23.1699 17.3184 23.2132 19.0151 23.4179 19.3273C23.5507 19.53 23.5507 19.548 23.4179 19.7507C23.2119 20.065 23.1699 21.7598 23.3561 22.2471C23.4784 22.5675 23.4791 22.6224 23.3643 22.9593C23.2795 23.2082 23.2399 23.6061 23.2399 24.2105V25.0967H22.692H22.144V18.7562V12.4157H22.8525C23.9575 12.4157 24.4452 11.974 24.0897 11.2951C23.9409 11.0109 20.8053 6.68124 20.5502 6.40789C20.2732 6.11091 19.7991 6.05807 19.5131 6.2922C19.3465 6.42856 15.9852 10.9774 15.8162 11.2951C15.4511 11.9814 15.9483 12.4157 17.0988 12.4157H17.8388V18.7562V25.0967L16.4885 25.0972C14.3116 25.0979 13.7703 25.4523 13.7688 26.8776C13.7685 27.1035 13.7457 27.2885 13.718 27.2885C13.6904 27.2885 13.435 27.2217 13.1505 27.1399C12.8661 27.0583 12.5364 26.9695 12.418 26.9428L12.2027 26.8942V22.9426V18.9911L12.8877 18.9909C13.9824 18.9907 14.5329 18.5413 14.2161 17.9063C14.0616 17.5966 10.7611 13.0293 10.5609 12.848C9.9557 12.3003 9.68439 12.5843 6.2811 17.3278C5.46772 18.4614 5.78224 18.9911 7.26873 18.9911H7.97574V20.1261C7.97574 21.4131 8.03969 21.5742 8.55069 21.5742C9.06928 21.5742 9.11077 21.4398 9.11077 19.759V18.2736L8.85511 18.0452C8.62098 17.8361 8.5503 17.8169 8.01363 17.8169C7.69143 17.8169 7.42819 17.7904 7.42865 17.7582C7.42975 17.6852 10.0058 14.1838 10.0768 14.1589C10.1356 14.1382 12.6198 17.5605 12.6586 17.7156C12.6775 17.7913 12.5443 17.8169 12.1314 17.8169C11.6317 17.8169 11.5546 17.8387 11.3234 18.0452L11.0677 18.2736L11.0456 22.5418L11.0235 26.81L10.6542 26.8556C10.2762 26.9022 9.63719 27.0214 9.33018 27.1026L9.15821 27.1481L9.13449 25.3477C9.10779 23.3204 9.07977 23.2181 8.55069 23.2181C7.98944 23.2181 7.97574 23.2746 7.97574 25.5917V27.6523L7.43922 28.0188C4.18349 30.2434 3.65394 34.9619 6.33276 37.8785C8.57558 40.3204 12.367 40.7267 15.0144 38.809L15.3573 38.5605L24.7977 38.5604C35.3804 38.5603 34.517 38.6088 35.0152 37.9861C35.3156 37.6104 35.4217 35.8628 35.1821 35.2354C35.0694 34.9403 35.0687 34.8794 35.1758 34.6231C35.346 34.2159 35.343 32.4622 35.1717 32.1308C35.0597 31.9143 35.0597 31.8649 35.1717 31.5851C35.3422 31.1589 35.3441 29.4503 35.1746 29.0265C35.0666 28.7569 35.0665 28.7027 35.174 28.4966C35.3429 28.1727 35.3435 26.396 35.1749 25.9746C35.0673 25.7058 35.0673 25.6459 35.1749 25.3885C35.346 24.9791 35.3436 23.2267 35.1717 22.894C35.0597 22.6776 35.0597 22.6281 35.1717 22.3483C35.2605 22.1262 35.2947 21.7697 35.2947 21.0654C35.2947 20.3612 35.2605 20.0046 35.1717 19.7825C35.059 19.5008 35.0594 19.4539 35.1775 19.2257C35.4071 18.7816 35.3178 16.9201 35.0473 16.5118C34.7082 16.0001 34.4157 15.9032 33.1225 15.8737L32.0071 15.8484V11.0401V6.23177H32.8183C33.797 6.23177 34.0441 6.08312 34.0401 5.49705C34.038 5.19991 31.0352 0.841552 30.3835 0.18981C30.1934 -0.00024859 29.7481 -0.0616967 29.5188 0.0705929ZM31.1653 3.1747C32.6964 5.30128 32.6317 5.13588 31.932 5.13588C30.7576 5.13588 30.8329 4.7473 30.8329 10.8071V15.8599H29.8544H28.8759V10.7267V5.59349L28.6471 5.36468C28.4345 5.15208 28.3764 5.13588 27.8252 5.13588C27.4949 5.13588 27.2321 5.1023 27.2321 5.0601C27.2321 4.96327 29.8133 1.4558 29.8816 1.45979C29.9097 1.46143 30.4874 2.2331 31.1653 3.1747ZM21.3221 9.37924C22.011 10.3329 22.5863 11.1421 22.6006 11.1774C22.615 11.2127 22.3926 11.2416 22.1063 11.2416C21.5484 11.2416 21.3229 11.3188 21.1086 11.5834C20.9829 11.7386 20.9732 12.219 20.9716 18.4235L20.9699 25.0967H19.9914H19.0129V18.4859C19.0129 13.8994 18.9869 11.8181 18.928 11.6887C18.7886 11.3828 18.4593 11.2416 17.8854 11.2416C17.5925 11.2416 17.3691 11.2076 17.3691 11.1631C17.3691 11.0369 19.8941 7.64053 19.9861 7.64304C20.032 7.64429 20.6333 8.42558 21.3221 9.37924ZM34.1225 17.2349C34.2698 17.6224 34.2179 18.6589 34.0423 18.8345C33.862 19.0148 24.8947 19.0862 24.5655 18.91C24.3829 18.8123 24.3342 17.3019 24.508 17.128C24.579 17.0571 25.7557 17.0341 29.3241 17.0341H34.0462L34.1225 17.2349ZM34.0874 20.2809C34.2582 20.5415 34.2231 21.8531 34.0423 21.9673C33.8566 22.0846 24.6259 22.0679 24.508 21.95C24.3451 21.7871 24.3818 20.27 24.5511 20.1715C24.6399 20.1198 26.3211 20.0909 29.3242 20.0893L33.9604 20.087L34.0874 20.2809ZM34.1178 23.3695C34.2204 23.5612 34.2236 24.6298 34.1225 24.896C34.0467 25.0952 34.0396 25.0967 33.1546 25.0967C32.1052 25.0967 31.8505 25.2114 31.8505 25.6838C31.8505 26.1562 32.1052 26.2709 33.1546 26.2709C34.2092 26.2709 34.1988 26.2607 34.1988 27.2936C34.1988 28.3141 34.5999 28.2279 29.8544 28.2279H25.8231V27.2494V26.2709H27.8086C30.0677 26.2709 30.2067 26.2369 30.2067 25.6838C30.2067 25.1097 30.1403 25.0967 27.198 25.0967C25.2832 25.0967 24.5773 25.0721 24.508 25.0028C24.4078 24.9025 24.3707 23.3658 24.4663 23.2703C24.6175 23.119 34.0356 23.2159 34.1178 23.3695ZM24.6462 26.4223C24.8018 26.713 24.7476 27.8943 24.5707 28.0713C24.3481 28.2938 15.33 28.3195 15.0856 28.0983C14.9116 27.9409 14.8716 26.5296 15.0364 26.3648C15.2218 26.1794 24.546 26.2351 24.6462 26.4223ZM12.8681 28.2628C16.749 29.5727 17.8971 34.3506 15.0246 37.2369C11.5848 40.6933 5.78631 38.3059 5.78631 33.4333C5.78631 29.7381 9.40697 27.0945 12.8681 28.2628ZM10.8434 29.486C10.6659 29.6257 10.6372 29.7073 10.6372 30.0731C10.6372 30.3725 10.6067 30.4979 10.534 30.4979C9.24384 30.4979 8.37472 32.1394 9.09136 33.2224C9.48149 33.8118 9.88533 33.9726 11.0935 34.0192C12.2355 34.0633 12.4376 34.1536 12.4376 34.6197C12.4376 35.111 12.1871 35.1946 10.7155 35.1946C9.39938 35.1946 9.37449 35.1977 9.18552 35.3868C8.68979 35.8824 9.04063 36.3193 9.96494 36.3572L10.6372 36.3848V36.7936C10.6372 37.265 10.8496 37.5429 11.2097 37.5429C11.557 37.5429 11.7331 37.2942 11.7331 36.8041V36.3784L12.091 36.3247C13.2885 36.1451 13.9559 34.7455 13.3282 33.7302C12.9 33.0376 12.4381 32.8473 11.183 32.8467C10.0856 32.8461 9.73918 32.5864 10.0456 31.994C10.2074 31.6811 10.2544 31.6721 11.7258 31.6721C13.1943 31.6721 13.3769 31.6058 13.3769 31.0725C13.3769 30.6731 13.1458 30.5412 12.3903 30.5094L11.7331 30.4819V30.0593C11.7331 29.3855 11.3143 29.1156 10.8434 29.486ZM24.6042 29.4467C24.7811 29.6237 24.7811 30.9807 24.6042 31.1577C24.5024 31.2596 24.2599 31.2807 23.1952 31.2807C21.7411 31.2807 21.5961 31.3328 21.5961 31.8556C21.5961 32.3569 21.7518 32.4126 23.2283 32.439C24.7818 32.4668 24.7272 32.4326 24.7272 33.3752C24.7272 34.4358 25.1078 34.3335 21.1628 34.3335H17.7605V33.4008V32.4679L18.6918 32.4419C19.7598 32.4119 19.9523 32.3224 19.9523 31.8556C19.9523 31.3483 19.7869 31.2807 18.5456 31.2807H17.4521L17.1836 30.6995C17.0359 30.3799 16.8059 29.9596 16.6724 29.7656C16.5389 29.5716 16.4298 29.3929 16.4298 29.3684C16.4298 29.2464 24.4811 29.3237 24.6042 29.4467ZM34.0874 29.5177C34.2582 29.7783 34.2231 31.0899 34.0423 31.2041C33.9723 31.2484 32.2881 31.2788 29.874 31.2795L25.8231 31.2807V30.3022V29.3237H29.8917H33.9604L34.0874 29.5177ZM34.1178 32.6062C34.2204 32.798 34.2236 33.8666 34.1225 34.1327L34.0462 34.3335H29.9346H25.8231V33.3942V32.4549H29.9299C33.9101 32.4549 34.0393 32.4596 34.1178 32.6062ZM24.6462 35.6591C24.8018 35.9498 24.7476 37.1311 24.5707 37.3081C24.4188 37.4599 16.508 37.5709 16.508 37.4212C16.508 37.3973 16.6446 37.1514 16.8115 36.8747C16.9784 36.5979 17.1938 36.1771 17.2903 35.9396L17.4655 35.5077H21.0153C24.4448 35.5077 24.5679 35.5129 24.6462 35.6591ZM34.1225 35.7085C34.1645 35.8189 34.1988 36.1888 34.1988 36.5304C34.1988 37.5509 34.5999 37.4646 29.8544 37.4646H25.8231V36.4862V35.5077H29.9346H34.0462L34.1225 35.7085Z" fill="#111827"/>
</svg>
