<svg width="40" height="40" viewBox="0 0 40 40" fill="none" xmlns="http://www.w3.org/2000/svg">
<path fill-rule="evenodd" clip-rule="evenodd" d="M18.4649 2.30257C13.6141 3.18445 10.3799 7.93896 11.3608 12.7462C12.1088 16.4117 15.1068 19.2475 18.7781 19.7621L19.4595 19.8576L19.4386 21.6948L19.4176 23.5321L18.0526 24.2456C16.7962 24.9025 16.6811 24.9478 16.6045 24.8156C12.3504 17.4696 1.86853 19.1136 0.112995 27.4021C-0.150253 28.645 0.0765177 31.2459 0.483641 31.6539C0.839884 32.0107 1.51699 31.7015 1.43182 31.221C1.41123 31.1049 1.33311 30.6746 1.25828 30.2648C0.464619 25.9201 3.66188 21.7427 8.09444 21.3329C15.1721 20.6786 19.2187 29.2014 14.2625 34.3237C13.544 35.0663 13.4683 35.0937 13.3978 34.6374C13.2643 33.7743 12.6959 33.0778 11.5574 32.3825C10.6799 31.8466 10.6061 31.6143 11.1865 31.2143C14.5445 28.8993 12.918 23.6052 8.84693 23.5991C4.80763 23.5932 3.10274 28.8215 6.3872 31.1424C7.0856 31.6359 7.04724 31.7888 6.0712 32.4013C4.92074 33.1232 4.55354 33.5586 4.30094 34.5001C4.22572 34.7805 4.15503 35.0226 4.14376 35.0381C4.09241 35.1088 3.28043 34.3363 2.88208 33.8377C2.21546 33.0035 2.06478 32.9312 1.65906 33.251C0.789473 33.9363 3.40654 36.419 5.94431 37.316C12.3224 39.5706 18.8879 33.7663 17.4245 27.1668C17.3288 26.7354 17.2346 26.2943 17.2151 26.1864C17.1819 26.0028 17.2704 25.9434 18.6055 25.2536L20.0314 24.5169L21.4651 25.2536C22.543 25.8075 22.8876 26.0195 22.854 26.108C21.7568 28.9968 22.576 32.6871 24.8422 35.0637C30.3094 40.7974 39.9581 36.9423 39.9935 29.0099C40.0292 21.0279 30.3341 17.1183 24.8269 22.8938C24.286 23.4611 23.4489 24.6097 23.4489 24.7847C23.4489 24.9459 23.1012 24.812 21.9225 24.1966L20.67 23.5428L20.649 21.7015L20.6281 19.8602L21.3927 19.7337C28.0931 18.6245 31.112 10.6924 26.8397 5.4217C26.526 5.03464 26.1537 4.96649 25.8755 5.24523C25.6129 5.50837 25.6812 5.7788 26.1901 6.49057C28.4415 9.63974 28.1198 13.682 25.3986 16.4343C24.7415 17.0989 24.6591 17.1254 24.601 16.6914C24.4876 15.8445 23.8974 15.1199 22.7523 14.4217C21.8924 13.8974 21.8049 13.6572 22.3437 13.2999C25.7575 11.0364 24.1366 5.64437 20.0407 5.63833C16.0021 5.63237 14.3021 10.9219 17.6093 13.2041C18.2613 13.6539 18.2347 13.8401 17.449 14.3259C16.1713 15.1162 15.6594 15.7215 15.4608 16.6766C15.3507 17.2058 15.3733 17.2135 14.5535 16.3629C11.9799 13.6924 11.6023 9.8108 13.6212 6.77864C15.782 3.53339 19.9732 2.41362 23.435 4.15668C24.2638 4.57402 24.5419 4.62068 24.7796 4.38249C25.879 3.28092 21.3283 1.78202 18.4649 2.30257ZM20.5615 6.81496C22.9541 7.26625 23.8822 10.2674 22.1506 11.9535C20.9281 13.1441 18.9081 13.1008 17.8188 11.8608C15.9065 9.68398 17.7538 6.28539 20.5615 6.81496ZM20.8657 14.1506C20.8657 14.525 21.0447 14.7067 22.0212 15.3244C23.242 16.0965 23.4515 16.371 23.5094 17.274L23.5463 17.8501L22.9692 18.0901C21.0674 18.8811 18.804 18.8754 16.9982 18.0754L16.5604 17.8813V17.4181C16.5604 16.4728 16.8047 16.1168 17.9478 15.3961C19.067 14.6903 19.1436 14.6174 19.1436 14.2567V13.9621L20.0047 13.9637C20.8572 13.9652 20.8657 13.967 20.8657 14.1506ZM32.2041 21.3644C38.4155 21.9546 41.0777 29.995 36.5422 34.4663C35.8273 35.1711 35.882 35.168 35.7141 34.5148C35.4736 33.5796 35.093 33.1266 33.9381 32.4015C32.9621 31.7888 32.9237 31.6358 33.6221 31.1424C34.98 30.1829 35.6543 28.3364 35.2313 26.7354C34.9888 25.8176 33.8562 25.8042 34.0627 26.7215C34.9182 30.5208 30.0945 32.4801 28.4293 29.0099C27.1786 26.4034 29.909 23.8804 32.6659 25.0952L33.0766 25.2762L33.2921 25.1156C34.1398 24.4838 32.9181 23.5968 31.2037 23.5991C27.0853 23.6048 25.4425 28.8793 28.8305 31.2191C29.4023 31.614 29.326 31.8487 28.4519 32.3825C27.3135 33.0778 26.745 33.7743 26.6115 34.6374C26.541 35.0937 26.4653 35.0663 25.7468 34.3237C21.2791 29.7063 24.0777 21.9526 30.4374 21.3282C31.0685 21.2663 31.1988 21.2689 32.2041 21.3644ZM9.9526 24.9408C11.4946 25.5188 12.2935 27.5134 11.5823 29.0099C10.1743 31.9734 5.8755 31.0281 5.8755 27.755C5.8755 25.5516 7.88395 24.1652 9.9526 24.9408ZM9.67198 32.1078C9.67198 32.4846 9.84732 32.6708 10.7052 33.2052C12.0191 34.0234 12.3334 34.4488 12.3334 35.4088V35.8188L11.7659 36.0549C9.88043 36.839 7.59707 36.8304 5.7962 36.0324L5.35002 35.8347L5.37797 35.2205C5.40121 34.7074 5.44176 34.5519 5.62415 34.2758C5.85217 33.9306 5.95213 33.8519 7.16709 33.062C7.89632 32.5879 7.91119 32.5722 7.93468 32.248L7.95863 31.9174L8.8153 31.9182C9.66799 31.919 9.67198 31.9198 9.67198 32.1078ZM32.0746 32.248C32.0981 32.5722 32.113 32.5879 32.8422 33.062C34.0572 33.8519 34.1571 33.9306 34.3852 34.2758C34.5676 34.5519 34.6081 34.7074 34.6314 35.2205L34.6593 35.8347L34.2131 36.0324C32.4123 36.8304 30.1289 36.839 28.2434 36.0549L27.6759 35.8188V35.4088C27.6759 34.4488 27.9903 34.0234 29.3041 33.2052C30.162 32.6708 30.3373 32.4846 30.3373 32.1078C30.3373 31.9198 30.3413 31.919 31.194 31.9182L32.0507 31.9174L32.0746 32.248Z" fill="black"/>
</svg>
