<svg width="41" height="41" viewBox="0 0 41 41" fill="none" xmlns="http://www.w3.org/2000/svg">
<mask id="path-1-inside-1_954_24687" fill="white">
<path fill-rule="evenodd" clip-rule="evenodd" d="M2.10383 1.10676C1.30203 1.32301 0.618827 1.91191 0.244921 2.70933L0.0390615 3.1484L0.017499 10.8828C0.00351463 15.8846 0.023749 18.7477 0.0748427 18.9866C0.264374 19.8725 0.813123 20.5779 1.62195 20.9751L2.07031 21.1953L5.80078 21.2177C7.85257 21.23 9.53124 21.2639 9.53124 21.2931C9.53124 21.3222 8.44687 22.4371 7.12148 23.7707C4.535 26.3731 4.43578 26.5009 4.27586 27.4343C4.17054 28.0493 4.33164 28.8059 4.68445 29.3526C5.10843 30.0096 15.6851 40.4813 16.1286 40.6831C16.9849 41.0727 17.828 41.0702 18.6677 40.6756C19.0513 40.4953 27.0136 32.6475 27.2322 32.2343C27.5058 31.7168 27.1512 31.1207 26.5697 31.1207C26.2497 31.1207 26.2326 31.1365 22.1672 35.1968C18.1265 39.2325 17.8952 39.4375 17.3828 39.4375C16.8653 39.4375 16.6273 39.221 11.3476 33.946C5.43578 28.0394 5.55437 28.182 5.86312 27.3527C5.90953 27.2279 10.3466 22.7294 16.1166 16.957L26.2883 6.78121H31.5304C37.9543 6.78121 37.5021 6.66324 36.1678 7.99105L35.2734 8.88105L34.8047 8.75769C32.3143 8.10238 30.7811 11.4977 32.9247 12.921C34.813 14.1748 37.2504 12.1993 36.3715 10.1272C36.3111 9.98496 37.9521 8.26558 38.1482 8.26558C38.434 8.26558 38.4375 8.33082 38.4375 13.6903V18.9275L34.6093 22.7586C30.8998 26.4709 30.7812 26.5988 30.7812 26.8868C30.7812 27.3201 31.1183 27.6406 31.5742 27.6406H31.9104L35.8434 23.7148C38.0065 21.5557 39.8266 19.6941 39.8882 19.5781C40.034 19.3028 40.0573 8.13293 39.9126 7.85027C39.8646 7.75644 39.7019 7.55058 39.5512 7.39285L39.2772 7.10605L39.6172 6.70269C40.4573 5.70644 39.4968 4.68472 38.5728 5.5916C38.1706 5.98621 38.1408 5.98988 37.8466 5.68051C37.5058 5.32191 37.25 5.21871 36.7025 5.21871H36.2097L34.2182 3.22136C33.1228 2.12277 32.1316 1.17355 32.0156 1.11199C31.7246 0.957459 2.67633 0.952459 2.10383 1.10676ZM32.6376 3.83285C33.3354 4.5316 33.9062 5.12926 33.9062 5.16097C33.9062 5.19269 32.094 5.21871 29.8789 5.21871C26.5298 5.21871 25.8161 5.23762 25.6406 5.33082C25.5246 5.39254 23.4083 7.46676 20.9377 9.94019C18.4672 12.4137 16.4194 14.4375 16.3869 14.4375C16.3546 14.4375 16.3278 14.2705 16.3273 14.0664C16.3241 12.4938 14.4591 11.4394 12.9844 12.1764C10.8959 13.22 11.5998 16.5468 13.9092 16.5468C14.3474 16.5468 14.3759 16.5085 12.6719 18.2109L11.1251 19.7563L6.79296 19.7336C1.88742 19.7079 2.11687 19.7385 1.73531 19.0596L1.5625 18.7521V11.1702C1.5625 3.28222 1.56047 3.33207 1.89976 2.96269C2.28133 2.54715 1.45922 2.56879 16.954 2.56551L31.369 2.56246L32.6376 3.83285ZM6.91406 5.75558C4.26429 6.44832 4.69351 10.3111 7.42234 10.3298C9.45265 10.3437 10.4989 7.98855 9.14655 6.44832C8.66273 5.8973 7.61523 5.57222 6.91406 5.75558ZM12.6883 6.03308C12.32 6.1934 7.24062 15.1694 7.23218 15.6747C7.22171 16.3049 8.02538 16.6581 8.46116 16.2148C8.75413 15.9167 13.75 6.98558 13.75 6.75988C13.75 6.1591 13.2247 5.79949 12.6883 6.03308ZM7.97476 7.47832C8.61374 8.1173 7.89773 9.09715 7.06812 8.7191C6.83765 8.6141 6.63921 8.28543 6.64335 8.01558C6.65374 7.34277 7.49835 7.00199 7.97476 7.47832ZM34.598 10.33C35.2826 10.684 34.9958 11.7812 34.2187 11.7812C33.9616 11.7812 33.6644 11.6029 33.5488 11.3793C33.1821 10.6701 33.8889 9.96332 34.598 10.33ZM25.8085 13.5928C24.3428 15.0419 24.2385 14.7455 27.2795 17.7721C29.6514 20.1327 29.7949 20.2445 30.2257 20.0661C30.6582 19.8869 32.2656 18.167 32.2656 17.8834C32.2656 16.8668 31.4466 16.7718 30.5429 17.6836C29.9347 18.2972 29.9865 18.2967 29.3922 17.6971C28.796 17.0954 28.7926 17.1632 29.4501 16.5108C30.1804 15.786 30.2604 15.2415 29.6804 14.9416C29.2229 14.705 28.9994 14.7958 28.2618 15.5182L27.7345 16.0346L27.2266 15.5313C26.6069 14.9171 26.6069 14.9735 27.2292 14.3571C27.9144 13.6785 28.0167 13.2568 27.5978 12.8378C27.1636 12.4036 26.898 12.5157 25.8085 13.5928ZM14.3776 13.5403C15.1262 13.9275 14.862 14.9843 14.0167 14.9843C13.2107 14.9843 12.962 13.8557 13.6976 13.5357C14.0175 13.3965 14.1006 13.3971 14.3776 13.5403ZM21.3297 18.1965C20.8605 18.3838 20.6683 18.8411 20.8864 19.2522C21.0654 19.5898 25.4735 23.9486 25.7339 24.0455C26.1278 24.1921 26.3883 24.028 27.4482 22.9658C28.5807 21.8308 28.707 21.5755 28.3565 21.1308C27.9301 20.5899 27.533 20.6885 26.6794 21.5471C26.3378 21.8907 26.0221 22.1718 25.9778 22.1718C25.9335 22.1718 25.0362 21.307 23.9837 20.2499C22.4008 18.6599 21.7304 18.0728 21.5455 18.1143C21.5333 18.117 21.4362 18.154 21.3297 18.1965ZM17.6022 21.8564C17.3332 21.9705 17.1669 22.2868 17.2008 22.62C17.2569 23.1718 20.2758 28.9537 20.5847 29.1011C21.3431 29.4627 21.8577 28.7216 21.4779 27.815L21.3709 27.5596L22.1583 26.7723L22.9456 25.985L23.2665 26.1487C23.9168 26.4804 24.5365 26.1893 24.5285 25.5559C24.5223 25.0689 24.433 25.0096 21.2763 23.3979C18.2557 21.8557 17.9281 21.7182 17.6022 21.8564ZM21.4062 25.259C21.4062 25.3538 20.643 26.1256 20.6008 26.0734C20.5134 25.965 19.7656 24.499 19.7656 24.436C19.7656 24.3943 20.1347 24.5439 20.5859 24.7682C21.0371 24.9926 21.4062 25.2135 21.4062 25.259ZM13.185 26.2148C12.1709 27.2082 11.9944 27.5354 11.9942 28.4218C11.9937 30.4071 14.3583 31.5079 15.7812 30.185C16.298 29.7046 16.8926 29.7241 17.1543 30.23C17.4004 30.7059 17.3237 30.8846 16.5247 31.6978C15.6068 32.6321 15.4768 33.1697 16.0894 33.4976C16.9454 33.9557 18.7923 31.9756 18.783 30.6098C18.7689 28.5539 16.5823 27.6169 14.8658 28.9313C14.2212 29.425 13.5156 29.1525 13.5156 28.4099C13.5156 28.1168 13.5691 28.0389 14.2578 27.3281C15.0608 26.4993 15.1537 26.2807 14.9101 25.7937C14.6122 25.1979 14.0938 25.3244 13.185 26.2148ZM28.5712 28.8134C28.0365 29.2339 28.3722 30.1406 29.0625 30.1406C29.3354 30.1406 29.6597 29.9273 29.7619 29.6807C29.9726 29.1721 29.6204 28.6562 29.0625 28.6562C28.8887 28.6562 28.6904 28.7197 28.5712 28.8134Z"/>
</mask>
<path fill-rule="evenodd" clip-rule="evenodd" d="M2.10383 1.10676C1.30203 1.32301 0.618827 1.91191 0.244921 2.70933L0.0390615 3.1484L0.017499 10.8828C0.00351463 15.8846 0.023749 18.7477 0.0748427 18.9866C0.264374 19.8725 0.813123 20.5779 1.62195 20.9751L2.07031 21.1953L5.80078 21.2177C7.85257 21.23 9.53124 21.2639 9.53124 21.2931C9.53124 21.3222 8.44687 22.4371 7.12148 23.7707C4.535 26.3731 4.43578 26.5009 4.27586 27.4343C4.17054 28.0493 4.33164 28.8059 4.68445 29.3526C5.10843 30.0096 15.6851 40.4813 16.1286 40.6831C16.9849 41.0727 17.828 41.0702 18.6677 40.6756C19.0513 40.4953 27.0136 32.6475 27.2322 32.2343C27.5058 31.7168 27.1512 31.1207 26.5697 31.1207C26.2497 31.1207 26.2326 31.1365 22.1672 35.1968C18.1265 39.2325 17.8952 39.4375 17.3828 39.4375C16.8653 39.4375 16.6273 39.221 11.3476 33.946C5.43578 28.0394 5.55437 28.182 5.86312 27.3527C5.90953 27.2279 10.3466 22.7294 16.1166 16.957L26.2883 6.78121H31.5304C37.9543 6.78121 37.5021 6.66324 36.1678 7.99105L35.2734 8.88105L34.8047 8.75769C32.3143 8.10238 30.7811 11.4977 32.9247 12.921C34.813 14.1748 37.2504 12.1993 36.3715 10.1272C36.3111 9.98496 37.9521 8.26558 38.1482 8.26558C38.434 8.26558 38.4375 8.33082 38.4375 13.6903V18.9275L34.6093 22.7586C30.8998 26.4709 30.7812 26.5988 30.7812 26.8868C30.7812 27.3201 31.1183 27.6406 31.5742 27.6406H31.9104L35.8434 23.7148C38.0065 21.5557 39.8266 19.6941 39.8882 19.5781C40.034 19.3028 40.0573 8.13293 39.9126 7.85027C39.8646 7.75644 39.7019 7.55058 39.5512 7.39285L39.2772 7.10605L39.6172 6.70269C40.4573 5.70644 39.4968 4.68472 38.5728 5.5916C38.1706 5.98621 38.1408 5.98988 37.8466 5.68051C37.5058 5.32191 37.25 5.21871 36.7025 5.21871H36.2097L34.2182 3.22136C33.1228 2.12277 32.1316 1.17355 32.0156 1.11199C31.7246 0.957459 2.67633 0.952459 2.10383 1.10676ZM32.6376 3.83285C33.3354 4.5316 33.9062 5.12926 33.9062 5.16097C33.9062 5.19269 32.094 5.21871 29.8789 5.21871C26.5298 5.21871 25.8161 5.23762 25.6406 5.33082C25.5246 5.39254 23.4083 7.46676 20.9377 9.94019C18.4672 12.4137 16.4194 14.4375 16.3869 14.4375C16.3546 14.4375 16.3278 14.2705 16.3273 14.0664C16.3241 12.4938 14.4591 11.4394 12.9844 12.1764C10.8959 13.22 11.5998 16.5468 13.9092 16.5468C14.3474 16.5468 14.3759 16.5085 12.6719 18.2109L11.1251 19.7563L6.79296 19.7336C1.88742 19.7079 2.11687 19.7385 1.73531 19.0596L1.5625 18.7521V11.1702C1.5625 3.28222 1.56047 3.33207 1.89976 2.96269C2.28133 2.54715 1.45922 2.56879 16.954 2.56551L31.369 2.56246L32.6376 3.83285ZM6.91406 5.75558C4.26429 6.44832 4.69351 10.3111 7.42234 10.3298C9.45265 10.3437 10.4989 7.98855 9.14655 6.44832C8.66273 5.8973 7.61523 5.57222 6.91406 5.75558ZM12.6883 6.03308C12.32 6.1934 7.24062 15.1694 7.23218 15.6747C7.22171 16.3049 8.02538 16.6581 8.46116 16.2148C8.75413 15.9167 13.75 6.98558 13.75 6.75988C13.75 6.1591 13.2247 5.79949 12.6883 6.03308ZM7.97476 7.47832C8.61374 8.1173 7.89773 9.09715 7.06812 8.7191C6.83765 8.6141 6.63921 8.28543 6.64335 8.01558C6.65374 7.34277 7.49835 7.00199 7.97476 7.47832ZM34.598 10.33C35.2826 10.684 34.9958 11.7812 34.2187 11.7812C33.9616 11.7812 33.6644 11.6029 33.5488 11.3793C33.1821 10.6701 33.8889 9.96332 34.598 10.33ZM25.8085 13.5928C24.3428 15.0419 24.2385 14.7455 27.2795 17.7721C29.6514 20.1327 29.7949 20.2445 30.2257 20.0661C30.6582 19.8869 32.2656 18.167 32.2656 17.8834C32.2656 16.8668 31.4466 16.7718 30.5429 17.6836C29.9347 18.2972 29.9865 18.2967 29.3922 17.6971C28.796 17.0954 28.7926 17.1632 29.4501 16.5108C30.1804 15.786 30.2604 15.2415 29.6804 14.9416C29.2229 14.705 28.9994 14.7958 28.2618 15.5182L27.7345 16.0346L27.2266 15.5313C26.6069 14.9171 26.6069 14.9735 27.2292 14.3571C27.9144 13.6785 28.0167 13.2568 27.5978 12.8378C27.1636 12.4036 26.898 12.5157 25.8085 13.5928ZM14.3776 13.5403C15.1262 13.9275 14.862 14.9843 14.0167 14.9843C13.2107 14.9843 12.962 13.8557 13.6976 13.5357C14.0175 13.3965 14.1006 13.3971 14.3776 13.5403ZM21.3297 18.1965C20.8605 18.3838 20.6683 18.8411 20.8864 19.2522C21.0654 19.5898 25.4735 23.9486 25.7339 24.0455C26.1278 24.1921 26.3883 24.028 27.4482 22.9658C28.5807 21.8308 28.707 21.5755 28.3565 21.1308C27.9301 20.5899 27.533 20.6885 26.6794 21.5471C26.3378 21.8907 26.0221 22.1718 25.9778 22.1718C25.9335 22.1718 25.0362 21.307 23.9837 20.2499C22.4008 18.6599 21.7304 18.0728 21.5455 18.1143C21.5333 18.117 21.4362 18.154 21.3297 18.1965ZM17.6022 21.8564C17.3332 21.9705 17.1669 22.2868 17.2008 22.62C17.2569 23.1718 20.2758 28.9537 20.5847 29.1011C21.3431 29.4627 21.8577 28.7216 21.4779 27.815L21.3709 27.5596L22.1583 26.7723L22.9456 25.985L23.2665 26.1487C23.9168 26.4804 24.5365 26.1893 24.5285 25.5559C24.5223 25.0689 24.433 25.0096 21.2763 23.3979C18.2557 21.8557 17.9281 21.7182 17.6022 21.8564ZM21.4062 25.259C21.4062 25.3538 20.643 26.1256 20.6008 26.0734C20.5134 25.965 19.7656 24.499 19.7656 24.436C19.7656 24.3943 20.1347 24.5439 20.5859 24.7682C21.0371 24.9926 21.4062 25.2135 21.4062 25.259ZM13.185 26.2148C12.1709 27.2082 11.9944 27.5354 11.9942 28.4218C11.9937 30.4071 14.3583 31.5079 15.7812 30.185C16.298 29.7046 16.8926 29.7241 17.1543 30.23C17.4004 30.7059 17.3237 30.8846 16.5247 31.6978C15.6068 32.6321 15.4768 33.1697 16.0894 33.4976C16.9454 33.9557 18.7923 31.9756 18.783 30.6098C18.7689 28.5539 16.5823 27.6169 14.8658 28.9313C14.2212 29.425 13.5156 29.1525 13.5156 28.4099C13.5156 28.1168 13.5691 28.0389 14.2578 27.3281C15.0608 26.4993 15.1537 26.2807 14.9101 25.7937C14.6122 25.1979 14.0938 25.3244 13.185 26.2148ZM28.5712 28.8134C28.0365 29.2339 28.3722 30.1406 29.0625 30.1406C29.3354 30.1406 29.6597 29.9273 29.7619 29.6807C29.9726 29.1721 29.6204 28.6562 29.0625 28.6562C28.8887 28.6562 28.6904 28.7197 28.5712 28.8134Z" fill="#111827" stroke="white" stroke-width="0.4" mask="url(#path-1-inside-1_954_24687)"/>
</svg>
