<svg width="41" height="40" viewBox="0 0 41 40" fill="none" xmlns="http://www.w3.org/2000/svg">
<mask id="path-1-inside-1_954_24693" fill="white">
<path fill-rule="evenodd" clip-rule="evenodd" d="M26.7122 0.454385C24.9572 0.642252 22.2414 1.55435 21.9794 2.04382C21.775 2.42574 21.975 2.98276 22.3763 3.14894C22.6527 3.26347 22.6132 3.27419 23.9333 2.72671C30.6708 -0.0671806 38.2132 4.88178 38.4697 12.2648C38.7287 19.7199 31.4275 25.1021 24.3698 22.6589C18.5521 20.6451 15.6023 13.9921 18.0713 8.45337C18.5119 7.46511 18.5385 7.21016 18.2331 6.9048C17.7457 6.41744 17.243 6.59043 16.8441 7.38253C15.4218 10.2068 15.2896 13.9922 16.506 17.0614C16.6301 17.3746 16.7317 17.646 16.7317 17.6646C16.7317 17.683 14.6447 17.7094 12.0938 17.7231L7.4558 17.7482L6.69048 17.9575C1.71898 19.3174 -1.11382 24.4328 0.414553 29.2902C1.36117 32.2985 4.01213 34.746 6.97126 35.3439L7.4558 35.4417L7.51772 37.2388C7.58418 39.1668 7.63154 39.4115 7.97174 39.5875C8.39553 39.8066 8.49956 39.7522 11.7154 37.6302L14.8539 35.5592L20.5482 35.5345L26.2425 35.5097L27.0165 35.2981C31.7919 33.9919 34.6819 29.107 33.4577 24.4103C33.336 23.9436 33.248 23.5533 33.262 23.5432C33.276 23.5329 33.5341 23.3917 33.8355 23.2293C38.371 20.7848 40.8556 15.2841 39.7781 10.073C38.5484 4.12593 32.6917 -0.185615 26.7122 0.454385ZM19.2754 3.96061C18.9139 4.32217 18.94 4.83427 19.335 5.12922C19.9353 5.57736 20.7746 4.93063 20.4886 4.24022C20.2956 3.77431 19.6179 3.61806 19.2754 3.96061ZM27.0644 4.04648C26.3294 4.29008 25.6167 5.01791 25.42 5.72585C25.2618 6.29579 25.3225 11.3891 25.493 11.8378C26.2994 13.9601 29.2048 14.0121 30.185 11.9219L30.3912 11.482L30.4157 8.91967C30.4422 6.13658 30.3994 5.7354 30.0112 5.1203C29.4136 4.17368 28.1119 3.69932 27.0644 4.04648ZM28.4253 5.6572C28.8553 5.99552 28.8648 6.06166 28.8648 8.72679C28.8648 11.668 28.7881 11.9082 27.8472 11.9111C26.9316 11.914 26.8296 11.5924 26.8296 8.70315C26.8296 6.08875 26.8544 5.93258 27.3141 5.65235C27.6585 5.44233 28.1549 5.44452 28.4253 5.6572ZM22.5047 10.275C22.091 10.516 22.0455 11.2787 22.3743 12.4653C22.9097 14.3969 24.5076 15.9523 26.468 16.4498L27.0253 16.5912L27.047 17.657L27.0688 18.7227H25.7712C24.3296 18.7227 24.1044 18.7793 23.937 19.1835C23.8117 19.486 23.8907 19.8296 24.1393 20.0632L24.3371 20.2491L27.6773 20.2731C31.7029 20.3021 31.8394 20.2755 31.8394 19.4651C31.8394 18.8412 31.5338 18.7227 29.9232 18.7227H28.6256L28.6474 17.657L28.6691 16.5912L29.2474 16.4444C31.7306 15.8143 33.5615 13.5201 33.5615 11.0386C33.5615 10.5319 33.2625 10.1904 32.8187 10.1904C32.2718 10.1904 31.9959 10.5392 31.9959 11.2304C31.9959 11.4178 31.9391 11.7623 31.8697 11.9961C30.5296 16.5102 24.2317 15.8921 23.7061 11.1951C23.6071 10.3099 23.105 9.92538 22.5047 10.275ZM18.0564 19.8556C20.9648 23.8587 26.3126 25.7022 31.1202 24.3589C31.8049 24.1675 31.7844 24.1581 31.9477 24.7401C32.8722 28.0349 31.2032 31.6778 28.0429 33.2632C26.5547 34.0098 25.9653 34.0652 19.512 34.0652H14.3245L12.6123 35.185C11.6705 35.8008 10.5226 36.5582 10.0611 36.8679C9.59976 37.1777 9.19138 37.4311 9.15373 37.4311C9.116 37.4311 9.06144 36.7762 9.03256 35.9757C8.96453 34.0922 8.98074 34.1194 7.80806 33.9311C1.19373 32.8696 -0.715623 24.2287 4.8335 20.4694C6.5398 19.3135 7.17807 19.2152 13.0631 19.2023L17.5746 19.1924L18.0564 19.8556ZM6.4713 22.0044C6.04367 22.432 6.20469 23.1015 6.77314 23.2594C7.14716 23.3632 8.69995 23.3643 9.07201 23.261C9.63303 23.1051 9.79968 22.4244 9.37964 22.0044L9.15083 21.7756H7.92547H6.70011L6.4713 22.0044ZM12.2639 22.0044C11.7778 22.4904 12.0423 23.1966 12.7493 23.3007C13.6329 23.4309 16.7879 23.3103 17.0191 23.1374C17.3062 22.9229 17.4111 22.5626 17.2792 22.2441C17.0951 21.7996 16.9586 21.7756 14.6161 21.7756H12.4927L12.2639 22.0044ZM6.66183 25.9237C6.08602 26.156 6.10434 27.0818 6.68946 27.3237C6.8508 27.3904 9.0306 27.4086 15.0274 27.3932L23.147 27.3724L23.3623 27.1572C23.6825 26.8369 23.6662 26.3789 23.3236 26.0729L23.0697 25.846L14.9497 25.8509C10.4836 25.8537 6.75412 25.8864 6.66183 25.9237ZM6.65964 30.0295C6.17698 30.2415 6.08132 30.8632 6.4713 31.2532L6.70011 31.482H10.9295C13.9255 31.482 15.2159 31.456 15.3544 31.3929C15.8071 31.1866 15.8913 30.5016 15.5081 30.1416L15.3102 29.9556L11.109 29.9381C7.66035 29.9237 6.8634 29.94 6.65964 30.0295ZM19.4236 29.992C18.8251 30.2379 18.7795 31.1277 19.3519 31.3885C19.6818 31.5388 26.8417 31.5202 27.1356 31.3683C27.5789 31.139 27.6378 30.5062 27.2498 30.1416L27.0519 29.9556L23.3204 29.9399C21.2681 29.9312 19.5145 29.9547 19.4236 29.992Z"/>
</mask>
<path fill-rule="evenodd" clip-rule="evenodd" d="M26.7122 0.454385C24.9572 0.642252 22.2414 1.55435 21.9794 2.04382C21.775 2.42574 21.975 2.98276 22.3763 3.14894C22.6527 3.26347 22.6132 3.27419 23.9333 2.72671C30.6708 -0.0671806 38.2132 4.88178 38.4697 12.2648C38.7287 19.7199 31.4275 25.1021 24.3698 22.6589C18.5521 20.6451 15.6023 13.9921 18.0713 8.45337C18.5119 7.46511 18.5385 7.21016 18.2331 6.9048C17.7457 6.41744 17.243 6.59043 16.8441 7.38253C15.4218 10.2068 15.2896 13.9922 16.506 17.0614C16.6301 17.3746 16.7317 17.646 16.7317 17.6646C16.7317 17.683 14.6447 17.7094 12.0938 17.7231L7.4558 17.7482L6.69048 17.9575C1.71898 19.3174 -1.11382 24.4328 0.414553 29.2902C1.36117 32.2985 4.01213 34.746 6.97126 35.3439L7.4558 35.4417L7.51772 37.2388C7.58418 39.1668 7.63154 39.4115 7.97174 39.5875C8.39553 39.8066 8.49956 39.7522 11.7154 37.6302L14.8539 35.5592L20.5482 35.5345L26.2425 35.5097L27.0165 35.2981C31.7919 33.9919 34.6819 29.107 33.4577 24.4103C33.336 23.9436 33.248 23.5533 33.262 23.5432C33.276 23.5329 33.5341 23.3917 33.8355 23.2293C38.371 20.7848 40.8556 15.2841 39.7781 10.073C38.5484 4.12593 32.6917 -0.185615 26.7122 0.454385ZM19.2754 3.96061C18.9139 4.32217 18.94 4.83427 19.335 5.12922C19.9353 5.57736 20.7746 4.93063 20.4886 4.24022C20.2956 3.77431 19.6179 3.61806 19.2754 3.96061ZM27.0644 4.04648C26.3294 4.29008 25.6167 5.01791 25.42 5.72585C25.2618 6.29579 25.3225 11.3891 25.493 11.8378C26.2994 13.9601 29.2048 14.0121 30.185 11.9219L30.3912 11.482L30.4157 8.91967C30.4422 6.13658 30.3994 5.7354 30.0112 5.1203C29.4136 4.17368 28.1119 3.69932 27.0644 4.04648ZM28.4253 5.6572C28.8553 5.99552 28.8648 6.06166 28.8648 8.72679C28.8648 11.668 28.7881 11.9082 27.8472 11.9111C26.9316 11.914 26.8296 11.5924 26.8296 8.70315C26.8296 6.08875 26.8544 5.93258 27.3141 5.65235C27.6585 5.44233 28.1549 5.44452 28.4253 5.6572ZM22.5047 10.275C22.091 10.516 22.0455 11.2787 22.3743 12.4653C22.9097 14.3969 24.5076 15.9523 26.468 16.4498L27.0253 16.5912L27.047 17.657L27.0688 18.7227H25.7712C24.3296 18.7227 24.1044 18.7793 23.937 19.1835C23.8117 19.486 23.8907 19.8296 24.1393 20.0632L24.3371 20.2491L27.6773 20.2731C31.7029 20.3021 31.8394 20.2755 31.8394 19.4651C31.8394 18.8412 31.5338 18.7227 29.9232 18.7227H28.6256L28.6474 17.657L28.6691 16.5912L29.2474 16.4444C31.7306 15.8143 33.5615 13.5201 33.5615 11.0386C33.5615 10.5319 33.2625 10.1904 32.8187 10.1904C32.2718 10.1904 31.9959 10.5392 31.9959 11.2304C31.9959 11.4178 31.9391 11.7623 31.8697 11.9961C30.5296 16.5102 24.2317 15.8921 23.7061 11.1951C23.6071 10.3099 23.105 9.92538 22.5047 10.275ZM18.0564 19.8556C20.9648 23.8587 26.3126 25.7022 31.1202 24.3589C31.8049 24.1675 31.7844 24.1581 31.9477 24.7401C32.8722 28.0349 31.2032 31.6778 28.0429 33.2632C26.5547 34.0098 25.9653 34.0652 19.512 34.0652H14.3245L12.6123 35.185C11.6705 35.8008 10.5226 36.5582 10.0611 36.8679C9.59976 37.1777 9.19138 37.4311 9.15373 37.4311C9.116 37.4311 9.06144 36.7762 9.03256 35.9757C8.96453 34.0922 8.98074 34.1194 7.80806 33.9311C1.19373 32.8696 -0.715623 24.2287 4.8335 20.4694C6.5398 19.3135 7.17807 19.2152 13.0631 19.2023L17.5746 19.1924L18.0564 19.8556ZM6.4713 22.0044C6.04367 22.432 6.20469 23.1015 6.77314 23.2594C7.14716 23.3632 8.69995 23.3643 9.07201 23.261C9.63303 23.1051 9.79968 22.4244 9.37964 22.0044L9.15083 21.7756H7.92547H6.70011L6.4713 22.0044ZM12.2639 22.0044C11.7778 22.4904 12.0423 23.1966 12.7493 23.3007C13.6329 23.4309 16.7879 23.3103 17.0191 23.1374C17.3062 22.9229 17.4111 22.5626 17.2792 22.2441C17.0951 21.7996 16.9586 21.7756 14.6161 21.7756H12.4927L12.2639 22.0044ZM6.66183 25.9237C6.08602 26.156 6.10434 27.0818 6.68946 27.3237C6.8508 27.3904 9.0306 27.4086 15.0274 27.3932L23.147 27.3724L23.3623 27.1572C23.6825 26.8369 23.6662 26.3789 23.3236 26.0729L23.0697 25.846L14.9497 25.8509C10.4836 25.8537 6.75412 25.8864 6.66183 25.9237ZM6.65964 30.0295C6.17698 30.2415 6.08132 30.8632 6.4713 31.2532L6.70011 31.482H10.9295C13.9255 31.482 15.2159 31.456 15.3544 31.3929C15.8071 31.1866 15.8913 30.5016 15.5081 30.1416L15.3102 29.9556L11.109 29.9381C7.66035 29.9237 6.8634 29.94 6.65964 30.0295ZM19.4236 29.992C18.8251 30.2379 18.7795 31.1277 19.3519 31.3885C19.6818 31.5388 26.8417 31.5202 27.1356 31.3683C27.5789 31.139 27.6378 30.5062 27.2498 30.1416L27.0519 29.9556L23.3204 29.9399C21.2681 29.9312 19.5145 29.9547 19.4236 29.992Z" fill="#111827" stroke="white" stroke-width="0.4" mask="url(#path-1-inside-1_954_24693)"/>
</svg>
