<svg width="40" height="41" viewBox="0 0 40 41" fill="none" xmlns="http://www.w3.org/2000/svg">
<mask id="path-1-inside-1_954_25948" fill="white">
<path fill-rule="evenodd" clip-rule="evenodd" d="M27.6165 0.0397689C18.881 0.856516 15.2696 12.073 21.9726 17.5687C22.5539 18.0453 22.5469 17.9584 22.0576 18.6049C19.4433 22.0588 20.1946 27.0792 23.7276 29.7645C23.9378 29.9243 23.9861 30.0028 23.926 30.0876C21.3664 33.7011 22.4241 38.0189 26.2451 39.5554C31.7903 41.7852 36.8435 35.1743 33.2411 30.4029C33.063 30.1671 32.9479 29.9485 32.9852 29.9172C33.0224 29.886 33.2851 29.6757 33.5688 29.4499C36.776 26.898 37.3632 22.0642 34.8853 18.6131L34.4385 17.991L34.6584 17.8275C37.8269 15.473 39.2085 10.8377 37.9291 6.85438C36.5498 2.56009 32.1011 -0.379596 27.6165 0.0397689ZM8.89924 1.1116C8.57931 1.20374 8.70185 1.07858 4.87304 5.22501C1.47185 8.90827 1.59146 8.75985 1.58749 9.30271C1.58011 10.3152 2.04566 10.6399 3.57495 10.6887L4.67995 10.7239V21.0749C4.67995 30.0042 4.6959 31.4566 4.79606 31.6503C4.99265 32.0304 5.41185 32.0872 5.76677 31.7819L5.98947 31.5903V20.6639V9.73747L5.76677 9.54589C5.55082 9.36017 5.50455 9.35438 4.23241 9.35438C3.5109 9.35438 2.93257 9.32295 2.94717 9.28462C3.00082 9.14311 9.30416 2.36414 9.36122 2.38668C9.46297 2.42675 15.7117 9.21708 15.7117 9.28755C15.7117 9.3243 15.1208 9.35438 14.3986 9.35438C13.1102 9.35438 13.0818 9.35803 12.8907 9.54922L12.6958 9.74398V20.6639V31.5838L12.8907 31.7786C13.1484 32.0364 13.5131 32.0364 13.7708 31.7786L13.9657 31.5838V21.1527V10.7216L15.0569 10.6888C16.5053 10.6453 16.9803 10.383 17.1039 9.55835C17.2016 8.90692 17.1656 8.86017 13.5657 4.96461C9.71344 0.795881 9.78646 0.856119 8.89924 1.1116ZM30.575 1.60723C37.0679 3.27596 39.3184 11.3661 34.6073 16.1024C29.1521 21.5867 19.8391 17.7317 19.8315 9.98597C19.8273 5.81811 22.8819 2.15215 26.9022 1.50009C27.2296 1.44699 27.551 1.39056 27.6165 1.37461C28.0147 1.27779 29.8567 1.42263 30.575 1.60723ZM24.4781 5.61311C23.6065 6.02549 23.1273 6.8389 23.189 7.80112C23.3803 10.7827 27.7303 10.6742 27.7346 7.68771C27.737 5.93914 26.0546 4.86731 24.4781 5.61311ZM30.7906 5.45565C28.3047 6.27001 28.8586 9.9893 31.4657 9.9893C33.8643 9.9893 34.6345 6.71612 32.4974 5.60438C32.1522 5.42469 31.1511 5.33747 30.7906 5.45565ZM25.9579 6.83557C26.5643 7.23946 26.6351 7.98644 26.109 8.42914C25.1913 9.20128 23.8983 7.91755 24.7196 7.04977C25.1321 6.61398 25.5235 6.54628 25.9579 6.83557ZM31.8633 6.77025C32.5702 7.06557 32.6553 8.09827 32.0079 8.52247C31.7258 8.70731 31.2055 8.70731 30.9234 8.52247C29.913 7.86041 30.7477 6.30406 31.8633 6.77025ZM23.5292 11.4302C22.0804 12.2226 25.2611 14.4622 28.0907 14.6421C30.8519 14.8176 34.7595 12.5751 33.5321 11.5193C33.226 11.256 32.9473 11.3198 32.45 11.7668C30.2132 13.778 26.826 13.8596 24.7196 11.9533C24.0343 11.333 23.8526 11.2532 23.5292 11.4302ZM24.3026 19.0699C26.9703 20.2856 30.2456 20.269 32.7134 19.0273C33.3173 18.7234 33.3199 18.7241 33.7563 19.294C37.2014 23.7927 33.8294 30.2003 28.1376 29.9711C22.8159 29.7566 19.9001 23.4176 23.2084 19.2552C23.6364 18.7168 23.5572 18.7302 24.3026 19.0699ZM24.9521 20.8926C23.9706 21.3495 23.5449 22.5803 24.0356 23.5422C24.7853 25.0118 26.838 25.0135 27.5696 23.5453C28.3971 21.8848 26.6417 20.1058 24.9521 20.8926ZM30.3977 20.8288C29.1142 21.3856 28.7442 22.9552 29.6579 23.9666C30.898 25.3394 33.0939 24.4958 33.0901 22.648C33.0873 21.2792 31.6298 20.2943 30.3977 20.8288ZM26.0599 22.0494C26.3099 22.1445 26.532 22.5553 26.4607 22.7909C26.3007 23.3191 25.7188 23.4957 25.351 23.1278C24.8355 22.6124 25.3764 21.7895 26.0599 22.0494ZM31.6442 22.2556C32.1946 22.8809 31.2584 23.7178 30.6684 23.1278C30.3783 22.8377 30.402 22.4446 30.7261 22.1718C31.0326 21.914 31.3708 21.9449 31.6442 22.2556ZM7.7355 23.4143C7.36812 23.6153 7.37836 23.4453 7.37836 29.3335V34.9172L7.5732 35.1119C7.69598 35.2348 7.85868 35.3068 8.01328 35.3068C8.16789 35.3068 8.33058 35.2348 8.45336 35.1119L8.6482 34.9172L8.64566 29.3381C8.64304 23.443 8.65376 23.616 8.27646 23.4149C8.06392 23.3018 7.94146 23.3016 7.7355 23.4143ZM25.9965 26.2653C25.7602 26.5461 25.7461 26.6564 25.9072 26.9677C26.0747 27.2918 26.0675 27.2909 28.5299 27.2909H30.7796L30.944 27.0818C31.1667 26.7988 31.1547 26.4569 30.9137 26.2159L30.7189 26.0211H28.4604H26.202L25.9965 26.2653ZM10.333 27.4234C10.005 27.5553 9.99741 27.6836 9.99741 33.047V38.1761L10.2294 38.4081C10.5304 38.7092 10.8136 38.7092 11.1146 38.4081L11.3466 38.1761V33.047C11.3466 27.6215 11.3424 27.5564 10.9859 27.4195C10.8369 27.3624 10.4794 27.3645 10.333 27.4234ZM32.1962 31.2196C34.4962 34.2596 32.2994 38.6401 28.4749 38.6401C24.5726 38.6401 22.3309 33.9286 24.8639 31.0509C25.2246 30.6411 25.176 30.6438 26.2582 30.9763C27.773 31.4418 29.3957 31.4182 30.8704 30.9092C31.7991 30.5887 31.7016 30.5658 32.1962 31.2196ZM25.5813 32.0529C24.7815 32.3722 25.0542 33.0444 26.2121 33.608C27.3683 34.1707 28.148 33.85 27.6926 32.9991C27.525 32.686 25.8622 31.9407 25.5813 32.0529ZM30.9425 32.0552C29.5373 32.4413 28.6903 33.476 29.4475 33.8812C29.7619 34.0495 31.3102 33.4713 31.6536 33.0575C32.0292 32.6049 31.5256 31.8949 30.9425 32.0552ZM27.7238 34.7962C26.4697 35.2592 26.0061 37.2909 27.1546 37.2909C27.4273 37.2909 27.7752 36.9792 27.7752 36.735C27.7752 36.5072 27.9797 36.1303 28.1359 36.0704C28.5616 35.907 29.1244 36.1954 29.1244 36.5769C29.1244 37.3996 30.2413 37.5707 30.4402 36.7784C30.7513 35.5388 29.0584 34.3035 27.7238 34.7962Z"/>
</mask>
<path fill-rule="evenodd" clip-rule="evenodd" d="M27.6165 0.0397689C18.881 0.856516 15.2696 12.073 21.9726 17.5687C22.5539 18.0453 22.5469 17.9584 22.0576 18.6049C19.4433 22.0588 20.1946 27.0792 23.7276 29.7645C23.9378 29.9243 23.9861 30.0028 23.926 30.0876C21.3664 33.7011 22.4241 38.0189 26.2451 39.5554C31.7903 41.7852 36.8435 35.1743 33.2411 30.4029C33.063 30.1671 32.9479 29.9485 32.9852 29.9172C33.0224 29.886 33.2851 29.6757 33.5688 29.4499C36.776 26.898 37.3632 22.0642 34.8853 18.6131L34.4385 17.991L34.6584 17.8275C37.8269 15.473 39.2085 10.8377 37.9291 6.85438C36.5498 2.56009 32.1011 -0.379596 27.6165 0.0397689ZM8.89924 1.1116C8.57931 1.20374 8.70185 1.07858 4.87304 5.22501C1.47185 8.90827 1.59146 8.75985 1.58749 9.30271C1.58011 10.3152 2.04566 10.6399 3.57495 10.6887L4.67995 10.7239V21.0749C4.67995 30.0042 4.6959 31.4566 4.79606 31.6503C4.99265 32.0304 5.41185 32.0872 5.76677 31.7819L5.98947 31.5903V20.6639V9.73747L5.76677 9.54589C5.55082 9.36017 5.50455 9.35438 4.23241 9.35438C3.5109 9.35438 2.93257 9.32295 2.94717 9.28462C3.00082 9.14311 9.30416 2.36414 9.36122 2.38668C9.46297 2.42675 15.7117 9.21708 15.7117 9.28755C15.7117 9.3243 15.1208 9.35438 14.3986 9.35438C13.1102 9.35438 13.0818 9.35803 12.8907 9.54922L12.6958 9.74398V20.6639V31.5838L12.8907 31.7786C13.1484 32.0364 13.5131 32.0364 13.7708 31.7786L13.9657 31.5838V21.1527V10.7216L15.0569 10.6888C16.5053 10.6453 16.9803 10.383 17.1039 9.55835C17.2016 8.90692 17.1656 8.86017 13.5657 4.96461C9.71344 0.795881 9.78646 0.856119 8.89924 1.1116ZM30.575 1.60723C37.0679 3.27596 39.3184 11.3661 34.6073 16.1024C29.1521 21.5867 19.8391 17.7317 19.8315 9.98597C19.8273 5.81811 22.8819 2.15215 26.9022 1.50009C27.2296 1.44699 27.551 1.39056 27.6165 1.37461C28.0147 1.27779 29.8567 1.42263 30.575 1.60723ZM24.4781 5.61311C23.6065 6.02549 23.1273 6.8389 23.189 7.80112C23.3803 10.7827 27.7303 10.6742 27.7346 7.68771C27.737 5.93914 26.0546 4.86731 24.4781 5.61311ZM30.7906 5.45565C28.3047 6.27001 28.8586 9.9893 31.4657 9.9893C33.8643 9.9893 34.6345 6.71612 32.4974 5.60438C32.1522 5.42469 31.1511 5.33747 30.7906 5.45565ZM25.9579 6.83557C26.5643 7.23946 26.6351 7.98644 26.109 8.42914C25.1913 9.20128 23.8983 7.91755 24.7196 7.04977C25.1321 6.61398 25.5235 6.54628 25.9579 6.83557ZM31.8633 6.77025C32.5702 7.06557 32.6553 8.09827 32.0079 8.52247C31.7258 8.70731 31.2055 8.70731 30.9234 8.52247C29.913 7.86041 30.7477 6.30406 31.8633 6.77025ZM23.5292 11.4302C22.0804 12.2226 25.2611 14.4622 28.0907 14.6421C30.8519 14.8176 34.7595 12.5751 33.5321 11.5193C33.226 11.256 32.9473 11.3198 32.45 11.7668C30.2132 13.778 26.826 13.8596 24.7196 11.9533C24.0343 11.333 23.8526 11.2532 23.5292 11.4302ZM24.3026 19.0699C26.9703 20.2856 30.2456 20.269 32.7134 19.0273C33.3173 18.7234 33.3199 18.7241 33.7563 19.294C37.2014 23.7927 33.8294 30.2003 28.1376 29.9711C22.8159 29.7566 19.9001 23.4176 23.2084 19.2552C23.6364 18.7168 23.5572 18.7302 24.3026 19.0699ZM24.9521 20.8926C23.9706 21.3495 23.5449 22.5803 24.0356 23.5422C24.7853 25.0118 26.838 25.0135 27.5696 23.5453C28.3971 21.8848 26.6417 20.1058 24.9521 20.8926ZM30.3977 20.8288C29.1142 21.3856 28.7442 22.9552 29.6579 23.9666C30.898 25.3394 33.0939 24.4958 33.0901 22.648C33.0873 21.2792 31.6298 20.2943 30.3977 20.8288ZM26.0599 22.0494C26.3099 22.1445 26.532 22.5553 26.4607 22.7909C26.3007 23.3191 25.7188 23.4957 25.351 23.1278C24.8355 22.6124 25.3764 21.7895 26.0599 22.0494ZM31.6442 22.2556C32.1946 22.8809 31.2584 23.7178 30.6684 23.1278C30.3783 22.8377 30.402 22.4446 30.7261 22.1718C31.0326 21.914 31.3708 21.9449 31.6442 22.2556ZM7.7355 23.4143C7.36812 23.6153 7.37836 23.4453 7.37836 29.3335V34.9172L7.5732 35.1119C7.69598 35.2348 7.85868 35.3068 8.01328 35.3068C8.16789 35.3068 8.33058 35.2348 8.45336 35.1119L8.6482 34.9172L8.64566 29.3381C8.64304 23.443 8.65376 23.616 8.27646 23.4149C8.06392 23.3018 7.94146 23.3016 7.7355 23.4143ZM25.9965 26.2653C25.7602 26.5461 25.7461 26.6564 25.9072 26.9677C26.0747 27.2918 26.0675 27.2909 28.5299 27.2909H30.7796L30.944 27.0818C31.1667 26.7988 31.1547 26.4569 30.9137 26.2159L30.7189 26.0211H28.4604H26.202L25.9965 26.2653ZM10.333 27.4234C10.005 27.5553 9.99741 27.6836 9.99741 33.047V38.1761L10.2294 38.4081C10.5304 38.7092 10.8136 38.7092 11.1146 38.4081L11.3466 38.1761V33.047C11.3466 27.6215 11.3424 27.5564 10.9859 27.4195C10.8369 27.3624 10.4794 27.3645 10.333 27.4234ZM32.1962 31.2196C34.4962 34.2596 32.2994 38.6401 28.4749 38.6401C24.5726 38.6401 22.3309 33.9286 24.8639 31.0509C25.2246 30.6411 25.176 30.6438 26.2582 30.9763C27.773 31.4418 29.3957 31.4182 30.8704 30.9092C31.7991 30.5887 31.7016 30.5658 32.1962 31.2196ZM25.5813 32.0529C24.7815 32.3722 25.0542 33.0444 26.2121 33.608C27.3683 34.1707 28.148 33.85 27.6926 32.9991C27.525 32.686 25.8622 31.9407 25.5813 32.0529ZM30.9425 32.0552C29.5373 32.4413 28.6903 33.476 29.4475 33.8812C29.7619 34.0495 31.3102 33.4713 31.6536 33.0575C32.0292 32.6049 31.5256 31.8949 30.9425 32.0552ZM27.7238 34.7962C26.4697 35.2592 26.0061 37.2909 27.1546 37.2909C27.4273 37.2909 27.7752 36.9792 27.7752 36.735C27.7752 36.5072 27.9797 36.1303 28.1359 36.0704C28.5616 35.907 29.1244 36.1954 29.1244 36.5769C29.1244 37.3996 30.2413 37.5707 30.4402 36.7784C30.7513 35.5388 29.0584 34.3035 27.7238 34.7962Z" fill="#111827" stroke="white" stroke-width="0.2" mask="url(#path-1-inside-1_954_25948)"/>
</svg>
