<svg width="40" height="40" viewBox="0 0 40 40" fill="none" xmlns="http://www.w3.org/2000/svg">
<path fill-rule="evenodd" clip-rule="evenodd" d="M3.01345 1.25236C2.6058 1.45328 2.57958 2.19261 2.9732 2.38765C3.04983 2.42564 4.2279 2.47564 5.59109 2.49875L8.06967 2.54076L10.6912 14.7677C13.6674 28.6488 13.427 27.2827 12.9789 27.7687C10.8545 30.0735 12.4633 33.245 15.8436 33.4161L16.81 33.4651L16.3478 33.6847C14.9939 34.3279 14.2265 36.3091 15.1786 36.7034C15.6795 36.9109 16.007 36.6102 16.1383 35.8222C16.2107 35.3882 16.6991 34.888 17.1292 34.8073C18.3996 34.569 19.2857 35.9924 18.4703 36.9615C18.0437 37.4684 18.185 37.4567 12.4889 37.4567C8.79664 37.4567 7.21941 37.4844 7.07177 37.5517C6.59404 37.7693 6.60824 38.5119 7.09395 38.713C7.25597 38.7802 8.86647 38.8003 12.696 38.7832L18.0705 38.7592L18.5327 38.5397C18.7869 38.4189 19.1418 38.1731 19.3215 37.9935C20.629 36.6861 20.2268 34.4895 18.5327 33.6847L18.0705 33.4651L21.1167 33.4431C22.7922 33.4309 25.5338 33.4309 27.2092 33.4431L30.2554 33.4651L29.7932 33.6847C27.7074 34.6756 27.7074 37.5592 29.7932 38.5367C30.7575 38.9886 31.9985 38.7619 32.7669 37.9935C34.0744 36.6861 33.6722 34.4895 31.9781 33.6847L31.5159 33.4651L33.3226 33.4229C35.2833 33.3769 35.3587 33.3623 35.51 32.9969C35.628 32.7121 35.5071 32.3078 35.2687 32.1897C35.192 32.1517 30.5537 32.1017 24.9613 32.0786C13.6794 32.0319 14.5993 32.0819 14.0013 31.4839C12.861 30.3435 13.4841 28.3187 15.094 27.9329C15.2133 27.9043 19.5431 27.6351 24.7159 27.3348C29.8887 27.0345 34.2722 26.7677 34.4571 26.742C35.2587 26.6305 36.0798 26.0098 36.4333 25.2477C36.6865 24.7019 39.9613 12.561 39.9613 12.1681C39.9613 10.9429 39.2673 10.5671 37.003 10.5665C35.1164 10.5659 34.6995 10.757 35.0008 11.4843C35.1503 11.8453 35.2329 11.863 36.9781 11.9098L38.5747 11.9525L38.596 12.2046C38.6255 12.553 35.306 24.6598 35.1086 24.9243C34.7219 25.4421 35.1568 25.3965 24.9954 25.9843C19.8464 26.2822 15.4066 26.5602 15.1293 26.6021C14.852 26.644 14.6145 26.6694 14.6014 26.6587C14.5884 26.6479 13.3738 21.0147 11.9024 14.1406C9.40462 2.47244 9.2121 1.62732 9.00404 1.41917L8.78118 1.19623L5.98883 1.17917C4.13538 1.16791 3.13496 1.19253 3.01345 1.25236ZM22.9445 3.93799C14.4766 4.99572 11.7999 16.2992 18.8989 21.0226C26.1357 25.8378 35.4847 19.1623 33.2265 10.7921C32.9771 9.86774 32.3873 9.57707 31.9513 10.1636L31.7819 10.3915L31.985 11.2561C33.165 16.2792 29.645 21.0543 24.5831 21.2971C17.8902 21.6181 13.7408 14.1796 17.5374 8.66639C19.8902 5.24992 24.5035 4.19337 28.1542 6.23496C28.7778 6.58362 29.1015 6.61135 29.3584 6.33791C30.4613 5.16379 26.1239 3.54085 22.9445 3.93799ZM31.242 6.67942C30.7825 7.17622 28.8851 9.26555 27.0256 11.3223C25.1661 13.379 23.5982 15.0727 23.5412 15.086C23.4842 15.0992 22.8302 14.3808 22.0876 13.4893C20.2588 11.2934 20.1934 11.2453 19.7014 11.7372C19.2775 12.1612 19.3387 12.2714 21.32 14.6508C23.1382 16.8343 23.2944 16.9757 23.7132 16.8176C23.8726 16.7573 27.806 12.4736 32.3271 7.43648C33.0546 6.62589 33.165 6.29068 32.8184 5.94412C32.435 5.56076 32.1566 5.69068 31.242 6.67942ZM3.01345 18.7331C2.56925 18.9478 2.58488 19.6763 3.03815 19.8828C3.17513 19.9452 3.96286 19.9777 5.33941 19.9777C7.60362 19.9777 7.78269 19.9482 7.94899 19.5466C8.07731 19.2369 7.93647 18.8629 7.64067 18.7282C7.36656 18.6032 3.27303 18.6077 3.01345 18.7331ZM0.324372 24.1113C-0.11983 24.326 -0.1042 25.0545 0.349077 25.2609C0.496136 25.328 1.96429 25.3559 5.33941 25.3559C10.4658 25.3559 10.4592 25.3564 10.6381 24.9248C10.7664 24.615 10.6255 24.241 10.3298 24.1063C10.0485 23.9782 0.590002 23.9828 0.324372 24.1113ZM1.66891 28.1449C1.22471 28.3596 1.24034 29.0881 1.69362 29.2945C1.83496 29.359 2.79101 29.3895 4.66715 29.3895C6.54328 29.3895 7.49933 29.359 7.64067 29.2945C8.1074 29.0819 8.1074 28.3525 7.64067 28.1399C7.36353 28.0136 1.93109 28.0181 1.66891 28.1449ZM31.4175 34.8823C32.2808 35.243 32.4913 36.375 31.8199 37.0465C30.8758 37.9906 29.3287 37.145 29.5771 35.8205C29.7255 35.0294 30.6462 34.56 31.4175 34.8823ZM4.35799 37.5566C3.89387 37.781 3.93454 38.5182 4.42227 38.7203C5.17059 39.0302 5.68832 37.8873 4.9516 37.5517C4.70311 37.4384 4.60076 37.4392 4.35799 37.5566Z" fill="#111827"/>
</svg>
