<svg width="41" height="40" viewBox="0 0 41 40" fill="none" xmlns="http://www.w3.org/2000/svg">
<mask id="path-1-inside-1_954_25536" fill="white">
<path fill-rule="evenodd" clip-rule="evenodd" d="M0.263846 2.3011C-0.0879487 2.65289 -0.0879487 3.15905 0.263846 3.51084L0.513675 3.76067H3.72034C5.48401 3.76067 6.94529 3.79024 6.9676 3.82631C6.98991 3.86238 7.45581 6.17973 8.00299 8.97588C8.55016 11.772 9.01752 14.1271 9.04162 14.2094C9.08281 14.3503 8.85316 14.359 5.05589 14.359H1.02649L0.776666 14.6088C0.424871 14.9606 0.424871 15.4667 0.776666 15.8185L1.02649 16.0684H6.76384C12.9908 16.0684 12.8567 16.0783 13.0743 15.6007C13.4397 14.7985 12.9753 14.3636 11.7505 14.3608C10.9967 14.3592 10.8742 14.339 10.8353 14.2094C10.8105 14.1271 10.2882 11.5021 9.67444 8.37606C8.40076 1.88836 8.53102 2.44922 8.24529 2.22443C8.03179 2.05648 7.91187 2.05127 4.2694 2.05127H0.513675L0.263846 2.3011ZM12.5715 9.13871C12.3756 9.33469 12.3217 9.46512 12.3217 9.74358C12.3217 10.022 12.3756 10.1525 12.5715 10.3484L12.8214 10.5983H25.392C37.3074 10.5983 37.9627 10.6061 37.9619 10.7479C37.9616 10.8302 37.0635 14.4359 35.9663 18.7607L33.9714 26.6239H23.5967H13.222L12.7339 24.1453C12.4655 22.782 12.2436 21.6379 12.241 21.6026C12.2384 21.5673 13.1431 21.5385 14.2514 21.5385H16.2665L16.5163 21.2886C16.8681 20.9368 16.8681 20.4307 16.5163 20.0789L16.2665 19.829H10.485C6.68324 19.829 4.64735 19.8592 4.53923 19.9171C4.17017 20.1146 4.02478 20.6856 4.23837 21.0987C4.45658 21.5207 4.59342 21.5385 7.62324 21.5385H10.4381L10.4832 21.7308C10.5599 22.0584 11.467 26.8425 11.467 26.9195C11.467 26.9595 11.2625 27.1077 11.0124 27.2488C8.63683 28.5895 8.19076 31.8944 10.1148 33.8981C11.0633 34.886 11.9705 35.2137 13.7565 35.2137H14.899L15.1488 34.9638C15.4766 34.6361 15.495 34.1388 15.1926 33.7868C14.989 33.55 14.9711 33.5464 13.7609 33.4971C12.3776 33.4407 11.9503 33.3038 11.3815 32.735C10.2944 31.6479 10.447 29.7377 11.6895 28.8828C12.4543 28.3567 11.9826 28.3761 23.9873 28.3761C35.8124 28.3761 35.1568 28.4005 35.3974 27.951C35.5408 27.6829 40.014 9.96888 40.014 9.6687C40.014 9.47298 39.9387 9.31324 39.7642 9.13871L39.5143 8.88888H26.1678H12.8214L12.5715 9.13871ZM0.263846 24.1814C-0.0879487 24.5332 -0.0879487 25.0394 0.263846 25.3912L0.513675 25.641H4.97128H9.42888L9.67871 25.3912C10.0305 25.0394 10.0305 24.5332 9.67871 24.1814L9.42888 23.9316H4.97128H0.513675L0.263846 24.1814ZM20.312 30.9181C17.1926 32.0323 16.8964 36.1373 19.8309 37.5875C21.799 38.5602 24.0925 37.5397 24.8297 35.3632C24.876 35.2266 25.0506 35.2137 26.8516 35.2137C28.6553 35.2137 28.8265 35.2264 28.8666 35.3632C30.0242 39.3134 35.8687 38.4751 35.8687 34.359C35.8687 30.2428 30.0242 29.4045 28.8666 33.3547C28.8265 33.4915 28.6553 33.5043 26.8516 33.5043C25.0501 33.5043 24.8762 33.4914 24.8312 33.3547C24.1943 31.4213 22.0861 30.2844 20.312 30.9181ZM21.9584 32.6084C22.8411 32.8705 23.3978 33.8637 23.1772 34.7831C22.8462 36.1625 21.1744 36.6688 20.1298 35.706C18.6733 34.3634 20.0448 32.0401 21.9584 32.6084ZM32.8937 32.6069C34.2201 33.0008 34.607 34.7532 33.5772 35.7025C31.8528 37.292 29.4153 34.8883 30.9654 33.1271C31.48 32.5426 32.1072 32.3734 32.8937 32.6069Z"/>
</mask>
<path fill-rule="evenodd" clip-rule="evenodd" d="M0.263846 2.3011C-0.0879487 2.65289 -0.0879487 3.15905 0.263846 3.51084L0.513675 3.76067H3.72034C5.48401 3.76067 6.94529 3.79024 6.9676 3.82631C6.98991 3.86238 7.45581 6.17973 8.00299 8.97588C8.55016 11.772 9.01752 14.1271 9.04162 14.2094C9.08281 14.3503 8.85316 14.359 5.05589 14.359H1.02649L0.776666 14.6088C0.424871 14.9606 0.424871 15.4667 0.776666 15.8185L1.02649 16.0684H6.76384C12.9908 16.0684 12.8567 16.0783 13.0743 15.6007C13.4397 14.7985 12.9753 14.3636 11.7505 14.3608C10.9967 14.3592 10.8742 14.339 10.8353 14.2094C10.8105 14.1271 10.2882 11.5021 9.67444 8.37606C8.40076 1.88836 8.53102 2.44922 8.24529 2.22443C8.03179 2.05648 7.91187 2.05127 4.2694 2.05127H0.513675L0.263846 2.3011ZM12.5715 9.13871C12.3756 9.33469 12.3217 9.46512 12.3217 9.74358C12.3217 10.022 12.3756 10.1525 12.5715 10.3484L12.8214 10.5983H25.392C37.3074 10.5983 37.9627 10.6061 37.9619 10.7479C37.9616 10.8302 37.0635 14.4359 35.9663 18.7607L33.9714 26.6239H23.5967H13.222L12.7339 24.1453C12.4655 22.782 12.2436 21.6379 12.241 21.6026C12.2384 21.5673 13.1431 21.5385 14.2514 21.5385H16.2665L16.5163 21.2886C16.8681 20.9368 16.8681 20.4307 16.5163 20.0789L16.2665 19.829H10.485C6.68324 19.829 4.64735 19.8592 4.53923 19.9171C4.17017 20.1146 4.02478 20.6856 4.23837 21.0987C4.45658 21.5207 4.59342 21.5385 7.62324 21.5385H10.4381L10.4832 21.7308C10.5599 22.0584 11.467 26.8425 11.467 26.9195C11.467 26.9595 11.2625 27.1077 11.0124 27.2488C8.63683 28.5895 8.19076 31.8944 10.1148 33.8981C11.0633 34.886 11.9705 35.2137 13.7565 35.2137H14.899L15.1488 34.9638C15.4766 34.6361 15.495 34.1388 15.1926 33.7868C14.989 33.55 14.9711 33.5464 13.7609 33.4971C12.3776 33.4407 11.9503 33.3038 11.3815 32.735C10.2944 31.6479 10.447 29.7377 11.6895 28.8828C12.4543 28.3567 11.9826 28.3761 23.9873 28.3761C35.8124 28.3761 35.1568 28.4005 35.3974 27.951C35.5408 27.6829 40.014 9.96888 40.014 9.6687C40.014 9.47298 39.9387 9.31324 39.7642 9.13871L39.5143 8.88888H26.1678H12.8214L12.5715 9.13871ZM0.263846 24.1814C-0.0879487 24.5332 -0.0879487 25.0394 0.263846 25.3912L0.513675 25.641H4.97128H9.42888L9.67871 25.3912C10.0305 25.0394 10.0305 24.5332 9.67871 24.1814L9.42888 23.9316H4.97128H0.513675L0.263846 24.1814ZM20.312 30.9181C17.1926 32.0323 16.8964 36.1373 19.8309 37.5875C21.799 38.5602 24.0925 37.5397 24.8297 35.3632C24.876 35.2266 25.0506 35.2137 26.8516 35.2137C28.6553 35.2137 28.8265 35.2264 28.8666 35.3632C30.0242 39.3134 35.8687 38.4751 35.8687 34.359C35.8687 30.2428 30.0242 29.4045 28.8666 33.3547C28.8265 33.4915 28.6553 33.5043 26.8516 33.5043C25.0501 33.5043 24.8762 33.4914 24.8312 33.3547C24.1943 31.4213 22.0861 30.2844 20.312 30.9181ZM21.9584 32.6084C22.8411 32.8705 23.3978 33.8637 23.1772 34.7831C22.8462 36.1625 21.1744 36.6688 20.1298 35.706C18.6733 34.3634 20.0448 32.0401 21.9584 32.6084ZM32.8937 32.6069C34.2201 33.0008 34.607 34.7532 33.5772 35.7025C31.8528 37.292 29.4153 34.8883 30.9654 33.1271C31.48 32.5426 32.1072 32.3734 32.8937 32.6069Z" fill="#111827" stroke="white" stroke-width="0.4" mask="url(#path-1-inside-1_954_25536)"/>
</svg>
