<svg width="41" height="40" viewBox="0 0 41 40" fill="none" xmlns="http://www.w3.org/2000/svg">
<path fill-rule="evenodd" clip-rule="evenodd" d="M27.0752 3.08494C26.5547 3.19088 26.299 3.32705 24.6916 4.35455L23.1601 5.33362L18.5979 6.27557C16.0886 6.79362 12.4008 7.55377 10.4028 7.96471C4.97786 9.08049 5.01419 9.07198 4.66059 9.31752C4.02505 9.75885 3.6852 10.4752 3.6845 11.3752L3.68403 11.8927L2.57059 11.9262C0.974343 11.9742 0.31903 12.3691 0.0884831 13.4221C-0.0858138 14.2178 0.0181706 18.6091 0.220124 18.9827C0.680514 19.8342 1.1345 20.0374 2.57747 20.0374H3.66348L3.70051 20.6149C3.74817 21.3568 4.0359 21.901 4.60919 22.3335L5.01216 22.6374V28.8625C5.01216 35.7651 4.99294 35.4942 5.52622 36.1172C6.32153 37.0464 9.19903 37.2566 10.2421 36.4617C11.1548 35.7663 11.184 35.6342 11.184 32.201V29.3703L11.9593 28.598C13.0859 27.4756 13.2359 27.1264 13.2798 25.5234C13.3088 24.4669 13.3272 24.334 13.4397 24.3667C13.5097 24.3871 14.8676 24.6711 16.4575 24.998C18.0473 25.3248 20.206 25.7703 21.2545 25.9881L23.1609 26.384L24.806 27.4308C27.2357 28.9769 28.0879 29.0644 29.2761 27.8896C29.9849 27.1889 30.0254 27.0307 30.0707 24.7835L30.1082 22.928H34.1866C38.8584 22.928 38.824 22.9319 39.42 22.3359C40.028 21.7279 40.0122 21.8974 40.0122 16.0139C40.0122 9.7994 40.0143 9.81174 38.8849 9.28588L38.4887 9.10143L33.1462 9.10065C27.1162 9.09979 27.3743 9.0762 26.7673 9.68315C26.1603 10.2903 26.1838 10.0317 26.1857 16.0621C26.1874 21.2678 26.1915 21.4135 26.3466 21.7561C26.7007 22.5385 27.2295 22.8616 28.2399 22.9128L28.9286 22.9476L28.904 24.7602C28.8766 26.7757 28.8479 26.8886 28.2614 27.2849C27.5943 27.7357 27.2938 27.6501 25.4683 26.4886L23.9575 25.5274V15.8577V6.18791L25.4737 5.22323C27.3047 4.05838 27.5911 3.98057 28.295 4.45698C28.7847 4.78838 28.8699 5.02698 28.9162 6.19619C28.962 7.35268 29.0118 7.45924 29.5072 7.45924C30.068 7.45924 30.2915 5.89307 29.8975 4.72487C29.5355 3.65159 28.1751 2.86119 27.0752 3.08494ZM22.8247 15.8577C22.8247 20.9495 22.8016 25.1155 22.7735 25.1155C22.5752 25.1155 5.55739 21.5699 5.40567 21.4971C5.29989 21.4462 5.13286 21.2851 5.03458 21.1391L4.85591 20.8736V15.8577V10.8417L5.03458 10.5763C5.13286 10.4303 5.29989 10.2692 5.40567 10.2184C5.57989 10.1346 22.3654 6.62846 22.6879 6.60838C22.8174 6.60034 22.8247 7.08955 22.8247 15.8577ZM38.6119 10.5001L38.8403 10.7285V16.0139V21.2994L38.6119 21.5278L38.3836 21.7561H33.1147C27.9182 21.7561 27.8429 21.7539 27.6418 21.5956C27.2753 21.3074 27.2677 21.181 27.293 15.8042L27.3168 10.7506L27.5463 10.5112L27.7757 10.2717H33.0797H38.3836L38.6119 10.5001ZM33.9184 12.2475C33.7169 12.3479 31.4344 18.7631 31.423 19.2609C31.4125 19.7192 32.0806 19.9942 32.3856 19.6571C32.6106 19.4085 34.7807 12.7895 34.7036 12.5868C34.575 12.2485 34.2222 12.0961 33.9184 12.2475ZM29.2997 12.9899C27.6968 13.8274 28.1752 16.2369 29.967 16.351C30.6157 16.3923 30.9745 16.2667 31.3875 15.8536C32.834 14.4071 31.111 12.0438 29.2997 12.9899ZM3.68403 16.0139V18.9436H2.79723C1.12715 18.9436 1.18403 19.0483 1.18403 15.9736C1.18403 12.9668 1.11676 13.0926 2.727 13.0874L3.68403 13.0842V16.0139ZM30.4383 13.9921C30.783 14.1244 30.8784 14.6955 30.6082 15.0096C30.2215 15.4591 29.4653 15.1621 29.4653 14.5607C29.4653 14.1181 29.9812 13.8167 30.4383 13.9921ZM8.40887 14.1679C7.19083 14.7212 6.84325 16.3347 7.73012 17.3185C8.53622 18.2128 10.6297 18.3232 10.6539 17.4728C10.6667 17.023 10.4546 16.8981 9.58153 16.8417C8.52067 16.7732 8.11387 16.3091 8.48528 15.5909C8.72801 15.1215 8.78145 15.1155 12.7022 15.1155C16.9096 15.1155 17.0434 15.1415 17.0434 15.9583C17.0434 16.76 16.857 16.8305 14.7308 16.8325C13.6193 16.8335 12.831 16.8674 12.6784 16.9206C12.2493 17.0702 12.1397 17.5367 12.4625 17.8399C12.7185 18.0803 16.5647 18.0692 17.0518 17.8267C18.553 17.0792 18.585 14.961 17.1063 14.2241L16.7002 14.0217L12.7117 14.0235C9.01778 14.025 8.69989 14.0357 8.40887 14.1679ZM35.6143 15.6697C34.3976 15.9561 33.8573 17.3969 34.5701 18.454C35.2114 19.4049 36.6613 19.4875 37.397 18.615C38.5316 17.2694 37.3203 15.2681 35.6143 15.6697ZM36.4687 16.9413C36.9183 17.328 36.6212 18.0842 36.0199 18.0842C35.6966 18.0842 35.4028 17.7769 35.4028 17.4387C35.4028 16.8497 36.0248 16.5595 36.4687 16.9413ZM9.07005 23.4739C10.5359 23.7742 11.8222 24.0417 11.9284 24.0683L12.1215 24.1168V25.2125C12.1215 26.7321 12.1045 26.7744 11.0611 27.8499C9.90684 29.0394 10.0122 28.6193 10.0122 32.0347C10.0122 35.8713 10.08 35.7406 8.0863 35.7403C6.89083 35.7403 6.61231 35.6629 6.30676 35.2465C6.05966 34.9097 6.00786 22.928 6.25348 22.928C6.33676 22.928 7.60419 23.1737 9.07005 23.4739Z" fill="#111827"/>
</svg>
