<svg width="40" height="40" viewBox="0 0 40 40" fill="none" xmlns="http://www.w3.org/2000/svg">
<path fill-rule="evenodd" clip-rule="evenodd" d="M18.3202 1.07196C14.8497 1.37008 11.4567 2.67693 8.59091 4.81938C7.17043 5.88128 6.97131 6.1638 7.36546 6.55795C7.64806 6.84054 7.90317 6.7564 8.68634 6.12251C14.7788 1.19169 23.3607 0.761741 29.8376 5.06291C39.4507 11.4468 40.6585 24.9572 32.3296 32.9382C24.8564 40.0995 12.8968 39.4127 6.23649 31.4399C0.769077 24.895 0.717311 15.3627 6.11306 8.69579C6.74695 7.91262 6.83109 7.65751 6.5485 7.37491C6.17864 7.00505 5.90837 7.16978 5.02538 8.30328C-2.39361 17.8264 0.806286 31.7403 11.636 37.0479C22.9323 42.5843 36.3862 35.8126 38.6713 23.4404C40.947 11.1188 30.8287 -0.00249147 18.3202 1.07196ZM18.9144 3.48542C6.22238 4.53671 -0.712821 18.3552 6.11202 28.9945C7.31622 30.8717 8.12279 31.4756 8.41147 30.7162C8.52392 30.4204 8.49904 30.3623 7.9845 29.7183C0.772047 20.6908 5.59317 7.19451 16.855 4.886C29.3998 2.31449 39.5019 15.3435 33.8433 26.7964C29.4328 35.7231 17.9965 38.2196 10.2097 31.9555C9.63655 31.4944 9.57119 31.4681 9.27575 31.5805C7.63216 32.2054 12.6108 35.3301 16.612 36.185C28.451 38.7143 38.9262 27.8424 36.0384 16.023C34.1622 8.34368 26.6514 2.84463 18.9144 3.48542ZM17.4437 6.09607C17.2202 6.34301 17.2542 12.806 17.4801 13.0165C17.6874 13.2097 17.914 13.2088 18.1616 13.014L18.3573 12.8601V10.6002C18.3573 9.35731 18.3824 8.34131 18.413 8.34235C18.4436 8.34346 19.1706 9.366 20.0284 10.6146C21.8687 13.2935 21.9884 13.4056 22.4826 12.9113L22.665 12.7291V9.50035V6.27164L22.4693 6.11775C22.2224 5.92354 22.0678 5.92354 21.8209 6.11775L21.6252 6.27164V8.56864C21.6252 9.83197 21.6002 10.8639 21.5695 10.8619C21.5388 10.8598 20.7615 9.7652 19.8421 8.42954L18.1705 6.00093L17.8701 5.9788C17.6508 5.96268 17.5358 5.99424 17.4437 6.09607ZM25.7843 12.977C23.3928 13.9964 17.3084 16.84 17.0821 17.0441C16.8129 17.2868 12.9328 25.6406 12.8145 26.2323C12.7154 26.7279 13.2641 27.2766 13.7597 27.1774C14.3489 27.0596 22.7051 23.1791 22.9496 22.9099C23.1987 22.6354 27.0743 14.2378 27.1679 13.7694C27.3123 13.0475 26.5897 12.6336 25.7843 12.977ZM25.7508 14.3377C25.4925 15.0175 22.4629 21.5604 22.4064 21.5604C22.3082 21.5604 18.4316 17.6848 18.4316 17.5866C18.4316 17.52 25.574 14.2195 25.7365 14.211C25.7715 14.2092 25.778 14.2661 25.7508 14.3377ZM7.12476 18.3204C5.66031 18.8617 5.49528 20.8004 6.84907 21.5604C7.32239 21.8261 9.22814 21.843 9.70495 21.5858C11.0255 20.8732 11.0048 19.099 9.66781 18.3955C9.32306 18.2141 7.55366 18.1619 7.12476 18.3204ZM30.6113 18.2842C29.0302 18.7946 28.8272 20.8031 30.2776 21.5858C30.7544 21.843 32.6601 21.8261 33.1335 21.5604C34.0806 21.0287 34.3496 19.789 33.7022 18.9392C33.2346 18.3253 31.574 17.9735 30.6113 18.2842ZM19.6008 20.3901C20.6734 21.4621 21.5509 22.3732 21.5509 22.4148C21.5509 22.4967 14.2791 25.8251 14.223 25.769C14.1674 25.7133 17.4949 18.4411 17.5761 18.4411C17.6172 18.4411 18.5283 19.3181 19.6008 20.3901ZM9.37646 19.5494C9.99326 20.1662 9.51148 20.6691 8.30371 20.6691C7.26134 20.6691 7.03459 20.5497 7.03459 20.0007C7.03459 19.4517 7.26134 19.3323 8.30371 19.3323C9.15038 19.3323 9.16159 19.3346 9.37646 19.5494ZM32.7412 19.5101C32.9064 19.6522 32.9479 19.7506 32.9479 20.0007C32.9479 20.5497 32.7212 20.6691 31.6788 20.6691C30.6972 20.6691 30.389 20.5095 30.389 20.0007C30.389 19.3543 32.1364 18.9898 32.7412 19.5101ZM19.5452 29.3494C19.0209 29.5211 18.6431 29.8384 18.3844 30.3242C18.1615 30.7426 18.1802 32.7635 18.4109 33.1949C19.0777 34.442 20.8563 34.4546 21.5509 33.2172C21.8019 32.7702 21.8346 30.7681 21.5982 30.3242C21.1929 29.5633 20.2538 29.1174 19.5452 29.3494ZM20.4426 30.6155C21.0157 31.1886 20.6696 33.0721 19.9913 33.0721C19.4746 33.0721 19.3228 32.7685 19.3228 31.7353C19.3228 30.702 19.4746 30.3984 19.9913 30.3984C20.1511 30.3984 20.2944 30.4674 20.4426 30.6155Z" fill="#111827"/>
</svg>
