<svg width="41" height="40" viewBox="0 0 41 40" fill="none" xmlns="http://www.w3.org/2000/svg">
<mask id="path-1-inside-1_954_25946" fill="white">
<path fill-rule="evenodd" clip-rule="evenodd" d="M16.2786 0.091814C15.0143 0.303533 13.7865 0.69322 12.7846 1.20095C12.3989 1.39635 12.3351 1.40345 10.8556 1.4147C8.83161 1.43017 8.38427 1.65525 8.17349 2.76408L8.08591 3.2251L7.45575 3.4683C7.10911 3.60205 6.72005 3.75525 6.59114 3.80877C6.37724 3.89759 6.32177 3.88431 5.95528 3.65611C5.01325 3.06939 4.56606 3.20861 3.24606 4.49978C1.79622 5.91775 1.56567 6.70306 2.35317 7.54127C2.49825 7.69572 2.50935 7.75049 2.43239 7.93299C2.38317 8.0497 2.21005 8.47033 2.04778 8.86783L1.75263 9.59049L1.43747 9.59174C1.01856 9.59345 0.560205 9.8633 0.266298 10.2812L0.028642 10.6191L0.00301701 12.0962C-0.0328424 14.1673 0.240439 14.7161 1.39013 14.8815C1.76919 14.9361 1.82013 14.9664 1.88614 15.1766C1.92653 15.3054 2.08169 15.7 2.23083 16.0535L2.502 16.6961L2.24833 17.0493C1.63903 17.8978 1.81739 18.5217 3.02474 19.765C4.45661 21.2395 5.27856 21.4943 6.0913 20.7156L6.31239 20.5038L6.92052 20.7792C7.25497 20.9306 7.65583 21.0955 7.81138 21.1456C8.06802 21.2281 8.09848 21.2686 8.14192 21.5856C8.27208 22.5354 8.79458 22.9745 9.84403 23.0161L10.5306 23.0433L10.8869 23.6511C11.3671 24.4702 11.7581 25.3913 11.9647 26.1905L12.1356 26.8519L11.8086 27.186C10.946 28.0672 10.8797 29.4128 11.6468 30.4685C11.7283 30.5808 11.7211 30.642 11.605 30.8201C10.6849 32.2331 11.0936 33.9056 12.5261 34.5893L13.0225 34.8262L13.0504 36.0169C13.0902 37.7123 13.5244 38.4915 14.7552 39.0759L15.263 39.317L18.1283 39.3393C21.3562 39.3644 21.4665 39.3492 22.2588 38.7675C23.1211 38.1345 23.431 37.4045 23.4861 35.8763L23.5257 34.7792L23.8629 34.6398C25.27 34.0578 25.8061 32.226 24.942 30.9525C24.7374 30.651 24.7365 30.6439 24.8743 30.4117C25.2893 29.7127 25.338 29.5571 25.3395 28.9264C25.3413 28.1842 25.1169 27.6137 24.6328 27.1295L24.3337 26.8305L24.5049 26.1842C24.8348 24.9389 25.509 23.6336 26.603 22.1217C27.8227 20.4363 28.5772 19.3259 28.8958 18.7471L29.2474 18.1086L30.0405 18.1074L30.8336 18.1061L31.0435 19.0241C31.6503 21.6787 31.4885 21.4955 33.257 21.5304L34.5681 21.5563L34.7505 21.9405C35.9297 24.4242 39.7187 23.495 39.7142 20.7233C39.7096 17.9345 35.7579 17.0563 34.7124 19.6118L34.5599 19.9847L33.7012 19.9634L32.8426 19.942L32.553 18.692C32.0406 16.4799 32.0946 16.5444 30.7513 16.5439C30.2893 16.5438 29.9115 16.534 29.9115 16.5223C29.9115 16.5106 29.9975 16.162 30.1025 15.7476C30.2077 15.3333 30.3355 14.6221 30.3867 14.1674L30.4797 13.3405H32.6408H34.8019L34.9004 13.6127C35.6452 15.6726 38.7822 15.6542 39.7425 13.5842C41.1534 10.5426 36.4191 8.33963 34.9453 11.352L34.7368 11.778H32.6111H30.4853L30.3865 10.9128C30.3028 10.1795 30.1032 9.15361 29.943 8.63345C29.9046 8.50869 29.9803 8.49674 30.8107 8.49674C32.0365 8.49674 32.0603 8.47408 32.4083 6.97041C32.5472 6.37041 32.7035 5.70377 32.7557 5.48892L32.8506 5.0983L33.6831 5.07619L34.5155 5.054L34.7162 5.45002C36.0051 7.99361 39.7161 7.15267 39.7161 4.31705C39.7161 1.55517 36.0661 0.658454 34.7644 3.10056L34.5117 3.57486H33.2315C31.4791 3.57486 31.6545 3.38822 31.0836 5.86002L30.8355 6.93424L30.0805 6.93408L29.3255 6.93385L29.0915 6.48486C27.8228 4.05033 26.4647 2.92322 25.9648 3.89002C25.7483 4.30869 25.812 4.52728 26.3317 5.14736C26.8415 5.75556 27.4896 6.70885 27.4896 6.85025C27.4896 6.90666 27.0778 6.93424 26.2357 6.93424C24.6302 6.93424 24.2 7.15009 24.3405 7.88509C24.4417 8.41424 24.5831 8.45361 26.5357 8.49674L28.304 8.5358L28.4759 9.13595C28.6785 9.84353 28.8958 11.0564 28.8958 11.4792V11.778H26.3628H23.8297L23.5893 11.9803C23.2686 12.2501 23.2453 12.7751 23.5407 13.0706L23.7325 13.2624L25.5525 13.2628C26.5534 13.263 27.7151 13.2859 28.1341 13.3136L28.8958 13.3641V13.6155C28.8958 14.0249 28.6708 15.2067 28.4611 15.8991L28.2658 16.5436H26.6238C24.7913 16.5436 24.5923 16.5879 24.4046 17.0371C24.069 17.8403 24.4975 18.1061 26.1284 18.1061C26.9633 18.1061 27.4115 18.1345 27.4115 18.1872C27.4115 18.2896 26.6168 19.4791 25.9018 20.4471C24.1836 22.7732 23.2661 24.5242 22.9221 26.1335L22.8678 26.3874H18.2333H13.5989L13.5022 25.9772C13.3483 25.3246 12.9659 24.2899 12.6368 23.6352C12.2962 22.9576 12.294 22.9499 12.4354 22.9499C12.8117 22.9499 13.3857 22.2068 13.4672 21.6139C13.515 21.267 13.5404 21.2318 13.805 21.1467C13.9624 21.096 14.3627 20.9317 14.6945 20.7813L15.2979 20.5081L15.5625 20.7404C16.4082 21.483 17.1615 21.2398 18.5997 19.7599C19.8201 18.5042 20.0043 17.7374 19.2726 16.9586C19.0889 16.763 19.0888 16.7634 19.4649 15.8405C19.6137 15.4753 19.7564 15.1149 19.7819 15.0397C19.8118 14.9519 19.909 14.903 20.0536 14.903C21.1914 14.903 21.5814 14.2797 21.6174 12.4038C21.6576 10.3117 21.3591 9.72338 20.1918 9.59392L19.8081 9.55142L19.637 9.04361C19.5429 8.76431 19.3904 8.38775 19.2981 8.20689C19.0963 7.8115 19.0892 7.69041 19.2597 7.54924C20.0812 6.86947 19.7969 5.90095 18.3625 4.49252C17.0556 3.20939 16.6058 3.06986 15.6645 3.65611C15.298 3.88431 15.2425 3.89759 15.0286 3.80877C14.8997 3.75525 14.5079 3.60166 14.1579 3.46736C13.5073 3.21791 13.1951 2.7576 13.5297 2.5415C14.5741 1.86713 17.4444 1.35322 19.1432 1.53658C20.9629 1.73291 20.9456 1.73283 21.1781 1.54853C21.5377 1.26353 21.5212 0.555017 21.1496 0.32533C20.6947 0.0442358 17.4828 -0.109827 16.2786 0.091814ZM23.5138 1.49252C22.7679 1.92142 23.2009 3.09775 24.0371 2.91408C24.6088 2.78853 24.84 2.06174 24.4368 1.65838C24.1988 1.42041 23.7724 1.34377 23.5138 1.49252ZM11.9427 3.46158C11.9427 4.31994 12.0293 4.40963 13.1806 4.74494C13.4962 4.83681 14.0856 5.0858 14.4904 5.29814C15.4436 5.79822 15.5833 5.79658 16.1311 5.27853L16.56 4.87283L17.355 5.66775L18.1499 6.46267L17.8289 6.79611C17.2147 7.434 17.2082 7.53635 17.7189 8.51838C17.9309 8.92611 18.2148 9.61533 18.3498 10.0499C18.6483 11.0107 18.7202 11.0749 19.4992 11.0749H20.0677V12.2077V13.3405H19.6355C18.7961 13.3405 18.5982 13.5115 18.3376 14.4624C18.2536 14.7692 17.9933 15.4003 17.759 15.8648C17.2401 16.8944 17.2356 17.0977 17.7213 17.5599C17.7442 17.5817 17.8492 17.697 17.9545 17.8161L18.1461 18.0325L17.4092 18.7724C16.551 19.6342 16.6401 19.606 16.1555 19.1703C15.5942 18.6656 15.4968 18.6674 14.4036 19.2035C13.888 19.4563 13.2036 19.7346 12.8826 19.8219C12.0893 20.0377 11.9913 20.1503 11.9427 20.901L11.9036 21.5045H10.8099H9.71614L9.67309 20.8973C9.61966 20.1436 9.52653 20.0367 8.73716 19.8219C8.41622 19.7346 7.72911 19.4545 7.2102 19.1997C6.11247 18.6603 5.94614 18.6603 5.4202 19.1989C5.02044 19.6083 5.0652 19.6236 4.22935 18.7913C3.37942 17.9449 3.40278 18.0342 3.89583 17.5128C4.38185 16.9989 4.38763 16.8627 3.95645 16.0845C3.77505 15.7569 3.48458 15.067 3.31106 14.5514C2.94474 13.4624 2.81317 13.3408 2.0013 13.3406L1.55208 13.3405V12.2077V11.0749H2.10169C2.88942 11.0749 2.97583 10.998 3.27278 10.0334C3.40731 9.59642 3.69044 8.91283 3.90192 8.51431C4.41333 7.55064 4.40591 7.43486 3.79091 6.79611L3.46989 6.46267L4.26481 5.66775L5.05974 4.87283L5.48872 5.27853C6.03559 5.79572 6.16669 5.79666 7.15231 5.29002C7.57411 5.07322 8.16536 4.82431 8.46614 4.73681C9.58653 4.41103 9.67708 4.31564 9.67708 3.46158V2.94986H10.8099H11.9427V3.46158ZM37.6969 3.38025C38.4604 3.88049 38.3001 5.09134 37.4325 5.37767C36.3166 5.74595 35.5 4.26845 36.3794 3.47252C36.7112 3.1722 37.3149 3.12994 37.6969 3.38025ZM8.39755 8.28189C8.14341 8.51158 5.84895 14.3647 5.84895 14.7833C5.84895 15.8351 7.03349 15.7354 7.44333 14.6491L7.67169 14.0436L8.88927 14.0453L10.1068 14.047L10.3411 14.6508C10.757 15.722 11.9427 15.8342 11.9427 14.8024C11.9427 14.5771 9.82247 8.98002 9.53255 8.43994C9.33192 8.06627 8.72903 7.98228 8.39755 8.28189ZM13.4026 8.32525L13.1927 8.54431V11.7844C13.1927 15.331 13.1826 15.2515 13.6568 15.4479C13.9495 15.5692 14.2422 15.5013 14.4885 15.2549L14.6771 15.0663V11.8266V8.58681L14.4748 8.3465C14.1945 8.01338 13.7106 8.00377 13.4026 8.32525ZM9.1888 11.7218C9.32841 12.0773 9.4427 12.3936 9.4427 12.4246C9.4427 12.4557 9.19661 12.4811 8.89583 12.4811C8.26192 12.4811 8.27669 12.5194 8.59552 11.7049C8.89763 10.9331 8.8788 10.9326 9.1888 11.7218ZM37.805 11.5631C38.7991 12.0644 38.5402 13.4803 37.4272 13.6295C36.1631 13.7991 35.7685 11.8346 36.9929 11.4677C37.3393 11.3638 37.4313 11.3746 37.805 11.5631ZM37.7447 19.8426C38.4227 20.316 38.3236 21.3481 37.5623 21.7417C36.6707 22.2028 35.6491 21.1307 36.1172 20.2255C36.4172 19.6455 37.1989 19.4616 37.7447 19.8426ZM23.3515 28.0684C23.6231 28.2088 23.8177 28.5507 23.8177 28.8874C23.8177 29.8417 23.9183 29.8249 18.2318 29.8249C12.8661 29.8249 13.0118 29.8373 12.7643 29.3587C12.5271 28.8999 12.674 28.3487 13.1047 28.0814C13.4054 27.8947 22.9922 27.8825 23.3515 28.0684ZM23.5503 31.7182C24.0502 32.2638 23.8314 33.0646 23.1291 33.2596C22.6971 33.3796 13.6268 33.3601 13.2736 33.2385C12.5345 32.9838 12.44 32.0155 13.1102 31.5638L13.3771 31.384L18.33 31.4052L23.2829 31.4264L23.5503 31.7182ZM21.9293 35.8341C21.8804 37.7538 21.7344 37.8327 18.2318 37.8327C15.1446 37.8327 14.9545 37.7777 14.6124 36.7859C14.5158 36.5057 14.484 34.966 14.5729 34.877C14.6015 34.8483 16.2743 34.8249 18.29 34.8249H21.9551L21.9293 35.8341Z"/>
</mask>
<path fill-rule="evenodd" clip-rule="evenodd" d="M16.2786 0.091814C15.0143 0.303533 13.7865 0.69322 12.7846 1.20095C12.3989 1.39635 12.3351 1.40345 10.8556 1.4147C8.83161 1.43017 8.38427 1.65525 8.17349 2.76408L8.08591 3.2251L7.45575 3.4683C7.10911 3.60205 6.72005 3.75525 6.59114 3.80877C6.37724 3.89759 6.32177 3.88431 5.95528 3.65611C5.01325 3.06939 4.56606 3.20861 3.24606 4.49978C1.79622 5.91775 1.56567 6.70306 2.35317 7.54127C2.49825 7.69572 2.50935 7.75049 2.43239 7.93299C2.38317 8.0497 2.21005 8.47033 2.04778 8.86783L1.75263 9.59049L1.43747 9.59174C1.01856 9.59345 0.560205 9.8633 0.266298 10.2812L0.028642 10.6191L0.00301701 12.0962C-0.0328424 14.1673 0.240439 14.7161 1.39013 14.8815C1.76919 14.9361 1.82013 14.9664 1.88614 15.1766C1.92653 15.3054 2.08169 15.7 2.23083 16.0535L2.502 16.6961L2.24833 17.0493C1.63903 17.8978 1.81739 18.5217 3.02474 19.765C4.45661 21.2395 5.27856 21.4943 6.0913 20.7156L6.31239 20.5038L6.92052 20.7792C7.25497 20.9306 7.65583 21.0955 7.81138 21.1456C8.06802 21.2281 8.09848 21.2686 8.14192 21.5856C8.27208 22.5354 8.79458 22.9745 9.84403 23.0161L10.5306 23.0433L10.8869 23.6511C11.3671 24.4702 11.7581 25.3913 11.9647 26.1905L12.1356 26.8519L11.8086 27.186C10.946 28.0672 10.8797 29.4128 11.6468 30.4685C11.7283 30.5808 11.7211 30.642 11.605 30.8201C10.6849 32.2331 11.0936 33.9056 12.5261 34.5893L13.0225 34.8262L13.0504 36.0169C13.0902 37.7123 13.5244 38.4915 14.7552 39.0759L15.263 39.317L18.1283 39.3393C21.3562 39.3644 21.4665 39.3492 22.2588 38.7675C23.1211 38.1345 23.431 37.4045 23.4861 35.8763L23.5257 34.7792L23.8629 34.6398C25.27 34.0578 25.8061 32.226 24.942 30.9525C24.7374 30.651 24.7365 30.6439 24.8743 30.4117C25.2893 29.7127 25.338 29.5571 25.3395 28.9264C25.3413 28.1842 25.1169 27.6137 24.6328 27.1295L24.3337 26.8305L24.5049 26.1842C24.8348 24.9389 25.509 23.6336 26.603 22.1217C27.8227 20.4363 28.5772 19.3259 28.8958 18.7471L29.2474 18.1086L30.0405 18.1074L30.8336 18.1061L31.0435 19.0241C31.6503 21.6787 31.4885 21.4955 33.257 21.5304L34.5681 21.5563L34.7505 21.9405C35.9297 24.4242 39.7187 23.495 39.7142 20.7233C39.7096 17.9345 35.7579 17.0563 34.7124 19.6118L34.5599 19.9847L33.7012 19.9634L32.8426 19.942L32.553 18.692C32.0406 16.4799 32.0946 16.5444 30.7513 16.5439C30.2893 16.5438 29.9115 16.534 29.9115 16.5223C29.9115 16.5106 29.9975 16.162 30.1025 15.7476C30.2077 15.3333 30.3355 14.6221 30.3867 14.1674L30.4797 13.3405H32.6408H34.8019L34.9004 13.6127C35.6452 15.6726 38.7822 15.6542 39.7425 13.5842C41.1534 10.5426 36.4191 8.33963 34.9453 11.352L34.7368 11.778H32.6111H30.4853L30.3865 10.9128C30.3028 10.1795 30.1032 9.15361 29.943 8.63345C29.9046 8.50869 29.9803 8.49674 30.8107 8.49674C32.0365 8.49674 32.0603 8.47408 32.4083 6.97041C32.5472 6.37041 32.7035 5.70377 32.7557 5.48892L32.8506 5.0983L33.6831 5.07619L34.5155 5.054L34.7162 5.45002C36.0051 7.99361 39.7161 7.15267 39.7161 4.31705C39.7161 1.55517 36.0661 0.658454 34.7644 3.10056L34.5117 3.57486H33.2315C31.4791 3.57486 31.6545 3.38822 31.0836 5.86002L30.8355 6.93424L30.0805 6.93408L29.3255 6.93385L29.0915 6.48486C27.8228 4.05033 26.4647 2.92322 25.9648 3.89002C25.7483 4.30869 25.812 4.52728 26.3317 5.14736C26.8415 5.75556 27.4896 6.70885 27.4896 6.85025C27.4896 6.90666 27.0778 6.93424 26.2357 6.93424C24.6302 6.93424 24.2 7.15009 24.3405 7.88509C24.4417 8.41424 24.5831 8.45361 26.5357 8.49674L28.304 8.5358L28.4759 9.13595C28.6785 9.84353 28.8958 11.0564 28.8958 11.4792V11.778H26.3628H23.8297L23.5893 11.9803C23.2686 12.2501 23.2453 12.7751 23.5407 13.0706L23.7325 13.2624L25.5525 13.2628C26.5534 13.263 27.7151 13.2859 28.1341 13.3136L28.8958 13.3641V13.6155C28.8958 14.0249 28.6708 15.2067 28.4611 15.8991L28.2658 16.5436H26.6238C24.7913 16.5436 24.5923 16.5879 24.4046 17.0371C24.069 17.8403 24.4975 18.1061 26.1284 18.1061C26.9633 18.1061 27.4115 18.1345 27.4115 18.1872C27.4115 18.2896 26.6168 19.4791 25.9018 20.4471C24.1836 22.7732 23.2661 24.5242 22.9221 26.1335L22.8678 26.3874H18.2333H13.5989L13.5022 25.9772C13.3483 25.3246 12.9659 24.2899 12.6368 23.6352C12.2962 22.9576 12.294 22.9499 12.4354 22.9499C12.8117 22.9499 13.3857 22.2068 13.4672 21.6139C13.515 21.267 13.5404 21.2318 13.805 21.1467C13.9624 21.096 14.3627 20.9317 14.6945 20.7813L15.2979 20.5081L15.5625 20.7404C16.4082 21.483 17.1615 21.2398 18.5997 19.7599C19.8201 18.5042 20.0043 17.7374 19.2726 16.9586C19.0889 16.763 19.0888 16.7634 19.4649 15.8405C19.6137 15.4753 19.7564 15.1149 19.7819 15.0397C19.8118 14.9519 19.909 14.903 20.0536 14.903C21.1914 14.903 21.5814 14.2797 21.6174 12.4038C21.6576 10.3117 21.3591 9.72338 20.1918 9.59392L19.8081 9.55142L19.637 9.04361C19.5429 8.76431 19.3904 8.38775 19.2981 8.20689C19.0963 7.8115 19.0892 7.69041 19.2597 7.54924C20.0812 6.86947 19.7969 5.90095 18.3625 4.49252C17.0556 3.20939 16.6058 3.06986 15.6645 3.65611C15.298 3.88431 15.2425 3.89759 15.0286 3.80877C14.8997 3.75525 14.5079 3.60166 14.1579 3.46736C13.5073 3.21791 13.1951 2.7576 13.5297 2.5415C14.5741 1.86713 17.4444 1.35322 19.1432 1.53658C20.9629 1.73291 20.9456 1.73283 21.1781 1.54853C21.5377 1.26353 21.5212 0.555017 21.1496 0.32533C20.6947 0.0442358 17.4828 -0.109827 16.2786 0.091814ZM23.5138 1.49252C22.7679 1.92142 23.2009 3.09775 24.0371 2.91408C24.6088 2.78853 24.84 2.06174 24.4368 1.65838C24.1988 1.42041 23.7724 1.34377 23.5138 1.49252ZM11.9427 3.46158C11.9427 4.31994 12.0293 4.40963 13.1806 4.74494C13.4962 4.83681 14.0856 5.0858 14.4904 5.29814C15.4436 5.79822 15.5833 5.79658 16.1311 5.27853L16.56 4.87283L17.355 5.66775L18.1499 6.46267L17.8289 6.79611C17.2147 7.434 17.2082 7.53635 17.7189 8.51838C17.9309 8.92611 18.2148 9.61533 18.3498 10.0499C18.6483 11.0107 18.7202 11.0749 19.4992 11.0749H20.0677V12.2077V13.3405H19.6355C18.7961 13.3405 18.5982 13.5115 18.3376 14.4624C18.2536 14.7692 17.9933 15.4003 17.759 15.8648C17.2401 16.8944 17.2356 17.0977 17.7213 17.5599C17.7442 17.5817 17.8492 17.697 17.9545 17.8161L18.1461 18.0325L17.4092 18.7724C16.551 19.6342 16.6401 19.606 16.1555 19.1703C15.5942 18.6656 15.4968 18.6674 14.4036 19.2035C13.888 19.4563 13.2036 19.7346 12.8826 19.8219C12.0893 20.0377 11.9913 20.1503 11.9427 20.901L11.9036 21.5045H10.8099H9.71614L9.67309 20.8973C9.61966 20.1436 9.52653 20.0367 8.73716 19.8219C8.41622 19.7346 7.72911 19.4545 7.2102 19.1997C6.11247 18.6603 5.94614 18.6603 5.4202 19.1989C5.02044 19.6083 5.0652 19.6236 4.22935 18.7913C3.37942 17.9449 3.40278 18.0342 3.89583 17.5128C4.38185 16.9989 4.38763 16.8627 3.95645 16.0845C3.77505 15.7569 3.48458 15.067 3.31106 14.5514C2.94474 13.4624 2.81317 13.3408 2.0013 13.3406L1.55208 13.3405V12.2077V11.0749H2.10169C2.88942 11.0749 2.97583 10.998 3.27278 10.0334C3.40731 9.59642 3.69044 8.91283 3.90192 8.51431C4.41333 7.55064 4.40591 7.43486 3.79091 6.79611L3.46989 6.46267L4.26481 5.66775L5.05974 4.87283L5.48872 5.27853C6.03559 5.79572 6.16669 5.79666 7.15231 5.29002C7.57411 5.07322 8.16536 4.82431 8.46614 4.73681C9.58653 4.41103 9.67708 4.31564 9.67708 3.46158V2.94986H10.8099H11.9427V3.46158ZM37.6969 3.38025C38.4604 3.88049 38.3001 5.09134 37.4325 5.37767C36.3166 5.74595 35.5 4.26845 36.3794 3.47252C36.7112 3.1722 37.3149 3.12994 37.6969 3.38025ZM8.39755 8.28189C8.14341 8.51158 5.84895 14.3647 5.84895 14.7833C5.84895 15.8351 7.03349 15.7354 7.44333 14.6491L7.67169 14.0436L8.88927 14.0453L10.1068 14.047L10.3411 14.6508C10.757 15.722 11.9427 15.8342 11.9427 14.8024C11.9427 14.5771 9.82247 8.98002 9.53255 8.43994C9.33192 8.06627 8.72903 7.98228 8.39755 8.28189ZM13.4026 8.32525L13.1927 8.54431V11.7844C13.1927 15.331 13.1826 15.2515 13.6568 15.4479C13.9495 15.5692 14.2422 15.5013 14.4885 15.2549L14.6771 15.0663V11.8266V8.58681L14.4748 8.3465C14.1945 8.01338 13.7106 8.00377 13.4026 8.32525ZM9.1888 11.7218C9.32841 12.0773 9.4427 12.3936 9.4427 12.4246C9.4427 12.4557 9.19661 12.4811 8.89583 12.4811C8.26192 12.4811 8.27669 12.5194 8.59552 11.7049C8.89763 10.9331 8.8788 10.9326 9.1888 11.7218ZM37.805 11.5631C38.7991 12.0644 38.5402 13.4803 37.4272 13.6295C36.1631 13.7991 35.7685 11.8346 36.9929 11.4677C37.3393 11.3638 37.4313 11.3746 37.805 11.5631ZM37.7447 19.8426C38.4227 20.316 38.3236 21.3481 37.5623 21.7417C36.6707 22.2028 35.6491 21.1307 36.1172 20.2255C36.4172 19.6455 37.1989 19.4616 37.7447 19.8426ZM23.3515 28.0684C23.6231 28.2088 23.8177 28.5507 23.8177 28.8874C23.8177 29.8417 23.9183 29.8249 18.2318 29.8249C12.8661 29.8249 13.0118 29.8373 12.7643 29.3587C12.5271 28.8999 12.674 28.3487 13.1047 28.0814C13.4054 27.8947 22.9922 27.8825 23.3515 28.0684ZM23.5503 31.7182C24.0502 32.2638 23.8314 33.0646 23.1291 33.2596C22.6971 33.3796 13.6268 33.3601 13.2736 33.2385C12.5345 32.9838 12.44 32.0155 13.1102 31.5638L13.3771 31.384L18.33 31.4052L23.2829 31.4264L23.5503 31.7182ZM21.9293 35.8341C21.8804 37.7538 21.7344 37.8327 18.2318 37.8327C15.1446 37.8327 14.9545 37.7777 14.6124 36.7859C14.5158 36.5057 14.484 34.966 14.5729 34.877C14.6015 34.8483 16.2743 34.8249 18.29 34.8249H21.9551L21.9293 35.8341Z" fill="#111827" stroke="white" stroke-width="0.4" mask="url(#path-1-inside-1_954_25946)"/>
</svg>
