<svg width="25" height="25" viewBox="0 0 25 25" fill="none" xmlns="http://www.w3.org/2000/svg">
<g opacity="0.6">
<path d="M22.1354 4.18301H16.6666V3.92246C16.6666 2.91729 15.8489 2.09961 14.8438 2.09961H10.1562C9.15108 2.09961 8.3334 2.91729 8.3334 3.92246V4.18301H2.86465C1.28441 4.18301 0 5.46722 0 7.04746V20.0684C0 21.6486 1.28441 22.933 2.86465 22.933H22.1354C23.7156 22.933 25 21.6486 25 20.0684V7.04746C25 5.46722 23.7156 4.18301 22.1354 4.18301ZM14.5844 6.26621H10.4166V4.18301H14.5834L14.5844 6.26621ZM7.8125 9.39121C9.24797 9.39121 10.4166 10.56 10.4166 11.9955C10.4166 13.4308 9.24797 14.5996 7.8125 14.5996C6.37703 14.5996 5.2084 13.4308 5.2084 11.9955C5.2084 10.56 6.37703 9.39121 7.8125 9.39121ZM12.5 19.0268C12.5 19.458 12.15 19.808 11.7188 19.808H3.90625C3.475 19.808 3.125 19.458 3.125 19.0268V18.5059C3.125 16.9256 4.40941 15.6412 5.98965 15.6412H9.63535C11.2156 15.6412 12.5 16.9256 12.5 18.5059V19.0268ZM21.0938 19.808H15.3646C14.9334 19.808 14.5834 19.458 14.5834 19.0268C14.5834 18.5955 14.9334 18.2455 15.3646 18.2455H21.0938C21.525 18.2455 21.875 18.5955 21.875 19.0268C21.875 19.458 21.525 19.808 21.0938 19.808ZM21.0938 15.6412H15.3646C14.9334 15.6412 14.5834 15.2912 14.5834 14.86C14.5834 14.4287 14.9334 14.0787 15.3646 14.0787H21.0938C21.525 14.0787 21.875 14.4287 21.875 14.86C21.875 15.2912 21.525 15.6412 21.0938 15.6412ZM21.0938 11.4746H15.3646C14.9334 11.4746 14.5834 11.1246 14.5834 10.6934C14.5834 10.2621 14.9334 9.91211 15.3646 9.91211H21.0938C21.525 9.91211 21.875 10.2621 21.875 10.6934C21.875 11.1246 21.525 11.4746 21.0938 11.4746Z" fill="#96A3AE"/>
</g>
</svg>
