<svg width="25" height="25" viewBox="0 0 25 25" fill="none" xmlns="http://www.w3.org/2000/svg">
<g opacity="0.6" clip-path="url(#clip0_954_26752)">
<path d="M16.5737 12.6286L25.0018 17.9567V7.07544L16.5737 12.6286Z" fill="#96A3AE"/>
<path d="M0 7.07544V17.9567L8.42813 12.6286L0 7.07544Z" fill="#96A3AE"/>
<path d="M23.437 3.90625H1.56201C0.782324 3.90625 0.163574 4.4875 0.0463867 5.23594L12.4995 13.4406L24.9526 5.23594C24.8354 4.4875 24.2167 3.90625 23.437 3.90625Z" fill="#96A3AE"/>
<path d="M15.1419 13.5711L12.931 15.0274C12.7997 15.1133 12.6513 15.1555 12.5013 15.1555C12.3513 15.1555 12.2028 15.1133 12.0716 15.0274L9.86064 13.5696L0.0512695 19.7743C0.171582 20.5165 0.787207 21.093 1.56377 21.093H23.4388C24.2153 21.093 24.831 20.5165 24.9513 19.7743L15.1419 13.5711Z" fill="#96A3AE"/>
</g>
<defs>
<clipPath id="clip0_954_26752">
<rect width="25" height="25" fill="white"/>
</clipPath>
</defs>
</svg>
