<svg width="15" height="62" viewBox="0 0 15 62" fill="none" xmlns="http://www.w3.org/2000/svg">
<path d="M7.64645 61.3536C7.84171 61.5488 8.15829 61.5488 8.35355 61.3536L11.5355 58.1716C11.7308 57.9763 11.7308 57.6597 11.5355 57.4645C11.3403 57.2692 11.0237 57.2692 10.8284 57.4645L8 60.2929L5.17157 57.4645C4.97631 57.2692 4.65973 57.2692 4.46447 57.4645C4.2692 57.6597 4.2692 57.9763 4.46447 58.1716L7.64645 61.3536ZM7.5 41L7.5 61L8.5 61L8.5 41L7.5 41Z" fill="black"/>
<path d="M5.45455 25.0652C4.96875 25.1135 4.58239 25.3279 4.29545 25.7086C4.00852 26.0893 3.86506 26.568 3.86506 27.1447C3.86506 27.551 3.93466 27.9089 4.07386 28.2186C4.21307 28.5254 4.40625 28.7669 4.65341 28.943C4.89773 29.1163 5.17614 29.2029 5.48864 29.2029C5.71875 29.2029 5.92045 29.1532 6.09375 29.0538C6.26705 28.9544 6.41619 28.8208 6.54119 28.6532C6.66335 28.4828 6.76847 28.2953 6.85653 28.0907C6.9446 27.8833 7.01847 27.6745 7.07812 27.4643L7.34233 26.5439C7.41903 26.2654 7.51705 25.987 7.63636 25.7086C7.75568 25.4302 7.90625 25.176 8.08807 24.9458C8.26705 24.7129 8.48722 24.5268 8.74858 24.3876C9.0071 24.2456 9.31818 24.1745 9.68182 24.1745C10.1477 24.1745 10.5668 24.2953 10.9389 24.5368C11.3111 24.7782 11.6065 25.1248 11.8253 25.5765C12.0412 26.0282 12.1491 26.5694 12.1491 27.2001C12.1491 27.7939 12.0511 28.3095 11.8551 28.747C11.6562 29.1845 11.3821 29.5282 11.0327 29.7782C10.6832 30.0282 10.2784 30.1689 9.81818 30.2001L9.81818 29.3819C10.1619 29.3535 10.4531 29.2399 10.6918 29.041C10.9304 28.8422 11.1122 28.5836 11.2372 28.2654C11.3594 27.9473 11.4205 27.5922 11.4205 27.2001C11.4205 26.7654 11.348 26.3791 11.2031 26.041C11.0554 25.7001 10.8509 25.4331 10.5895 25.2399C10.3253 25.0439 10.0185 24.9458 9.66903 24.9458C9.37358 24.9458 9.12642 25.0225 8.92756 25.176C8.72585 25.3294 8.55682 25.5439 8.42045 25.8194C8.28409 26.0922 8.16335 26.4089 8.05824 26.7697L7.75142 27.8137C7.54687 28.4984 7.2642 29.0297 6.90341 29.4075C6.54261 29.7853 6.08239 29.9743 5.52273 29.9743C5.05398 29.9743 4.64205 29.8493 4.28693 29.5993C3.92898 29.3464 3.65057 29.0055 3.4517 28.5765C3.25 28.1447 3.14915 27.6603 3.14915 27.1234C3.14915 26.5808 3.24858 26.1007 3.44744 25.6831C3.64631 25.2654 3.92045 24.9345 4.26989 24.6902C4.61648 24.443 5.01136 24.3109 5.45454 24.2939L5.45455 25.0652ZM12.1364 19.8578C12.1364 20.443 11.9901 20.9529 11.6974 21.3876C11.4048 21.8194 11.0043 22.1547 10.4957 22.3933C9.98722 22.6319 9.40767 22.7512 8.7571 22.7512C8.10085 22.7512 7.51704 22.6305 7.00568 22.389C6.49432 22.1447 6.09375 21.8066 5.80398 21.3748C5.51136 20.943 5.36506 20.4416 5.36506 19.8706C5.36506 19.4331 5.45028 19.0368 5.62074 18.6816C5.78835 18.3265 6.02557 18.0339 6.33239 17.8038C6.63636 17.5708 6.99148 17.4245 7.39773 17.3649L7.39773 18.1319C7.02841 18.2115 6.71307 18.4032 6.4517 18.7072C6.1875 19.0083 6.0554 19.3919 6.0554 19.8578C6.0554 20.2754 6.16903 20.6447 6.39631 20.9657C6.62074 21.2868 6.93466 21.5382 7.33807 21.72C7.73864 21.899 8.20312 21.9885 8.73153 21.9885C9.26278 21.9885 9.73295 21.9004 10.142 21.7243C10.5483 21.5481 10.8665 21.301 11.0966 20.9828C11.3267 20.6618 11.4418 20.2868 11.4418 19.8578C11.4418 19.568 11.3878 19.3038 11.2798 19.0652C11.169 18.8237 11.0128 18.622 10.8111 18.46C10.6094 18.2953 10.3693 18.1845 10.0909 18.1277L10.0909 17.3606C10.4858 17.4174 10.8381 17.5581 11.1477 17.7825C11.4545 18.0041 11.696 18.2924 11.8722 18.6475C12.0483 18.9998 12.1364 19.4032 12.1364 19.8578ZM12 15.7349L5.45454 15.7349L5.45454 14.9977L6.46023 14.9977L6.46023 14.9423C6.13068 14.8116 5.86506 14.5843 5.66335 14.2605C5.45881 13.9338 5.35653 13.5645 5.35653 13.1525C5.35653 13.09 5.35795 13.0204 5.36079 12.9437C5.36364 12.867 5.36648 12.8031 5.36932 12.752L6.14062 12.752C6.13494 12.786 6.12642 12.8457 6.11506 12.9309C6.10369 13.0162 6.09801 13.1085 6.09801 13.2079C6.09801 13.5488 6.17045 13.8528 6.31534 14.1199C6.45739 14.3841 6.65483 14.5929 6.90767 14.7463C7.16051 14.8997 7.44886 14.9764 7.77273 14.9764L12 14.9764L12 15.7349ZM12.1364 9.11275C12.1364 9.67809 11.9929 10.1781 11.706 10.6127C11.419 11.0446 11.0227 11.3826 10.517 11.627C10.0085 11.8713 9.42187 11.9934 8.7571 11.9934C8.08665 11.9934 7.49716 11.8713 6.98864 11.627C6.47727 11.3826 6.07954 11.0446 5.79545 10.6127C5.50852 10.1781 5.36506 9.67809 5.36506 9.11275C5.36506 8.54741 5.50852 8.04883 5.79545 7.61701C6.08238 7.18519 6.48011 6.84712 6.98864 6.6028C7.49716 6.35565 8.08665 6.23207 8.7571 6.23207C9.42187 6.23207 10.0085 6.35423 10.517 6.59854C11.0227 6.84286 11.419 7.18235 11.706 7.61701C11.9929 8.04883 12.1364 8.54741 12.1364 9.11275ZM11.4418 9.11275C11.4418 8.6582 11.3196 8.27326 11.0753 7.95792C10.831 7.64258 10.5057 7.40394 10.0994 7.24201C9.69318 7.07724 9.24574 6.99485 8.7571 6.99485C8.26846 6.99485 7.8196 7.07724 7.41051 7.24201C7.00142 7.40394 6.67329 7.64258 6.42614 7.95792C6.17898 8.27326 6.0554 8.6582 6.0554 9.11275C6.0554 9.56445 6.17898 9.9494 6.42614 10.2676C6.67329 10.5829 7.00142 10.823 7.41051 10.9877C7.8196 11.1497 8.26846 11.2306 8.7571 11.2306C9.24574 11.2306 9.69318 11.1497 10.0994 10.9877C10.5057 10.823 10.831 10.5829 11.0753 10.2676C11.3196 9.95224 11.4418 9.56729 11.4418 9.11275ZM3.27273 3.80842L12 3.80842L12 4.56694L3.27273 4.56694L3.27273 3.80842ZM3.27273 1.04279L12 1.04279L12 1.80131L3.27273 1.80131L3.27273 1.04279Z" fill="black"/>
</svg>
