<svg width="27" height="25" viewBox="0 0 27 25" fill="none" xmlns="http://www.w3.org/2000/svg">
<path d="M14.3171 19.6995C14.3171 20.1399 14.0626 20.54 13.6644 20.7268C13.5104 20.7996 13.3454 20.8348 13.1815 20.8348C12.922 20.8348 12.6648 20.7456 12.4571 20.5734L6.2505 15.4303H2.94486C2.31796 15.4308 1.80957 14.9222 1.80957 14.2953V9.77212C1.80957 9.14496 2.31796 8.63656 2.94486 8.63656H6.25077L12.4574 3.4935C12.7965 3.21243 13.2667 3.15251 13.6647 3.34061C14.0626 3.52736 14.3174 3.92773 14.3174 4.36788L14.3171 19.6995ZM18.6801 17.9255C18.6524 17.9274 18.6258 17.9285 18.5984 17.9285C18.2985 17.9285 18.0094 17.81 17.7958 17.5961L17.644 17.4437C17.2457 17.0463 17.199 16.4167 17.5343 15.9648C18.3845 14.8184 18.8333 13.4596 18.8333 12.0341C18.8333 10.5009 18.3238 9.06273 17.3597 7.87504C16.9926 7.42362 17.0265 6.76797 17.4379 6.35685L17.5894 6.20503C17.8162 5.97824 18.1201 5.85463 18.449 5.87425C18.7693 5.89037 19.0684 6.04112 19.2715 6.2894C20.6089 7.92583 21.3153 9.91265 21.3153 12.0344C21.3153 14.0104 20.6906 15.8914 19.5083 17.473C19.3108 17.7366 19.0087 17.9021 18.6801 17.9255ZM23.3739 21.434C23.1686 21.6767 22.8717 21.8223 22.5538 21.8357C22.5382 21.8363 22.5223 21.8368 22.5062 21.8368C22.2055 21.8368 21.9169 21.718 21.7033 21.5044L21.5542 21.3553C21.1374 20.9388 21.1092 20.2727 21.4881 19.8218C23.3191 17.6442 24.3278 14.8786 24.3278 12.0341C24.3278 9.07536 23.2479 6.22706 21.2876 4.01399C20.8902 3.56471 20.9104 2.88461 21.3333 2.46005L21.4822 2.31092C21.7031 2.08897 21.99 1.96671 22.3192 1.97719C22.6317 1.98605 22.9273 2.12417 23.135 2.35794C25.5045 5.02567 26.8096 8.46244 26.8096 12.0341C26.8101 15.4706 25.5899 18.809 23.3739 21.434Z" fill="#96A3AE"/>
<rect x="3.09766" y="0.707107" width="29.6701" height="3.38144" rx="1.5" transform="rotate(45 3.09766 0.707107)" fill="#96A3AE" stroke="white"/>
</svg>
