<svg width="25" height="25" viewBox="0 0 25 25" fill="none" xmlns="http://www.w3.org/2000/svg">
<path d="M22.6634 15.6448C22.4393 15.4205 22.1667 15.3082 21.8463 15.3082H16.2692L14.6346 16.9428C14.1698 17.3914 13.625 17.6159 13 17.6159C12.3751 17.6159 11.8301 17.3917 11.3654 16.9428L9.74281 15.3082H4.15383C3.83338 15.3082 3.56096 15.4206 3.33653 15.6448C3.11215 15.8691 3 16.1415 3 16.4622V20.3082C3 20.6288 3.11215 20.9012 3.33653 21.1255C3.56092 21.3498 3.83334 21.4619 4.15383 21.4619H21.8463C22.1667 21.4619 22.4393 21.3498 22.6635 21.1255C22.8879 20.9012 23 20.6288 23 20.3082V16.4622C23 16.1415 22.8879 15.8691 22.6634 15.6448ZM18.1565 19.6952C18.004 19.8475 17.8237 19.9236 17.6153 19.9236C17.407 19.9236 17.2269 19.8475 17.0745 19.6952C16.9223 19.543 16.8463 19.3627 16.8463 19.1545C16.8463 18.9462 16.9223 18.7657 17.0745 18.6137C17.2269 18.4613 17.407 18.385 17.6153 18.385C17.8237 18.385 18.004 18.4613 18.1565 18.6137C18.3086 18.7656 18.3847 18.9462 18.3847 19.1545C18.3847 19.3627 18.3086 19.543 18.1565 19.6952ZM21.2332 19.6952C21.081 19.8475 20.9007 19.9236 20.6923 19.9236C20.484 19.9236 20.3038 19.8475 20.1515 19.6952C19.9994 19.543 19.9233 19.3627 19.9233 19.1545C19.9233 18.9462 19.9994 18.7657 20.1515 18.6137C20.3037 18.4613 20.4839 18.385 20.6923 18.385C20.9006 18.385 21.081 18.4613 21.2332 18.6137C21.3854 18.7656 21.4616 18.9462 21.4616 19.1545C21.4616 19.3627 21.3856 19.543 21.2332 19.6952Z" fill="#96A3AE"/>
<path d="M12.4594 15.8488C12.6037 16.0009 12.784 16.077 13.0002 16.077C13.2166 16.077 13.3967 16.0009 13.5411 15.8488L18.9257 10.4641C19.1741 10.2318 19.2303 9.95125 19.094 9.62272C18.958 9.3103 18.7216 9.15408 18.3849 9.15391H15.3079V3.76926C15.3079 3.56096 15.2316 3.38065 15.0797 3.22843C14.9273 3.07616 14.747 3 14.5388 3H11.4616C11.2534 3 11.0731 3.07616 10.9208 3.22843C10.7686 3.38065 10.6924 3.56092 10.6924 3.76926V9.15395H7.6155C7.2788 9.15395 7.04254 9.31035 6.90631 9.62276C6.77017 9.95117 6.8262 10.2318 7.07466 10.4641L12.4594 15.8488Z" fill="#96A3AE"/>
</svg>
