<svg width="25" height="25" viewBox="0 0 25 25" fill="none" xmlns="http://www.w3.org/2000/svg">
<path d="M12.5075 20.2931C12.5075 20.7336 12.2531 21.1337 11.8548 21.3204C11.7009 21.3932 11.5359 21.4284 11.372 21.4284C11.1124 21.4284 10.8552 21.3392 10.6475 21.167L6.66148 17.864C5.22631 16.6747 3.42094 16.0239 1.55707 16.0239H1.13529C0.508394 16.0245 0 15.5158 0 14.8889V10.3657C0 9.73858 0.508394 9.23019 1.13529 9.23019H1.55734C3.42121 9.23019 5.22658 8.57939 6.66175 7.39014L10.6478 4.08713C10.9869 3.80606 11.4571 3.74614 11.8551 3.93423C12.2531 4.12099 12.5078 4.52136 12.5078 4.9615L12.5075 20.2931ZM16.8705 18.5191C16.8428 18.521 16.8162 18.5221 16.7888 18.5221C16.489 18.5221 16.1998 18.4036 15.9862 18.1897L15.8344 18.0373C15.4362 17.6399 15.3894 17.0103 15.7248 16.5584C16.5749 15.4121 17.0237 14.0532 17.0237 12.6277C17.0237 11.0945 16.5142 9.65636 15.5501 8.46867C15.183 8.01724 15.2169 7.3616 15.6283 6.95047L15.7798 6.79866C16.0066 6.57187 16.3105 6.44826 16.6394 6.46788C16.9597 6.484 17.2588 6.63474 17.462 6.88303C18.7993 8.51946 19.5057 10.5063 19.5057 12.628C19.5057 14.6041 18.881 16.485 17.6987 18.0666C17.5012 18.3302 17.1992 18.4958 16.8705 18.5191ZM21.5643 22.0276C21.359 22.2703 21.0621 22.4159 20.7442 22.4294C20.7286 22.4299 20.7128 22.4304 20.6966 22.4304C20.396 22.4304 20.1074 22.3117 19.8938 22.0981L19.7446 21.9489C19.3279 21.5324 19.2996 20.8663 19.6785 20.4154C21.5095 18.2378 22.5182 15.4723 22.5182 12.6277C22.5182 9.66899 21.4383 6.82069 19.4781 4.60761C19.0806 4.15834 19.1008 3.47824 19.5237 3.05368L19.6726 2.90455C19.8935 2.6826 20.1805 2.56033 20.5096 2.57081C20.8221 2.57968 21.1177 2.7178 21.3254 2.95157C23.6949 5.6193 25 9.05607 25 12.6277C25.0005 16.0642 23.7803 19.4026 21.5643 22.0276Z" fill="#E11EB5"/>
</svg>
