<svg width="51" height="50" viewBox="0 0 51 50" fill="none" xmlns="http://www.w3.org/2000/svg">
<mask id="path-1-inside-1_1007_594" fill="white">
<path fill-rule="evenodd" clip-rule="evenodd" d="M33.3902 0.567966C31.1965 0.8028 27.8018 1.94292 27.4743 2.55476C27.2188 3.03215 27.4688 3.72844 27.9703 3.93617C28.3158 4.07932 28.2665 4.09272 29.9166 3.40838C38.3384 -0.083991 47.7665 6.10221 48.0872 15.331C48.4109 24.6499 39.2844 31.3777 30.4622 28.3236C23.1901 25.8063 19.5028 17.4901 22.5891 10.5667C23.1398 9.33137 23.1731 9.01268 22.7914 8.63098C22.1822 8.02178 21.5537 8.23802 21.0551 9.22814C19.2773 12.7585 19.112 17.4902 20.6325 21.3267C20.7877 21.7183 20.9147 22.0575 20.9147 22.0807C20.9147 22.1038 18.3059 22.1368 15.1172 22.1539L9.31976 22.1852L8.3631 22.4468C2.14872 24.1467 -1.39228 30.541 0.518191 36.6128C1.70146 40.3732 5.01516 43.4325 8.71408 44.1798L9.31976 44.3021L9.39715 46.5485C9.48023 48.9585 9.53942 49.2643 9.96467 49.4843C10.4944 49.7583 10.6245 49.6903 14.6442 47.0377L18.5674 44.449L25.6852 44.4181L32.8031 44.3871L33.7706 44.1226C39.7399 42.4899 43.3523 36.3837 41.8221 30.5129C41.6701 29.9295 41.56 29.4416 41.5775 29.4289C41.595 29.4161 41.9176 29.2396 42.2943 29.0366C47.9637 25.981 51.0695 19.1051 49.7226 12.5913C48.1855 5.1574 40.8646 -0.232034 33.3902 0.567966ZM24.0942 4.95075C23.6424 5.4027 23.675 6.04282 24.1688 6.41151C24.9192 6.97168 25.9682 6.16327 25.6108 5.30026C25.3696 4.71787 24.5224 4.52257 24.0942 4.95075ZM33.8305 5.05808C32.9117 5.36258 32.0209 6.27237 31.775 7.1573C31.5772 7.86973 31.6531 14.2364 31.8662 14.7972C32.8743 17.4501 36.5061 17.5151 37.7312 14.9024L37.989 14.3525L38.0196 11.1496C38.0527 7.67071 37.9993 7.16924 37.514 6.40035C36.767 5.21709 35.1399 4.62413 33.8305 5.05808ZM35.5316 7.07149C36.0692 7.49438 36.081 7.57707 36.081 10.9085C36.081 14.585 35.9851 14.8852 34.809 14.8889C33.6645 14.8924 33.537 14.4905 33.537 10.8789C33.537 7.61092 33.568 7.41572 34.1427 7.06542C34.5732 6.8029 35.1936 6.80564 35.5316 7.07149ZM28.1309 12.8437C27.6137 13.145 27.5568 14.0983 27.9679 15.5816C28.6371 17.9961 30.6345 19.9404 33.085 20.5622L33.7816 20.739L33.8088 22.0712L33.836 23.4034H32.214C30.412 23.4034 30.1305 23.4741 29.9212 23.9794C29.7646 24.3575 29.8634 24.7869 30.1742 25.0789L30.4214 25.3114L34.5967 25.3414C39.6286 25.3776 39.7992 25.3444 39.7992 24.3314C39.7992 23.5514 39.4172 23.4034 37.404 23.4034H35.782L35.8092 22.0712L35.8364 20.739L36.5593 20.5555C39.6632 19.7679 41.9519 16.9001 41.9519 13.7982C41.9519 13.1648 41.5781 12.738 41.0234 12.738C40.3397 12.738 39.9949 13.1739 39.9949 14.038C39.9949 14.2722 39.9239 14.7029 39.8372 14.9952C38.162 20.6377 30.2896 19.8651 29.6327 13.9938C29.5089 12.8873 28.8813 12.4067 28.1309 12.8437ZM22.5704 24.8194C26.2061 29.8233 32.8908 32.1278 38.9002 30.4486C39.7562 30.2094 39.7305 30.1976 39.9346 30.9251C41.0902 35.0436 39.004 39.5972 35.0536 41.579C33.1934 42.5122 32.4566 42.5815 24.39 42.5815H17.9056L15.7654 43.9812C14.5882 44.751 13.1532 45.6977 12.5764 46.0849C11.9997 46.4721 11.4892 46.7889 11.4422 46.7889C11.395 46.7889 11.3268 45.9702 11.2907 44.9696C11.2057 42.6152 11.2259 42.6492 9.76007 42.4139C1.49216 41.0869 -0.894529 30.2859 6.04187 25.5868C8.17475 24.1418 8.97259 24.019 16.3289 24.0028L21.9682 23.9905L22.5704 24.8194ZM8.08913 27.5054C7.55459 28.04 7.75586 28.8769 8.46643 29.0742C8.93394 29.204 10.8749 29.2053 11.34 29.0762C12.0413 28.8814 12.2496 28.0305 11.7246 27.5054L11.4385 27.2194H9.90684H8.37514L8.08913 27.5054ZM15.3298 27.5054C14.7223 28.113 15.0529 28.9958 15.9366 29.1259C17.0412 29.2886 20.9848 29.1378 21.2739 28.9218C21.6328 28.6536 21.7639 28.2032 21.599 27.8051C21.3689 27.2495 21.1982 27.2194 18.2701 27.2194H15.6158L15.3298 27.5054ZM8.32729 32.4046C7.60753 32.695 7.63042 33.8522 8.36183 34.1547C8.56349 34.238 11.2882 34.2607 18.7842 34.2415L28.9337 34.2155L29.2028 33.9464C29.6031 33.546 29.5828 32.9736 29.1545 32.5911L28.8372 32.3075L18.6871 32.3137C13.1045 32.3171 8.44265 32.358 8.32729 32.4046ZM8.32455 37.5368C7.72122 37.8018 7.60165 38.579 8.08913 39.0665L8.37514 39.3525H13.6618C17.4068 39.3525 19.0199 39.32 19.193 39.2411C19.7589 38.9832 19.8641 38.127 19.3851 37.677L19.1378 37.4445L13.8863 37.4226C9.57543 37.4046 8.57925 37.425 8.32455 37.5368ZM24.2794 37.49C23.5314 37.7974 23.4744 38.9096 24.1898 39.2356C24.6022 39.4235 33.5521 39.4003 33.9195 39.2103C34.4737 38.9237 34.5473 38.1327 34.0622 37.677L33.8149 37.4445L29.1505 37.4248C26.5851 37.414 24.3931 37.4433 24.2794 37.49Z"/>
</mask>
<path fill-rule="evenodd" clip-rule="evenodd" d="M33.3902 0.567966C31.1965 0.8028 27.8018 1.94292 27.4743 2.55476C27.2188 3.03215 27.4688 3.72844 27.9703 3.93617C28.3158 4.07932 28.2665 4.09272 29.9166 3.40838C38.3384 -0.083991 47.7665 6.10221 48.0872 15.331C48.4109 24.6499 39.2844 31.3777 30.4622 28.3236C23.1901 25.8063 19.5028 17.4901 22.5891 10.5667C23.1398 9.33137 23.1731 9.01268 22.7914 8.63098C22.1822 8.02178 21.5537 8.23802 21.0551 9.22814C19.2773 12.7585 19.112 17.4902 20.6325 21.3267C20.7877 21.7183 20.9147 22.0575 20.9147 22.0807C20.9147 22.1038 18.3059 22.1368 15.1172 22.1539L9.31976 22.1852L8.3631 22.4468C2.14872 24.1467 -1.39228 30.541 0.518191 36.6128C1.70146 40.3732 5.01516 43.4325 8.71408 44.1798L9.31976 44.3021L9.39715 46.5485C9.48023 48.9585 9.53942 49.2643 9.96467 49.4843C10.4944 49.7583 10.6245 49.6903 14.6442 47.0377L18.5674 44.449L25.6852 44.4181L32.8031 44.3871L33.7706 44.1226C39.7399 42.4899 43.3523 36.3837 41.8221 30.5129C41.6701 29.9295 41.56 29.4416 41.5775 29.4289C41.595 29.4161 41.9176 29.2396 42.2943 29.0366C47.9637 25.981 51.0695 19.1051 49.7226 12.5913C48.1855 5.1574 40.8646 -0.232034 33.3902 0.567966ZM24.0942 4.95075C23.6424 5.4027 23.675 6.04282 24.1688 6.41151C24.9192 6.97168 25.9682 6.16327 25.6108 5.30026C25.3696 4.71787 24.5224 4.52257 24.0942 4.95075ZM33.8305 5.05808C32.9117 5.36258 32.0209 6.27237 31.775 7.1573C31.5772 7.86973 31.6531 14.2364 31.8662 14.7972C32.8743 17.4501 36.5061 17.5151 37.7312 14.9024L37.989 14.3525L38.0196 11.1496C38.0527 7.67071 37.9993 7.16924 37.514 6.40035C36.767 5.21709 35.1399 4.62413 33.8305 5.05808ZM35.5316 7.07149C36.0692 7.49438 36.081 7.57707 36.081 10.9085C36.081 14.585 35.9851 14.8852 34.809 14.8889C33.6645 14.8924 33.537 14.4905 33.537 10.8789C33.537 7.61092 33.568 7.41572 34.1427 7.06542C34.5732 6.8029 35.1936 6.80564 35.5316 7.07149ZM28.1309 12.8437C27.6137 13.145 27.5568 14.0983 27.9679 15.5816C28.6371 17.9961 30.6345 19.9404 33.085 20.5622L33.7816 20.739L33.8088 22.0712L33.836 23.4034H32.214C30.412 23.4034 30.1305 23.4741 29.9212 23.9794C29.7646 24.3575 29.8634 24.7869 30.1742 25.0789L30.4214 25.3114L34.5967 25.3414C39.6286 25.3776 39.7992 25.3444 39.7992 24.3314C39.7992 23.5514 39.4172 23.4034 37.404 23.4034H35.782L35.8092 22.0712L35.8364 20.739L36.5593 20.5555C39.6632 19.7679 41.9519 16.9001 41.9519 13.7982C41.9519 13.1648 41.5781 12.738 41.0234 12.738C40.3397 12.738 39.9949 13.1739 39.9949 14.038C39.9949 14.2722 39.9239 14.7029 39.8372 14.9952C38.162 20.6377 30.2896 19.8651 29.6327 13.9938C29.5089 12.8873 28.8813 12.4067 28.1309 12.8437ZM22.5704 24.8194C26.2061 29.8233 32.8908 32.1278 38.9002 30.4486C39.7562 30.2094 39.7305 30.1976 39.9346 30.9251C41.0902 35.0436 39.004 39.5972 35.0536 41.579C33.1934 42.5122 32.4566 42.5815 24.39 42.5815H17.9056L15.7654 43.9812C14.5882 44.751 13.1532 45.6977 12.5764 46.0849C11.9997 46.4721 11.4892 46.7889 11.4422 46.7889C11.395 46.7889 11.3268 45.9702 11.2907 44.9696C11.2057 42.6152 11.2259 42.6492 9.76007 42.4139C1.49216 41.0869 -0.894529 30.2859 6.04187 25.5868C8.17475 24.1418 8.97259 24.019 16.3289 24.0028L21.9682 23.9905L22.5704 24.8194ZM8.08913 27.5054C7.55459 28.04 7.75586 28.8769 8.46643 29.0742C8.93394 29.204 10.8749 29.2053 11.34 29.0762C12.0413 28.8814 12.2496 28.0305 11.7246 27.5054L11.4385 27.2194H9.90684H8.37514L8.08913 27.5054ZM15.3298 27.5054C14.7223 28.113 15.0529 28.9958 15.9366 29.1259C17.0412 29.2886 20.9848 29.1378 21.2739 28.9218C21.6328 28.6536 21.7639 28.2032 21.599 27.8051C21.3689 27.2495 21.1982 27.2194 18.2701 27.2194H15.6158L15.3298 27.5054ZM8.32729 32.4046C7.60753 32.695 7.63042 33.8522 8.36183 34.1547C8.56349 34.238 11.2882 34.2607 18.7842 34.2415L28.9337 34.2155L29.2028 33.9464C29.6031 33.546 29.5828 32.9736 29.1545 32.5911L28.8372 32.3075L18.6871 32.3137C13.1045 32.3171 8.44265 32.358 8.32729 32.4046ZM8.32455 37.5368C7.72122 37.8018 7.60165 38.579 8.08913 39.0665L8.37514 39.3525H13.6618C17.4068 39.3525 19.0199 39.32 19.193 39.2411C19.7589 38.9832 19.8641 38.127 19.3851 37.677L19.1378 37.4445L13.8863 37.4226C9.57543 37.4046 8.57925 37.425 8.32455 37.5368ZM24.2794 37.49C23.5314 37.7974 23.4744 38.9096 24.1898 39.2356C24.6022 39.4235 33.5521 39.4003 33.9195 39.2103C34.4737 38.9237 34.5473 38.1327 34.0622 37.677L33.8149 37.4445L29.1505 37.4248C26.5851 37.414 24.3931 37.4433 24.2794 37.49Z" fill="#111827" stroke="white" stroke-width="0.4" mask="url(#path-1-inside-1_1007_594)"/>
</svg>
