<svg width="40" height="41" viewBox="0 0 40 41" fill="none" xmlns="http://www.w3.org/2000/svg">
<path fill-rule="evenodd" clip-rule="evenodd" d="M29.5196 0.0705929C29.2978 0.198499 25.6996 5.07466 25.6339 5.33619C25.5812 5.54621 25.7487 6.01791 25.9137 6.12437C25.9719 6.16194 26.407 6.21024 26.8806 6.23177L27.7416 6.27091L27.7618 11.0654L27.782 15.8599L26.1963 15.8604C24.095 15.861 23.6717 16.0062 23.3549 16.8358C23.1706 17.3184 23.214 19.0151 23.4186 19.3273C23.5514 19.53 23.5514 19.548 23.4186 19.7507C23.2126 20.065 23.1707 21.7598 23.3568 22.2471C23.4792 22.5675 23.4798 22.6224 23.365 22.9593C23.2802 23.2082 23.2407 23.6061 23.2407 24.2105V25.0967H22.6927H22.1448V18.7562V12.4157H22.8532C23.9582 12.4157 24.4459 11.974 24.0904 11.2951C23.9416 11.0109 20.806 6.68124 20.551 6.40789C20.2739 6.11091 19.7999 6.05807 19.5138 6.2922C19.3473 6.42856 15.9859 10.9774 15.8169 11.2951C15.4519 11.9814 15.949 12.4157 17.0995 12.4157H17.8395V18.7562V25.0967L16.4892 25.0972C14.3124 25.0979 13.771 25.4523 13.7695 26.8776C13.7693 27.1035 13.7464 27.2885 13.7188 27.2885C13.6911 27.2885 13.4357 27.2217 13.1513 27.1399C12.8668 27.0583 12.5371 26.9695 12.4187 26.9428L12.2035 26.8942V22.9426V18.9911L12.8884 18.9909C13.9831 18.9907 14.5337 18.5413 14.2169 17.9063C14.0623 17.5966 10.7618 13.0293 10.5616 12.848C9.95643 12.3003 9.68512 12.5843 6.28183 17.3278C5.46845 18.4614 5.78297 18.9911 7.26947 18.9911H7.97647V20.1261C7.97647 21.4131 8.04042 21.5742 8.55142 21.5742C9.07001 21.5742 9.1115 21.4398 9.1115 19.759V18.2736L8.85585 18.0452C8.62172 17.8361 8.55103 17.8169 8.01436 17.8169C7.69217 17.8169 7.42892 17.7904 7.42939 17.7582C7.43048 17.6852 10.0065 14.1838 10.0775 14.1589C10.1363 14.1382 12.6205 17.5605 12.6593 17.7156C12.6782 17.7913 12.545 17.8169 12.1322 17.8169C11.6324 17.8169 11.5553 17.8387 11.3241 18.0452L11.0684 18.2736L11.0463 22.5418L11.0242 26.81L10.6549 26.8556C10.2769 26.9022 9.63792 27.0214 9.33091 27.1026L9.15894 27.1481L9.13522 25.3477C9.10853 23.3204 9.0805 23.2181 8.55142 23.2181C7.99017 23.2181 7.97647 23.2746 7.97647 25.5917V27.6523L7.43995 28.0188C4.18422 30.2434 3.65467 34.9619 6.3335 37.8785C8.57632 40.3204 12.3677 40.7267 15.0151 38.809L15.3581 38.5605L24.7984 38.5604C35.3811 38.5603 34.5178 38.6088 35.0159 37.9861C35.3164 37.6104 35.4224 35.8628 35.1828 35.2354C35.0701 34.9403 35.0695 34.8794 35.1765 34.6231C35.3467 34.2159 35.3438 32.4622 35.1724 32.1308C35.0605 31.9143 35.0605 31.8649 35.1724 31.5851C35.3429 31.1589 35.3448 29.4503 35.1753 29.0265C35.0674 28.7569 35.0673 28.7027 35.1748 28.4966C35.3436 28.1727 35.3442 26.396 35.1756 25.9746C35.0681 25.7058 35.0681 25.6459 35.1756 25.3885C35.3467 24.9791 35.3444 23.2267 35.1724 22.894C35.0605 22.6776 35.0605 22.6281 35.1724 22.3483C35.2612 22.1262 35.2955 21.7697 35.2955 21.0654C35.2955 20.3612 35.2612 20.0046 35.1724 19.7825C35.0597 19.5008 35.0602 19.4539 35.1782 19.2257C35.4078 18.7816 35.3185 16.9201 35.048 16.5118C34.7089 16.0001 34.4165 15.9032 33.1232 15.8737L32.0078 15.8484V11.0401V6.23177H32.8191C33.7977 6.23177 34.0448 6.08312 34.0408 5.49705C34.0388 5.19991 31.0359 0.841552 30.3842 0.18981C30.1942 -0.00024859 29.7488 -0.0616967 29.5196 0.0705929ZM31.166 3.1747C32.6971 5.30128 32.6324 5.13588 31.9327 5.13588C30.7583 5.13588 30.8336 4.7473 30.8336 10.8071V15.8599H29.8551H28.8767V10.7267V5.59349L28.6479 5.36468C28.4353 5.15208 28.3771 5.13588 27.8259 5.13588C27.4956 5.13588 27.2328 5.1023 27.2328 5.0601C27.2328 4.96327 29.814 1.4558 29.8824 1.45979C29.9104 1.46143 30.4881 2.2331 31.166 3.1747ZM21.3229 9.37924C22.0117 10.3329 22.587 11.1421 22.6014 11.1774C22.6158 11.2127 22.3933 11.2416 22.107 11.2416C21.5492 11.2416 21.3236 11.3188 21.1093 11.5834C20.9836 11.7386 20.974 12.219 20.9723 18.4235L20.9706 25.0967H19.9921H19.0137V18.4859C19.0137 13.8994 18.9877 11.8181 18.9287 11.6887C18.7893 11.3828 18.4601 11.2416 17.8861 11.2416C17.5932 11.2416 17.3698 11.2076 17.3698 11.1631C17.3698 11.0369 19.8948 7.64053 19.9868 7.64304C20.0328 7.64429 20.634 8.42558 21.3229 9.37924ZM34.1232 17.2349C34.2706 17.6224 34.2186 18.6589 34.043 18.8345C33.8627 19.0148 24.8955 19.0862 24.5662 18.91C24.3837 18.8123 24.3349 17.3019 24.5088 17.128C24.5798 17.0571 25.7564 17.0341 29.3248 17.0341H34.0469L34.1232 17.2349ZM34.0882 20.2809C34.259 20.5415 34.2238 21.8531 34.043 21.9673C33.8573 22.0846 24.6266 22.0679 24.5088 21.95C24.3459 21.7871 24.3826 20.27 24.5518 20.1715C24.6406 20.1198 26.3218 20.0909 29.325 20.0893L33.9611 20.087L34.0882 20.2809ZM34.1185 23.3695C34.2211 23.5612 34.2244 24.6298 34.1232 24.896C34.0475 25.0952 34.0403 25.0967 33.1553 25.0967C32.1059 25.0967 31.8512 25.2114 31.8512 25.6838C31.8512 26.1562 32.1059 26.2709 33.1553 26.2709C34.21 26.2709 34.1996 26.2607 34.1996 27.2936C34.1996 28.3141 34.6007 28.2279 29.8551 28.2279H25.8238V27.2494V26.2709H27.8093C30.0684 26.2709 30.2074 26.2369 30.2074 25.6838C30.2074 25.1097 30.141 25.0967 27.1988 25.0967C25.2839 25.0967 24.578 25.0721 24.5088 25.0028C24.4085 24.9025 24.3715 23.3658 24.467 23.2703C24.6182 23.119 34.0364 23.2159 34.1185 23.3695ZM24.6469 26.4223C24.8025 26.713 24.7484 27.8943 24.5714 28.0713C24.3488 28.2938 15.3308 28.3195 15.0864 28.0983C14.9124 27.9409 14.8724 26.5296 15.0371 26.3648C15.2226 26.1794 24.5467 26.2351 24.6469 26.4223ZM12.8688 28.2628C16.7497 29.5727 17.8978 34.3506 15.0253 37.2369C11.5856 40.6933 5.78704 38.3059 5.78704 33.4333C5.78704 29.7381 9.4077 27.0945 12.8688 28.2628ZM10.8442 29.486C10.6666 29.6257 10.6379 29.7073 10.6379 30.0731C10.6379 30.3725 10.6075 30.4979 10.5348 30.4979C9.24457 30.4979 8.37545 32.1394 9.09209 33.2224C9.48222 33.8118 9.88606 33.9726 11.0942 34.0192C12.2363 34.0633 12.4383 34.1536 12.4383 34.6197C12.4383 35.111 12.1878 35.1946 10.7162 35.1946C9.40011 35.1946 9.37522 35.1977 9.18626 35.3868C8.69052 35.8824 9.04136 36.3193 9.96567 36.3572L10.6379 36.3848V36.7936C10.6379 37.265 10.8503 37.5429 11.2104 37.5429C11.5577 37.5429 11.7338 37.2942 11.7338 36.8041V36.3784L12.0918 36.3247C13.2893 36.1451 13.9567 34.7455 13.329 33.7302C12.9007 33.0376 12.4389 32.8473 11.1838 32.8467C10.0864 32.8461 9.73992 32.5864 10.0463 31.994C10.2081 31.6811 10.2551 31.6721 11.7265 31.6721C13.195 31.6721 13.3776 31.6058 13.3776 31.0725C13.3776 30.6731 13.1465 30.5412 12.391 30.5094L11.7338 30.4819V30.0593C11.7338 29.3855 11.315 29.1156 10.8442 29.486ZM24.605 29.4467C24.7819 29.6237 24.7819 30.9807 24.605 31.1577C24.5031 31.2596 24.2606 31.2807 23.196 31.2807C21.7418 31.2807 21.5968 31.3328 21.5968 31.8556C21.5968 32.3569 21.7525 32.4126 23.2291 32.439C24.7826 32.4668 24.7279 32.4326 24.7279 33.3752C24.7279 34.4358 25.1085 34.3335 21.1636 34.3335H17.7612V33.4008V32.4679L18.6926 32.4419C19.7605 32.4119 19.953 32.3224 19.953 31.8556C19.953 31.3483 19.7876 31.2807 18.5463 31.2807H17.4529L17.1843 30.6995C17.0366 30.3799 16.8066 29.9596 16.6731 29.7656C16.5397 29.5716 16.4305 29.3929 16.4305 29.3684C16.4305 29.2464 24.4818 29.3237 24.605 29.4467ZM34.0882 29.5177C34.259 29.7783 34.2238 31.0899 34.043 31.2041C33.973 31.2484 32.2889 31.2788 29.8747 31.2795L25.8238 31.2807V30.3022V29.3237H29.8925H33.9611L34.0882 29.5177ZM34.1185 32.6062C34.2211 32.798 34.2244 33.8666 34.1232 34.1327L34.0469 34.3335H29.9354H25.8238V33.3942V32.4549H29.9307C33.9109 32.4549 34.04 32.4596 34.1185 32.6062ZM24.6469 35.6591C24.8025 35.9498 24.7484 37.1311 24.5714 37.3081C24.4195 37.4599 16.5088 37.5709 16.5088 37.4212C16.5088 37.3973 16.6454 37.1514 16.8122 36.8747C16.9791 36.5979 17.1946 36.1771 17.291 35.9396L17.4663 35.5077H21.0161C24.4455 35.5077 24.5686 35.5129 24.6469 35.6591ZM34.1232 35.7085C34.1652 35.8189 34.1996 36.1888 34.1996 36.5304C34.1996 37.5509 34.6007 37.4646 29.8551 37.4646H25.8238V36.4862V35.5077H29.9354H34.0469L34.1232 35.7085Z" fill="#111827"/>
</svg>
