<svg width="50" height="50" viewBox="0 0 50 50" fill="none" xmlns="http://www.w3.org/2000/svg">
<path fill-rule="evenodd" clip-rule="evenodd" d="M1.31683 11.0884C-0.0431329 11.5652 -0.001922 11.3053 0.000617062 19.3758C0.00296081 26.9384 -0.0160822 26.6865 0.597297 27.2504C1.18909 27.7945 0.498077 27.7677 13.9646 27.7677H26.3745L26.6142 27.528C26.9314 27.2109 26.9314 26.7621 26.6142 26.445L26.3745 26.2052H14.0849C4.65657 26.2052 1.7681 26.178 1.67816 26.0881C1.47718 25.8871 1.51234 12.8888 1.71439 12.6868C1.94954 12.4517 48.0474 12.4517 48.2825 12.6868C48.4846 12.8888 48.5198 25.8871 48.3188 26.0881C48.2335 26.1733 47.4917 26.2052 45.5931 26.2052H42.9846L42.7318 26.5057C42.3875 26.9148 42.4869 27.5398 42.9228 27.7071C43.3513 27.8716 48.4798 27.7657 48.8794 27.5842C50.0347 27.0594 50.0132 27.2238 49.9789 19.158L49.9496 12.2571L49.6567 11.8425C49.4955 11.6143 49.1879 11.3359 48.9731 11.2237L48.5825 11.0197L25.0961 11.0027C8.87562 10.9909 1.51917 11.0175 1.31683 11.0884ZM13.1135 16.3593C12.8759 16.4764 12.7733 16.68 12.0025 18.5629C11.7113 19.2741 11.4498 19.8563 11.4214 19.8568C11.3931 19.8572 11.0635 19.236 10.689 18.4762C9.62738 16.3221 9.26068 15.9665 8.68988 16.5373C8.36439 16.8628 8.45062 17.1345 9.62757 19.4922C10.8765 21.9941 11.0175 22.2013 11.4714 22.2013C11.956 22.2013 12.0662 22.048 12.7337 20.4459C13.0799 19.6146 13.4017 18.9218 13.4487 18.9061C13.4956 18.8904 13.8109 19.5567 14.1492 20.3868C14.8086 22.0047 14.943 22.2013 15.3897 22.2013C15.8853 22.2013 16.0313 21.9912 17.2797 19.4813C18.6079 16.811 18.6561 16.6152 18.0387 16.3981C17.472 16.1988 17.3181 16.3619 16.4022 18.1309C15.9345 19.0343 15.5203 19.7813 15.482 19.7911C15.4435 19.8009 15.1176 19.0948 14.7576 18.222C13.9699 16.312 13.7393 16.0508 13.1135 16.3593ZM24.7509 16.3382C24.4373 16.4638 24.3554 16.6092 23.7014 18.199C23.3622 19.0234 23.0337 19.715 22.9714 19.7357C22.9067 19.7573 22.5237 19.1059 22.0786 18.2171C21.0927 16.2482 20.7821 15.9685 20.2133 16.5373C19.8805 16.8701 19.9815 17.1777 21.2032 19.5542C22.5482 22.1704 22.5693 22.2013 23.0008 22.2013C23.4977 22.2013 23.6667 21.9624 24.3289 20.3229C24.6703 19.4778 24.9716 18.7864 24.9985 18.7864C25.0253 18.7864 25.3266 19.4778 25.668 20.3229C26.3302 21.9624 26.4992 22.2013 26.9961 22.2013C27.4277 22.2013 27.4488 22.1704 28.7938 19.5542C30.1583 16.8999 30.2553 16.342 29.3522 16.342C28.8953 16.342 28.7883 16.4794 27.9672 18.1193C27.4929 19.0667 27.0906 19.7574 27.0255 19.7357C26.9632 19.715 26.6335 19.0198 26.293 18.1909C25.5576 16.4008 25.3167 16.1114 24.7509 16.3382ZM36.2743 16.3373C35.9738 16.4591 35.9155 16.5649 35.2492 18.1974C34.9094 19.03 34.6007 19.7475 34.5631 19.7921C34.5255 19.8366 34.1138 19.1335 33.6483 18.2296C32.7539 16.493 32.6391 16.342 32.2134 16.342C31.939 16.342 31.5414 16.7258 31.5414 16.9907C31.5414 17.2567 33.981 21.9981 34.1699 22.0993C34.839 22.4574 35.1205 22.1711 35.8435 20.3974C36.1841 19.5615 36.5013 18.8904 36.5483 18.9061C36.5952 18.9218 36.917 19.6146 37.2632 20.4459C37.9307 22.048 38.0409 22.2013 38.5255 22.2013C38.9794 22.2013 39.1204 21.9941 40.3694 19.4922C41.7129 16.8007 41.7809 16.342 40.8362 16.342C40.4331 16.342 40.1979 16.6704 39.3079 18.4762C38.9334 19.236 38.6038 19.8572 38.5755 19.8568C38.5471 19.8563 38.2857 19.2741 37.9945 18.5629C37.0377 16.2259 36.9212 16.0751 36.2743 16.3373ZM29.2325 24.1525C28.9805 24.2555 28.7094 24.6212 28.7094 24.858C28.7094 25.1861 32.0362 35.9235 32.213 36.1662C32.7002 36.8347 33.2529 36.544 34.1867 35.1279C34.5184 34.6248 34.8379 34.2131 34.8966 34.2131C34.9553 34.2131 36.105 35.3117 37.4516 36.6545C40.4738 39.6681 39.9831 39.5711 42.0171 37.5578C44.2288 35.3685 44.2969 35.7634 41.1704 32.6513C39.9028 31.3895 38.8657 30.3077 38.8657 30.2472C38.8657 30.1868 39.2914 29.8568 39.8117 29.514C41.2005 28.5992 41.434 28.1961 40.8824 27.6651C40.4737 27.2718 29.6129 23.997 29.2325 24.1525ZM33.6236 26.7485C38.5377 28.2558 38.8657 28.3612 38.8648 28.4324C38.8643 28.4697 38.5458 28.6979 38.1571 28.9396C36.4782 29.9836 36.4415 29.8745 39.5004 32.9417C40.87 34.315 41.9907 35.4806 41.9907 35.5319C41.9907 35.6584 40.3117 37.3381 40.1853 37.3381C40.1301 37.3381 38.9897 36.2423 37.6511 34.9028C34.6289 31.8788 34.6506 31.887 33.6422 33.4023C33.3371 33.8607 33.0511 34.1977 33.0066 34.1511C32.924 34.0648 30.4672 26.0961 30.4672 25.9144C30.4672 25.773 30.2928 25.7269 33.6236 26.7485Z" fill="#111827"/>
</svg>
