<svg width="40" height="40" viewBox="0 0 40 40" fill="none" xmlns="http://www.w3.org/2000/svg">
<path fill-rule="evenodd" clip-rule="evenodd" d="M18.4649 2.30263C13.6141 3.18451 10.3799 7.93902 11.3608 12.7462C12.1088 16.4118 15.1068 19.2476 18.7781 19.7622L19.4595 19.8577L19.4386 21.6949L19.4176 23.5321L18.0526 24.2457C16.7962 24.9025 16.6811 24.9479 16.6045 24.8156C12.3504 17.4697 1.86853 19.1137 0.112995 27.4022C-0.150253 28.6451 0.0765177 31.246 0.483641 31.6539C0.839884 32.0108 1.51699 31.7016 1.43182 31.2211C1.41123 31.105 1.33311 30.6747 1.25828 30.2649C0.464619 25.9202 3.66188 21.7428 8.09444 21.333C15.1721 20.6786 19.2187 29.2015 14.2625 34.3237C13.544 35.0663 13.4683 35.0938 13.3978 34.6375C13.2643 33.7743 12.6959 33.0778 11.5574 32.3825C10.6799 31.8466 10.6061 31.6144 11.1865 31.2143C14.5445 28.8993 12.918 23.6052 8.84693 23.5992C4.80763 23.5932 3.10274 28.8216 6.3872 31.1425C7.0856 31.636 7.04724 31.7889 6.0712 32.4014C4.92074 33.1233 4.55354 33.5587 4.30094 34.5002C4.22572 34.7806 4.15503 35.0226 4.14376 35.0382C4.09241 35.1088 3.28043 34.3364 2.88208 33.8378C2.21546 33.0036 2.06478 32.9313 1.65906 33.251C0.789473 33.9364 3.40654 36.419 5.94431 37.316C12.3224 39.5706 18.8879 33.7663 17.4245 27.1669C17.3288 26.7355 17.2346 26.2943 17.2151 26.1865C17.1819 26.0029 17.2704 25.9435 18.6055 25.2537L20.0314 24.517L21.4651 25.2537C22.543 25.8076 22.8876 26.0196 22.854 26.108C21.7568 28.9969 22.576 32.6872 24.8422 35.0637C30.3094 40.7975 39.9581 36.9423 39.9935 29.01C40.0292 21.028 30.3341 17.1183 24.8269 22.8938C24.286 23.4611 23.4489 24.6098 23.4489 24.7847C23.4489 24.946 23.1012 24.812 21.9225 24.1967L20.67 23.5429L20.649 21.7015L20.6281 19.8603L21.3927 19.7338C28.0931 18.6246 31.112 10.6925 26.8397 5.42176C26.526 5.03471 26.1537 4.96655 25.8755 5.24529C25.6129 5.50843 25.6812 5.77886 26.1901 6.49063C28.4415 9.6398 28.1198 13.6821 25.3986 16.4344C24.7415 17.0989 24.6591 17.1255 24.601 16.6914C24.4876 15.8446 23.8974 15.12 22.7523 14.4218C21.8924 13.8975 21.8049 13.6572 22.3437 13.3C25.7575 11.0364 24.1366 5.64443 20.0407 5.63839C16.0021 5.63243 14.3021 10.9219 17.6093 13.2041C18.2613 13.654 18.2347 13.8401 17.449 14.326C16.1713 15.1163 15.6594 15.7216 15.4608 16.6767C15.3507 17.2058 15.3733 17.2136 14.5535 16.3629C11.9799 13.6924 11.6023 9.81086 13.6212 6.77871C15.782 3.53345 19.9732 2.41369 23.435 4.15674C24.2638 4.57408 24.5419 4.62074 24.7796 4.38255C25.879 3.28098 21.3283 1.78208 18.4649 2.30263ZM20.5615 6.81502C22.9541 7.26631 23.8822 10.2674 22.1506 11.9536C20.9281 13.1441 18.9081 13.1009 17.8188 11.8609C15.9065 9.68404 17.7538 6.28545 20.5615 6.81502ZM20.8657 14.1506C20.8657 14.5251 21.0447 14.7068 22.0212 15.3244C23.242 16.0966 23.4515 16.3711 23.5094 17.2741L23.5463 17.8502L22.9692 18.0902C21.0674 18.8811 18.804 18.8755 16.9982 18.0754L16.5604 17.8814V17.4182C16.5604 16.4729 16.8047 16.1168 17.9478 15.3961C19.067 14.6904 19.1436 14.6175 19.1436 14.2567V13.9622L20.0047 13.9637C20.8572 13.9653 20.8657 13.9671 20.8657 14.1506ZM32.2041 21.3644C38.4155 21.9546 41.0777 29.9951 36.5422 34.4664C35.8273 35.1712 35.882 35.168 35.7141 34.5149C35.4736 33.5796 35.093 33.1267 33.9381 32.4016C32.9621 31.7888 32.9237 31.6359 33.6221 31.1425C34.98 30.1829 35.6543 28.3364 35.2313 26.7355C34.9888 25.8177 33.8562 25.8043 34.0627 26.7216C34.9182 30.5208 30.0945 32.4802 28.4293 29.01C27.1786 26.4035 29.909 23.8804 32.6659 25.0953L33.0766 25.2763L33.2921 25.1156C34.1398 24.4839 32.9181 23.5968 31.2037 23.5992C27.0853 23.6049 25.4425 28.8793 28.8305 31.2192C29.4023 31.6141 29.326 31.8487 28.4519 32.3825C27.3135 33.0778 26.745 33.7743 26.6115 34.6375C26.541 35.0938 26.4653 35.0663 25.7468 34.3237C21.2791 29.7064 24.0777 21.9527 30.4374 21.3283C31.0685 21.2663 31.1988 21.269 32.2041 21.3644ZM9.9526 24.9408C11.4946 25.5189 12.2935 27.5135 11.5823 29.01C10.1743 31.9735 5.8755 31.0282 5.8755 27.7551C5.8755 25.5516 7.88395 24.1653 9.9526 24.9408ZM9.67198 32.1079C9.67198 32.4847 9.84732 32.6709 10.7052 33.2052C12.0191 34.0235 12.3334 34.4489 12.3334 35.4088V35.8189L11.7659 36.0549C9.88043 36.839 7.59707 36.8305 5.7962 36.0325L5.35002 35.8348L5.37797 35.2206C5.40121 34.7075 5.44176 34.552 5.62415 34.2759C5.85217 33.9306 5.95213 33.852 7.16709 33.0621C7.89632 32.588 7.91119 32.5723 7.93468 32.248L7.95863 31.9175L8.8153 31.9182C9.66799 31.919 9.67198 31.9199 9.67198 32.1079ZM32.0746 32.248C32.0981 32.5723 32.113 32.588 32.8422 33.0621C34.0572 33.852 34.1571 33.9306 34.3852 34.2759C34.5676 34.552 34.6081 34.7075 34.6314 35.2206L34.6593 35.8348L34.2131 36.0325C32.4123 36.8305 30.1289 36.839 28.2434 36.0549L27.6759 35.8189V35.4088C27.6759 34.4489 27.9903 34.0235 29.3041 33.2052C30.162 32.6709 30.3373 32.4847 30.3373 32.1079C30.3373 31.9199 30.3413 31.919 31.194 31.9182L32.0507 31.9175L32.0746 32.248Z" fill="#111827"/>
</svg>
