<svg width="40" height="40" viewBox="0 0 40 40" fill="none" xmlns="http://www.w3.org/2000/svg">
<path fill-rule="evenodd" clip-rule="evenodd" d="M18.1217 3.19842C18.4249 3.46919 18.4298 3.86731 18.1333 4.13217C17.9409 4.30411 17.8804 4.3172 17.0714 4.36206C9.98362 4.7552 4.35088 10.5916 4.34975 17.5437C4.34962 18.2707 3.65726 18.6043 3.20318 18.0962L3.0008 17.8697L3.04201 16.9678C3.3718 9.74271 9.00015 3.81733 16.2371 3.07626C17.4773 2.94931 17.8715 2.97483 18.1217 3.19842ZM17.9577 7.05724C18.1843 7.1556 18.3854 7.52122 18.343 7.75797C18.2715 8.15814 18.0096 8.29878 17.2363 8.35202C12.3303 8.68999 8.70825 12.3122 8.36709 17.2217C8.2991 18.1999 7.91826 18.579 7.35551 18.2285C7.04206 18.0334 6.98796 17.8346 7.03615 17.0553C7.34215 12.1074 10.9876 8.01438 15.8498 7.15946C16.5775 7.03152 17.7657 6.97389 17.9577 7.05724ZM32.6046 7.87886C33.5573 8.23544 35.6042 10.4876 36.2861 11.9296C37.4019 14.2888 37.3128 16.663 36.0136 19.1935C32.2469 26.5301 26.5184 32.317 19.4702 35.9053C17.7611 36.7755 16.9414 36.9968 15.4159 37C12.9693 37.005 11.4041 36.2952 9.28508 34.2197C7.79882 32.7639 7.54593 32.1517 8.02653 31.1728C8.30036 30.615 13.8878 25.0725 14.3525 24.8977C15.3632 24.5175 15.7653 24.7085 17.4431 26.3658C19.5597 28.4565 19.5044 28.4542 22.018 26.5551C22.9613 25.8424 23.1534 25.7871 23.4964 26.1301C23.9622 26.5959 23.7922 26.9027 22.5566 27.8262C20.6392 29.2593 20.0457 29.4941 19.0169 29.2261C18.3323 29.0478 18.1139 28.8845 16.7452 27.5272C15.3195 26.1135 15.1683 26.0065 14.8258 26.169C14.7085 26.2247 13.395 27.4901 11.907 28.9811C8.57618 32.3184 8.77125 31.8015 10.2816 33.2888C13.0078 35.9733 15.5432 36.399 18.8388 34.7256C25.6606 31.2616 31.4932 25.3321 34.8957 18.4019C36.4068 15.3241 35.8837 12.7453 33.2118 10.1008C32.1644 9.06418 32.0671 9.00689 31.731 9.22914C31.4927 9.38666 26.571 14.2896 26.3425 14.5971C25.9817 15.0825 25.993 15.1025 27.4689 16.5939C28.9233 18.0636 29.0212 18.1839 29.2099 18.7323C29.5759 19.7962 29.2482 20.7385 27.9033 22.4893C27.3692 23.1844 26.5486 23.0805 26.5486 22.3177C26.5486 22.0919 26.582 22.0339 27.2651 21.0751C28.3942 19.4904 28.3633 19.3561 26.4188 17.3952C24.7749 15.7376 24.5934 15.3702 24.92 14.3634C25.0676 13.9087 30.5623 8.32012 31.1678 8.00887C31.5685 7.80283 32.2393 7.74215 32.6046 7.87886ZM18.0178 11.105C18.6876 11.5278 18.3576 12.2676 17.4643 12.3457C14.5622 12.5995 12.6141 14.5476 12.3603 17.4497C12.2823 18.3417 11.5347 18.6765 11.1241 18.0032C10.5999 17.1436 11.5667 14.4198 12.8814 13.0525C14.244 11.6351 17.1264 10.5423 18.0178 11.105ZM17.9606 15.0694C18.6715 15.3783 18.4009 16.2254 17.5469 16.3644C16.8463 16.4783 16.493 16.8317 16.379 17.5323C16.238 18.3985 15.385 18.6586 15.0799 17.9283C14.542 16.641 16.6845 14.5148 17.9606 15.0694ZM25.7045 24.1129C25.9323 24.3407 25.9858 24.6111 25.8538 24.8664C25.5144 25.5227 24.6078 25.2992 24.6078 24.5592C24.6078 24.0145 25.3174 23.7258 25.7045 24.1129Z" fill="#111827"/>
</svg>
