<svg width="52" height="50" viewBox="0 0 52 50" fill="none" xmlns="http://www.w3.org/2000/svg">
<path fill-rule="evenodd" clip-rule="evenodd" d="M2.88237 0.160576C1.50317 0.652178 0.488617 2.82396 1.27221 3.60755C1.84868 4.18401 2.4142 3.85462 2.54545 2.86595C2.64067 2.14905 2.82182 1.84241 3.27797 1.62591C3.84194 1.35833 21.9399 1.38187 22.4639 1.65091C23.1811 2.01907 23.168 1.92942 23.1676 6.50921C23.1671 12.0193 23.5607 11.5225 19.1934 11.5256C15.1593 11.5284 15.7074 11.2331 13.866 14.3965C13.3682 15.2516 12.9175 15.9638 12.8643 15.9792C12.8112 15.9947 12.3501 15.277 11.8399 14.3844C10.0449 11.2444 10.5717 11.5284 6.53715 11.5256C2.37241 11.5227 2.56352 11.6617 2.56293 8.63274C2.56244 6.15413 2.47133 5.8594 1.70522 5.8594C1.08549 5.8594 1.04887 6.01126 1.04887 8.57981C1.04887 11.5076 1.28696 12.0954 2.75131 12.7822L3.29496 13.0371L6.34145 13.0699L9.38793 13.1027L10.3811 14.8277C11.8458 17.3717 11.8399 17.3633 12.307 17.5906C13.278 18.0629 13.6445 17.748 15.1539 15.1438L16.3368 13.1027L19.3862 13.0681C22.8896 13.0283 23.0663 12.991 23.8805 12.1205C24.6837 11.2618 24.6817 11.2767 24.6817 6.44534C24.6817 1.3469 24.6186 1.09769 23.128 0.311162L22.6309 0.0488577L12.9629 0.0311819C4.56879 0.0158499 3.24057 0.0329398 2.88237 0.160576ZM5.04838 4.34134C4.74077 4.64886 4.735 5.07259 5.03461 5.35413L5.26069 5.56644H12.8789H20.4972L20.7096 5.34046C20.9913 5.04056 20.9802 4.63939 20.6822 4.34134L20.4425 4.10159H12.8653H5.28803L5.04838 4.34134ZM5.02094 8.03851C4.7393 8.33841 4.75034 8.73958 5.04838 9.03763L5.28803 9.27737H9.20317H13.1183L13.358 9.03763C13.6656 8.73011 13.6713 8.30638 13.3717 8.02483C13.1473 7.81409 13.1169 7.81253 9.1895 7.81253H5.23334L5.02094 8.03851ZM24.9402 13.9638C22.9698 14.6758 21.9961 16.1868 21.9961 18.5328C21.9961 19.6537 22.0555 19.8419 22.4627 20.0106C23.1822 20.3086 23.4245 19.9374 23.4792 18.4537C23.5372 16.8837 23.9631 16.0849 25.0534 15.5022L25.4629 15.2832H36.4981H47.5332L48.0585 15.5742C48.6841 15.9206 49.1888 16.5449 49.3893 17.2201C49.6134 17.9747 49.6053 28.5371 49.38 29.2956C49.0496 30.4086 47.8379 31.2494 46.5633 31.2504C45.9513 31.2508 45.4929 31.5098 45.2675 31.9824C45.1164 32.2992 45.4457 34.9182 45.794 36.1688C45.8828 36.4876 45.6958 36.3283 43.1847 33.9441C40.1227 31.0369 40.534 31.25 37.9847 31.25C35.8147 31.25 35.663 31.2787 35.4784 31.7245C35.1365 32.55 35.5312 32.7149 37.8493 32.7149H39.7216L41.1953 34.1065C42.0057 34.8718 43.4009 36.1903 44.2956 37.0362C46.1909 38.8279 46.4551 38.9395 47.1524 38.2422C47.5842 37.8104 47.582 37.6877 47.0938 35.0098C46.8789 33.8312 46.7032 32.8389 46.7032 32.8046C46.7032 32.7702 46.9338 32.718 47.2159 32.6884C48.7313 32.5295 50.1329 31.4501 50.7322 29.9805C51.0267 29.2583 51.1312 18.046 50.8536 16.9622C50.5415 15.7443 49.7287 14.7536 48.5726 14.1823L47.8365 13.8184L36.6497 13.7966C25.8056 13.7756 25.4469 13.7807 24.9402 13.9638ZM26.033 18.406C25.6295 18.6885 25.705 19.4949 26.1509 19.6659C26.5934 19.8358 46.7763 19.7289 46.985 19.5557C47.3239 19.2743 47.3575 18.8095 47.0603 18.5123L46.8097 18.2617H36.5243C27.612 18.2617 26.2114 18.281 26.033 18.406ZM5.19848 22.0678C3.15385 22.3319 1.53119 23.8024 1.10825 25.7746C0.927093 26.6194 0.960394 39.0646 1.14575 39.7761C1.66713 41.7779 3.57231 43.3531 5.47836 43.3582C5.87016 43.3593 5.89985 43.3769 5.85092 43.5791C5.59819 44.6249 4.90825 48.9077 4.95688 49.129C5.10151 49.7876 6.04194 50.2067 6.62993 49.8745C6.74536 49.8093 8.01977 48.6344 9.46196 47.2637C10.904 45.8929 12.4223 44.4537 12.8358 44.0655L13.5875 43.3594H21.4823C30.0957 43.3594 29.9545 43.3678 31.0195 42.7947C32.2474 42.1339 33.2391 40.6727 33.42 39.2578C33.5425 38.2984 33.5414 27.1195 33.4186 26.173C33.1367 23.9995 31.4191 22.3221 29.2164 22.0689C28.2701 21.9601 6.04037 21.959 5.19848 22.0678ZM36.0054 23.0913C35.6978 23.3989 35.692 23.8226 35.9916 24.1041L36.2177 24.3164H41.551H46.8843L47.0944 24.0494C47.3465 23.7288 47.2991 23.2832 46.985 23.0225C46.7946 22.8644 46.3848 22.8516 41.5121 22.8516H36.2451L36.0054 23.0913ZM30.1716 23.8526C30.8186 24.1936 31.2987 24.6737 31.6397 25.3206L31.9082 25.8301L31.9352 32.5334C31.9622 39.208 31.9614 39.2392 31.75 39.8038C31.4814 40.5219 30.8352 41.2217 30.1138 41.576L29.5645 41.8457L21.3614 41.8946C13.8568 41.9392 13.1323 41.9576 12.8527 42.1107C12.5876 42.2558 9.50942 45.1163 7.37495 47.2011C6.98715 47.5799 6.65161 47.8702 6.62924 47.8463C6.60688 47.8224 6.77885 46.7701 7.01127 45.5078C7.60522 42.2828 7.48832 41.9891 5.5602 41.8622C4.30102 41.7794 3.30815 41.0981 2.76772 39.9459L2.51371 39.4043V32.7149V26.0254L2.7978 25.4102C3.14047 24.6681 3.81791 24.0204 4.54516 23.7398C5.04467 23.5469 5.24868 23.5442 17.3575 23.5639L29.6622 23.584L30.1716 23.8526ZM6.96596 27.5472C6.26264 27.8305 6.33696 28.7751 7.0767 28.9555C7.79467 29.1305 27.5451 28.9524 27.7476 28.7691C28.0271 28.5161 28.0271 27.9292 27.7476 27.6763C27.5136 27.4645 7.48022 27.3401 6.96596 27.5472ZM6.67123 32.3863C6.40268 32.7276 6.41557 33.0612 6.70854 33.354L6.94819 33.5938H17.1934C28.7789 33.5938 27.9532 33.6505 27.9532 32.8542C27.9532 32.0666 28.8748 32.1289 17.2181 32.1289H6.87358L6.67123 32.3863ZM6.70854 36.9585C6.41557 37.2514 6.40268 37.585 6.67123 37.9263L6.87358 38.1836H12.2305H17.5874L17.7975 37.9166C18.0497 37.596 18.0022 37.1504 17.6881 36.8897C17.4977 36.7316 17.0879 36.7188 12.2153 36.7188H6.94819L6.70854 36.9585Z" fill="#111827"/>
</svg>
